<svg width="19" height="20" viewBox="0 0 19 20" fill="none" xmlns="http://www.w3.org/2000/svg">
<path d="M1.9 15.2H3.8V19.077L8.64595 15.2H13.3C14.3478 15.2 15.2 14.3479 15.2 13.3V5.70005C15.2 4.6522 14.3478 3.80005 13.3 3.80005H1.9C0.85215 3.80005 0 4.6522 0 5.70005V13.3C0 14.3479 0.85215 15.2 1.9 15.2Z" fill="white"/>
<path d="M17.0998 0H5.6998C4.65195 0 3.7998 0.85215 3.7998 1.9H15.1998C16.2477 1.9 17.0998 2.75215 17.0998 3.8V11.4C18.1477 11.4 18.9998 10.5478 18.9998 9.5V1.9C18.9998 0.85215 18.1477 0 17.0998 0Z" fill="white"/>
</svg>
