<svg width="20" height="15" viewBox="0 0 20 15" fill="none" xmlns="http://www.w3.org/2000/svg">
<path d="M6 7.5C7.93437 7.5 9.5 5.82254 9.5 3.75C9.5 1.67746 7.93437 0 6 0C4.06563 0 2.5 1.67746 2.5 3.75C2.5 5.82254 4.06563 7.5 6 7.5ZM8.4 8.57143H8.14062C7.49062 8.90625 6.76875 9.10714 6 9.10714C5.23125 9.10714 4.5125 8.90625 3.85938 8.57143H3.6C1.6125 8.57143 0 10.2991 0 12.4286V13.3929C0 14.2801 0.671875 15 1.5 15H10.5C11.3281 15 12 14.2801 12 13.3929V12.4286C12 10.2991 10.3875 8.57143 8.4 8.57143ZM15 7.5C16.6562 7.5 18 6.06027 18 4.28571C18 2.51116 16.6562 1.07143 15 1.07143C13.3438 1.07143 12 2.51116 12 4.28571C12 6.06027 13.3438 7.5 15 7.5ZM16.5 8.57143H16.3813C15.9469 8.73214 15.4875 8.83929 15 8.83929C14.5125 8.83929 14.0531 8.73214 13.6187 8.57143H13.5C12.8625 8.57143 12.275 8.76897 11.7594 9.08705C12.5219 9.96763 13 11.1362 13 12.4286V13.7143C13 13.7879 12.9844 13.8583 12.9812 13.9286H18.5C19.3281 13.9286 20 13.2087 20 12.3214C20 10.2489 18.4344 8.57143 16.5 8.57143Z" fill="#9B32ED"/>
</svg>
