<svg width="19" height="22" viewBox="0 0 19 22" fill="none" xmlns="http://www.w3.org/2000/svg">
<path d="M18.193 9.95617C17.6691 8.88176 16.9074 7.91742 15.9557 7.12349L15.1703 6.46695C15.1436 6.44527 15.1115 6.42989 15.0768 6.42215C15.0421 6.4144 15.0058 6.41455 14.9712 6.42256C14.9366 6.43057 14.9046 6.44621 14.8781 6.46809C14.8517 6.48998 14.8315 6.51745 14.8194 6.5481L14.4686 7.46528C14.25 8.04067 13.8479 8.62835 13.2784 9.2062C13.2406 9.24308 13.1974 9.25292 13.1677 9.25538C13.1381 9.25784 13.0922 9.25292 13.0517 9.21849C13.0139 9.18899 12.995 9.14472 12.9977 9.10046C13.0976 7.62019 12.6118 5.95058 11.5484 4.13343C10.6686 2.62365 9.44601 1.44582 7.91846 0.624539L6.80383 0.0270191C6.65809 -0.0516666 6.47187 0.0516082 6.47997 0.206521L6.53934 1.38681C6.57982 2.19333 6.47727 2.90642 6.23437 3.49903C5.93749 4.22441 5.51107 4.89816 4.9659 5.50305C4.58651 5.92344 4.15649 6.30368 3.68394 6.63662C2.54585 7.43372 1.62043 8.45508 0.976988 9.62422C0.335128 10.8035 0.000783104 12.102 0 13.4183C0 14.579 0.250994 15.7027 0.747584 16.7625C1.22708 17.7829 1.91905 18.7089 2.78522 19.4894C3.65966 20.2763 4.67443 20.8959 5.80525 21.3263C6.97656 21.7738 8.21803 22 9.49999 22C10.7819 22 12.0234 21.7738 13.1947 21.3287C14.3228 20.9009 15.3485 20.277 16.2148 19.4919C17.0892 18.705 17.7747 17.7854 18.2524 16.7649C18.7482 15.708 19.0026 14.5702 19 13.4208C19 12.2208 18.7301 11.0553 18.193 9.95617Z" fill="white"/>
</svg>
