<svg width="19" height="18" viewBox="0 0 19 18" fill="none" xmlns="http://www.w3.org/2000/svg">
<path d="M9.50039 6.6499C7.95569 6.6499 6.65039 7.9552 6.65039 9.4999C6.65039 11.0446 7.95569 12.3499 9.50039 12.3499C11.0451 12.3499 12.3504 11.0446 12.3504 9.4999C12.3504 7.9552 11.0451 6.6499 9.50039 6.6499Z" fill="white"/>
<path d="M17.1 2.85H14.6433L12.0716 0.278351C11.9836 0.189961 11.8789 0.119862 11.7636 0.0720911C11.6484 0.0243201 11.5248 -0.000179977 11.4 9.9529e-07H7.6C7.47522 -0.000179977 7.35164 0.0243201 7.23637 0.0720911C7.1211 0.119862 7.01642 0.189961 6.92835 0.278351L4.3567 2.85H1.9C0.85215 2.85 0 3.70215 0 4.75V15.2C0 16.2479 0.85215 17.1 1.9 17.1H17.1C18.1479 17.1 19 16.2479 19 15.2V4.75C19 3.70215 18.1479 2.85 17.1 2.85ZM9.5 14.25C6.9255 14.25 4.75 12.0745 4.75 9.5C4.75 6.9255 6.9255 4.75 9.5 4.75C12.0745 4.75 14.25 6.9255 14.25 9.5C14.25 12.0745 12.0745 14.25 9.5 14.25Z" fill="white"/>
</svg>
