<svg width="20" height="21" viewBox="0 0 20 21" fill="none" xmlns="http://www.w3.org/2000/svg">
<path d="M8.40375 0.103447C8.50632 0.03599 8.62679 0 8.75 0C8.87321 0 8.99368 0.03599 9.09625 0.103447C11.4561 1.67562 14.1461 2.69819 16.9637 3.09414C17.1126 3.11525 17.2488 3.1887 17.3473 3.30102C17.4458 3.41333 17.5 3.55699 17.5 3.70562V9.38806C16.0976 8.6802 14.4919 8.46955 12.9512 8.79133C11.4106 9.1131 10.0284 9.9478 9.03576 11.1559C8.04313 12.3639 7.50022 13.8721 7.49781 15.4283C7.49539 16.9845 8.03362 18.4943 9.0225 19.7054L8.975 19.7239C8.8302 19.7791 8.6698 19.7791 8.525 19.7239C2.885 17.5782 0 14.0699 0 9.26453V3.70562C2.28144e-05 3.5568 0.0544125 3.413 0.153166 3.30065C0.25192 3.18831 0.388398 3.11497 0.5375 3.09414C3.35471 2.69801 6.04429 1.67545 8.40375 0.103447ZM20 15.4411C20 13.9668 19.4074 12.5528 18.3525 11.5104C17.2976 10.4679 15.8668 9.88218 14.375 9.88218C12.8832 9.88218 11.4524 10.4679 10.3975 11.5104C9.34263 12.5528 8.75 13.9668 8.75 15.4411C8.75 16.9154 9.34263 18.3293 10.3975 19.3718C11.4524 20.4143 12.8832 21 14.375 21C15.8668 21 17.2976 20.4143 18.3525 19.3718C19.4074 18.3293 20 16.9154 20 15.4411ZM17.3175 13.1508C17.3757 13.2082 17.4219 13.2764 17.4534 13.3514C17.4849 13.4264 17.5011 13.5069 17.5011 13.5881C17.5011 13.6694 17.4849 13.7498 17.4534 13.8249C17.4219 13.8999 17.3757 13.968 17.3175 14.0254L13.5675 17.7314C13.5094 17.7889 13.4405 17.8345 13.3645 17.8657C13.2886 17.8968 13.2072 17.9128 13.125 17.9128C13.0428 17.9128 12.9614 17.8968 12.8855 17.8657C12.8095 17.8345 12.7406 17.7889 12.6825 17.7314L11.4325 16.496C11.3151 16.3801 11.2492 16.2228 11.2492 16.0587C11.2492 15.8947 11.3151 15.7374 11.4325 15.6214C11.5499 15.5055 11.709 15.4403 11.875 15.4403C12.041 15.4403 12.2001 15.5055 12.3175 15.6214L13.125 16.4207L16.4325 13.1508C16.4906 13.0933 16.5595 13.0477 16.6355 13.0165C16.7114 12.9854 16.7928 12.9694 16.875 12.9694C16.9572 12.9694 17.0386 12.9854 17.1145 13.0165C17.1905 13.0477 17.2594 13.0933 17.3175 13.1508Z" fill="white"/>
</svg>
