<svg width="18" height="18" viewBox="0 0 18 18" fill="none" xmlns="http://www.w3.org/2000/svg">
<path d="M15.3641 15.3637C16.0033 14.7249 16.0033 13.6885 15.3641 13.0497L15.227 12.9127C15.6625 12.2217 15.9873 11.4557 16.1739 10.6363H16.3636C17.2673 10.6363 18 9.90363 18 8.99995C18 8.09627 17.2673 7.36358 16.3636 7.36358H16.1739C15.9873 6.54423 15.6625 5.77815 15.227 5.0872L15.3641 4.95015C16.0033 4.31136 16.0033 3.27503 15.3641 2.63623C14.7249 1.99703 13.6894 1.99703 13.0502 2.63623L12.9131 2.77328C12.2224 2.33749 11.4561 2.01288 10.6364 1.82593V1.63636C10.6364 0.732682 9.90368 0 9 0C8.09632 0 7.36364 0.732682 7.36364 1.63636V1.82593C6.54387 2.01288 5.77759 2.33749 5.08689 2.77333L4.94985 2.63628C4.31064 1.99708 3.27513 1.99708 2.63593 2.63628C1.99672 3.27508 1.99672 4.31141 2.63593 4.9502L2.77297 5.08725C2.33749 5.7782 2.01268 6.54428 1.82613 7.36364H1.63636C0.732682 7.36364 0 8.09632 0 9C0 9.90368 0.732682 10.6364 1.63636 10.6364H1.82613C2.01268 11.4557 2.33749 12.2218 2.77297 12.9128L2.63593 13.0498C1.99672 13.6886 1.99672 14.7249 2.63593 15.3637C2.95553 15.6833 3.37423 15.8431 3.79289 15.8431C4.21154 15.8431 4.63024 15.6833 4.94985 15.3637L5.08689 15.2267C5.77764 15.6625 6.54387 15.9871 7.36364 16.1741V16.3636C7.36364 17.2673 8.09632 18 9 18C9.90368 18 10.6364 17.2673 10.6364 16.3636V16.1741C11.4561 15.9871 12.2224 15.6625 12.9131 15.2267L13.0502 15.3637C13.3698 15.6833 13.7885 15.8431 14.2071 15.8431C14.6258 15.8431 15.0445 15.6833 15.3641 15.3637ZM9 13.0909C6.74443 13.0909 4.90909 11.2556 4.90909 9C4.90909 6.74443 6.74443 4.90909 9 4.90909C11.2556 4.90909 13.0909 6.74443 13.0909 9C13.0909 11.2556 11.2556 13.0909 9 13.0909Z" fill="white"/>
<path d="M9.00044 11.4547C10.3561 11.4547 11.455 10.3558 11.455 9.0002C11.455 7.64459 10.3561 6.54565 9.00044 6.54565C7.64484 6.54565 6.5459 7.64459 6.5459 9.0002C6.5459 10.3558 7.64484 11.4547 9.00044 11.4547Z" fill="white"/>
</svg>
