<svg width="113" height="31" viewBox="0 0 113 31" fill="none" xmlns="http://www.w3.org/2000/svg">
<path d="M16.4925 12.957C15.6048 12.957 14.904 13.7201 14.904 14.6701C14.904 15.6201 15.6204 16.3832 16.4925 16.3832C17.3801 16.3832 18.0809 15.6201 18.0809 14.6701C18.0809 13.7201 17.3646 12.957 16.4925 12.957ZM10.8082 12.957C9.92053 12.957 9.21973 13.7201 9.21973 14.6701C9.21973 15.6201 9.9361 16.3832 10.8082 16.3832C11.6959 16.3832 12.3967 15.6201 12.3967 14.6701C12.4123 13.7201 11.6959 12.957 10.8082 12.957Z" fill="white"/>
<path d="M24.0608 0H3.19253C1.43275 0 0 1.43275 0 3.19253V24.0608C0 25.8206 1.43275 27.2533 3.19253 27.2533H20.8527L20.0273 24.4034L22.0207 26.241L23.905 27.9697L27.2689 30.8819V3.19253C27.2533 1.43275 25.8206 0 24.0608 0ZM18.0495 20.1674C18.0495 20.1674 17.4888 19.4978 17.0216 18.9216C19.0617 18.3454 19.8404 17.0839 19.8404 17.0839C19.2019 17.5044 18.5945 17.8003 18.0495 18.0028C17.2708 18.3298 16.5233 18.5323 15.7913 18.6724C14.2963 18.9527 12.9259 18.8749 11.7579 18.6568C10.8702 18.4855 10.1071 18.2519 9.46858 17.9872C9.11039 17.847 8.72106 17.6757 8.33173 17.4577C8.28501 17.4265 8.23829 17.411 8.19157 17.3798C8.16042 17.3643 8.14485 17.3487 8.12927 17.3487C7.84895 17.1929 7.69322 17.0839 7.69322 17.0839C7.69322 17.0839 8.44074 18.3142 10.4186 18.906C9.95135 19.4978 9.37514 20.183 9.37514 20.183C5.93343 20.074 4.62528 17.8314 4.62528 17.8314C4.62528 12.8636 6.86783 8.83007 6.86783 8.83007C9.11039 7.16373 11.2284 7.21045 11.2284 7.21045L11.3841 7.39733C8.5809 8.19157 7.30389 9.42186 7.30389 9.42186C7.30389 9.42186 7.6465 9.23498 8.22271 8.98581C9.88906 8.25386 11.2128 8.06698 11.7579 8.00469C11.8513 7.98911 11.9292 7.97354 12.0226 7.97354C12.9726 7.84895 14.0471 7.81781 15.1684 7.94239C16.6479 8.1137 18.2364 8.54975 19.856 9.42186C19.856 9.42186 18.6257 8.25386 15.9782 7.45962L16.1963 7.21045C16.1963 7.21045 18.3298 7.16373 20.5568 8.83007C20.5568 8.83007 22.7993 12.8636 22.7993 17.8314C22.7993 17.8159 21.4912 20.0584 18.0495 20.1674ZM41.5652 6.66538H36.3949V12.4742L39.8366 15.5733V9.93578H41.6742C42.8422 9.93578 43.4184 10.4964 43.4184 11.3997V15.7135C43.4184 16.6167 42.8734 17.2241 41.6742 17.2241H36.3793V20.5101H41.5496C44.3217 20.5256 46.9224 19.1396 46.9224 15.9627V11.3218C46.938 8.08255 44.3372 6.66538 41.5652 6.66538ZM68.6628 15.9627V11.1972C68.6628 9.48415 71.7463 9.09482 72.6807 10.8079L75.5306 9.65546C74.4093 7.19487 72.3692 6.4785 70.6717 6.4785C67.8997 6.4785 65.1588 8.08255 65.1588 11.1972V15.9627C65.1588 19.1085 67.8997 20.6814 70.6094 20.6814C72.3536 20.6814 74.4405 19.8248 75.5929 17.5823L72.5405 16.1807C71.793 18.0962 68.6628 17.629 68.6628 15.9627ZM59.2409 11.8513C58.1663 11.6177 57.45 11.2284 57.4033 10.5587C57.4656 8.95466 59.9417 8.89237 61.39 10.4341L63.6793 8.67434C62.2466 6.93013 60.6269 6.46293 58.9606 6.46293C56.4221 6.46293 53.9616 7.89567 53.9616 10.6054C53.9616 13.2373 55.9861 14.6545 58.2131 14.9971C59.3499 15.1528 60.6114 15.6045 60.5802 16.3831C60.4868 17.8626 57.4344 17.7847 56.0484 16.1028L53.837 18.1741C55.1296 19.8404 56.8893 20.6814 58.5401 20.6814C61.0786 20.6814 63.8973 19.2175 64.0063 16.5389C64.1621 13.1595 61.7015 12.3029 59.2409 11.8513ZM48.8068 20.4945H52.2952V6.66538H48.8068V20.4945ZM107.627 6.66538H102.457V12.4742L105.899 15.5733V9.93578H107.736C108.904 9.93578 109.48 10.4964 109.48 11.3997V15.7135C109.48 16.6167 108.935 17.2241 107.736 17.2241H102.441V20.5101H107.627C110.399 20.5256 113 19.1396 113 15.9627V11.3218C113 8.08255 110.399 6.66538 107.627 6.66538ZM82.2583 6.4785C79.3928 6.4785 76.5429 8.03583 76.5429 11.2284V15.9471C76.5429 19.1085 79.4083 20.6969 82.2894 20.6969C85.1549 20.6969 88.0048 19.1085 88.0048 15.9471V11.2284C88.0048 8.05141 85.1238 6.4785 82.2583 6.4785ZM84.5008 15.9471C84.5008 16.9438 83.3796 17.4577 82.2738 17.4577C81.1526 17.4577 80.0313 16.9749 80.0313 15.9471V11.2284C80.0313 10.2161 81.1214 9.67103 82.2115 9.67103C83.3484 9.67103 84.5008 10.1538 84.5008 11.2284V15.9471ZM100.526 11.2284C100.448 7.98911 98.2365 6.68095 95.3866 6.68095H89.8581V20.5101H93.3932V16.1184H94.0161L97.2242 20.5101H101.585L97.816 15.7602C99.4824 15.2307 100.526 13.7824 100.526 11.2284ZM95.4489 13.0972H93.3932V9.93578H95.4489C97.6447 9.93578 97.6447 13.0972 95.4489 13.0972Z" fill="white"/>
</svg>
