<svg id="Layer_1" data-name="Layer 1" xmlns="http://www.w3.org/2000/svg" viewBox="0 0 375.63 373.38"><defs><style>.cls-1{fill:#27b2fd;}.cls-1,.cls-4,.cls-5,.cls-6{fill-rule:evenodd;}.cls-2{fill:#b08fc9;}.cls-3{fill:#f1f2f2;}.cls-4{fill:#fee222;}.cls-5{fill:#f31625;}.cls-6{fill:#a6cf33;}</style></defs><path class="cls-1" d="M570.21,520.55h16v-16a2.14,2.14,0,0,1,2.13-2.14h13.28a2.14,2.14,0,0,1,2.14,2.14v16h16a2.14,2.14,0,0,1,2.14,2.14V536a2.14,2.14,0,0,1-2.14,2.13h-16v16a2.14,2.14,0,0,1-2.14,2.14H588.31a2.14,2.14,0,0,1-2.13-2.14v-16h-16a2.14,2.14,0,0,1-2.13-2.13V522.69a2.14,2.14,0,0,1,2.13-2.14" transform="translate(-352.02 -353.77)"/><path class="cls-2" d="M534.63,446.09H699.69s30.81,3.65,26.11,51.18l.24,55.58c.1,22.08,8.31,62.13-13.24,75.57-9.79,6.1-21.39,8.79-32.91,9.46-14,.82-27.86-2-41.86-1.46-7.6.29-3.63,20.2-3.63,25.19,0,19.69,4.5,43.4-12.58,57.64-10.89,9.09-23.1,7.84-36.22,7.84H471.44s-21.42-2.61-25.6-27.68V651.88h46v31.86h97.67V642.3c0-17.06-5.73-42.09,15.06-48.69,7.09-2.25,14.71-1.9,22.13-1.42,17.93,1.18,36.18.14,54.21.14V492.05H535.16" transform="translate(-352.02 -353.77)"/><path class="cls-3" d="M352.09,483.43V597s-3.14,36,34.47,39.18H514.64c9.36,0,19.28,2.42,28.18-1.57,6.57-2.94,11.34-9,14.19-15.62,7.29-16.9,5.58-36,5.74-54,.09-10.61,1-24.73-6.64-33C541.49,516.33,518.81,521,499.69,521H434.35v43.87h83V590H396.74V491.27h72.87s18.41,2,21.15-19.59V399.6h97.15v32.51h47.4v-49s-2-22.33-31.34-29.38H476.27s-26,6.26-30.43,31.34v61H384.6S355.61,451.7,352.09,483.43Z" transform="translate(-352.02 -353.77)"/><path class="cls-1" d="M625.22,547.5a8.78,8.78,0,1,1-8.74,8.81,8.77,8.77,0,0,1,8.74-8.81" transform="translate(-352.02 -353.77)"/><path class="cls-4" d="M634.52,538.12a8.78,8.78,0,1,1,8.81,8.74,8.77,8.77,0,0,1-8.81-8.74" transform="translate(-352.02 -353.77)"/><path class="cls-5" d="M661.45,547.35a8.78,8.78,0,1,1-8.74,8.81,8.78,8.78,0,0,1,8.74-8.81" transform="translate(-352.02 -353.77)"/><path class="cls-6" d="M634.67,574.35a8.78,8.78,0,1,1,8.81,8.74,8.78,8.78,0,0,1-8.81-8.74" transform="translate(-352.02 -353.77)"/></svg>