<svg xmlns="http://www.w3.org/2000/svg" xmlns:xlink="http://www.w3.org/1999/xlink" viewBox="0 0 562.22 495.61"><defs><style>.cls-1{mask:url(#mask);}.cls-10,.cls-12,.cls-14,.cls-16,.cls-18,.cls-2,.cls-20,.cls-22,.cls-24,.cls-26,.cls-4,.cls-6,.cls-62,.cls-72,.cls-74,.cls-75,.cls-8,.cls-82{mix-blend-mode:multiply;}.cls-2{fill:url(#linear-gradient);}.cls-3{mask:url(#mask-2);}.cls-4{fill:url(#linear-gradient-2);}.cls-5{mask:url(#mask-3);}.cls-6{fill:url(#linear-gradient-3);}.cls-7{mask:url(#mask-4);}.cls-8{fill:url(#radial-gradient);}.cls-9{mask:url(#mask-5);}.cls-10{fill:url(#linear-gradient-4);}.cls-11{mask:url(#mask-6);}.cls-12{fill:url(#linear-gradient-5);}.cls-13{mask:url(#mask-7);}.cls-14{fill:url(#linear-gradient-6);}.cls-15{mask:url(#mask-8);}.cls-16{fill:url(#linear-gradient-7);}.cls-17{mask:url(#mask-9);}.cls-18{fill:url(#radial-gradient-2);}.cls-19{mask:url(#mask-10);}.cls-20{fill:url(#radial-gradient-3);}.cls-21{mask:url(#mask-11);}.cls-22{fill:url(#linear-gradient-8);}.cls-23{mask:url(#mask-12);}.cls-24{fill:url(#linear-gradient-9);}.cls-25{mask:url(#mask-13);}.cls-26{fill:url(#linear-gradient-10);}.cls-27{isolation:isolate;}.cls-28,.cls-29{fill:none;}.cls-28{stroke:#f1f2f2;stroke-miterlimit:10;stroke-width:2px;stroke-dasharray:34.84;}.cls-30,.cls-55,.cls-63,.cls-65,.cls-71,.cls-76{fill:#fff;}.cls-31{opacity:0.3;}.cls-32{fill:#232323;}.cls-33{fill:#020202;}.cls-34{opacity:0.35;}.cls-35{fill:#6c0e06;}.cls-36{fill:#de376b;}.cls-37{fill:#b51851;}.cls-38{mask:url(#mask-14);}.cls-39,.cls-42,.cls-44,.cls-46,.cls-48,.cls-50,.cls-55,.cls-63,.cls-65,.cls-67,.cls-71,.cls-76,.cls-78{mix-blend-mode:overlay;}.cls-39{fill:url(#linear-gradient-11);}.cls-40{mask:url(#mask-15);}.cls-41{mask:url(#mask-16);}.cls-42{fill:url(#linear-gradient-12);}.cls-43{mask:url(#mask-17);}.cls-44{fill:url(#linear-gradient-13);}.cls-45{mask:url(#mask-18);}.cls-46{fill:url(#linear-gradient-14);}.cls-47{mask:url(#mask-19);}.cls-48{fill:url(#linear-gradient-15);}.cls-49{mask:url(#mask-20);}.cls-50{fill:url(#linear-gradient-16);}.cls-51{mask:url(#mask-21);}.cls-52{fill:url(#radial-gradient-4);}.cls-53{fill:#207a06;}.cls-54{fill:#2dc408;}.cls-55{opacity:0.55;}.cls-56{mask:url(#mask-22);}.cls-57{fill:url(#linear-gradient-17);}.cls-58{mask:url(#mask-23);}.cls-59{fill:url(#linear-gradient-18);}.cls-60{mask:url(#mask-24);}.cls-61{fill:url(#linear-gradient-19);}.cls-62,.cls-64{opacity:0.12;}.cls-63{opacity:0.42;}.cls-65{opacity:0.57;}.cls-66{mask:url(#mask-25);}.cls-67{fill:url(#radial-gradient-5);}.cls-68{fill:#eec700;}.cls-69{fill:#010242;}.cls-70{fill:#0490ef;}.cls-71{opacity:0.49;}.cls-72{opacity:0.33;}.cls-73,.cls-74,.cls-75,.cls-82{fill:#ee711f;}.cls-75{opacity:0.5;}.cls-76{opacity:0.7;}.cls-77{mask:url(#mask-26);}.cls-78{fill:url(#radial-gradient-6);}.cls-79{fill:#c16e00;}.cls-80{fill:#feb322;}.cls-81{fill:#f7e494;}.cls-82{opacity:0.23;}.cls-83,.cls-87{fill:#8e0613;}.cls-84{fill:#d30000;}.cls-85,.cls-89{fill:#ffc000;}.cls-85{opacity:0.53;}.cls-86{fill:#a6020b;}.cls-87{opacity:0.52;}.cls-88{fill:#eb9800;}.cls-90{fill:#c63300;}.cls-91{fill:#e27704;}.cls-92{filter:url(#luminosity-noclip-26);}.cls-93{filter:url(#luminosity-noclip-25);}.cls-94{filter:url(#luminosity-noclip-24);}.cls-95{filter:url(#luminosity-noclip-23);}.cls-96{filter:url(#luminosity-noclip-22);}.cls-97{filter:url(#luminosity-noclip-21);}.cls-98{filter:url(#luminosity-noclip-20);}.cls-99{filter:url(#luminosity-noclip-19);}.cls-100{filter:url(#luminosity-noclip-18);}.cls-101{filter:url(#luminosity-noclip-17);}.cls-102{filter:url(#luminosity-noclip-16);}.cls-103{filter:url(#luminosity-noclip-15);}.cls-104{filter:url(#luminosity-noclip-14);}.cls-105{filter:url(#luminosity-noclip-13);}.cls-106{filter:url(#luminosity-noclip-12);}.cls-107{filter:url(#luminosity-noclip-11);}.cls-108{filter:url(#luminosity-noclip-10);}.cls-109{filter:url(#luminosity-noclip-9);}.cls-110{filter:url(#luminosity-noclip-8);}.cls-111{filter:url(#luminosity-noclip-7);}.cls-112{filter:url(#luminosity-noclip-6);}.cls-113{filter:url(#luminosity-noclip-5);}.cls-114{filter:url(#luminosity-noclip-4);}.cls-115{filter:url(#luminosity-noclip-3);}.cls-116{filter:url(#luminosity-noclip-2);}.cls-117{filter:url(#luminosity-noclip);}</style><filter id="luminosity-noclip" x="474.6" y="-8732" width="33.97" height="32766" filterUnits="userSpaceOnUse" color-interpolation-filters="sRGB"><feFlood flood-color="#fff" result="bg"/><feBlend in="SourceGraphic" in2="bg"/></filter><mask id="mask" x="474.6" y="-8732" width="33.97" height="32766" maskUnits="userSpaceOnUse"><g class="cls-117"/></mask><linearGradient id="linear-gradient" x1="1042.72" y1="-279.88" x2="1081.95" y2="-279.88" gradientTransform="matrix(-0.87, 0.5, 0.5, 0.87, 1548.63, -31.19)" gradientUnits="userSpaceOnUse"><stop offset="0"/><stop offset="0.91" stop-color="#fff"/></linearGradient><filter id="luminosity-noclip-2" x="475.97" y="-8732" width="30.87" height="32766" filterUnits="userSpaceOnUse" color-interpolation-filters="sRGB"><feFlood flood-color="#fff" result="bg"/><feBlend in="SourceGraphic" in2="bg"/></filter><mask id="mask-2" x="475.97" y="-8732" width="30.87" height="32766" maskUnits="userSpaceOnUse"><g class="cls-116"/></mask><linearGradient id="linear-gradient-2" x1="1044.53" y1="-279.19" x2="1078.76" y2="-279.19" xlink:href="#linear-gradient"/><filter id="luminosity-noclip-3" x="486.18" y="-8732" width="21.37" height="32766" filterUnits="userSpaceOnUse" color-interpolation-filters="sRGB"><feFlood flood-color="#fff" result="bg"/><feBlend in="SourceGraphic" in2="bg"/></filter><mask id="mask-3" x="486.18" y="-8732" width="21.37" height="32766" maskUnits="userSpaceOnUse"><g class="cls-115"/></mask><linearGradient id="linear-gradient-3" x1="1043.58" y1="-266.43" x2="1062.06" y2="-266.43" gradientTransform="matrix(-0.87, 0.5, 0.5, 0.87, 1548.63, -31.19)" gradientUnits="userSpaceOnUse"><stop offset="0.09" stop-color="#fff"/><stop offset="1"/></linearGradient><filter id="luminosity-noclip-4" x="460.85" y="-8732" width="7.51" height="32766" filterUnits="userSpaceOnUse" color-interpolation-filters="sRGB"><feFlood flood-color="#fff" result="bg"/><feBlend in="SourceGraphic" in2="bg"/></filter><mask id="mask-4" x="460.85" y="-8732" width="7.51" height="32766" maskUnits="userSpaceOnUse"><g class="cls-114"/></mask><radialGradient id="radial-gradient" cx="1125.29" cy="-289.89" r="4.04" gradientTransform="matrix(-0.78, 0.45, 0.5, 0.87, 1491, 2.08)" gradientUnits="userSpaceOnUse"><stop offset="0" stop-color="#fff"/><stop offset="0.64" stop-color="#a7a7a7"/><stop offset="1"/></radialGradient><filter id="luminosity-noclip-5" x="597.74" y="-8732" width="36.11" height="32766" filterUnits="userSpaceOnUse" color-interpolation-filters="sRGB"><feFlood flood-color="#fff" result="bg"/><feBlend in="SourceGraphic" in2="bg"/></filter><mask id="mask-5" x="597.74" y="-8732" width="36.11" height="32766" maskUnits="userSpaceOnUse"><g class="cls-113"/></mask><linearGradient id="linear-gradient-4" x1="615.79" y1="244.87" x2="615.79" y2="263.59" gradientTransform="matrix(1, 0, 0, 1, 0, 0)" xlink:href="#linear-gradient-3"/><filter id="luminosity-noclip-6" x="605.92" y="-8732" width="21.81" height="32766" filterUnits="userSpaceOnUse" color-interpolation-filters="sRGB"><feFlood flood-color="#fff" result="bg"/><feBlend in="SourceGraphic" in2="bg"/></filter><mask id="mask-6" x="605.92" y="-8732" width="21.81" height="32766" maskUnits="userSpaceOnUse"><g class="cls-112"/></mask><linearGradient id="linear-gradient-5" x1="605.92" y1="245.44" x2="627.73" y2="245.44" gradientTransform="matrix(1, 0, 0, 1, 0, 0)" xlink:href="#linear-gradient-3"/><filter id="luminosity-noclip-7" x="474.59" y="-8732" width="39.37" height="32766" filterUnits="userSpaceOnUse" color-interpolation-filters="sRGB"><feFlood flood-color="#fff" result="bg"/><feBlend in="SourceGraphic" in2="bg"/></filter><mask id="mask-7" x="474.59" y="-8732" width="39.37" height="32766" maskUnits="userSpaceOnUse"><g class="cls-111"/></mask><linearGradient id="linear-gradient-6" x1="1042.72" y1="-251.68" x2="1081.95" y2="-251.68" gradientTransform="matrix(-0.87, 0.5, 0.5, 0.87, 1548.63, -31.19)" gradientUnits="userSpaceOnUse"><stop offset="0" stop-color="#fff"/><stop offset="0.09" stop-color="#f9f9f9"/><stop offset="0.22" stop-color="#e8e8e8"/><stop offset="0.36" stop-color="#cdcdcd"/><stop offset="0.52" stop-color="#a6a6a6"/><stop offset="0.68" stop-color="#747474"/><stop offset="0.85" stop-color="#393939"/><stop offset="1"/></linearGradient><filter id="luminosity-noclip-8" x="609.49" y="-8732" width="19.21" height="32766" filterUnits="userSpaceOnUse" color-interpolation-filters="sRGB"><feFlood flood-color="#fff" result="bg"/><feBlend in="SourceGraphic" in2="bg"/></filter><mask id="mask-8" x="609.49" y="-8732" width="19.21" height="32766" maskUnits="userSpaceOnUse"><g class="cls-110"/></mask><linearGradient id="linear-gradient-7" x1="609.49" y1="285.98" x2="628.7" y2="285.98" gradientTransform="matrix(1, 0, 0, 1, 0, 0)" xlink:href="#linear-gradient"/><filter id="luminosity-noclip-9" x="623.41" y="-8732" width="7.04" height="32766" filterUnits="userSpaceOnUse" color-interpolation-filters="sRGB"><feFlood flood-color="#fff" result="bg"/><feBlend in="SourceGraphic" in2="bg"/></filter><mask id="mask-9" x="623.41" y="-8732" width="7.04" height="32766" maskUnits="userSpaceOnUse"><g class="cls-109"/></mask><radialGradient id="radial-gradient-2" cx="626.93" cy="279.26" r="3.52" gradientUnits="userSpaceOnUse"><stop offset="0" stop-color="#fff"/><stop offset="1"/></radialGradient><filter id="luminosity-noclip-10" x="706.17" y="-8732" width="4.99" height="32766" filterUnits="userSpaceOnUse" color-interpolation-filters="sRGB"><feFlood flood-color="#fff" result="bg"/><feBlend in="SourceGraphic" in2="bg"/></filter><mask id="mask-10" x="706.17" y="-8732" width="4.99" height="32766" maskUnits="userSpaceOnUse"><g class="cls-108"/></mask><radialGradient id="radial-gradient-3" cx="708.67" cy="299.38" r="2.5" xlink:href="#radial-gradient-2"/><filter id="luminosity-noclip-11" x="474.59" y="-8732" width="33.97" height="32766" filterUnits="userSpaceOnUse" color-interpolation-filters="sRGB"><feFlood flood-color="#fff" result="bg"/><feBlend in="SourceGraphic" in2="bg"/></filter><mask id="mask-11" x="474.59" y="-8732" width="33.97" height="32766" maskUnits="userSpaceOnUse"><g class="cls-107"/></mask><linearGradient id="linear-gradient-8" x1="1042.72" y1="-260.29" x2="1081.95" y2="-260.29" xlink:href="#linear-gradient"/><filter id="luminosity-noclip-12" x="462.4" y="-8732" width="42.96" height="32766" filterUnits="userSpaceOnUse" color-interpolation-filters="sRGB"><feFlood flood-color="#fff" result="bg"/><feBlend in="SourceGraphic" in2="bg"/></filter><mask id="mask-12" x="462.4" y="-8732" width="42.96" height="32766" maskUnits="userSpaceOnUse"><g class="cls-106"/></mask><linearGradient id="linear-gradient-9" x1="1079.64" y1="-259.41" x2="1075.69" y2="-266.42" xlink:href="#linear-gradient"/><filter id="luminosity-noclip-13" x="461.05" y="-8732" width="42.74" height="32766" filterUnits="userSpaceOnUse" color-interpolation-filters="sRGB"><feFlood flood-color="#fff" result="bg"/><feBlend in="SourceGraphic" in2="bg"/></filter><mask id="mask-13" x="461.05" y="-8732" width="42.74" height="32766" maskUnits="userSpaceOnUse"><g class="cls-105"/></mask><linearGradient id="linear-gradient-10" x1="1037.66" y1="-292.39" x2="1087.01" y2="-292.39" xlink:href="#linear-gradient"/><filter id="luminosity-noclip-14" x="474.6" y="246.39" width="33.97" height="26.05" filterUnits="userSpaceOnUse" color-interpolation-filters="sRGB"><feFlood flood-color="#fff" result="bg"/><feBlend in="SourceGraphic" in2="bg"/></filter><mask id="mask-14" x="215.87" y="15.42" width="33.97" height="26.05" maskUnits="userSpaceOnUse"><g class="cls-104"><g transform="translate(-258.73 -230.97)"><g class="cls-1"><polygon class="cls-2" points="508.57 252.83 474.6 272.44 475.08 258.73 496.45 246.39 508.57 252.83"/></g></g></g></mask><linearGradient id="linear-gradient-11" x1="1042.72" y1="-279.88" x2="1081.95" y2="-279.88" gradientTransform="matrix(-0.87, 0.5, 0.5, 0.87, 1289.9, -262.16)" gradientUnits="userSpaceOnUse"><stop offset="0" stop-color="#fff"/><stop offset="0.91" stop-color="#fff"/></linearGradient><filter id="luminosity-noclip-15" x="474.59" y="252.83" width="39.37" height="48.57" filterUnits="userSpaceOnUse" color-interpolation-filters="sRGB"><feFlood flood-color="#fff" result="bg"/><feBlend in="SourceGraphic" in2="bg"/></filter><mask id="mask-15" x="215.87" y="21.86" width="39.37" height="48.57" maskUnits="userSpaceOnUse"><g class="cls-103"><g transform="translate(-258.73 -230.97)"><g class="cls-13"><polygon class="cls-14" points="474.6 272.44 483.98 279.35 513.97 301.4 508.57 252.83 474.6 272.44"/></g></g></g></mask><filter id="luminosity-noclip-16" x="474.59" y="252.83" width="33.97" height="33.67" filterUnits="userSpaceOnUse" color-interpolation-filters="sRGB"><feFlood flood-color="#fff" result="bg"/><feBlend in="SourceGraphic" in2="bg"/></filter><mask id="mask-16" x="215.87" y="21.86" width="33.97" height="33.67" maskUnits="userSpaceOnUse"><g class="cls-102"><g transform="translate(-258.73 -230.97)"><g class="cls-21"><polygon class="cls-22" points="474.6 272.44 483.98 279.35 505.36 286.49 508.57 252.83 474.6 272.44"/></g></g></g></mask><linearGradient id="linear-gradient-12" x1="1042.72" y1="-260.29" x2="1081.95" y2="-260.29" xlink:href="#linear-gradient-11"/><filter id="luminosity-noclip-17" x="462.4" y="272.44" width="42.96" height="14.05" filterUnits="userSpaceOnUse" color-interpolation-filters="sRGB"><feFlood flood-color="#fff" result="bg"/><feBlend in="SourceGraphic" in2="bg"/></filter><mask id="mask-17" x="203.67" y="41.47" width="42.96" height="14.05" maskUnits="userSpaceOnUse"><g class="cls-101"><g transform="translate(-258.73 -230.97)"><g class="cls-23"><polygon class="cls-24" points="474.6 272.44 505.36 286.49 482.87 280.63 476.86 280.1 462.4 272.77 474.6 272.44"/></g></g></g></mask><linearGradient id="linear-gradient-13" x1="1079.64" y1="-259.41" x2="1075.69" y2="-266.42" xlink:href="#linear-gradient-11"/><filter id="luminosity-noclip-18" x="461.05" y="234.43" width="42.74" height="24.68" filterUnits="userSpaceOnUse" color-interpolation-filters="sRGB"><feFlood flood-color="#fff" result="bg"/><feBlend in="SourceGraphic" in2="bg"/></filter><mask id="mask-18" x="202.32" y="3.46" width="42.74" height="24.68" maskUnits="userSpaceOnUse"><g class="cls-100"><g transform="translate(-258.73 -230.97)"><g class="cls-25"><polygon class="cls-26" points="461.05 259.1 475.08 258.73 496.45 246.39 503.79 234.43 489.76 234.8 468.39 247.14 461.05 259.1"/></g></g></g></mask><linearGradient id="linear-gradient-14" x1="1037.66" y1="-292.39" x2="1087.01" y2="-292.39" xlink:href="#linear-gradient-11"/><filter id="luminosity-noclip-19" x="475.97" y="249.31" width="30.87" height="20.14" filterUnits="userSpaceOnUse" color-interpolation-filters="sRGB"><feFlood flood-color="#fff" result="bg"/><feBlend in="SourceGraphic" in2="bg"/></filter><mask id="mask-19" x="217.24" y="18.34" width="30.87" height="20.14" maskUnits="userSpaceOnUse"><g class="cls-99"><g transform="translate(-258.73 -230.97)"><g class="cls-3"><path class="cls-4" d="M476.69,261.51c-.12-2.75,3.51-4.06,6.8-5.84s8.14-4.58,8.14-4.58c1.92-1,1.86-1.82,4.7-1.77a14.15,14.15,0,0,1,6.47,1.86c1.41.76,5.28,1.93,3.64,2.88s-9.27,2.89-14,5.87-12.78,9.73-15.25,9.52S476.8,264.25,476.69,261.51Z"/></g></g></g></mask><linearGradient id="linear-gradient-15" x1="1044.53" y1="-279.19" x2="1078.76" y2="-279.19" gradientTransform="matrix(-0.87, 0.5, 0.5, 0.87, 1548.63, -31.19)" xlink:href="#linear-gradient-11"/><filter id="luminosity-noclip-20" x="486.18" y="246.58" width="21.37" height="39.22" filterUnits="userSpaceOnUse" color-interpolation-filters="sRGB"><feFlood flood-color="#fff" result="bg"/><feBlend in="SourceGraphic" in2="bg"/></filter><mask id="mask-20" x="227.46" y="15.61" width="21.37" height="39.22" maskUnits="userSpaceOnUse"><g class="cls-98"><g transform="translate(-258.73 -230.97)"><g class="cls-5"><polygon class="cls-6" points="507.55 252.79 505.28 285.8 486.18 252.72 496.13 246.58 507.55 252.79"/></g></g></g></mask><linearGradient id="linear-gradient-16" x1="1043.58" y1="-266.43" x2="1062.06" y2="-266.43" gradientTransform="matrix(-0.87, 0.5, 0.5, 0.87, 1289.9, -262.16)" gradientUnits="userSpaceOnUse"><stop offset="0.09" stop-color="#fff"/><stop offset="1" stop-color="#fff"/></linearGradient><filter id="luminosity-noclip-21" x="460.85" y="256" width="7.51" height="7.89" filterUnits="userSpaceOnUse" color-interpolation-filters="sRGB"><feFlood flood-color="#fff" result="bg"/><feBlend in="SourceGraphic" in2="bg"/></filter><mask id="mask-21" x="202.12" y="25.03" width="7.51" height="7.89" maskUnits="userSpaceOnUse"><g class="cls-97"><g transform="translate(-258.73 -230.97)"><g class="cls-7"><path class="cls-8" d="M461.43,261.77a3.67,3.67,0,1,0,1.15-5.32A3.87,3.87,0,0,0,461.43,261.77Z"/></g></g></g></mask><radialGradient id="radial-gradient-4" cx="1125.29" cy="-289.89" r="4.04" gradientTransform="matrix(-0.78, 0.45, 0.5, 0.87, 1491, 2.08)" gradientUnits="userSpaceOnUse"><stop offset="0" stop-color="#fff"/><stop offset="0.64" stop-color="#fff"/><stop offset="1" stop-color="#fff"/></radialGradient><filter id="luminosity-noclip-22" x="597.74" y="237.81" width="36.11" height="29.92" filterUnits="userSpaceOnUse" color-interpolation-filters="sRGB"><feFlood flood-color="#fff" result="bg"/><feBlend in="SourceGraphic" in2="bg"/></filter><mask id="mask-22" x="339.01" y="6.84" width="36.11" height="29.92" maskUnits="userSpaceOnUse"><g class="cls-96"><g transform="translate(-258.73 -230.97)"><g class="cls-9"><path class="cls-10" d="M600.29,259.67s10.28-19.41,11.37-21.5,9.77,5.28,14.65,8.9,8,4.54,7.48,7-7.24,6.77-7.24,6.77-4.26.56-4.89-3.15-13.62-1.81-17.24,4.73S594,270.93,600.29,259.67Z"/></g></g></g></mask><linearGradient id="linear-gradient-17" x1="615.79" y1="244.87" x2="615.79" y2="263.59" gradientUnits="userSpaceOnUse"><stop offset="0.09" stop-color="#ffffc2"/><stop offset="1" stop-color="#ffff61"/></linearGradient><filter id="luminosity-noclip-23" x="605.92" y="239.63" width="21.81" height="11.62" filterUnits="userSpaceOnUse" color-interpolation-filters="sRGB"><feFlood flood-color="#fff" result="bg"/><feBlend in="SourceGraphic" in2="bg"/></filter><mask id="mask-23" x="347.19" y="8.66" width="21.81" height="11.62" maskUnits="userSpaceOnUse"><g class="cls-95"><g transform="translate(-258.73 -230.97)"><g class="cls-11"><path class="cls-12" d="M627,248.43s-10-7-12.34-8.56-5.91,4.78-8.33,9.74,6.73-3.13,11.93-1.24S629.93,252.43,627,248.43Z"/></g></g></g></mask><linearGradient id="linear-gradient-18" x1="605.92" y1="245.44" x2="627.73" y2="245.44" xlink:href="#linear-gradient-17"/><filter id="luminosity-noclip-24" x="609.49" y="274.21" width="19.21" height="23.54" filterUnits="userSpaceOnUse" color-interpolation-filters="sRGB"><feFlood flood-color="#fff" result="bg"/><feBlend in="SourceGraphic" in2="bg"/></filter><mask id="mask-24" x="350.76" y="43.24" width="19.21" height="23.54" maskUnits="userSpaceOnUse"><g class="cls-94"><g transform="translate(-258.73 -230.97)"><g class="cls-15"><path class="cls-16" d="M619.2,275a24.19,24.19,0,0,0,6.67,3.31c3.43.94,4.73,1.95-1.83,6.79a125.9,125.9,0,0,0-13.76,12.46s-2.72,1.72,2-4.13,9.74-11.4,7.91-13.17-.88-1.18-1.83-1.77S616.83,272.23,619.2,275Z"/></g></g></g></mask><linearGradient id="linear-gradient-19" x1="609.49" y1="285.98" x2="628.7" y2="285.98" gradientUnits="userSpaceOnUse"><stop offset="0" stop-color="#ffff61"/><stop offset="0.91" stop-color="#ffffc2"/></linearGradient><filter id="luminosity-noclip-25" x="623.41" y="275.74" width="7.04" height="7.04" filterUnits="userSpaceOnUse" color-interpolation-filters="sRGB"><feFlood flood-color="#fff" result="bg"/><feBlend in="SourceGraphic" in2="bg"/></filter><mask id="mask-25" x="364.69" y="44.77" width="7.04" height="7.04" maskUnits="userSpaceOnUse"><g class="cls-93"><g transform="translate(-258.73 -230.97)"><g class="cls-17"><path class="cls-18" d="M630.46,279.26a3.53,3.53,0,1,1-3.53-3.52A3.52,3.52,0,0,1,630.46,279.26Z"/></g></g></g></mask><radialGradient id="radial-gradient-5" cx="626.93" cy="279.26" r="3.52" gradientUnits="userSpaceOnUse"><stop offset="0" stop-color="#fff"/><stop offset="1" stop-color="#fff"/></radialGradient><filter id="luminosity-noclip-26" x="706.17" y="296.88" width="4.99" height="4.99" filterUnits="userSpaceOnUse" color-interpolation-filters="sRGB"><feFlood flood-color="#fff" result="bg"/><feBlend in="SourceGraphic" in2="bg"/></filter><mask id="mask-26" x="447.44" y="65.91" width="4.99" height="4.99" maskUnits="userSpaceOnUse"><g class="cls-92"><g transform="translate(-258.73 -230.97)"><g class="cls-19"><path class="cls-20" d="M711.17,299.38a2.5,2.5,0,1,1-2.5-2.5A2.49,2.49,0,0,1,711.17,299.38Z"/></g></g></g></mask><radialGradient id="radial-gradient-6" cx="708.67" cy="299.38" r="2.5" xlink:href="#radial-gradient-5"/></defs><g class="cls-27"><g id="Layer_1" data-name="Layer 1"><path class="cls-28" d="M534.4,251a266.34,266.34,0,0,1,46.27,2.77" transform="translate(-258.73 -230.97)"/><path class="cls-28" d="M654.41,275.4A267.55,267.55,0,0,1,693,301.14" transform="translate(-258.73 -230.97)"/><path class="cls-28" d="M737.81,342.21A265.9,265.9,0,0,1,767.26,378" transform="translate(-258.73 -230.97)"/><path class="cls-28" d="M792.11,450.57a267.64,267.64,0,0,1,4.39,46.15" transform="translate(-258.73 -230.97)"/><path class="cls-29" d="M381.54,303.34" transform="translate(-258.73 -230.97)"/><path class="cls-30" d="M673.64,488.18q-32.45.6-43.38,37.31l-61.57-5.34-24.21-10.88-187.29,79.1,37.72,29.25L600.7,668.16s45.95-47.93,51.25-50.54,43-71.36,43-71.36" transform="translate(-258.73 -230.97)"/><path class="cls-30" d="M544.48,716.24l-63.05,5.65c-15.1-5.79-28.07-18-38.4-31A213.39,213.39,0,0,1,416,645.5l29.68-7,50.61,39.82Z" transform="translate(-258.73 -230.97)"/><ellipse class="cls-30" cx="157.33" cy="212.14" rx="152.64" ry="147.95"/><g class="cls-31"><path class="cls-32" d="M544.48,716.24l-63.05,5.65c-15.1-5.79-28.07-18-38.4-31,13.16,1.11,30-.77,49.08-10.6,1.39-.72,2.76-1.41,4.14-2.05Z" transform="translate(-258.73 -230.97)"/></g><g class="cls-31"><path class="cls-32" d="M564.53,477.52c-16,65.11-76.39,113.54-148.47,113.54-84.3,0-152.64-66.25-152.64-147.95a144,144,0,0,1,23.7-79.22A144.28,144.28,0,0,0,283,398.3c0,81.72,68.32,148,152.62,148C489.82,546.26,537.46,518.84,564.53,477.52Z" transform="translate(-258.73 -230.97)"/></g><path class="cls-32" d="M568.68,446.39a126.44,126.44,0,0,1-14.84,60.43c-45.45,55.33-131,71.9-184.24,49.86L329,520.61l-9.87-8.77c14.08-143.23,116.62-184.21,185.58-189.16C543.18,350.85,568.56,398.49,568.68,446.39Z" transform="translate(-258.73 -230.97)"/><path class="cls-33" d="M568.68,446.39a126.44,126.44,0,0,1-14.84,60.43c-45.45,55.33-131,71.9-184.24,49.86L329,520.61c8.82-9.08,20.87-15.38,20.87-15.38,58.37,46.45,186.37,41,218.76-58.84Z" transform="translate(-258.73 -230.97)"/><path class="cls-32" d="M309.69,517.16a4.7,4.7,0,0,1-4.63-3.95c-11.28-71.35,20.18-120.75,48.55-149.62,42.94-43.68,98.89-61.84,132-57.18a4.69,4.69,0,1,1-1.3,9.28c-30-4.22-83.65,13.44-124,54.47-26.87,27.34-56.65,74.09-46,141.58a4.69,4.69,0,0,1-4.63,5.42Z" transform="translate(-258.73 -230.97)"/><path class="cls-32" d="M319.14,515.76l-.38,0a3.91,3.91,0,0,1-3.51-4.27c6.39-65,31.18-115.18,73.67-149.12,42.22-33.72,90.5-41.78,115.53-43.57a3.91,3.91,0,0,1,.56,7.79C466.33,329.35,338.88,351,323,512.23A3.91,3.91,0,0,1,319.14,515.76Z" transform="translate(-258.73 -230.97)"/><path class="cls-32" d="M421.37,570c-19.34,0-37.67-3.27-53.26-9.72a3.91,3.91,0,1,1,3-7.22c50.35,20.83,134.58,6.22,179.73-48.73a3.91,3.91,0,0,1,6,5c-21.77,26.49-54.19,46.11-91.29,55.25A185.71,185.71,0,0,1,421.37,570Z" transform="translate(-258.73 -230.97)"/><path class="cls-32" d="M416.05,595.75c-86.75,0-157.32-68.48-157.32-152.64S329.3,290.47,416.05,290.47s157.33,68.47,157.33,152.64S502.8,595.75,416.05,595.75Zm0-295.9c-81.58,0-147.94,64.26-147.94,143.26s66.36,143.26,147.94,143.26S564,522.1,564,443.11,497.63,299.85,416.05,299.85Z" transform="translate(-258.73 -230.97)"/><ellipse class="cls-30" cx="329.25" cy="548.4" rx="31.84" ry="44.35" transform="translate(-566.8 262.86) rotate(-54.13)"/><path class="cls-32" d="M341.61,589.71h-.16c-11.29,0-23.22-4.19-33.61-11.7s-18.07-17.55-21.64-28.25c-3.75-11.26-2.57-21.94,3.32-30.09s15.58-12.57,27.37-12.57h.16c11.29,0,23.22,4.19,33.61,11.7s18.07,17.54,21.64,28.25c3.75,11.25,2.58,21.94-3.32,30.09h0C363.12,585.25,353.4,589.71,341.61,589.71ZM316.9,516.47c-8.71,0-15.73,3.09-19.78,8.69s-4.8,13.32-2,21.63c3,8.86,9.44,17.25,18.25,23.62s18.8,9.89,28.14,9.93c8.73,0,15.83-3.06,19.9-8.7h0c4.08-5.63,4.8-13.31,2-21.62-3-8.86-9.44-17.25-18.25-23.62s-18.8-9.9-28.14-9.93Z" transform="translate(-258.73 -230.97)"/><path class="cls-32" d="M337.42,604.09c-7.74,0-15-1.35-19.44-5a3.91,3.91,0,0,1,4.94-6.06c4.43,3.61,16.65,4.26,29.7,1.58,14.61-3,26.34-9.3,29.88-16.06a3.9,3.9,0,1,1,6.92,3.62c-4.73,9-17.9,16.54-35.22,20.1A86.24,86.24,0,0,1,337.42,604.09Z" transform="translate(-258.73 -230.97)"/><path class="cls-30" d="M813.42,642.62l-44.25,55.09c-28.71-6-52.83-23.16-74.93-45.18-23.44,43.76-52.1,63-131.13,69s-128.17-78-128.17-78l-66.42,7c-57-2.34-50.62-94.16-50.62-94.16-35.92-53.34-21.68-79.94-1.75-80.06,10.3-.05,22.13,7,29.32,21.07,18.09,11.81,30,26.71,31.52,46.76l15.09,61,212,33.72c15.27-23.92,31.93-45.41,52.68-59.68a35.87,35.87,0,0,1,35.1-3c22.82,10.31,46.23,26,69.84,43.57a56.42,56.42,0,0,1,17.66-6.82c15.85-2.95,28.43,3.74,35.18,15.2A12.82,12.82,0,0,1,813.42,642.62Z" transform="translate(-258.73 -230.97)"/><path class="cls-32" d="M432.93,639.31l19.18-5.65a1.59,1.59,0,0,1,1.34,2.83L437,647.78a4.75,4.75,0,0,1-5.36-7.84A4.68,4.68,0,0,1,432.93,639.31Z" transform="translate(-258.73 -230.97)"/><path class="cls-32" d="M555.19,726.57c-30.86,0-61.45-13.13-89-38.29a207.57,207.57,0,0,1-33.72-39.77L369,655.24a5.3,5.3,0,0,1-.69,0c-13.69-.56-25.15-5.9-34.07-15.86-22.54-25.2-21.57-72.17-21.12-81.68-27.72-41.77-23.34-63.88-18.21-73.4a23.56,23.56,0,0,1,21.35-12.65h.31c12.69.15,25,8.73,32.47,22.5,20.31,13.56,31,29.68,32.58,49.25l15,60.57a4.69,4.69,0,1,1-9.1,2.26l-15.11-61a5.06,5.06,0,0,1-.12-.78c-1.28-17-10.9-31.09-29.41-43.18a4.63,4.63,0,0,1-1.61-1.79c-5.68-11.13-15.42-18.39-24.81-18.5h-.21a14.26,14.26,0,0,0-13.1,7.73c-7,13-.05,37.29,18.62,65a4.75,4.75,0,0,1,.79,3c0,.51-3.32,51.86,18.68,76.42,7.18,8,16.05,12.18,27.11,12.71l66.07-7a4.67,4.67,0,0,1,4.54,2.29c.48.82,48.65,81.47,123.77,75.74,81.28-6.19,105.83-26.41,127.36-66.6a4.68,4.68,0,0,1,7.44-1.1c23.94,23.84,46.2,37.67,69.8,43.29l42.41-52.82a8.15,8.15,0,0,0,.73-9.21c-9-15.18-27.18-17.81-46.45-6.7a4.71,4.71,0,0,1-5.14-.3c-27.61-20.59-49.53-34.28-69-43.07A31.36,31.36,0,0,0,659.41,583C642,595,626.13,613,608,641.37a4.69,4.69,0,0,1-7.91-5c18.81-29.47,35.46-48.29,54-61a40.78,40.78,0,0,1,39.7-3.44c19.77,8.94,40.92,22,68.29,42.29,26.2-13.71,47.13-4.32,56.49,11.56a17.58,17.58,0,0,1-1.5,19.85l-44.24,55.09a4.71,4.71,0,0,1-4.62,1.65c-25-5.25-48.27-18.69-72.85-42.13-25.46,44.22-58.59,60.5-131.9,66.09C560.7,726.47,558,726.57,555.19,726.57Z" transform="translate(-258.73 -230.97)"/><path class="cls-32" d="M765.13,622.91a41.39,41.39,0,0,0-3.19,3.34q-1.59,1.82-3,3.76a55.37,55.37,0,0,0-5,8.22,40.31,40.31,0,0,0-3.09,9,30,30,0,0,0-.22,9.56l0,.11a1.56,1.56,0,0,1-3.05.64,33.71,33.71,0,0,1-1.41-10.83,46.11,46.11,0,0,1,1.92-10.8,63.08,63.08,0,0,1,4.23-10.07q1.26-2.42,2.73-4.74a50.62,50.62,0,0,1,3.25-4.64,4.7,4.7,0,0,1,7.37,5.85,4.88,4.88,0,0,1-.49.53Z" transform="translate(-258.73 -230.97)"/><path class="cls-32" d="M747,694.5a3.91,3.91,0,0,1-2.73-6.7c23.25-22.75,43.13-46.63,59.07-71a3.91,3.91,0,0,1,6.54,4.29c-16.26,24.82-36.49,49.15-60.15,72.28A3.86,3.86,0,0,1,747,694.5Z" transform="translate(-258.73 -230.97)"/><path class="cls-32" d="M696.52,658.68a3.57,3.57,0,0,1-1-.14,3.89,3.89,0,0,1-2.76-4.78c7.35-27.4,19.17-46.62,36.13-58.74a3.91,3.91,0,0,1,4.55,6.36c-15.43,11-26.27,28.82-33.14,54.4A3.89,3.89,0,0,1,696.52,658.68Z" transform="translate(-258.73 -230.97)"/><path class="cls-30" d="M741.21,486.54c-3.5-34.76-59.73-40.75-68.59,6.06-8.64,30.61-6.57,57.71,4.74,72.94a23.32,23.32,0,0,0,21.67,8.9c23.34-2.93,38.14-25.6,42.2-82.19A34,34,0,0,0,741.21,486.54Z" transform="translate(-258.73 -230.97)"/><g class="cls-31"><path class="cls-32" d="M741.22,492.24c-4.05,56.59-18.85,79.27-42.19,82.21a23.31,23.31,0,0,1-21.67-8.91c-5.42-7.3-8.72-17.33-9.73-29.15a6,6,0,0,0,.36.52,23.35,23.35,0,0,0,21.67,8.91c22.82-2.88,37.48-24.6,41.9-78.47a29.25,29.25,0,0,1,9.65,19.19A31.92,31.92,0,0,1,741.22,492.24Z" transform="translate(-258.73 -230.97)"/></g><path class="cls-32" d="M691,656l-13-16.35a1.58,1.58,0,0,1,2.13-2.29l17.23,11.78a4.74,4.74,0,1,1-5.35,7.83A4.81,4.81,0,0,1,691,656Z" transform="translate(-258.73 -230.97)"/><path class="cls-32" d="M696,579.32a27.74,27.74,0,0,1-22.36-11c-12.33-16.6-14.4-45.31-5.55-76.82,5.5-28.57,26.38-37.89,42.65-37.19,18.91.82,33.38,13.87,35.18,31.74h0a38.91,38.91,0,0,1,0,6.51c-4,55.56-18.7,83.05-46.3,86.51A28.06,28.06,0,0,1,696,579.32ZM709,463.67c-12.35,0-27.61,7.72-31.79,29.8,0,.13-.06.27-.1.4-8.13,28.81-6.64,54.56,4,68.88a18.58,18.58,0,0,0,17.31,7c14.09-1.77,33.37-11.76,38.11-77.88a28.46,28.46,0,0,0,0-4.9c-1.55-15.3-14.7-22.81-26.26-23.31C709.87,463.68,709.45,463.67,709,463.67Z" transform="translate(-258.73 -230.97)"/><path class="cls-32" d="M741.09,498.1a4.17,4.17,0,0,1-.71-.06L675,486a3.9,3.9,0,1,1,1.41-7.68l65.39,12a3.91,3.91,0,0,1-.7,7.75Z" transform="translate(-258.73 -230.97)"/><path class="cls-32" d="M738.21,522.37a3.81,3.81,0,0,1-.75-.07l-68.58-13.23a3.91,3.91,0,1,1,1.48-7.67l68.58,13.23a3.9,3.9,0,0,1-.73,7.74Z" transform="translate(-258.73 -230.97)"/><path class="cls-32" d="M731.16,543.39a4.65,4.65,0,0,1-.82-.08l-61.53-13a3.9,3.9,0,1,1,1.61-7.64l61.54,13a3.91,3.91,0,0,1-.8,7.73Z" transform="translate(-258.73 -230.97)"/><path class="cls-30" d="M562.54,484.81c27-3.36,49.86-.29,61.67,19.74A46.3,46.3,0,0,1,630.33,527L632,599.12c-20,25.38-37.76,24.25-53.39-.92-25-5.1-24.42-16.82-5-33.45-5.73-25,0-41.55,0-41.55-1.3-.39-23.23-9.82-23.23-9.82" transform="translate(-258.73 -230.97)"/><path class="cls-32" d="M719.51,566.05a4.09,4.09,0,0,1-.85-.09L669.54,555a3.9,3.9,0,1,1,1.7-7.62l49.11,10.91a3.91,3.91,0,0,1-.84,7.72Z" transform="translate(-258.73 -230.97)"/><path class="cls-32" d="M604.23,622.31l-1.37,0c-9.77-.55-18.91-7.25-27.18-19.91-12.08-2.78-18.81-7.41-20.55-14.13-1.88-7.29,2.37-15.33,13.34-25.2-3.52-17.39-1.79-30.6-.4-37-4.77-2-12.65-5.36-19.52-8.32a4.69,4.69,0,0,1,3.71-8.61c8.09,3.48,21.44,9.18,22.84,9.68a4.55,4.55,0,0,1,2.77,2.33,4.66,4.66,0,0,1,.2,3.66c-.05.14-5.18,15.74.14,39a4.68,4.68,0,0,1-1.53,4.61c-12.57,10.75-12.91,15.88-12.47,17.58.38,1.46,2.62,5.13,15.32,7.72a4.66,4.66,0,0,1,3,2.11c6.84,11,13.85,16.8,20.82,17.19,7.15.4,15.19-4.77,23.87-15.39l-1.62-70.38a41.73,41.73,0,0,0-5.47-20.21c-9.33-15.83-26.93-21.21-57-17.46a4.69,4.69,0,1,1-1.16-9.31c21.32-2.66,51.4-3.26,66.29,22A51.15,51.15,0,0,1,635,526.92l1.65,72.1a4.64,4.64,0,0,1-1,3C624.9,615.66,614.6,622.31,604.23,622.31Z" transform="translate(-258.73 -230.97)"/><path class="cls-32" d="M569.16,521.82c.33-.8.6-1.31.91-1.91s.63-1.13,1-1.68c.65-1.1,1.36-2.14,2.09-3.17a40.8,40.8,0,0,1,5-5.62,33.57,33.57,0,0,1,5.87-4.51,33,33,0,0,1,6.61-3.08,1.57,1.57,0,0,1,1.4,2.78l-.11.07a29.08,29.08,0,0,0-9,8.81,33.58,33.58,0,0,0-2.93,5.48c-.39,1-.76,1.91-1.07,2.88-.15.48-.3,1-.41,1.43a9.55,9.55,0,0,0-.28,1.28,4.78,4.78,0,0,1-9.52-.82,4.87,4.87,0,0,1,.33-1.39Z" transform="translate(-258.73 -230.97)"/><path class="cls-32" d="M627.75,534.73a3.86,3.86,0,0,1-2.79-1.18c-14.35-14.68-35.51-10-49.27-1.55a3.91,3.91,0,1,1-4.1-6.65c16.22-10,41.39-15.24,59,2.74a3.91,3.91,0,0,1-2.8,6.64Z" transform="translate(-258.73 -230.97)"/><path class="cls-32" d="M630.26,530.18a4.84,4.84,0,0,1-1.34-.2,4.69,4.69,0,0,1-3.15-5.83c7.9-26.54,24-40.22,47.78-40.66a4.69,4.69,0,0,1,.18,9.38c-19.53.36-32.28,11.47-39,34A4.69,4.69,0,0,1,630.26,530.18Z" transform="translate(-258.73 -230.97)"/><path class="cls-32" d="M657.44,582.62a3.91,3.91,0,0,1-2.67-1l-26.48-24.65a3.91,3.91,0,1,1,5.32-5.72l26.49,24.65a3.9,3.9,0,0,1-2.66,6.76Z" transform="translate(-258.73 -230.97)"/><path class="cls-32" d="M651.72,545.81a36,36,0,0,0,4.58,7.9,33,33,0,0,0,6.36,6.36,34.8,34.8,0,0,0,3.68,2.42,30,30,0,0,0,12.43,3.32l.28,0a3.92,3.92,0,0,1-.68,7.81l-.44-.07a37.61,37.61,0,0,1-10.21-3.28,36,36,0,0,1-4.61-2.69,40,40,0,0,1-4-3.4,38,38,0,0,1-6.36-8.12,39.29,39.29,0,0,1-4-9.39,1.56,1.56,0,0,1,2.95-1Z" transform="translate(-258.73 -230.97)"/><path class="cls-32" d="M481.43,726.58a4.85,4.85,0,0,1-1.68-.31c-41.64-16-67.06-76.42-68.12-79a4.69,4.69,0,1,1,8.67-3.59c.24.59,24.55,58.35,61.89,73.45l46.12-2.62a4.69,4.69,0,1,1,.53,9.36l-47.14,2.68Z" transform="translate(-258.73 -230.97)"/><path class="cls-32" d="M553.92,665.78a16.1,16.1,0,0,1-10.4-3.8l-44.67-37.72A16,16,0,0,1,496,602.77L546.45,530a14.15,14.15,0,0,1,14.36-5.84c9.36,1.83,11.21,2,11.48,2a4.68,4.68,0,0,1,3.65,7.14l-44.27,71.37a5.1,5.1,0,0,0,1,6.61l40.64,34.67,27.19-31.39a4.69,4.69,0,0,1,7.09,6.14l-30.17,34.83a4.78,4.78,0,0,1-.76.73,5,5,0,0,1-.86.52l-14.74,7.32A16,16,0,0,1,553.92,665.78Zm4.17-132.56a4.82,4.82,0,0,0-3.94,2.06L503.7,608.11a6.73,6.73,0,0,0,1.2,9l44.67,37.71a6.74,6.74,0,0,0,7.35.89l8.47-4.21L526.61,618.4a14.44,14.44,0,0,1-2.91-18.69l40.57-65.39-5.26-1A4.86,4.86,0,0,0,558.09,533.22Z" transform="translate(-258.73 -230.97)"/><path class="cls-32" d="M497.84,617.36a4.69,4.69,0,0,1-.69-9.32l28.43-4.29A4.69,4.69,0,0,1,527,613l-28.42,4.29A4.31,4.31,0,0,1,497.84,617.36Z" transform="translate(-258.73 -230.97)"/><path class="cls-32" d="M558.79,605.9a4,4,0,0,1-2-.56l-22.53-13.63a3.91,3.91,0,1,1,4-6.69l21,12.7,13.13-4.42a3.91,3.91,0,1,1,2.49,7.41l-14.84,5A3.85,3.85,0,0,1,558.79,605.9Z" transform="translate(-258.73 -230.97)"/><path class="cls-32" d="M571.1,633c-7.43,0-13.48-5.43-13.48-12.11s6-12.11,13.48-12.11,13.48,5.43,13.48,12.11S578.53,633,571.1,633Zm0-16.41c-3.07,0-5.67,2-5.67,4.3s2.6,4.3,5.67,4.3,5.66-2,5.66-4.3S574.17,616.58,571.1,616.58Z" transform="translate(-258.73 -230.97)"/><g class="cls-34"><path class="cls-30" d="M436.07,369.18c45.39,3.06,79.95,29.37,99.71,87.46,1.51,4.46,8.1,3.66,8.39-1,2-32.15-5.66-63.68-29.23-94.2a37.33,37.33,0,0,0-32.83-14.24c-14.12,1.23-27.48,5.21-47.44,13.75A4.31,4.31,0,0,0,436.07,369.18Z" transform="translate(-258.73 -230.97)"/></g><g class="cls-34"><path class="cls-30" d="M377.4,453.21a83.52,83.52,0,0,0,9,19.9,6.71,6.71,0,0,1-2.2,9.33l-1.22.73a17.17,17.17,0,0,1-23.63-6l-2.81-4.76a17.15,17.15,0,0,1,2.33-20.55,40.82,40.82,0,0,1,3.68-3.4A9.4,9.4,0,0,1,377.4,453.21Z" transform="translate(-258.73 -230.97)"/></g><g class="cls-34"><path class="cls-30" d="M406.1,500.77a85.32,85.32,0,0,0,22.22,14.13A12.1,12.1,0,0,1,432.54,534h0a17.64,17.64,0,0,1-20,4.48A80.79,80.79,0,0,1,394.37,528a17.62,17.62,0,0,1-5-21.78c.56-1.11,1.16-2.2,1.81-3.27A9.88,9.88,0,0,1,406.1,500.77Z" transform="translate(-258.73 -230.97)"/></g><g class="cls-31"><path class="cls-32" d="M813.42,642.62l-44.25,55.09c-28.71-6-52.83-23.16-74.93-45.18-23.44,43.76-52.1,63-131.13,69s-128.17-78-128.17-78l-66.42,7c-57-2.34-50.62-94.16-50.62-94.16-35.92-53.34-21.68-79.94-1.75-80.06l3,1.12s-17.84,30.1,19.28,68.79c0,0-3.12,86.61,53.92,80.23s64.34-7.56,64.34-7.56a182.8,182.8,0,0,0,26,33.18C533.66,704,619.62,699.2,662.39,640.37a108.57,108.57,0,0,0,6.7-10.36,15.33,15.33,0,0,1,25.48-1.69l.38.5c12.58,16.94,61.2,50.51,73.75,39.2s28.58-35.89,10.65-55.13c15.85-2.95,28.43,3.74,35.18,15.2A12.82,12.82,0,0,1,813.42,642.62Z" transform="translate(-258.73 -230.97)"/></g><path class="cls-30" d="M545.15,657.22A162.36,162.36,0,0,1,523,676.77a158.15,158.15,0,0,1-38.17,20.67c-12.4,6.66-35.63-12.17-25.78-22.78a179.09,179.09,0,0,0,24.63-12.85,165.07,165.07,0,0,0,35.24-29.6C529.27,629.52,543.76,643.54,545.15,657.22Z" transform="translate(-258.73 -230.97)"/><path class="cls-32" d="M479,703.5c-8.37,0-17.51-5.14-22.72-11.89-5.42-7-5.66-14.73-.63-20.15a4.69,4.69,0,0,1,1.59-1.12,165,165,0,0,0,58.23-41.27,4.81,4.81,0,0,1,2.31-1.4c5.08-1.31,11,.11,16.61,4,8.29,5.75,14.5,15.82,15.44,25a4.67,4.67,0,0,1-1.26,3.7,165.25,165.25,0,0,1-61.78,41.29A17.05,17.05,0,0,1,479,703.5Zm-17-25c-1.48,2.35.05,5.27,1.68,7.39,4.36,5.63,13.78,10.2,19,7.43a5.45,5.45,0,0,1,.55-.25,155.79,155.79,0,0,0,57-37.41A28.51,28.51,0,0,0,529,639.39a13.53,13.53,0,0,0-7.71-2.82A174.41,174.41,0,0,1,462,678.49Z" transform="translate(-258.73 -230.97)"/><g class="cls-31"><path class="cls-32" d="M523,676.77a158.15,158.15,0,0,1-38.17,20.67c-12.4,6.66-35.63-12.17-25.78-22.78a179.09,179.09,0,0,0,24.63-12.85C485.42,665.61,495,683.05,523,676.77Z" transform="translate(-258.73 -230.97)"/></g><g class="cls-31"><path class="cls-32" d="M541.6,533c-8.33,71.63-108.53,94.15-150.29,69l-2.9-11.72C449.33,597.36,504.73,576.34,541.6,533Z" transform="translate(-258.73 -230.97)"/></g><g class="cls-31"><path class="cls-32" d="M611.42,491.21q19.47,73.24-20.22,93.59c-16.62,3.81-24.92.66-22.51-11.46,0,0-15.53,5.14,2.41,21.47s20.88,24.92,31.66,22.74,26.62-10.1,29.22-18.43-1.72-42.43-1.72-42.43S634.37,498.39,611.42,491.21Z" transform="translate(-258.73 -230.97)"/></g><g class="cls-31"><path class="cls-32" d="M664.28,530.82s-5.73,37.55-32.3,5.65l.84,19.34s23.1,23.79,24,22.36,18.84-8.86,18.84-8.86S668.19,547.69,664.28,530.82Z" transform="translate(-258.73 -230.97)"/></g><g class="cls-31"><path class="cls-32" d="M531,635.08s18.18-.59,19.41-1.05,12-6.51,12-6.51,2.14-1.66,15.9-12c2.06-1.54,7.27-9.36,7.27-9.36l14.85,13.55L577,652.53l-23.19,8.55-9.36-7.5S543.06,642.11,531,635.08Z" transform="translate(-258.73 -230.97)"/></g><path class="cls-35" d="M507,289.37,458.62,275a9.1,9.1,0,0,1-1-1.71c-.9-3.62.52-14.9.52-14.9l8-13s19.42-12.92,23.21-13.4,15.24-.41,15.24-.41,12.63,4.14,13.71,8C519,242.06,507,289.37,507,289.37Z" transform="translate(-258.73 -230.97)"/><polygon class="cls-36" points="247.25 56.6 200.57 41.92 200.57 41.91 201.07 27.72 208.67 15.33 230.8 2.56 245.33 2.17 257.87 8.84 247.25 56.6 247.25 56.6"/><polygon class="cls-37" points="245.06 3.46 257.18 9.89 249.84 21.86 237.72 15.42 245.06 3.46"/><polygon class="cls-37" points="201.84 41.84 202.71 41.82 208.54 41.66 215.87 41.47 216.35 27.76 209.36 27.94 203.51 28.1 202.32 28.13 201.84 41.84"/><g class="cls-38"><polygon class="cls-39" points="249.84 21.86 215.87 41.47 216.35 27.76 237.72 15.42 249.84 21.86"/></g><g class="cls-40"><g class="cls-41"><polygon class="cls-42" points="215.87 41.47 225.25 48.38 246.63 55.52 249.84 21.86 215.87 41.47"/></g></g><polygon class="cls-37" points="201.84 41.84 246.63 55.52 215.87 41.47 201.84 41.84"/><polygon class="cls-37" points="257.18 9.89 249.84 21.86 246.63 55.52 257.18 9.89"/><g class="cls-43"><polygon class="cls-44" points="215.87 41.47 246.63 55.52 224.15 49.66 215.2 46.45 203.67 41.8 215.87 41.47"/></g><polygon class="cls-30" points="201.84 41.84 215.87 41.47 249.84 21.86 257.18 9.89 249.05 20.5 232.93 29.81 215.89 40.84 201.92 39.56 201.84 41.84"/><path class="cls-30" d="M464.84,259.27c.27,0,.82-.19,1.42-.31l-5.21.14s16.3-2.09,18.82-3.34,16.77-9.69,16.77-9.69-5.51,3.43-10.7,6.79l.68-.39,18.74,34-20.07-33.2c-4.39,2.85-8.37,5.56-8.36,6,0,0,.09,10.89.89,11.31s26.76,15.24,26.46,15.12-26.28-9.93-28.2-12.16-1-14.81-1-14.81l-7.15.19a1,1,0,0,1,.75,1c0,1.9.66,11.42.66,11.42s-5.4,1.69-6,.39S461.6,259.62,464.84,259.27Z" transform="translate(-258.73 -230.97)"/><g class="cls-45"><polygon class="cls-46" points="202.32 28.13 216.35 27.76 237.72 15.42 245.06 3.46 231.03 3.83 209.66 16.17 202.32 28.13"/></g><g class="cls-47"><path class="cls-48" d="M476.69,261.51c-.12-2.75,3.51-4.06,6.8-5.84s8.14-4.58,8.14-4.58c1.92-1,1.86-1.82,4.7-1.77a14.15,14.15,0,0,1,6.47,1.86c1.41.76,5.28,1.93,3.64,2.88s-9.27,2.89-14,5.87-12.78,9.73-15.25,9.52S476.8,264.25,476.69,261.51Z" transform="translate(-258.73 -230.97)"/></g><g class="cls-49"><polygon class="cls-50" points="248.83 21.82 246.55 54.83 227.46 21.75 237.41 15.61 248.83 21.82"/></g><polygon class="cls-30" points="205.81 28.17 197.64 22.93 205.14 28.56 198.4 39.67 205.6 29.17 216.49 36.38 206.51 28.53 212.2 16.78 205.81 28.17"/><polygon class="cls-30" points="205.36 28.39 199.57 29.75 205.25 28.91 207.32 37.84 205.71 29 213.53 27.3 205.82 28.22 203.01 19.5 205.36 28.39"/><g class="cls-51"><path class="cls-52" d="M461.43,261.77a3.67,3.67,0,1,0,1.15-5.32A3.87,3.87,0,0,0,461.43,261.77Z" transform="translate(-258.73 -230.97)"/></g><path class="cls-53" d="M636.05,245.85c-1.27-.86-3.75-2.64-6.37-4.53l0,0c-4.33-3.11-8.81-6.33-10.73-7.5-.39-.24-.74-.5-1.11-.77s-.75-.56-1.2-.84l-.07,0a7.1,7.1,0,0,0-3.88-1.17c-4.82,0-6.77,4.33-8.34,7.8-1.33,3-3.38,6.64-5.37,10.2-2.64,4.73-5.14,9.2-6.22,12.46-1.51,4.56-3.59,10.8,3.32,14.62,4.65,2.57,7.18,4.38,8,5.21,0,.18-.07.45-.15.83-1,2.22-2.34,5.47-3.71,8.61l-.74,1.51c-2.34,4.8-3.69,7.61-4.15,9.45a7,7,0,0,0,1.05,6.26,6.27,6.27,0,0,0,5,2.4c2.59,0,4.82-1.48,7.26-3.28,2.27-1.66,9.11-7.58,15.14-12.8l.08-.07,3.76-3.25.83-.71,2.56-2.18c1.77-1.45,5.05-4.14,5.16-8a2.48,2.48,0,0,0,0-.61,6.77,6.77,0,0,0-.14-1c-.41-2-1.83-4.68-6.28-6l-.49-.14c-1.39-.41-2.55-.78-3.46-1.12a78.43,78.43,0,0,1,7.68-6.95c3.24-2.67,4.84-4,5.78-5.64C641.91,253.78,640.75,249,636.05,245.85Z" transform="translate(-258.73 -230.97)"/><path class="cls-54" d="M635.17,247c-1.28-.86-3.76-2.64-6.4-4.54l0,0c-4.31-3.1-8.77-6.3-10.64-7.44-.45-.27-.84-.56-1.22-.84a7,7,0,0,0-4.33-1.78c-3.93,0-5.61,3.72-7.08,7-1.36,3-3.43,6.71-5.43,10.3-2.61,4.67-5.07,9.09-6.11,12.22-1.52,4.56-3.23,9.72,2.68,13,4.95,2.74,7.59,4.67,8.41,5.56a3.26,3.26,0,0,1,.3.35,6.48,6.48,0,0,1-.41,2.43,94.13,94.13,0,0,1-4.34,9.62c-2.31,4.72-3.63,7.48-4.06,9.19a5.62,5.62,0,0,0,.81,5.07,4.87,4.87,0,0,0,3.88,1.88c2.18,0,4.21-1.37,6.45-3s9-7.54,15.07-12.75l.07-.06c3.23-2.79,6-5.21,7.17-6.16,1.87-1.53,5.34-4.39,4.54-8.32-.33-1.64-1.53-3.83-5.32-4.94l-.49-.15a34.18,34.18,0,0,1-5.3-1.87c1.93-2.72,6.28-6.31,9-8.57,3.11-2.57,4.65-3.86,5.46-5.27C640.25,253.73,639.27,249.76,635.17,247Z" transform="translate(-258.73 -230.97)"/><path class="cls-55" d="M632.73,250.61c-3.37-2.29-14-10.16-16.91-11.91-3.32-2-3.43-4.07-6.36,2.44-3.18,7.05-9.72,17.11-11.38,22.1s-1.88,6.38.64,7.78c3.69,2,7.83,4.57,9.53,6.43,1.36,1.48,2,2.9.88,6.92s-7.66,15.85-8.38,18.7,2,1,4.31-.66c3.28-2.41,18.82-16.1,22.12-18.82,3.12-2.56,4.6-4.56.78-5.68-3.54-1-11-3-9.24-6.88,2.64-5.75,14.11-13.19,15.37-15.37S634.94,252.1,632.73,250.61Z" transform="translate(-258.73 -230.97)"/><path class="cls-30" d="M628.22,277.91c-2.06-.6-5.44-1.52-7.57-3,1.34,2.37,6.43,3.73,9.17,4.53.25.07.47.15.68.23C630.47,279,629.8,278.37,628.22,277.91Z" transform="translate(-258.73 -230.97)"/><path class="cls-30" d="M611,286c1.13-4,.48-5.44-.88-6.92a10.83,10.83,0,0,0-1.18-1.09c1.06,1.33,1.47,2.85.46,6.43-1.11,4-7.65,15.85-8.37,18.7-.46,1.81.46,1.74,1.77,1C604,300.52,609.94,289.71,611,286Z" transform="translate(-258.73 -230.97)"/><path class="cls-30" d="M599.94,264.82c1.66-5,8.2-15,11.38-22.1,2.93-6.51,3-4.45,6.37-2.43,2.87,1.75,13.54,9.62,16.9,11.9l.14.1a5.4,5.4,0,0,0-1.74-1.68c-3.36-2.29-14-10.16-16.9-11.91-3.33-2-3.43-4.07-6.37,2.44-3.17,7.05-9.72,17.11-11.37,22.1s-1.88,6.34.53,7.72C598.4,269.76,598.87,268,599.94,264.82Z" transform="translate(-258.73 -230.97)"/><g class="cls-56"><path class="cls-57" d="M600.29,259.67s10.28-19.41,11.37-21.5,9.77,5.28,14.65,8.9,8,4.54,7.48,7-7.24,6.77-7.24,6.77-4.26.56-4.89-3.15-13.62-1.81-17.24,4.73S594,270.93,600.29,259.67Z" transform="translate(-258.73 -230.97)"/></g><g class="cls-58"><path class="cls-59" d="M627,248.43s-10-7-12.34-8.56-5.91,4.78-8.33,9.74,6.73-3.13,11.93-1.24S629.93,252.43,627,248.43Z" transform="translate(-258.73 -230.97)"/></g><g class="cls-60"><path class="cls-61" d="M619.2,275a24.19,24.19,0,0,0,6.67,3.31c3.43.94,4.73,1.95-1.83,6.79a125.9,125.9,0,0,0-13.76,12.46s-2.72,1.72,2-4.13,9.74-11.4,7.91-13.17-.88-1.18-1.83-1.77S616.83,272.23,619.2,275Z" transform="translate(-258.73 -230.97)"/></g><path class="cls-30" d="M619.61,276s5,2.8,7.32,3.25,1.48,1.88,0,2.59-2.48-2.41-4.78-3.59S617,275.24,619.61,276Z" transform="translate(-258.73 -230.97)"/><path class="cls-62" d="M599.14,307.91a15.72,15.72,0,0,1,2.06-2.61c.41-.21,4.32-2.2,13.8-10.3s15.65-14.62,15.65-14.9-.41-1.31.41-1.21,3.78-.56,3.54,1-2.62,5.27-7.23,9.25-20.8,17.72-23.49,18.76S598.71,308.49,599.14,307.91Z" transform="translate(-258.73 -230.97)"/><path class="cls-63" d="M623.1,272.23l-4.42.95a23.34,23.34,0,0,0,7.07,3.63c4.4,1.41,4.26,1.64,5.09,1.64s3.15.3,3.34,0-.46-1.49-1.88-2.62S627.48,273.43,623.1,272.23Z" transform="translate(-258.73 -230.97)"/><path class="cls-63" d="M608.38,234.93a10.47,10.47,0,0,1,2.09.85,15.67,15.67,0,0,0,3.34.94l1.93-3.38S611.31,230.51,608.38,234.93Z" transform="translate(-258.73 -230.97)"/><path class="cls-64" d="M608.38,278.89l-2.46,1.62s-4.23,10-6.83,15.75-2.62,8.88-2.26,9.15,3.11-1.37,3.11-1.37,6-11.52,7.87-17.49S609.58,279,608.38,278.89Z" transform="translate(-258.73 -230.97)"/><polygon class="cls-65" points="367.87 47.66 372.17 40.14 368.61 47.66 379.6 53.11 368.53 48.32 362.91 58.51 367.45 48.24 357.04 41.84 367.87 47.66"/><polygon class="cls-65" points="368.35 47.63 373.84 46.13 368.69 47.97 371.27 55.62 368.35 48.24 361 50.37 367.89 47.7 366.02 39.89 368.35 47.63"/><g class="cls-66"><path class="cls-67" d="M630.46,279.26a3.53,3.53,0,1,1-3.53-3.52A3.52,3.52,0,0,1,630.46,279.26Z" transform="translate(-258.73 -230.97)"/></g><path class="cls-68" d="M734.84,312.6c1.72-4.15-8.66-5.17-15.14-5.18-1.51-2.78-5.88-10.57-8.8-12.72-3.25-2.4-9,7-12.42,12.73-6.24-.14-18.4.7-16.54,5.17,1.53,3.7,6.83,9.28,10,12.45-2,5.54-5.26,18.64-.2,18.16,4.68-.45,13.38-5.1,16.62-6.91,3.24,1.81,11.94,6.46,16.62,6.91,5.06.48,1.75-12.62-.21-18.16C728,321.88,733.31,316.3,734.84,312.6Z" transform="translate(-258.73 -230.97)"/><path class="cls-69" d="M725.28,344.24h0l-.36,0c-4.61-.44-12.75-4.67-16.52-6.76-3.77,2.09-11.91,6.32-16.53,6.76l-.36,0A2.91,2.91,0,0,1,689,343c-2.63-3.71.85-14.88,1.77-17.65-3.76-3.75-8.34-8.78-9.81-12.33a3,3,0,0,1,.23-2.88c2.23-3.34,11.91-3.7,16-3.7h.72c4.06-6.88,8.29-13.11,11.84-13.11a2.85,2.85,0,0,1,1.75.58c2.89,2.12,6.93,9.1,8.8,12.53,4.31,0,13.14.54,15.25,3.7a3,3,0,0,1,.23,2.88c-1.48,3.55-6,8.58-9.81,12.33.92,2.77,4.39,13.94,1.77,17.65A2.91,2.91,0,0,1,725.28,344.24Zm-16.89-9.1.49.28c2.65,1.48,11.65,6.34,16.23,6.78h.17a.88.88,0,0,0,.8-.41c1.47-2.07,0-10.14-2.23-16.42l-.22-.6.46-.46c3-3,8.34-8.55,9.81-12.11a.9.9,0,0,0,0-1c-1.09-1.64-6.91-2.79-14.16-2.81h-.6l-.29-.53c-1.29-2.39-5.72-10.34-8.51-12.39a.93.93,0,0,0-.55-.18c-2,0-5.47,4.24-10.4,12.62l-.3.51h-.59l-1.27,0c-7.3,0-13.17,1.16-14.27,2.81a.92.92,0,0,0,0,1c1.48,3.56,6.78,9.12,9.82,12.11l.45.46-.21.6c-2.22,6.28-3.7,14.35-2.24,16.42a1,1,0,0,0,1,.4c4.58-.44,13.57-5.3,16.22-6.78Z" transform="translate(-258.73 -230.97)"/><path class="cls-70" d="M734.84,312.6c1.72-4.15-8.66-5.17-15.14-5.18-1.51-2.78-5.88-10.57-8.8-12.72-3.25-2.4-9,7-12.42,12.73-6.24-.14-18.4.7-16.54,5.17,1.53,3.7,6.83,9.28,10,12.45-2,5.54-5.26,18.64-.2,18.16,4.68-.45,13.38-5.1,16.62-6.91,3.24,1.81,11.94,6.46,16.62,6.91,5.06.48,1.75-12.62-.21-18.16C728,321.88,733.31,316.3,734.84,312.6Z" transform="translate(-258.73 -230.97)"/><path class="cls-55" d="M730.58,313.6c1.44-3.49-7.27-4.34-12.7-4.35-1.27-2.34-4.93-8.87-7.39-10.68-2.72-2-7.57,5.86-10.41,10.69-5.23-.12-15.44.59-13.88,4.34,1.29,3.1,5.73,7.78,8.42,10.43-1.64,4.66-4.41,15.65-.18,15.24,3.93-.37,11.23-4.28,13.95-5.79,2.71,1.51,10,5.42,13.94,5.79,4.24.41,1.47-10.58-.17-15.24C724.84,321.38,729.29,316.7,730.58,313.6Z" transform="translate(-258.73 -230.97)"/><path class="cls-71" d="M717.88,309.25c-1.27-2.34-4.93-8.87-7.39-10.68-2.72-2-7.57,5.86-10.41,10.69-5.23-.12-15.44.59-13.88,4.34,1.29,3.1,5.73,7.78,8.42,10.43-.42,1.18-.9,2.75-1.33,4.44,5,.72,11.89-1.16,16.9-3,8.47-3.13,11.3-3.79,20.14-11.33.09-.18.18-.36.25-.53C732,310.11,723.31,309.26,717.88,309.25Z" transform="translate(-258.73 -230.97)"/><path class="cls-30" d="M693,309.49c-2.74.5-6.2,1.51-6.49,2.68s7,0,8.22-1.28S695.75,309,693,309.49Z" transform="translate(-258.73 -230.97)"/><path class="cls-30" d="M709.53,298.25c-1.29,0-4.52,3-6.84,6.76s4.84-4,6.84-3.85A1.47,1.47,0,1,0,709.53,298.25Z" transform="translate(-258.73 -230.97)"/><path class="cls-30" d="M700.29,310.09c0,.51-.73.92-1.63.92s-1.63-.41-1.63-.92.73-.92,1.63-.92S700.29,309.58,700.29,310.09Z" transform="translate(-258.73 -230.97)"/><path class="cls-30" d="M727.62,310.59c-3.7-1-8.54-1.9-9.45-1s8.23,1.91,11,3.16C731.15,313.66,731.31,311.58,727.62,310.59Z" transform="translate(-258.73 -230.97)"/><g class="cls-72"><path class="cls-73" d="M724.8,322.24c.22.62.46,1.34.7,2.11,3.22-3.23,7.91-8.31,9.34-11.75a1.93,1.93,0,0,0-.31-2.14C732.7,314.13,727.82,319.26,724.8,322.24Z" transform="translate(-258.73 -230.97)"/><path class="cls-73" d="M692,322.24c-3-3-7.89-8.11-9.73-11.79a1.94,1.94,0,0,0-.3,2.15c1.42,3.44,6.12,8.52,9.34,11.75C691.52,323.58,691.75,322.86,692,322.24Z" transform="translate(-258.73 -230.97)"/><path class="cls-74" d="M725,340.41c-4.68-.45-13.38-5.1-16.62-6.91-3.24,1.81-11.94,6.46-16.62,6.91-1.65.15-2.4-1.13-2.61-3.13-.28,3.48.28,6.15,2.61,5.93,4.68-.45,13.38-5.1,16.62-6.91,3.24,1.81,11.94,6.46,16.62,6.91,2.33.22,2.88-2.45,2.61-5.93C727.41,339.28,726.66,340.56,725,340.41Z" transform="translate(-258.73 -230.97)"/></g><path class="cls-30" d="M697.53,337.63a95,95,0,0,0,9.19-4.35c1.89-1.28,2-1,7.43,2.18s8.27,3.68,9.25,2.85.33,1.35-2.27.76a79.48,79.48,0,0,1-12-5c-.69-.55-9.4,4.88-13.58,5.08S694.4,338.9,697.53,337.63Z" transform="translate(-258.73 -230.97)"/><path class="cls-30" d="M711.18,295.15s-.27,3.33-1,3a1.46,1.46,0,0,0-1.57.15l-.67-3.1S709.76,293.46,711.18,295.15Z" transform="translate(-258.73 -230.97)"/><path class="cls-30" d="M683,310.09a8.68,8.68,0,0,1,2.56,1l1,.66a1.8,1.8,0,0,0-.55,1.21c0,.69.11.76.11.76s-3.91-.34-4.25-1.61A1.68,1.68,0,0,1,683,310.09Z" transform="translate(-258.73 -230.97)"/><path class="cls-62" d="M733.55,309.84a10.83,10.83,0,0,0-1.83.93,2.9,2.9,0,0,0-1,1,4.87,4.87,0,0,1,.17.81v.68a15.62,15.62,0,0,0,3.3-.68,1.46,1.46,0,0,0,.53-1.81C734.53,310.46,733.78,309.74,733.55,309.84Z" transform="translate(-258.73 -230.97)"/><path class="cls-62" d="M693.44,339.22a25.33,25.33,0,0,1-1.39,3.76,1.66,1.66,0,0,1-2.1-.46c-.48-.86-.73-1.46-.5-2s3.09-2.19,3.09-2.19S692.93,339.22,693.44,339.22Z" transform="translate(-258.73 -230.97)"/><path class="cls-62" d="M723.13,339.22a24.26,24.26,0,0,0,1.39,3.76,1.66,1.66,0,0,0,2.1-.46c.48-.86.73-1.46.49-2s-3.08-2.19-3.08-2.19S723.64,339.22,723.13,339.22Z" transform="translate(-258.73 -230.97)"/><path class="cls-75" d="M708.65,334v2.27s-13,6.55-14.67,6.87l-1.65.32L694,340S707.2,335.27,708.65,334Z" transform="translate(-258.73 -230.97)"/><path class="cls-76" d="M700.08,309.26l-1.6-1.83s4.12-7.72,7.16-10.46,4.62-3.35,4.59-1.11-.7,2.39-.7,2.39S706.14,298.54,700.08,309.26Z" transform="translate(-258.73 -230.97)"/><polygon class="cls-65" points="449.7 67.96 452.75 62.63 450.23 67.96 458.02 71.83 450.17 68.43 446.19 75.65 449.41 68.37 442.02 63.83 449.7 67.96"/><polygon class="cls-65" points="450.04 67.93 453.94 66.87 450.29 68.18 452.11 73.6 450.04 68.37 444.83 69.88 449.71 67.99 448.39 62.45 450.04 67.93"/><g class="cls-77"><path class="cls-78" d="M711.17,299.38a2.5,2.5,0,1,1-2.5-2.5A2.49,2.49,0,0,1,711.17,299.38Z" transform="translate(-258.73 -230.97)"/></g><path class="cls-79" d="M776.84,438.62a27.2,27.2,0,1,1,0-54.39h.74l.67,0h.06A27.74,27.74,0,0,1,798.88,395l1.13,1.47-.09.05a26.64,26.64,0,0,1,4.55,14.95v.1a26.81,26.81,0,0,1-8.14,19.17A27.67,27.67,0,0,1,776.84,438.62Zm0-51.05a23.86,23.86,0,1,0,24.3,23.95v-.08A23.41,23.41,0,0,0,796.21,397l-.85-1.09a24.39,24.39,0,0,0-17.27-8.33H778l-.53,0h-.67Z" transform="translate(-258.73 -230.97)"/><ellipse class="cls-80" cx="518.11" cy="180.46" rx="25.96" ry="25.53"/><path class="cls-71" d="M776.84,385.9a25.75,25.75,0,0,0-26,25.53c0,.31,0,.61,0,.92a39.88,39.88,0,0,0,51.89-.31c0-.2,0-.41,0-.61A25.75,25.75,0,0,0,776.84,385.9Z" transform="translate(-258.73 -230.97)"/><path class="cls-71" d="M797.56,396a26.22,26.22,0,0,0-41.44.14,40.39,40.39,0,0,0,41.44-.14Z" transform="translate(-258.73 -230.97)"/><path class="cls-81" d="M776.84,435.88a25.75,25.75,0,0,1-26-25c0,.18,0,.36,0,.54a26,26,0,0,0,51.93,0c0-.18,0-.36,0-.54A25.76,25.76,0,0,1,776.84,435.88Z" transform="translate(-258.73 -230.97)"/><path class="cls-55" d="M798,411.43a21.19,21.19,0,1,1-21.18-20.83A21,21,0,0,1,798,411.43Z" transform="translate(-258.73 -230.97)"/><path class="cls-79" d="M776.84,390.6a21.29,21.29,0,0,0-15.68,6.82,21.33,21.33,0,0,1,14.42-5.57,21,21,0,0,1,21.18,20.83,20.58,20.58,0,0,1-5.51,14A20.62,20.62,0,0,0,798,411.43,21,21,0,0,0,776.84,390.6Z" transform="translate(-258.73 -230.97)"/><path class="cls-82" d="M763.64,423.75a21,21,0,0,1,21.19-20.83,21.34,21.34,0,0,1,12.73,4.18,21.22,21.22,0,0,0-41.91,4.33,20.71,20.71,0,0,0,8.45,16.65A20.66,20.66,0,0,1,763.64,423.75Z" transform="translate(-258.73 -230.97)"/><path class="cls-30" d="M757.28,396.48c-2.28,3.18-4,7.07-2.89,8.27s3.57-5.75,7.1-8.59S760.47,392,757.28,396.48Z" transform="translate(-258.73 -230.97)"/><path class="cls-30" d="M768.6,388.71c-3.93.56-5.44,3-4.36,3.7s5.62-1.55,7-2.57S769.86,388.53,768.6,388.71Z" transform="translate(-258.73 -230.97)"/><path class="cls-30" d="M789.57,428.08s-8.1,5.53-16.07,3.77-11.38-4.29-13.61-7.93,2.31,9,15.53,9.6C789.92,434.16,792.56,426.37,789.57,428.08Z" transform="translate(-258.73 -230.97)"/><path class="cls-83" d="M818.31,522.54c-.29-.21-.48-.35-3-.44a4.52,4.52,0,0,0-4.78-5.58,1.56,1.56,0,0,1-.29,0,3.84,3.84,0,0,1-.17-.35,3.26,3.26,0,0,0-2.1-2,2.33,2.33,0,0,0-.59-.08,5.24,5.24,0,0,0-3,1.32c2.38-4.23,3.26-6.58,2.77-8-.86-2.46-4-3.59-6.52-3.59a6.5,6.5,0,0,0-2,.28,1.61,1.61,0,0,1-.52.07,12.64,12.64,0,0,1-2.55-.44,15.12,15.12,0,0,0-3.25-.51,4.35,4.35,0,0,0-1.55.25c-2.93,1.11-4.31,3.18-4,5.92a5.11,5.11,0,0,0-3.68-1.85,3.79,3.79,0,0,0-.67.06,5.48,5.48,0,0,0-4.74,3.79,5.64,5.64,0,0,1-1.36,2.13c-2.21,2-3.21,4-3,5.76a4.52,4.52,0,0,0,1.63,2.83l-2,0-2,0a1.29,1.29,0,0,0-1.21.88c-.34.93-.1,4.73.07,6.91.49,6.11.95,6.5,1.31,6.8a2.05,2.05,0,0,0,1.28.45c.75,5.3,1.79,12,2.74,15.8v0l.06.24v0l.06.23v0l.06.2v0l.06.21v0l.06.2v0a.76.76,0,0,0,.06.2v0l.06.17v0l.06.16v0a1.42,1.42,0,0,1,0,.16l0,0,.06.15v0l0,.13,0,0,.06.12,0,0,.06.12,0,0,.06.12,0,0,.07.11,0,0a.86.86,0,0,0,.07.1l0,.07.08.08.07.07a1,1,0,0,0,.2.16c.51.36,1.13.79,10.69.86a1.74,1.74,0,0,0,1.39.75l1,0,4.15.2c.85,0,1.5.07,2.13.08h1.23a5.75,5.75,0,0,0,1.22-.12,2,2,0,0,0,1.35-1c4.12-.08,10.26-.24,11.25-.52s1.37-.94,1.84-2.62A89.78,89.78,0,0,0,814.86,543c.23-1.78.46-3.74.69-5.82l.73,0c.89-.12,1.11-1,1.26-1.52a63.68,63.68,0,0,0,1.17-6.75C819.35,523.75,819,523,818.31,522.54Z" transform="translate(-258.73 -230.97)"/><path class="cls-84" d="M817.41,523.51c-.91-.67-45.4-.15-46.63-.15-.55,0,.32,11.92,1,12.46.09.08.19.17,1.55.23,1.06,7.62,2.78,18.66,3.94,19.46.26.18.94.65,12.65.65,8.26,0,19.7-.28,20.78-.59.48-.13,1.27-.36,2.83-12.74.3-2.41.57-4.83.79-6.86l1.67,0C816.35,535.88,818.31,524.19,817.41,523.51Z" transform="translate(-258.73 -230.97)"/><path class="cls-85" d="M776.23,538.51c-1.36-.07-1.46-.15-1.55-.23-.64-.54-2.66-9.27,1.45-10.45,1-.29,31.65-2.4,41.49-2.08.06-1.2,0-2.07-.21-2.24-.91-.67-45.4-.15-46.63-.15-.55,0,.32,11.92,1,12.46.09.08.19.17,1.55.23,1.06,7.62,2.78,18.66,3.94,19.46.13.09.36.25,2,.39A173.55,173.55,0,0,1,776.23,538.51Z" transform="translate(-258.73 -230.97)"/><path class="cls-86" d="M773.3,536.13c1.06,7.62,2.78,18.58,3.93,19.38.26.18.94.65,12.65.65,8.26,0,19.7-.28,20.78-.59.48-.13,1.27-.36,2.83-12.74.3-2.41.57-4.83.79-6.86l1.67,0S778.08,535.59,773.3,536.13Z" transform="translate(-258.73 -230.97)"/><path class="cls-87" d="M773.3,536.13c.15,1,.31,2.15.47,3.28,6.57-.5,21.47-1.44,26.24-.17,3.73,1,9,5.66,12.71,9.17.23-1.51.49-3.35.77-5.58.3-2.41.57-4.83.79-6.86l1.67,0S778.08,535.59,773.3,536.13Z" transform="translate(-258.73 -230.97)"/><path class="cls-83" d="M773.94,538.32c4-.45,30.86-.29,39.78-.23.08-.74.16-1.45.24-2.12l1.67,0s-37.88-.34-42.65.2c.14,1,.3,2.15.47,3.28l.64,0Z" transform="translate(-258.73 -230.97)"/><path class="cls-87" d="M803.18,523.17l-1.26,11.92v.73h1.67l-2,20.34s-4.24.64-4.57.66-.56-21-.56-21.15.62-11.64.94-11.73S803.18,523.17,803.18,523.17Z" transform="translate(-258.73 -230.97)"/><path class="cls-88" d="M795.74,527.29c3-5.37,11-17,10.14-19.48s-5-3.19-7-2.56-5.78-1.42-7.81-.65-4.23,2.38-2.82,6.34,5.37,16.79,5.37,16.79Z" transform="translate(-258.73 -230.97)"/><path class="cls-88" d="M798.79,525.53c5.51-.55,14.62-1.79,15.21-3.75a3.32,3.32,0,0,0-3.46-4.06c-2.19.29-1.2-1.85-3.07-2.43s-8.58,6.63-10.13,8.21S798.79,525.53,798.79,525.53Z" transform="translate(-258.73 -230.97)"/><path class="cls-83" d="M804.14,521.38c-.38-.21-3.46.4-5.3,1.83a4.23,4.23,0,0,0-1.46,2.34C798.45,524.86,804.53,521.58,804.14,521.38Z" transform="translate(-258.73 -230.97)"/><path class="cls-88" d="M792.26,523.21c-1.85-4.6-5.41-15.2-9.73-14.42s-3.11,3.44-5.5,5.63-4.52,5.36.18,7.82,14.81,3.85,15.53,4.08S792.26,523.21,792.26,523.21Z" transform="translate(-258.73 -230.97)"/><path class="cls-83" d="M795.64,526.59c1-3.17-.25-3.67.4-11.67,0,0-1.08,5.53-1.68,8.26C794,525,795.64,526.59,795.64,526.59Z" transform="translate(-258.73 -230.97)"/><path class="cls-83" d="M792.12,524.31c-.71-1.06-8.1-7.92-8.1-7.92s2.62,4,4.07,5.86C789.06,523.45,792.12,524.31,792.12,524.31Z" transform="translate(-258.73 -230.97)"/><path class="cls-89" d="M799.61,506.25l0,0a34.21,34.21,0,0,0-8.84-.29,3.1,3.1,0,0,0-.45,4.53c1.22,1.75,4.73.87,7.78-.38,1.55.92,5.14.37,5.87-1.11S802.9,505.91,799.61,506.25Z" transform="translate(-258.73 -230.97)"/><path class="cls-89" d="M780.39,511.3s-3.74,4.4-4.26,5.9h0s-1.09,2.33.84,3,4.47-4,5.26-4.74l0,0a5.85,5.85,0,0,0,1.38-1.79C785.21,510.28,783.42,509.11,780.39,511.3Z" transform="translate(-258.73 -230.97)"/><path class="cls-89" d="M809.16,518.8l-.07,0a8.49,8.49,0,0,0-2-2.49s-2.22,1.37-2.21,1.9c0,.35-.92.83.35,1.38-.74.68.91,1.92,1.34,2.53.91,1.25,4,.42,6-.57S812.12,519.31,809.16,518.8Z" transform="translate(-258.73 -230.97)"/><path class="cls-83" d="M799.67,534.1a.7.7,0,0,0-.06-.09l0,0,0,0a.48.48,0,0,0-.17-.1.53.53,0,0,0-.19-.06H799l-.52,0-1,0c-2.78.06-5.56.11-8.34.08h-.67a.42.42,0,0,0-.16,0,.6.6,0,0,0-.25.22.51.51,0,0,0-.07.15s0,.06,0,.09v.07l0,.26,0,.52-.11,2.09c-.07,1.39-.14,2.78-.2,4.17-.1,2.78-.12,5.57,0,8.35,0,1.4.11,2.79.23,4.18a18.4,18.4,0,0,0,.24,2.08,2.27,2.27,0,0,0,.14.51.52.52,0,0,0,.46.28l1.05,0,4.17.19,2.09.08h1a5.26,5.26,0,0,0,1.09-.1.79.79,0,0,0,.56-.42,2.27,2.27,0,0,0,.18-.56c.08-.35.13-.7.18-1,.09-.7.15-1.39.21-2.09.11-1.39.17-2.78.24-4.17.13-2.79.18-5.57.23-8.35,0-1.39,0-2.79.06-4.18v-1.82A.73.73,0,0,0,799.67,534.1Zm-2,21.95a14,14,0,0,1-2.2.1c-1.87,0-4.31-.09-5.76-.15l-.79,0c-.4-1.79-.22-13.51,0-21.07h9.66C798.23,551.76,797.87,555.35,797.7,556.05Z" transform="translate(-258.73 -230.97)"/><path class="cls-90" d="M798.58,534.94c-.79,0-1.58.07-2.38.1s-1.61.06-2.41.08l-4.83.09.3-.3c0,1.76-.07,3.51-.14,5.27l-.22,5.26c-.07,1.76-.1,3.51-.07,5.27,0,.88,0,1.76.07,2.63,0,.44.05.88.08,1.31a10.41,10.41,0,0,0,.16,1.28l-.19-.16,4.38.05h2.18l1.08,0c.36,0,.73,0,1-.09l-.28.26c0-.18.06-.4.09-.61s0-.43,0-.65c0-.44.07-.87.09-1.31,0-.88.1-1.76.14-2.64l.27-5.28c.09-1.76.16-3.53.27-5.29S798.46,536.69,798.58,534.94Zm.07,0c.05,1.77.06,3.54.06,5.3s0,3.53-.06,5.3-.08,3.53-.16,5.3c0,.88-.09,1.76-.15,2.65,0,.44-.07.88-.12,1.32,0,.23,0,.45-.07.67a6.86,6.86,0,0,1-.12.7l0,.23-.22,0a9.21,9.21,0,0,1-1.15.07h-1.1l-2.2-.06-2.19-.11-2.18-.13h-.17l0-.15a10.52,10.52,0,0,1-.11-1.35q0-.66,0-1.32v-2.64c0-1.76,0-3.51,0-5.27s-.05-3.52-.05-5.27.07-3.52.13-5.28v-.29h.3c1.61,0,3.22,0,4.83.08l2.41.08c.81,0,1.61.06,2.42.11h0Z" transform="translate(-258.73 -230.97)"/><path class="cls-91" d="M799.08,534.45c-.15,6.6-.53,21.56-1.05,22s-8.53,0-9.36,0-.15-22-.15-22Z" transform="translate(-258.73 -230.97)"/><path class="cls-89" d="M791.43,556.41c-.82,0-.15-22-.15-22h-2.76s-.67,21.95.15,22c.64,0,5.58.25,8,.17C794.38,556.54,791.88,556.42,791.43,556.41Z" transform="translate(-258.73 -230.97)"/><path class="cls-83" d="M799.76,523.61a.61.61,0,0,0-.08-.26.53.53,0,0,0-.07-.1.5.5,0,0,0-.11-.1.66.66,0,0,0-.24-.11H796.4c-1,0-2,0-3-.08s-2-.1-3-.17l-1.5-.09h-.21a.55.55,0,0,0-.28.07l-.07,0-.07,0h0l0,0-.05.06a.51.51,0,0,0-.14.26.5.5,0,0,0,0,.14.62.62,0,0,0,0,.12v.19c0,.12,0,.25,0,.38,0,2,0,4,.17,6s.26,4,.28,6a.48.48,0,0,0,.12.37.87.87,0,0,0,.36.18,4.82,4.82,0,0,0,.75.1c.5,0,1,0,1.51.08,1,0,2,.08,3,.1s2,0,3,0c.51,0,1,0,1.51,0a1,1,0,0,0,.29-.05.66.66,0,0,0,.29-.17.76.76,0,0,0,.2-.27,1.09,1.09,0,0,0,0-.17.37.37,0,0,0,0-.08V536l0-.75c0-2-.06-4,0-6,0-1,.06-2,.11-3l.07-1.5,0-.75v-.28A.28.28,0,0,0,799.76,523.61Zm-10.41,12.1c0-1.86-.26-9.89-.21-11.89l9.48.28a111.77,111.77,0,0,0-.33,11.51c-1.15,0-4.48.16-6.83.16C790.22,535.77,789.63,535.74,789.35,535.71Z" transform="translate(-258.73 -230.97)"/><path class="cls-90" d="M798.58,524.13c-.78,0-1.56.06-2.34.08h-2.37c-.79,0-1.58,0-2.37,0l-2.37-.06.32-.31c0,1,0,2-.06,3s0,2,0,3,0,2,.08,3,.1,2,.13,3l-.19-.21c.72,0,1.47,0,2.21,0l2.23-.08,4.46-.18-.36.36c0-.92,0-1.9,0-2.86s0-1.93.08-2.89.12-1.92.21-2.88c0-.48.1-1,.16-1.44S798.5,524.59,798.58,524.13Zm.07-.07,0,1.48,0,1.44c0,1,0,1.92,0,2.87s0,1.92,0,2.87l0,1.44c0,.49,0,1,0,1.47l0,.34-.35,0c-.74,0-1.49,0-2.24,0l-2.24,0c-.74,0-1.49,0-2.24,0a21.71,21.71,0,0,1-2.26-.13l-.19,0v-.19c0-.48,0-1,0-1.48s0-1,0-1.48c0-1,0-2-.07-3s-.11-2-.17-3-.12-2-.12-3v-.31h.32c.79,0,1.58,0,2.37.07l2.37.12,2.36.15c.79.07,1.58.12,2.37.21Z" transform="translate(-258.73 -230.97)"/><path class="cls-88" d="M799.11,523.66a89.5,89.5,0,0,0-.39,12.38s-9.83.41-9.83,0c0-.92-.19-12.68-.19-12.68Z" transform="translate(-258.73 -230.97)"/><path class="cls-89" d="M792.4,526.7c1.44-1.43,6.51-.67,6.51-.67.06-.76.12-1.55.2-2.37l-10.41-.3s.19,11.76.19,12.68a5.52,5.52,0,0,0,2.07.18C790.91,532.55,790.54,528.53,792.4,526.7Z" transform="translate(-258.73 -230.97)"/><path class="cls-30" d="M781.77,511.49c-1.66,1.16-1.58,3.17,0,2.13S782.9,510.71,781.77,511.49Z" transform="translate(-258.73 -230.97)"/><path class="cls-30" d="M778.92,515.44c-.92.95-2.56,2.36-1.81,3.66s2.68-1,3.2-2.42S780,514.38,778.92,515.44Z" transform="translate(-258.73 -230.97)"/><path class="cls-30" d="M795.17,507c-2.73,0-5.36,1.47-4.43,2.3s5.59-.34,8.37-.31S801.45,507,795.17,507Z" transform="translate(-258.73 -230.97)"/><path class="cls-30" d="M797.74,524.2c-1.79-1.29-7.52-.35-7.91.39s-.91,9.16-.39,7.22-.17-5.67,3.8-6.18S798.09,524.45,797.74,524.2Z" transform="translate(-258.73 -230.97)"/><path class="cls-30" d="M775.78,523.94c-3-.13-4.93-.09-4.28,3.89s0-.45,2.06-1.24,10.78-.92,8.92-1.79S775.78,523.94,775.78,523.94Z" transform="translate(-258.73 -230.97)"/></g></g></svg>