<svg xmlns="http://www.w3.org/2000/svg" viewBox="0 0 350.88 318.5"><defs><style>.cls-1{fill:#d2a2dd;}.cls-2{fill:#a57daf;}.cls-3{fill:#ffe4d2;}.cls-4{fill:#ab7bd6;}.cls-5{fill:#d6b0ff;}.cls-6{fill:#595959;}.cls-7{fill:#ac99c6;}.cls-8{fill:#ffb8f0;}.cls-9{fill:#ef75cf;}.cls-10{fill:#796696;}.cls-11{fill:#e5ba9c;}.cls-12{fill:#e57061;}.cls-13{fill:#764ea0;}.cls-14{fill:#ce4db3;}.cls-15{fill:#ead9ff;}.cls-16{fill:#b23b32;}.cls-17{fill:#fc827a;}.cls-18{fill:#8c221f;}.cls-19{fill:#7f7f7f;}.cls-20{fill:#ef8f9b;}.cls-21{fill:#512a10;}</style></defs><g id="Layer_2" data-name="Layer 2"><g id="Layer_4" data-name="Layer 4"><path class="cls-1" d="M72.1,307.44C41.33,296,17.6,275.5,6.54,247.45c-16.82-42.67-.23-92.5,38.63-132.39-.37,3.48-.8,6.93-1.34,10.32-.94,5.92-2.81,10-2.56,16.27.2,5.27,1.74,10.39,1.88,15.56s-2.07,9.71-2.49,14.76c-1.12,13.28,8.46,23.36,11.24,36.16,2.87,13.17.4,26.45-1.45,39.5C47.15,271,56.42,292.07,72.1,307.44Z"/><path class="cls-1" d="M326,222.06c-3-4.22-10.16-6-15.15-6.87,1.17-8.6,19.61-15.82,8.71-25-9.67-8.18-25.65-4.24-23.78-20.69,1-8.54,8-13.44,9.74-21.42,1.81-8.37,2.9-20.62,1.52-29.06-1.46-8.89-8.62-12.45-13-19.29C289.83,93,291.5,83.46,291.47,76A41.82,41.82,0,0,0,287,57.69c26.74,11.91,47.25,31.13,57.3,56.62C357.84,148.56,349.81,187.43,326,222.06Z"/><path class="cls-2" d="M326,222.06c-22.22,32.36-58.22,61-103.28,78.79C168.94,322.05,114,323.08,72.1,307.44,56.42,292.07,47.15,271,50.45,247.63c1.85-13,4.32-26.33,1.45-39.5-2.78-12.8-12.36-22.88-11.24-36.16.42-5.05,2.63-9.66,2.49-14.76s-1.68-10.29-1.88-15.56c-.25-6.27,1.62-10.35,2.56-16.27.54-3.39,1-6.84,1.34-10.32,21.48-22,49.77-41.06,83-54.15C185.55,38.29,244.27,38.63,287,57.68h0A41.82,41.82,0,0,1,291.47,76c0,7.51-1.64,17.08,2.6,23.75,4.36,6.84,11.52,10.4,13,19.29,1.38,8.44.29,20.69-1.52,29.06-1.71,8-8.77,12.88-9.74,21.42-1.87,16.45,14.11,12.51,23.78,20.69,10.9,9.21-7.54,16.43-8.71,25C315.85,216.08,323,217.84,326,222.06Z"/></g><g id="Layer_3" data-name="Layer 3"><path class="cls-3" d="M222.8,173.67a12.25,12.25,0,0,1-3.24-2.42c-4.46,2-9.12,3.64-13.66,5.43-4,1.54-8.17,3.63-12.51,3.35a.72.72,0,0,1-.42.26c-3.21.76-8.29-6.44-6.26-8.42a.91.91,0,0,1,.68-1.36c5.12-.66,10.13-2.86,15-4.57q3.25-1.12,6.46-2.39a9.5,9.5,0,0,1-2.31-2c-1-1.09-1.44-2.53-2.26-3.75l-.26-.07a.84.84,0,0,1,.44-1.63c3.93,1,7,1.41,10.87.16a32,32,0,0,0,8.88-4.71c3.79-2.77,6.43-6.41,9.34-9.91a22,22,0,0,1-4.67-.67,8.71,8.71,0,0,0-1.24-.14.58.58,0,0,1-.55-.35.71.71,0,0,1-.61-1.05c1.3-2,2.5-3.92,3.51-5.84a22.68,22.68,0,0,0,.43-10.18c-.38-2.76-1.29-5.34-1.93-8a17.7,17.7,0,0,0-1.54-5c-1.45-2.47-4.21-3.3-6.61-4.84-14-8.91-30.79-13-47-15.66-7-1.13-14-1.67-21-2.69-1.58-.23-5.16.09-6.38-1.11-.59-.58-1.56-4-1.82-4.76-1.17-3.25-.87-7-3.16-9.82-4.68,2.39-7,8.21-9.06,12.73-1.07,2.31-.73,2.28-2.86,2.94-2.84.88-6.66.5-9.61.5-7.13,0-13.46-.25-20.4,1.94-5,1.58-9.06,3.93-13.6,6.46-3.29,1.82-7.13,3.5-9.49,6.58h-.26a90.93,90.93,0,0,0-1.38,9c-.71,6.76.47,13.14.5,19.84a.65.65,0,0,1-.69.64,25.4,25.4,0,0,1-.85,11.39,6.36,6.36,0,0,0-1.78,3.1,13.88,13.88,0,0,0-.54,3.42c-1.59,4.16-3.39,8.75-5.91,12.14,0,.2.07.39.1.58,1.58,8.44,7.65,15.13,13.64,21a87,87,0,0,0,18.73,13.91c14.14,7.79,28.92,10.29,44.88,10.21,12.74-1.46,25.1-3.76,37.45-8.2q8.25-3,16.16-6.72l.18-.2a.71.71,0,0,1,.76-.24c2-1,4-2,6-3a51.54,51.54,0,0,0,8.72-5.32,16.42,16.42,0,0,1-.34-3.15c0-2.73,1.57-4.83,4.44-4.62,2.3.17,4.48,1.69,6.32,3.38.7-.35,1.5-.6,2.16-1a7.64,7.64,0,0,0,2.38-2.32,1.52,1.52,0,0,1,.22-.22c-.08-.6-.19-1.2-.31-1.79C225.39,174.94,223.86,174.21,222.8,173.67Zm-2.1-35.47a45.26,45.26,0,0,0-4.63-2,18.34,18.34,0,0,0-5.61-.69c-.91,0-.89-1.34,0-1.4,3.27-.24,9,.07,11,3.15C221.71,137.69,221.23,138.4,220.7,138.2ZM207,129.35c5.7-.1,12.25-1.08,17.86,0a.59.59,0,0,1,0,1.12c-5.61,1.1-12.16.12-17.86,0A.59.59,0,0,1,207,129.35Zm-97.2-34.5a35.25,35.25,0,0,1-4.93,2.7,41.78,41.78,0,0,1-4.71,2.18c-.54.17-1-.62-.57-1,2.77-2.21,6.66-2.9,9.67-4.81C109.84,93.55,110.36,94.47,109.79,94.85Zm56.92-3.1c-2.11.18-4.12-.51-6.14-1a27.29,27.29,0,0,0-7.73-.93c-.84,0-.81-1.21,0-1.29A27.86,27.86,0,0,1,166.91,91C167.28,91.21,167.07,91.72,166.71,91.75Z"/><path class="cls-4" d="M119.87,54.56c-3,.25-21.82,12.67-22.47,4.95-1.89-.3-4.1.52-6.07,1.25,0,.29.09.56.13.86a6.12,6.12,0,0,1,.29,3.05,45.85,45.85,0,0,1-.1,7.23,8.35,8.35,0,0,1-.22,1.79c-.1.68-.22,1.35-.36,2a.94.94,0,0,0,0,.09,59.18,59.18,0,0,1,13.16-9.89.12.12,0,0,0,.08,0,.81.81,0,0,1,.14-.4,1.13,1.13,0,0,1,1.24-.51,10.33,10.33,0,0,1,5.59,4c1.19,1.53,2.81,3.88,2.75,5.89a.68.68,0,0,1-.68.62,8.66,8.66,0,0,1-1.53,1.36c1,0,2,.13,2.87.16,4.2.15,8.41.08,12.61,0a38.79,38.79,0,0,1,5.29-15.66c-.38.23-.76.44-1.13.63C121.65,66.84,126.77,54,119.87,54.56Z"/><path class="cls-4" d="M78.34,64.34c-3.19-.72-2.25-3.41-4.88-4.57a7.24,7.24,0,0,0-5.63.14c-.27.37-.55.73-.81,1.1a98.89,98.89,0,0,0-10.19,19.3A39.78,39.78,0,0,0,53.9,91.06a17.55,17.55,0,0,0,0,3.24c4-5.45,12.66-8.91,18.86-9A56.32,56.32,0,0,1,75.9,77.7c2.16-5.41,5.16-10.66,9.76-14,.47-.5,1-1,1.44-1.47C84.27,63.47,81.17,65,78.34,64.34Z"/><path class="cls-4" d="M85.49,42.56a115.08,115.08,0,0,0-10.23,8.83C78.88,48.59,82.56,45.88,85.49,42.56Z"/><path class="cls-4" d="M232.55,50.76a77.21,77.21,0,0,1-4.32-6.83c-.77-1.38-2.47-5.14-4.45-4.88-2.69.36-3.6,6.81-4.78,8.6-6.42,9.71-15.21-4.23-20.44-8.49-4.32-3.52-6.14-3.2-9.87.38-2.5,2.4-5.21,5.11-9,3.84-4-1.32-7.45-8-9.31-11.54-1.71-3.23-2.9-2.78-6.41-1.73-7.73,2.32-14.38,8-22.12,9.89-6.51,1.62-3.64-4.13-4.55-8.46-11.75-.84-20,11.6-31.32,13.15-12.73,1.76-5.9-17.15.58-22.52a49,49,0,0,1,5-2.65,54.25,54.25,0,0,1,12.37-3.84c2.79-.53,5.7-.6,8.56-.85a6.25,6.25,0,0,0-.05.94c0,1.43.6,4.52,1.65,5.52s2.69.95,4.28,1c3.67.1,6.14-1,9.44-2.41,2.48-1,6.6-3,9.17-1.23,2.19,1.48,2.67,5.19,5.42,6s4.8-2.24,6.62-3.73c2.85-2.36,4.61-3.82,8.32-2.77a35.54,35.54,0,0,1,8.52,3.78c6.87,4,15.23,5.6,23,3.16.47-.15.93-.3,1.36-.47,3.7,3.3,7.44,6.63,12,8.48a40.68,40.68,0,0,1,3.37,5.51c.63,1.19,1.25,2.39,1.94,3.58C229.07,45.07,230.83,47.9,232.55,50.76Z"/><path class="cls-4" d="M246.08,105.79a1.11,1.11,0,0,1-.57-1c-.39-6.53-.54-13-1.15-19.49a3.44,3.44,0,0,1-1.06.6c-4.2,1.4-8.51-5.79-11.05-8-4.7-4.06-9-.74-13.72,1.68-2.74,1.42-7.66,3.27-10.5,1.44-2.12-1.37-3.67-5.57-4.57-7.76-2.4-5.81-8.19-11.31-14.9-11.23-1.78,0-3.52.8-5.28,1.33,1.62.94,3.21,1.95,4.84,2.92C191,68,193.89,69.34,196,72a.63.63,0,0,1,.13.36c.2.59-.14,1.43-.88,1.35-3.36-.36-6.31-1.89-9.56-2.69-3.8-.94-7.76-1.47-11.61-2.12a115.79,115.79,0,0,0-18.2-1.47c.13,1.41,0,2.91,0,4.26a54.12,54.12,0,0,0,.46,6.74c6.51-.7,13.35,1.79,19.61,3.24,7.59,1.75,15.22,3.6,22.72,5.67a103.15,103.15,0,0,1,19.22,7.4c6.06,3.07,12.78,6.57,17.32,11.71A.87.87,0,0,1,234,107.7c-.74-.62-1.52-1.22-2.3-1.81,5.58,10.39,6.58,26.39-3,33.67h.24c.9,0,1.79.14,2.7.25a8,8,0,0,0,3.92-.78.66.66,0,0,1,.34,0,3.58,3.58,0,0,1,.27-.29.64.64,0,0,1,1.09.47l2.26.15.05-.84c.67-9.24,1.59-19.16,6.57-27.18A46.56,46.56,0,0,1,246.08,105.79Z"/><path class="cls-5" d="M90,59.54c-1,.89-1.94,1.81-2.86,2.74a24.13,24.13,0,0,1,2.41-.9c.57-.17,1.18-.39,1.82-.62-.06-.38-.12-.77-.19-1.14A.64.64,0,0,0,90,59.54Z"/><path class="cls-5" d="M244.36,85.35c2-1.62,2.06-5.34,1.73-7.42a43.73,43.73,0,0,0-8.16-19.88c-1.86-2.44-3.67-4.84-5.38-7.28A105.73,105.73,0,0,1,239.12,63C242.29,70.25,243.65,77.74,244.36,85.35Z"/><path class="cls-5" d="M96.1,33l-4.45,3a51,51,0,0,1,14.9-13.85,8.62,8.62,0,0,1,1-.71c-4,1.62-9.62,4-13.85,8.29-2.59,2.63-3.62,6-5.45,9.11a25.66,25.66,0,0,1-2.74,3.7c3.71-2.89,7.54-5.63,11.32-8.34C97.52,33.7,96.85,32.52,96.1,33Z"/><path class="cls-5" d="M166.94,57.23a33.09,33.09,0,0,0-8-1.41c.66-3.22.85-6.54,1.51-9.77a69.58,69.58,0,0,1,3.28-10.29c.23-.66-.57-.95-1-.62a.72.72,0,0,0-.64,0c-3.35,2.1-7.18,3.34-10.4,5.63a79.48,79.48,0,0,0-12.76,11.84,52.35,52.35,0,0,0-6.36,8.67,31,31,0,0,0,6.68-5.89c2.37-2.7,4.93-4.87,7.48-7.42,3.69-3.68,9-7.54,14-9.3-.63,3.71-5.58,16.26-1.93,18.83,1.7,1.19,6.76.62,8.88,1.13,4,1,7.44,3.76,11.16,5a7.31,7.31,0,0,0,4.46-.22,36.23,36.23,0,0,0-4.65-2.36A86.85,86.85,0,0,0,166.94,57.23Z"/><path class="cls-5" d="M75.26,51.39c-3.89,3-7.69,6.08-10.36,10.11a14.65,14.65,0,0,1,2.93-1.59A69.14,69.14,0,0,1,75.26,51.39Z"/><path class="cls-5" d="M203.46,73.33c.9,2.19,2.45,6.39,4.57,7.76,2.84,1.83,7.76,0,10.5-1.44,4.68-2.42,9-5.74,13.72-1.68,2.54,2.19,6.85,9.38,11.05,8a3.44,3.44,0,0,0,1.06-.6c-.71-7.61-2.07-15.1-5.24-22.36a105.73,105.73,0,0,0-6.57-12.22,78.87,78.87,0,0,1-4.32-6.84c-.77-1.38-2.47-5.14-4.45-4.87-2.69.36-3.6,6.8-4.78,8.59-6.42,9.72-15.21-4.23-20.44-8.49-4.32-3.52-6.14-3.2-9.87.38-2.5,2.4-5.2,5.11-9,3.85-4-1.33-7.45-8-9.31-11.55-1.71-3.22-2.9-2.78-6.41-1.73-7.73,2.32-14.37,8-22.12,9.89-6.51,1.62-3.64-4.13-4.55-8.46-11.74-.83-20,11.6-31.31,13.15-12.74,1.76-5.91-17.15.57-22.52A51,51,0,0,0,91.65,36l4.45-3c.75-.5,1.42.68.71,1.2C93,36.93,89.2,39.67,85.49,42.56c-2.93,3.32-6.61,6-10.23,8.83a69.14,69.14,0,0,0-7.43,8.52,7.24,7.24,0,0,1,5.63-.14c2.63,1.16,1.69,3.85,4.88,4.57,2.83.63,5.93-.87,8.76-2.06C88,61.35,89,60.43,90,59.54a.64.64,0,0,1,1.18.08c.07.37.13.76.19,1.14,2-.73,4.18-1.55,6.07-1.25.65,7.72,19.51-4.7,22.47-4.95,6.9-.57,1.78,12.28,11.56,7.4.37-.19.75-.4,1.13-.63a52.35,52.35,0,0,1,6.36-8.67,79.48,79.48,0,0,1,12.76-11.84c3.22-2.29,7-3.53,10.4-5.63a.72.72,0,0,1,.64,0c.45-.33,1.25,0,1,.62a69.58,69.58,0,0,0-3.28,10.29c-.66,3.23-.85,6.55-1.51,9.77a33.09,33.09,0,0,1,8,1.41,86.85,86.85,0,0,1,11.69,3.84,36.23,36.23,0,0,1,4.65,2.36c1.76-.53,3.5-1.31,5.28-1.33C195.27,62,201.06,67.52,203.46,73.33Z"/><path class="cls-6" d="M204.5,171a35.82,35.82,0,0,1,1.58,3.45c-2.14.88-4.27,1.79-6.43,2.54a29.21,29.21,0,0,1-6.72,1.56h0a15.47,15.47,0,0,1-3.37-2.68,5.92,5.92,0,0,1-1.32-2.12,3,3,0,0,1,.11-1.61c4.24-.23,8.44-2,12.42-3.35.45-.13.88-.29,1.33-.44A9.35,9.35,0,0,1,204.5,171Z"/><path class="cls-6" d="M107.77,18.52a.51.51,0,0,0,0,.1c-.13-.56-.35-1.11-.48-1.7a23.44,23.44,0,0,1-.81-7c1.19.64,2.51,2.44,3.37,3.14A47.42,47.42,0,0,0,113.75,16c-1.22.49-2.38,1-3.45,1.5-.86.4-1.67.83-2.48,1.27A1.26,1.26,0,0,0,107.77,18.52Z"/><path class="cls-6" d="M236.46,12.21c.85,1-.57,6.65-.77,7.67a47.62,47.62,0,0,1-5.2,14,.81.81,0,0,0-.11.43c-3.92-4.94-8.8-8.81-15.19-10.08a.36.36,0,0,0-.43.45c-1.2-1-2.39-2-3.58-3l.07,0c2.85-.16,5.65-1.77,8.13-3,3.94-2,7.75-4.33,12-5.81C232.37,12.49,235.51,11.1,236.46,12.21Z"/><path class="cls-7" d="M210.84,13.9c-1.35.83-2.67,1.72-3.93,2.68a.73.73,0,0,0,0,1.16l-.23.31c-.8-.6-1.63-1.18-2.47-1.73a75.74,75.74,0,0,0-8.07-4.5C201.05,12.23,205.84,13.07,210.84,13.9Z"/><path class="cls-8" d="M115.8,9.78a46.36,46.36,0,0,0,5.6,3.6c-2,.54-3.92,1.16-5.76,1.85-1.76-1.57-3.6-3-5.31-4.65-1.33-1.27-2.57-2.48-4.5-2.48a.8.8,0,0,0-.77.59,23.59,23.59,0,0,0,.07,6.39c.16,1.31.11,3.37.94,4.49,0,0,.08.07.11.11a45.28,45.28,0,0,0-5.45,3.86c0-3.29-.71-6.43-1.18-9.72-.67-4.47-1.51-13.77,6-11.19C109.56,4,112.52,7.31,115.8,9.78Z"/><path class="cls-8" d="M245.49,5.87c1.57,4.91-.67,11.48-2,16.24a96.59,96.59,0,0,1-8,19.62.67.67,0,0,0-.14.15A58.59,58.59,0,0,0,231,35.2a.77.77,0,0,0,1-.38,47.49,47.49,0,0,0,5.95-24,.79.79,0,0,0-.77-.78c-4.54.31-8.64,2-12.66,4-4.48,2.25-9.15,4.3-13.55,6.64a.52.52,0,0,0-.23.63c-1.33-1.13-2.68-2.24-4.1-3.29l.23-.31a.56.56,0,0,0,.71,0c6.71-4.31,13.89-7.38,21.27-10.34C232.53,6,243.65.08,245.49,5.87Z"/><path class="cls-9" d="M260.52,14.82c1,5.24,0,10.2-.72,15.4a58.23,58.23,0,0,1-3.55,15.08.18.18,0,0,1,0,.06c-3.48,1.63-7.08,2.61-11,2A13,13,0,0,1,239.55,45a19.1,19.1,0,0,1-2.35-2.32,93.15,93.15,0,0,0,8.63-22.32c1.06-4.49,3.3-12.53.3-16.74a4.36,4.36,0,0,0-1-1c6.62,1,9.91,7.67,14.59,11.79a.85.85,0,0,0,.77.22A.48.48,0,0,0,260.52,14.82Z"/><path class="cls-9" d="M297.12,196.41c3.21,1.93,7,3.67,10.68,3.46a38.3,38.3,0,0,1-16.65,10.24c-8.36,2.45-17.4,4.33-25.8,1.22a1.22,1.22,0,0,0-.3-.06,48,48,0,0,0-5-5.25,31.8,31.8,0,0,0,6.3.59c6.44.11,11.93-1.82,17.72-4.47.49-.22.14-1.06-.37-.87-7.4,2.65-19.68,5.78-27,.78a20.63,20.63,0,0,0,6.18-4.05,17.3,17.3,0,0,0,3.74-4.93c.4,2.58,1,5.13,1.14,7.76a1.06,1.06,0,0,0,1.58.91c3.94-2.53,5.84-6.69,6.72-11.35,3.92-.4,7.78-.67,11.62.56C291.21,192.07,294,194.52,297.12,196.41Z"/><path class="cls-9" d="M299.72,223.87c3.06,3.19,6.42,7.34,10.73,9-5.25,3.2-11.18,2.94-17.31,2.25a56.66,56.66,0,0,1-9.74-1.82c-3.11-.92-5.31-2.42-8-4a.73.73,0,0,0-.35-.12,64.66,64.66,0,0,0-7-13.86c9,1.47,13.92,10.55,23,11.83.82.11,1.22-1.11.35-1.3-5.71-1.29-10-6.89-15-10.26a46,46,0,0,0,6.79-.78c0,.42.35.88.82.68C290.29,212.77,295.86,219.84,299.72,223.87Z"/><path class="cls-9" d="M290,115.61c10.13,4.33,8.29,18.49,6.28,27.35-1.76,7.76-5.45,16.84-13.28,20.22-11.09,4.78-10.56-17.89-9.47-23.84C275,131.27,279.76,115.78,290,115.61Z"/><path class="cls-7" d="M290.1,113.6l-.72-.13a1,1,0,0,0-1.06.62c-7.26.89-12.41,10.15-14.71,16.12-3.44,8.94-4.71,19.64-1.29,28.78,1.12,3,3.38,7.26,7,7.62a7.28,7.28,0,0,0,2.92-.37,31,31,0,0,1-5.86,4.62,13.86,13.86,0,0,1-3.1,1.43,10.65,10.65,0,0,1-2.47.26,1,1,0,0,0-.41-.33c-5.63-2.42-7.54-9.37-9-14.8a59.85,59.85,0,0,1-2-23.54c.89-6.81,3-14.94,8-20,3.11-3.16,10.2-7.25,15.29-7.31.15.06.31.11.45.15a11.67,11.67,0,0,1,2.18,1.31,19.56,19.56,0,0,1,3.52,3.75C289.3,112.37,289.68,113,290.1,113.6Z"/><path class="cls-3" d="M249.66,202c22.08,11.28,29.61,40.59,29.1,63.66-.3,14.2-2.59,32.17-15.7,40.31-3.11,1.94-7.15,3.94-10.94,3.21-3.61-.69-6.7-3.49-9.26-6a130.41,130.41,0,0,1-15.11-17.57c-5.08-7-9.64-13.91-13-21.9-3-6.9-6.69-13.94-8.83-21.15a.85.85,0,0,0,0-1.1c-2.9-2.91-5.93-5.14-7.76-9a19.07,19.07,0,0,1-.89-13.93c2.62-8.06,10.4-12.45,15.24-18.95,4-5.4,3.2-10.29,1.68-16.42-.37-1.51-.59-2,.43-3.32a3.35,3.35,0,0,1,.69-.71c3.34-.44,7,4.23,8.58,6.6a25.53,25.53,0,0,1,4,12.4c0,.24.41.31.45.05s0-.23,0-.35a.52.52,0,0,0,.87-.48c-.79-4.38-.58-7.89-2.07-11.3.86-3.19,2.28-6.28,2-9.64-.14-1.42-.58-2.79-.84-4.19-.22-1.13-.75-3.6.12-4.69,1.29-1.61,3.54-.64,4.62.4,6.87,6.61,5.93,17.39,5.32,26-.06.8,1,.82,1.29.18,2.13-5.55,2-14,.18-19.66a23.43,23.43,0,0,0-3-6.07c.94-2.64,4.11-2.6,6.32-1.29,2.43,1.44,3.55,4.2,4.24,6.82a45.86,45.86,0,0,1,1.35,15.82,50.25,50.25,0,0,1-13.45,29.63,1.1,1.1,0,0,0-.22,1.34,17,17,0,0,0-4.7-.84.56.56,0,0,0-.14,1.09c2,.5,4.29.84,6.06,2,2.31,1.56,3.68,4.36,5.15,6.66,3.17,5,6.69,9.73,9.85,14.73a102.44,102.44,0,0,1,8.41,15.95c2.3,5.67,3.08,11.29,4,17.31.13.9,1.36.55,1.45-.2,1.62-13.24-6-26.47-13.26-36.95-3.76-5.41-7.56-11.11-11.75-16.2a11.37,11.37,0,0,0-3.6-3,1.18,1.18,0,0,0,.47-.27c5.79-5,9.86-12.2,12.15-19.92A1.14,1.14,0,0,0,249.66,202Z"/><path class="cls-4" d="M275.31,66c3.76,12,3.38,24.31,3.39,36.67a38.69,38.69,0,0,0-6.94-2.52c-.16-18.66-4.34-38.6-13.23-55.12a37.25,37.25,0,0,0,1.43-4.5.45.45,0,0,0,.16.28c3.67,2.85,6,6.48,8.24,10.47C271.07,56.06,273.67,60.75,275.31,66Z"/><path class="cls-4" d="M275.11,173.89c-.12,7.67.57,19.45-5.41,24.92a22.61,22.61,0,0,0-2-8.58c.1-.36.2-.71.28-1.07.18-.74-.94-1.31-1.29-.55a22.78,22.78,0,0,1-5.27,7.43c-2.43,2.25-5.28,3-8,4.7a.92.92,0,0,0-.29.3c-.71-.43-1.44-.83-2.19-1.22a1.29,1.29,0,0,0-1.65.39A51.36,51.36,0,0,0,250.57,178a37,37,0,0,0-1.57-6.39c6,4.69,14.58,6.4,21.4,2.85C271.72,175.17,273.6,174.59,275.11,173.89Z"/><path class="cls-6" d="M279.27,105.27a32,32,0,0,0-10.87,5.12c-6.28,4.43-9.23,12.74-10.65,20A60.85,60.85,0,0,0,259.21,158c1.5,5.48,3.56,12.29,8.7,15.4-5.05,1-9.82,1-14.75-1.89a20,20,0,0,1-8.31-9.44c-3.31-7.47-3.3-16.11-2.7-24.13.59-7.83,1.28-16.31,4.91-23.42,4.79-9.38,13.1-14.56,23.65-12.43a.48.48,0,0,0,.4-.07A60.51,60.51,0,0,1,279.27,105.27Z"/><path class="cls-7" d="M266.33,71.69A128.05,128.05,0,0,1,270,99.78a25.88,25.88,0,0,0-2.9-.39c-3.68-.29-8.88-.31-11.41,2.87a20.57,20.57,0,0,0-2.75,1.7,135,135,0,0,0-3.08-25.67A109.86,109.86,0,0,0,241.33,54c-1.11-2.38-2.28-4.93-3.55-7.49a15.59,15.59,0,0,0,7,3.08c4.28.71,9.08-.1,12.34-3.05a1.16,1.16,0,0,0,.57-.11C260.83,54.79,264.18,63,266.33,71.69Z"/><path class="cls-10" d="M248.24,78.72c1.62,8.32,3.09,17.6,2.86,26.05a.82.82,0,0,0,.14.5,24.94,24.94,0,0,0-3.22,3.35c-.12-.92-.26-1.83-.32-2.69v-.22c0-.1,0-.21,0-.32a1.31,1.31,0,0,0,.15-.55c.83-14.75-.8-31.48-7.36-44.89-3.8-7.76-8.74-15-13-22.46-.09-.14-.17-.29-.25-.44-.86-1.49-1.69-2.95-2.62-4.27a1.22,1.22,0,0,0-.49-1.69c-.55-.27-1.08-.55-1.6-.84a11.49,11.49,0,0,0-4.23-2.77c-1.05-.77-2.07-1.58-3.08-2.41,13.75,5.75,19.66,18.15,25.48,31.07A102.77,102.77,0,0,1,248.24,78.72Z"/><path class="cls-4" d="M243.38,165.06l-.24-.12c-3-1.14-6.52-.67-7.46,2.23a9.45,9.45,0,0,0-4-2.83,5,5,0,0,0-.52-.14c.55-.42,1.09-.86,1.62-1.3,2.37-2,5.41-4.15,7.4-6.78A31.08,31.08,0,0,0,243.38,165.06Z"/><path class="cls-7" d="M239.39,150c.08,1.14.19,2.27.35,3.39-2.09,3.2-5.45,5.69-8.39,8.05a58.47,58.47,0,0,1-12.16,7.66c-3.73,1.69-7.62,3.14-11.44,4.67-.75-2.24-1.83-4.65-3.68-6.11,3.38-1.19,6.74-2.48,10-3.91A163.81,163.81,0,0,0,239.39,150Z"/><path class="cls-4" d="M237.22,139.2l2.26.15a82.76,82.76,0,0,0-.18,9c-7.77,4.35-15.34,8.62-23.48,12.3-1.59.72-3.21,1.4-4.83,2.07-.21-.71-.62-.89-1.25-1.26a9.88,9.88,0,0,1-2.06-1.52,12.27,12.27,0,0,1-1.24-1.46c12.87,2.62,24.72-8.22,30.7-18.92A.6.6,0,0,0,237.22,139.2Z"/><path class="cls-7" d="M220.25,289.3c-1.93,7.08-13.22,10.81-19.08,12.36-19.52,5.18-39.69,9.82-59.78,11.82-7.61.76-15.47,1.84-23.1,2.11a25.51,25.51,0,0,1-4.48-.27c-2-3.69-4-7.19-5.25-11.23a73.32,73.32,0,0,1-2.29-11.42c6.58-9.44,9.26-21.15,9.93-32.56a122.84,122.84,0,0,0,0-15.23c4.91,7.73,11.44,14.23,17.62,21s13,11,22.33,8.29c8.57-2.45,15.34-9.09,21.26-15.44,6.79-7.29,13.12-14.53,21.16-20.44a14.74,14.74,0,0,0,5.38,4.18c1.31,7.57,5.48,15.16,8.36,22.2.75,1.83,1.56,3.6,2.43,5.33a47.21,47.21,0,0,0,3.37,12.23C219.06,284.5,221,286.61,220.25,289.3Z"/><path class="cls-4" d="M226,167.82a6.74,6.74,0,0,0-.17,1,13.68,13.68,0,0,0,.32,3.77c-.27-.07-.54-.11-.83-.19a11.08,11.08,0,0,1-2.05-.85c-.67-.33-1.33-.72-2-1.11A51.59,51.59,0,0,0,226,167.82Z"/><path class="cls-9" d="M212.43,187.34c.67,2.89,1.16,5.72-.49,8.89-4.2,8.05-13.18,12.26-16.71,20.61a.92.92,0,0,0-.69,0c-6.25,3.29-12.12,7.22-18.47,10.39-.77.38-.1,1.48.66,1.13,5.91-2.73,12.49-5.31,17.73-9.32-.13.45-.25.91-.34,1.39a23,23,0,0,0,3.19,16.08c-14.54,8-22,25-36.69,32.85-4.3,2.3-9.91,4-14.72,2.31s-8.23-5.79-11.43-9.38c-3-3.4-6.34-6.57-9.3-10-3.34-3.91-5.9-8.41-9.26-12.27l-.16-.15c-1.08-9.21-3.54-18.25-8.14-26.17a86.68,86.68,0,0,0,10.44,13.06c4.41,4.66,9.56,8,15.94,9a.59.59,0,0,0,.31-1.13c-6.4-1.81-11.43-6-15.69-11-3.72-4.32-6.57-9.9-10.72-13.8a10,10,0,0,0,.86-.95,5.69,5.69,0,0,0,1.18-2.46,74.85,74.85,0,0,0,17.52,4,1,1,0,0,0,0,.1c8,12,22,11.34,34.14,6.83s25.9-11,34.3-21.27c1-.45,1.94-.89,2.89-1.36,3.73-1.81,7.41-3.72,11-5.77A23.89,23.89,0,0,0,212.43,187.34Z"/><path class="cls-5" d="M186.49,67.89c2.13,1.13,4.34,2,6.36,3.3-3-.85-5.88-2.08-9-2.7-4.17-.84-8.37-1.61-12.58-2.2-6.9-1-14.05-1.56-21-.5a7.84,7.84,0,0,1,.33-1A15.7,15.7,0,0,1,153,61.18c1-1.18,2-2.27,3.11-3.36,3.22,1.14,6.85,1.06,10.19,1.92,3.49.91,7,2,10.38,3.27A80.64,80.64,0,0,1,186.49,67.89Z"/><path class="cls-11" d="M190.76,198.4c-7.92,7.06-17.74,11.94-27.56,15.83-5.54,2.2-11.45,4.22-17.5,4.08-6.73-.16-11.29-3.49-16-7.7l.67,0a1,1,0,0,0,.81.47c15.54,1.12,31.9-2.73,46.52-7.68C182.1,202,186.46,200.25,190.76,198.4Z"/><path class="cls-12" d="M162.3,166.08a26.51,26.51,0,0,1,1.2,11.42,26.25,26.25,0,0,1-7.34,15c-9.1,5.46-20.06,7.73-30.23,3.26-10.34-4.54-18-17.37-15.74-28.65a8.67,8.67,0,0,0,3.16,2.78.75.75,0,0,0,1.08-.44c.51-2.15,1.22-4.26,1.85-6.37,1.48-.51,3-1,4.48-1.45,4.19-1.12,8.5-2.09,12.78-2.83a118.07,118.07,0,0,1,14-1.56.41.41,0,0,0,.13.27c1.36,1.22,2.59,2.61,3.9,3.87.69.67,1.47,1.52,2.52,1.34,2-.34,3.56-3.55,4.4-5.09a.59.59,0,0,0,.09-.39c.24,0,.48,0,.72,0C159.57,160.25,161.45,163.26,162.3,166.08Z"/><path class="cls-3" d="M113.9,252.8c.07,12.55-1.66,25.78-8.38,36.65-3.67,5.94-9.1,12-16.14,13.62-7.84,1.81-14.8-3.27-19.08-9.37-8.89-12.7-8.86-27.3-5.42-41.86s9.28-28.42,9.32-43.41v-.68s0,0,0-.06a1,1,0,0,0,0-.6c-2.41-6.3-7.27-11.22-11.57-16.27-4.77-5.58-8.7-12.12-9.71-19.49-1.49-11,4.24-21.29,11.81-29.24a.89.89,0,0,0,.3-.31,66.3,66.3,0,0,1,5.71-5.24,12.73,12.73,0,0,0,1.25,1.08.75.75,0,0,1,.13.06,41.45,41.45,0,0,1-2,7.93c-6.31,5.84-12.35,14.12-11.35,23.17a.56.56,0,0,0,1.12,0c.81-7.26,4-12.62,8-18-1.83,3.66-4.26,7.63-4.49,11.58a.77.77,0,0,0,.62.72c.16,8,5.41,14.52,10.66,20.26a85,85,0,0,0,20.31,16.24,89,89,0,0,0,13.43,6.33,7.85,7.85,0,0,1-1.16,1.83c-.58.62-1.53,1-1.95,1.7a.8.8,0,0,0-.11.48c-.93-.76-2.52.26-1.77,1.43C111.3,223.84,113.8,238.23,113.9,252.8Z"/><path class="cls-5" d="M110.07,70.63c.89,1.13,1.41,2.53,2.17,3.72-4.79,2.12-9.57,4.17-14.18,6.53a72.79,72.79,0,0,0-13.44,8.6,53.09,53.09,0,0,1,20-22.68,1.28,1.28,0,0,0,.44.28A11.31,11.31,0,0,1,110.07,70.63Z"/><path class="cls-13" d="M89.55,62.68s0,0,0,0c-.06,1-.07,1.93-.09,2.9a.66.66,0,0,0-.58.41c-4,10.06-10.6,18.83-14,29.22a73.6,73.6,0,0,0-2.69,11.45c-1.82-.87-4.73-.54-6.51-.64-2.94-.16-8,0-10.33-2.25a1,1,0,0,0,.17-.72c-.26-1.56-.62-3-1-4.48,1.24-2.9,4.51-5.65,6.45-6.93A30.7,30.7,0,0,1,74.9,86.86a.71.71,0,0,0,.61-1.08,1.63,1.63,0,0,0,.09-.19c.41-1.27.83-2.53,1.27-3.77,1.17-2.64,2-5.5,3.39-7.93a54,54,0,0,1,6.33-8.74A28.9,28.9,0,0,1,89.55,62.68Z"/><path class="cls-4" d="M72.81,130.27a.56.56,0,0,0-.31.54c0,.46,0,.93,0,1.4,0,.73,0,1.46-.09,2.17a.54.54,0,0,0-.43-.2c-2.28-3.76-4.48-7.24-6-11.62a34.74,34.74,0,0,1-1.84-8c-.18-2,.17-4,.17-6l1.8.11c1.6.08,4,.69,5.75.41-.21,1.72-.4,3.44-.53,5.14C71,119.26,70.78,125.36,72.81,130.27Z"/><path class="cls-7" d="M65.74,128.72a25.57,25.57,0,0,0,3.91,6.72,35.6,35.6,0,0,0-5,3.85C64,135.63,64.88,132.24,65.74,128.72Z"/><path class="cls-9" d="M63.84,123.16c.26,1,.57,2,.92,3-2.22,4.29-3.26,10.27-1.92,14.88a46,46,0,0,0-4.31,5.06,1,1,0,0,0-.11-.3c-4.68-7.36-3.6-23,4.09-28.45A57.58,57.58,0,0,0,63.84,123.16Z"/><path class="cls-11" d="M230,133.63a22.68,22.68,0,0,0,.43-10.18c-.38-2.76-1.29-5.34-1.93-8a17.7,17.7,0,0,0-1.54-5c-1.45-2.47-4.21-3.3-6.61-4.84-14-8.91-30.79-13-47-15.66-7-1.13-14-1.67-21-2.69-1.58-.23-5.16.09-6.38-1.11-.59-.58-1.56-4-1.82-4.76-1.17-3.25-.87-7-3.16-9.82-4.68,2.39-7,8.21-9.06,12.73-1.07,2.31-.73,2.28-2.86,2.94-2.84.88-6.66.5-9.61.5-7.13,0-13.46-.25-20.4,1.94-5,1.58-9.06,3.93-13.6,6.46-3.29,1.82-7.13,3.5-9.49,6.58h-.26A67.79,67.79,0,0,1,79,91.58a133.22,133.22,0,0,1,7.46-14.93,58,58,0,0,0,2.76-5.28,39.15,39.15,0,0,0-.07,4,1,1,0,0,0,1.34.91,35.17,35.17,0,0,0-9,15.62.94.94,0,0,0,1.81.5c.09-.23.2-.47.3-.69,5.34-2.65,9.78-6.87,15.11-9.59l1.08-.52c2.28-1,5.2-1.75,7.89-2.76,2.62.3,5.49,0,8.15.21,4.2.25,8.44.1,12.65.12a1.13,1.13,0,0,0,.25-2.21c1.82-10,7.08-18.34,14.2-25.48,3.5-3.5,7.18-7.39,11.45-10,1.92-1.14,4.25-1.83,6.21-3a43.06,43.06,0,0,0-3.89,16.64,44.93,44.93,0,0,0-6.36,6.2c-1.18,1.56-3,4.34-2,6.31a.69.69,0,0,0,1.19,0,1.82,1.82,0,0,0,.15-.23c1.42,0,2.82-.06,4.22-.07a49.57,49.57,0,0,0-.33,5.1,26,26,0,0,0,.47,7.15,1.15,1.15,0,0,0,1.95.55l.24,0c6.46.28,12.79,2.4,19,3.91,7.08,1.7,14.16,3.51,21.2,5.37a108.34,108.34,0,0,1,31.23,13.53c2.3,5.85,5,11.22,5.33,17.7A23.48,23.48,0,0,1,230,133.63Z"/><path class="cls-11" d="M121.28,145.06c6.24-2.76,14.69-3,21.34-3.3.77,3.4-8,4.29-3.38,6.24-1.15,1.78-5.27,2.05-7.26,2.59-3.57,1-8.23,2.92-12,1.82C115.22,151,121.3,149.55,121.28,145.06Z"/><path class="cls-11" d="M224.46,129.3c-2-.92-5.11-.66-7.14-.69s-7.59-.29-9.25,1.14c-3.08,2.67,4.48,3,6,3.87a13.06,13.06,0,0,0-3.51,2.72c3.08,1,12.14,4.87,14.48,1.12,1.18-1.87.09-2.13-.8-3.65C223.1,131.88,223.91,131.74,224.46,129.3Z"/><path class="cls-11" d="M73,192.48a78.8,78.8,0,0,0,13.12,8.2,52,52,0,0,0,24.09,6.18,3.94,3.94,0,0,0-.06-1.31c-.33-1.55-3.82-3-5.24-3.74-4.35-2.36-8.75-4.57-12.93-7.27-6-3.91-11.35-7.86-16.06-13.51-1.62-1.95-2.64-3.9-4.46-5.69a19.22,19.22,0,0,1-4.87-6.64,18.44,18.44,0,0,1,1.26-16c1.83-3,6.52-10.6,4.89-14.59s-5.66-.54-6.81,2c.27.32.07,4.2,0,5.33-.26,3.23-2,4.49-3.4,7.12-2.25,4.17-3,9.27-2.94,13.94C59.59,178,65.21,185.74,73,192.48Z"/><path class="cls-11" d="M224.45,173.75a23.19,23.19,0,0,1-3.4-2.09c-3.28-2-6.12.85-9.78,1.94-1.76.52-3.53,1-5.29,1.51a25.77,25.77,0,0,1-12.65,3.74,23.56,23.56,0,0,1-3.57,1c-2.28,3,1.23,6.15,4.08,7,3.82,1.11,9.67-3.41,13-5.2,2.17-1.17,5.5-3.12,8.1-2.86,3,.31,4.78,2.06,8.08,1.55a6.09,6.09,0,0,0,5.05-5.63C227,173.92,225.68,174.22,224.45,173.75Z"/><path class="cls-11" d="M230.13,166.49c-2.51,5.13.94,9.93.92,15,0,4.83-1.85,10-2.79,14.71-1.44-5-2.2-11.34-5.81-15.59,2.62-2.17,5.24-3.85,5.64-7.32C228.36,171,227,166.94,230.13,166.49Z"/><path class="cls-11" d="M243.74,167.17c0,1.13-.61,4.31-.75,6-.21,2.56.47,5,.32,7.47a16.55,16.55,0,0,1-2.71,7.82c-.22-4.21.54-9.57-1.22-13.58-.75-1.68-2.25-2.93-3-4.57-.9-1.88-.72-3.35,1.51-4.59A4.62,4.62,0,0,1,243.74,167.17Z"/><path class="cls-11" d="M220.15,179c-2.12,2-1.8,5.61-2.1,8.22a89.74,89.74,0,0,0-.4,9.84c0,4.53-1.64,10.78-4.74,14.15-3.81,4.13-9,6.49-12.34,11.12A20.15,20.15,0,0,0,197,234a12.4,12.4,0,0,0-.7-2.57,59.94,59.94,0,0,1-.53-6.59c-.25-2.89-.52-6.36.54-9.12,1.76-4.55,7-8.63,10.2-12.23a51.88,51.88,0,0,0,5.9-7.92c2.47-4.14,1.09-7.09.47-11.57-.23-1.66-1.1-5.43.84-6.31C215.52,176.84,216.44,179,220.15,179Z"/><path class="cls-11" d="M257,205.38c1,6-3.39,11.73-3.57,17.73-.24,7.91,4.48,13.2,7.16,20.16,2.19,5.71,4.25,11.23,4.43,17.37.1,3.48,2.78,11.46.67,14.56-2.2-5.24-3.55-10.78-5.88-16.05a104.18,104.18,0,0,0-7.7-14.24c-3.6-5.63-8.39-10.39-12-16.07-2.55-4-5.69-6.91-2.72-11.1a134.29,134.29,0,0,0,9.27-14.8c1.22-2.28,1.3-3,4-2C253.06,201.74,255.89,204.47,257,205.38Z"/><path class="cls-11" d="M267.13,297.74c-7.33,3.41-15.74-.26-21.45-5-8.27-6.86-14.21-15.58-19.9-24.52-6.12-9.62-13.81-18.11-19.59-28.06L202,238.37a6.16,6.16,0,0,0-3.25-1.43c.11.14.2.28.3.43l2.78,2.15a15.82,15.82,0,0,1,4.12,9.37q.79,1.43,1.62,2.85c4.26,7.31,5.67,15.89,11.43,22.27,8,8.87,11.9,20.71,20.68,28.82,2.81,2.59,6,6.19,9.85,6.94a20.92,20.92,0,0,0,12.56-1.63,19.68,19.68,0,0,0,8.57-6.76c1.89-2.79,5.61-8.46,5.58-11.88C273.48,292.15,271,296,267.13,297.74Z"/><path class="cls-11" d="M105.85,291.17c1-1.69,2-3.38,3-5.07-10.41,5-22.9-.52-28.52-10.48-5.3-9.39-6.36-20.55-6.77-31.08-.23-5.83-.32-11.64-.3-17.48,0-6.05,2-11.67,1.91-17.73-4.16,2.44-3.87,9.68-4.37,13.51-.73,5.53-2.65,10.89-3.64,16.42-1.72,9.71-6.31,18-6.27,28.15,0,10.69,2.24,21.15,9.52,29.22,5.22,5.79,14.39,11.28,22,7a57.76,57.76,0,0,0,10.88-8.36C104.11,294.05,104.92,292.73,105.85,291.17Z"/><path class="cls-14" d="M146.35,220.23c-2.33-.3-4.77,1-7.22,1-2.77,0-6.46-.64-9.1.36a8,8,0,0,0-4.72,10c-3.26-1.23-4.73.78-5.44,3.86-1,4.23,1.22,7.52,1.22,11.41-6.79-4.66-7.28-11.87-9.06-19.23-1-3.94-1.55-7.68-3.44-11.35-1-2-3-3.94-2.76-6.19.93-8.31,12.57-4.18,17.32-3.22s6.43,3.56,9.78,7c2.14,2.17,4.77,3.2,7.72,4.09C142.46,218.48,146.29,219.88,146.35,220.23Z"/><path class="cls-14" d="M180.48,208.36c4.21.32,8.15,1.73,8.55,6.45.36,4.25-5.27,9.52-8.45,11.85,7.75-.86,4.64,10.06,3.68,14.33-.82,3.65-5.48,8.58-5,12.12a22.83,22.83,0,0,1,5.14-4.67c2.72-1.86,4.13-4.58,6.48-6.76,2-1.82,4.35-3.12,6.35-4.86-5.1-9-3.29-18.43,3.48-26.23,4.12-4.74,10.76-9.48,12.88-15.57.81-2.31-.16-6.14-1.31-8.14a58.53,58.53,0,0,0-7.48,3.19c-3.08,1.36-7.37,2.28-10.09,4.26-2.08,1.5-2.62,3.93-4.88,5.62-1.28,1-2.72,1.68-4,2.58C183.86,204,182.32,206.94,180.48,208.36Z"/><path class="cls-14" d="M125.37,252.71c9.51,5.5,19.39,15.34,31.67,12.92,8.92-1.76,17-8,23.28-14.1-5.47,9.32-16.16,20.31-27.34,21.94-3.21.46-6.9.4-9.53-1.24-3.39-2.11-7-4-9.69-6.89C131.64,263,125.69,256.9,125.37,252.71Z"/><path class="cls-14" d="M282.85,188.77c-3.08,1.18-4.83,6.48-4.54,9.55.16,1.68,1.57,2.55,1.79,4,.43,2.82-4.59,4.6-2.12,7.64,1.61,2,5.77,1.69,7.7,2.35a29,29,0,0,1,6.49,3.3c-1.15,1.6-3.73,2.29-4.6,4.24-.66,1.46.58,4-.19,5.31-1.16,1.92-3.3-.17-5.29-.47-4-.58-4.29.48-6.53,3-3.28,3.69-4.36-3-5.76-5.89a125.33,125.33,0,0,0-6.49-12.11,14.49,14.49,0,0,0-7.75-6.65c-.64-2.58,9.38-8.16,11.19-10.71.61,2.68,1.72,5.25,2.29,7.94,2.52-2.86,4.49-4.63,5.54-8.47.53-1.94-.05-2,1.6-2.9C277.64,188.09,280.16,188.83,282.85,188.77Z"/><path class="cls-14" d="M299,134.18c.19,2.88-3.13,6.83-4.39,9.18-2,3.67-4.35,7.25-8.52,8.46-2,.59-4.94,1.62-6.72,0-1.31-1.19-2.17-3.74-2.93-5.32-1.9-3.93-2.67-12.5-1.17-16.51-.54,4.18-2.65,8.3-3.32,12.53a27.39,27.39,0,0,0,.37,8.66c.8,4.74,1.11,9.69,5.82,12.29,3.32,1.85,5.62-.43,8.41-2.29a17.94,17.94,0,0,0,7.41-10.27c.65-2.35,1.57-4.66,2.43-6.93C297.46,141.09,299,137.31,299,134.18Z"/><path class="cls-14" d="M260.08,32.48c.2,2.87-5.86,4.8-7.86,5.38-3.27,1-4.67-.38-6-3.13a20.69,20.69,0,0,1-1.92-9.57c-1.77,2.67-2.25,6.09-3.22,9.09a29.62,29.62,0,0,1-2.66,5.2c-1.67,3-2.3,4.17.84,6.44,2.76,2,6.22,1.85,9.47,2A12.9,12.9,0,0,0,256.64,45c1.19-1.12,1.46-2.73,1.87-4.26S260.86,35,260.08,32.48Z"/><path class="cls-13" d="M108.54,67.38c3.33-.33,6-2.91,8.32.22a28.24,28.24,0,0,1,4.31,9,16.55,16.55,0,0,1-11.63,1.24c0-1.94,3.82-2.18,3.22-4.8C112.28,71,110.06,69.55,108.54,67.38Z"/><path class="cls-13" d="M156.5,73.05a37.51,37.51,0,0,1,4.29,1c3,.6,6.24.53,9.29.8,4.46.4,8.89.82,13.35,1.2,4.93.41,10,1.47,15,1.2.44-1.64-5.72-4.8-7.25-5.37-3.35-1.24-7-1.53-10.31-2.87a26.54,26.54,0,0,0-10.91-2,82.22,82.22,0,0,1-11.66-.65c-1-.15-2.14-.47-2.88.36-1,1.19-.85,5.88-.23,7.08C155.24,73.63,155.25,73.43,156.5,73.05Z"/><path class="cls-13" d="M193.26,69.55c1.47,1.92,8,2.5,7,6.3-1.52.79-3.86.46-5.48.27-6.12-.73-12.18-1.89-18.36-1.92-7.68,0-14.55-.21-21.57,2.92-.1-2.43-.07-4.9.06-7.36a152.41,152.41,0,0,1,17.09.57c4.43.27,9.43-.38,13.78.42,1.8.33,3.39,1,5.29.85C192.26,71.48,194.53,70.67,193.26,69.55Z"/><path class="cls-10" d="M106.53,298.57c2.27-.26,3.29-2.92,4.39-4.61s2.87-3.52,4-5.39c1.76-3.06,2.89-7.08,5.44-9.68,2.09-2.13,4.87-2,7.6-1.61a32,32,0,0,1,4.18,1.22c1.91.54,4,.53,6,1,10.07,2.18,19.86-.32,28.66-5.55,2.24-1.34,4-3.47,6.15-5,2.61-1.81,5.26-3.37,8-4.92a40.61,40.61,0,0,1,14.51-4.73,54.44,54.44,0,0,1,10.45-.49c1.53.08,2.92.79,4.39.79-.93-2.54-1.76-4.7-2.91-7.19-1.4-3.08-1.56-7.33-3.28-10.09-.8-1.29-2.1-1.64-3.36-2.42-1-.64-2.34-2.48-3.56-2.39-1.88.13-4.78,4.27-6.12,5.41-2.18,1.83-4.69,3.34-6.91,5.14-4.1,3.32-6.76,7.9-10.11,11.92a38,38,0,0,1-12.37,10c-4.62,2.37-10.47,4.19-15.76,3.56-3.66-.44-8.95-4.92-11-7.73-1.4-1.9-2-4.23-3.48-6.11a35,35,0,0,0-5.83-5.57c-3.76-3.09-6-8.48-10.25-10.86-.34,6.43.72,12.91.75,19.38,0,5.63-4.15,9.74-5.53,15a75.28,75.28,0,0,1-4.38,11.08c-.55,1.26-1.59,2.83-1.54,4.22C104.65,294.56,106,296.15,106.53,298.57Z"/><path class="cls-10" d="M232.62,296.23c-3.3,1.46-6.65,2.88-10.05,4.22-29.57,11.65-59.51,17.18-87.45,17.18a200.56,200.56,0,0,1-20.7-1.06,1,1,0,0,0-.08-.25l-.53-1a25.51,25.51,0,0,0,4.48.27c7.63-.27,15.49-1.35,23.1-2.11,20.09-2,40.26-6.64,59.78-11.82,5.86-1.55,17.15-5.28,19.08-12.36.73-2.69-1.19-4.8-2.14-7.1A47.21,47.21,0,0,1,214.74,270,125,125,0,0,0,225.46,287C227.72,290.16,230.11,293.25,232.62,296.23Z"/><path class="cls-4" d="M210.16,24.63c-.43.17-.89.32-1.36.47-7.77,2.44-16.13.85-23-3.16a35.54,35.54,0,0,0-8.52-3.78c-3.71-1.05-5.47.41-8.32,2.77-1.82,1.49-3.93,4.52-6.62,3.73s-3.23-4.53-5.42-6c-2.57-1.74-6.69.2-9.17,1.23-3.3,1.38-5.77,2.51-9.44,2.41-1.59-.05-3.08.14-4.28-1s-1.61-4.09-1.65-5.52a6.25,6.25,0,0,1,.05-.94,31,31,0,0,0,5.12-.77.93.93,0,0,0,.4-1.51c3.81-1,7.69-2.9,11.11-3.69,9.06-2.09,20.36-2.85,29.41-.61,8.76,2.17,18,5.92,25.41,11.19A79.58,79.58,0,0,1,210.16,24.63Z"/><path class="cls-15" d="M169.53,20.47l-.57.46c-1.82,1.49-3.93,4.52-6.62,3.73s-3.23-4.53-5.42-6c-2.38-1.61-6.1-.06-8.61,1-4.47,4.09-7.84,9.24-10.82,14.61-.07,3.63-.85,7,4.35,5.74,7.74-1.92,14.39-7.57,22.12-9.89,3.51-1.05,4.7-1.5,6.41,1.73,1.34,2.54,3.5,6.7,6.09,9.33A71.77,71.77,0,0,0,169.53,20.47Z"/><path class="cls-15" d="M105.78,44.71a74.68,74.68,0,0,1,19.67-25c-7.27,2.14-14.4,4.71-20.91,8.7q-2.36,2-4.52,4.13C97.74,39,98.18,45.64,105.78,44.71Z"/><path class="cls-15" d="M138.31,22.29c-1.59-.05-3.08.14-4.28-1a7.46,7.46,0,0,1-1.41-3.57l-.34.09A69.42,69.42,0,0,0,108.89,44c9.52-2.89,17.16-12.58,27.33-12.54a67.71,67.71,0,0,1,6.7-9.79A14.82,14.82,0,0,1,138.31,22.29Z"/><path class="cls-15" d="M188.3,23.26c-.85-.4-1.68-.84-2.5-1.32a35.54,35.54,0,0,0-8.52-3.78,6.32,6.32,0,0,0-5.73.78,75.3,75.3,0,0,1,7.77,24.29c.12.05.24.11.36.15,3.8,1.27,6.51-1.44,9-3.84s4.1-3.3,6.18-2.64A118.69,118.69,0,0,0,188.3,23.26Z"/><path class="cls-15" d="M200.64,26.24a29.24,29.24,0,0,1-8.73-1.53,100.41,100.41,0,0,1,6.34,14.2l.31.25c3.65,3,9,10.64,14.13,11.73C210.22,41.92,206.87,32.94,200.64,26.24Z"/><path class="cls-15" d="M206.85,26.14l-.06,0a4.3,4.3,0,0,1-.57-.35c-.78.15-1.57.26-2.35.34,5.76,6.93,9,15.87,11.37,24.72A7.15,7.15,0,0,0,219,47.65a5.29,5.29,0,0,0,.42-.83A45.72,45.72,0,0,0,206.85,26.14Z"/><path class="cls-16" d="M160,160a42.67,42.67,0,0,0-9.67,2.41l-.78.29a51,51,0,0,0-6,2.47l-.71.35c-9.94,5.58-19,11.88-24.67,21.43-.11.21-.21.42-.31.63a10.86,10.86,0,0,0-1,3.38,36.31,36.31,0,0,1-6.76-12.57,24.3,24.3,0,0,1-.64-11.07c1.71-.28,2.39,2.32,4,2.5.37-2.71,1.67-6.4,4.27-7.66a9.84,9.84,0,0,1,2.65-.55,47.58,47.58,0,0,0,5.51-1.47,55.59,55.59,0,0,1,8.51-2.08c3.27-.4,6.46-1.19,9.73-1.63,2.2-.3,2.57-.67,3.82.89,1.44,1.82,3-1,5.3-.5,1.79.39,2.25,1.88,3.34.39.86-1.19,1.23.88,1.18-.61,2.06-.27,3.12,1.88,3.5,3.71A2,2,0,0,1,160,160Z"/><path class="cls-17" d="M119.46,191.7c4.55-8,11.47-16.35,19.82-20.7,1-.54,5.67-3.3,5.94-1.11.16,1.32-1.93,2.56-2.75,3.26-1.81,1.54-3.68,3-5.51,4.49a38.37,38.37,0,0,0-8.33,10.21,29.62,29.62,0,0,0-2,4.74c-.27.74-.63,2.72-1.21,3.21C124.27,196.75,120.22,193.25,119.46,191.7Z"/><path class="cls-16" d="M145.23,164.19c3,0,6,0,8.57,1.72,2.73,1.84,3.38,4.43,4.58,7.31,1.38,3.3,1.53,8.4,1,11.93-.42,2.79-2,5.77-3.51,8.11a39.86,39.86,0,0,0,5.76-7.79,16.14,16.14,0,0,0,2.53-8.41,59.21,59.21,0,0,0,0-7.05,62.08,62.08,0,0,0-1.66-6.33c-.31-1.31-.45-3.19-1.75-3.72-.8-.32-2.23.09-3,.16a6.62,6.62,0,0,0-2.78.79c-1.17.52-1.49.11-2.67.15C149.81,161.14,147.12,163.39,145.23,164.19Z"/><path class="cls-18" d="M109.76,177c.5-3,5.77-5.42,7.68-7.29a29.48,29.48,0,0,1,7.64-5.76A47.93,47.93,0,0,1,137,159.49a40.81,40.81,0,0,1,13.89-.65,8.93,8.93,0,0,0-2.93-2.17c-1.13-.47-2-.09-3.38.23-4.14.95-8.14,1.24-12.31,1.81-3.18.44-6.3.94-9.45,1.57-2.26.46-5,.9-6.64,2.7-1.43,1.56-1,4.35-2.3,6-1.37-.91-4.06-4.28-5.11-1.6C107.6,170.32,109.23,174,109.76,177Z"/><path class="cls-18" d="M110.09,176.78c2.35-3.48,6.42-6,9.93-8.2a58.07,58.07,0,0,1,5.25-3.34,77.57,77.57,0,0,1,9-3.71,44.68,44.68,0,0,1,12.56-2.7,19.34,19.34,0,0,0,4.1-.15c-1.7.27-2.7-1.31-4.18-1.76a8.43,8.43,0,0,0-4.07.27c-5.38,1.05-11.39,1.61-16.44,3.86A32.27,32.27,0,0,0,115,169.79C113,172.25,110.22,173.51,110.09,176.78Z"/><path class="cls-18" d="M156.06,160.37c1.15,1.07,2.06,2.51,3.1,3.69s1.59,2.82,2.5,4.21c1.52,2.32,3.26,5.83,3.07,8.67.08-3.47-1.16-7.39-2-10.75-.37-1.45-.85-2.91-1.28-4.36a18.14,18.14,0,0,0-.84-3.2c-.3-.58-1.13-1.69-1.85-1.75C157.49,156.77,157,159.33,156.06,160.37Z"/><path class="cls-10" d="M272.52,156.8c-3.74-1-6.15-1.32-8.88-4.33a28.66,28.66,0,0,1-5.68-9.13c-1.57,4.65.09,11.14,2.4,15.41,1.94,3.59,2.94,8.57,5.54,11.68,1.77,2.12,5.17,3.43,7.88,2.53,2.51-.83,8.58-4.57,8.88-7.22C276.65,165.52,274.67,161.24,272.52,156.8Z"/><path class="cls-10" d="M269.72,88.91a14.87,14.87,0,0,1-8.53,2.54c-3.67,0-3.59-.4-6-2.62a31.31,31.31,0,0,1-4.76-5.42c.14,7.15,1,14.12,1.32,21.25,3.13-1.74,5.73-4.33,9.58-4.57,3.16-.19,6.31.48,9.42.22C270.88,96.3,269.91,92.32,269.72,88.91Z"/><path class="cls-10" d="M260.82,54.33c-4.36,5.84-14.76,2.15-20.08-.45-2.35-1.15-1.52-.58-1.78-2.86-.17-1.53-1-2.91-1-4.29,5.47.39,14.4,3,19-1.27.47,1.62,1.6,2.94,2,4.55S258.93,53.5,260.82,54.33Z"/><path class="cls-19" d="M258.7,144.65c-8.21,1.45-15.33-7.84-15.7-15.26-2.35,5.89-2.08,15.19-1.47,21.76a32.52,32.52,0,0,0,7.54,18.67c1.79,2,3.37,4.27,6.07,5,3,.83,6,.16,9-.16,1.21-.13,4.26.26,4.42-1.49.08-.88-2.75-3-3.43-4C260.42,162.79,258.79,152.42,258.7,144.65Z"/><path class="cls-19" d="M198.68,168.74c.45,3.54,1.4,7.07-1.28,9.87,2.26-.9,4.79-1.64,6.94-2.75s3.47-.88,1.84-3.17c-1-1.41-2.16-3.61-3.68-4.54S200,168.28,198.68,168.74Z"/><path class="cls-19" d="M228.24,13.45c-.08.62,2.17,4.3,2.53,5.61a21.49,21.49,0,0,1,.41,8.67c-.26,1.88-.93,3.85-1,5.69,6.16-3.6,6.26-11.46,7.06-17.61.1-.77.39-4.09-.29-4.69C235.14,9.56,230.19,12.72,228.24,13.45Z"/><path class="cls-18" d="M110.7,172.66c1-1.22,3-2,4.29-2.85,1.87-1.26,3.74-2.44,5.7-3.55a35.7,35.7,0,0,1,5-2.86c5.21-2,10.3-4.14,15.9-4.77a25.69,25.69,0,0,1,13.17,1.88,18.75,18.75,0,0,1,6,4.61c.19-1.23-.4-2.51-.35-3.8a12,12,0,0,0,.11-2.61c-.22-1.31-.81-1.7-2-2.15-1.67-.63-3.49-.48-5.32-.57s-3.83-.22-5.75-.2a28,28,0,0,0-5.57,1c-3.56.73-7.26.89-10.83,1.61-2.64.53-5.24,1.08-7.85,1.75-3.66.94-7.4,1.7-11,2.77-1.37.39-3,.89-3.42,2.34C108.24,166.88,108.26,170.83,110.7,172.66Z"/><path class="cls-11" d="M110,94.06c1,4.5-4.11,7.31-7.77,8.16-1.45.33-5.17,1-5-1.1.11-1.32,3.06-3,4.06-3.81C103.15,95.86,105.28,94.8,110,94.06Z"/><path class="cls-11" d="M158.31,86.33c-1.36,0-10.84,1.48-6.95,4.19A17.27,17.27,0,0,0,156,91.76c1.56.23,3.06.35,4.63.65,2,.37,8.23,2.06,9-.07C171.16,88.4,160.66,85.88,158.31,86.33Z"/><path class="cls-11" d="M71,149c.82-.46,7.22-2.78,7.92-.92.83,2.2-4.1,2.52-3.84,4.93.1.93,1.46,1,.87,2.3s-3.66,2.3-4.79,3.09a15.33,15.33,0,0,0-3.57,3.24c-.69,1-.79,2-1.9,2.63-.92-2.59.48-5.1,1.34-7.54.36-1,.49-2.13,1-3.15C68.72,152,70.17,150.86,71,149Z"/><path class="cls-11" d="M167.86,113.83c-7.57.89-18.23,5.93-19,14.3-.18,1.88.7,2.53,1.7,4.2,1.46,2.45,1.44,2.9,4.29,2.14a73,73,0,0,1,13.3-2.21c5.85-.5,11.42-1.77,17.38-1.81,3.49,0,7.08-.27,10.6-.41,2.2-.08,3.85.28,3.73-1.84-.19-3.41-4.23-2.76-6.62-2.76-6.22,0-12.52.37-18.72.18-.8-2.39,7.87-7.51,9.62-8.76,2.94-2.12,6.28-2.58,9.73-3.44-6.41.09-12,.65-17.77,3.5a37.7,37.7,0,0,1-10.38,3.29C164.23,117.88,168,116.84,167.86,113.83Z"/><path class="cls-11" d="M81.13,125.55a119.4,119.4,0,0,1,18.35.93c2,.3,4.87,1.13,6.89.6,1.22-.32,1.93-1.46,3.27-1.72,5.43-1,13.35,4,13.15,9.74-.14,4.21-2.92,7.55-7.15,6.32A42.24,42.24,0,0,0,101.58,140,85.34,85.34,0,0,0,90,141.79c-4.08.84-8,2.7-12.2,2.48-1.42-4.65,13-5.43,15.91-5.83,2.12-.29,6.64-.18,7.87-2.05-1.59-1-3.44-1-5.19-1.65-2.92-1-5.83-2-8.8-2.88-1.71-.5-5.5-.7-6.65-2.33-1.33-1.89,2.33-1.63,3.78-2.31C84,126.18,82.12,126.31,81.13,125.55Z"/><path class="cls-20" d="M198.15,143.83l0,0c-.08.22-.16.26-.05-.06a6.48,6.48,0,0,1-.72-1.33,5.92,5.92,0,0,0-.3-.62,8,8,0,0,0-.75-.67,13.48,13.48,0,0,0-5.4-2.35c-3.62-.77-9.09-.71-12.5,1.49-.39,1.48-.41,3.21.22,4.14,1.43,2.12,5.95,1.3,8.23,1.3,3,0,5.87.43,8.77.52a3.49,3.49,0,0,0,2.38-.55A5.49,5.49,0,0,1,198.15,143.83Z"/><path class="cls-20" d="M76.05,158c.42-2.66,5.13-5.51,7.45-6.57a9.65,9.65,0,0,1,4.69-1c2.53.23,2.93,3.63,1.86,5.49-1.67,2.89-6,2.13-8.68,3.29-1.48.63-4.06,3-5.72,2.16a5.41,5.41,0,0,1-.31-1.5"/></g><g id="Layer_6" data-name="Layer 6"><path class="cls-21" d="M107.61,213.71c4.6,7.92,7.06,17,8.14,26.17l.16.15c3.36,3.86,5.92,8.36,9.26,12.27,3,3.45,6.27,6.62,9.3,10,3.2,3.59,6.75,7.78,11.43,9.38s10.42,0,14.72-2.31c14.68-7.87,22.15-24.89,36.69-32.85a23,23,0,0,1-3.19-16.08c.09-.48.21-.94.34-1.39-5.24,4-11.82,6.59-17.73,9.32-.76.35-1.43-.75-.66-1.13,6.35-3.17,12.22-7.1,18.47-10.39a.92.92,0,0,1,.69,0c3.53-8.35,12.51-12.56,16.71-20.61,1.65-3.17,1.16-6,.49-8.89a23.89,23.89,0,0,1-2.6,1.63c-3.6,2.05-7.28,4-11,5.77-.95.47-1.93.91-2.89,1.36-8.4,10.29-22.27,16.79-34.3,21.27s-26.15,5.17-34.14-6.83a1,1,0,0,1,0-.1,74.85,74.85,0,0,1-17.52-4,5.69,5.69,0,0,1-1.18,2.46,10,10,0,0,1-.86.95c4.15,3.9,7,9.48,10.72,13.8,4.26,5,9.29,9.19,15.69,11a.59.59,0,0,1-.31,1.13c-6.38-1.08-11.53-4.38-15.94-9A86.68,86.68,0,0,1,107.61,213.71Zm205.12,17.15a1.28,1.28,0,0,1,0,2.46c-4.19,6-13.18,5.09-19.55,4.42-4.51-.49-12.53-1.18-16.76-4.65.16.5.31,1,.46,1.48,4.06,13.94,5.69,29,3.5,43.41-2.16,14.16-7.26,29-22.56,33.37-6.5,1.83-11.66-1.41-16.3-5.74a106.32,106.32,0,0,1-8.28-8.69q-5.08,2.26-10.31,4.34C193.24,313,163.18,318.5,135.15,318.5a205.15,205.15,0,0,1-21.09-1.09.68.68,0,0,1-1-.1c-4.89-6-7.87-15-8-23-.69.9-1.4,1.78-2.17,2.63-4.43,4.88-10.29,9.16-17.22,8.92-6.33-.23-12-4-15.83-8.78-22.22-27.55,1.4-58.88,2.77-88.67h1.6c0,15-5.91,29-9.32,43.41S61.41,281,70.3,293.7c4.28,6.1,11.24,11.18,19.08,9.37,7-1.61,12.47-7.68,16.14-13.62,6.72-10.87,8.45-24.1,8.38-36.65-.1-14.57-2.6-29-10.52-41.45-.75-1.17.84-2.19,1.77-1.43a.8.8,0,0,1,.11-.48c.42-.73,1.37-1.08,1.95-1.7a7.85,7.85,0,0,0,1.16-1.83,89,89,0,0,1-13.43-6.33,85,85,0,0,1-20.31-16.24C69.38,177.6,64.13,171.1,64,163.08l1.19-.21c1.58,8.43,7.65,15.12,13.64,21a87,87,0,0,0,18.73,13.91c14.14,7.8,28.92,10.29,44.88,10.21,12.74-1.46,25.1-3.76,37.45-8.2,5.5-2,10.88-4.23,16.16-6.71l.18-.21a.73.73,0,0,1,.76-.24q3-1.46,6-3a50.91,50.91,0,0,0,8.72-5.32,16.42,16.42,0,0,1-.34-3.15c0-2.73,1.57-4.83,4.45-4.62,2.29.17,4.47,1.69,6.31,3.38.7-.35,1.5-.59,2.16-1a7.64,7.64,0,0,0,2.38-2.32,1.08,1.08,0,0,1,.22-.21c-.08-.6-.19-1.2-.31-1.79-1.21.39-2.74-.35-3.8-.88a12.51,12.51,0,0,1-3.24-2.43c-4.46,2-9.12,3.64-13.66,5.43-4,1.55-8.16,3.63-12.51,3.35a.74.74,0,0,1-.42.27c-3.21.75-8.29-6.45-6.26-8.43a.91.91,0,0,1,.68-1.36c5.12-.66,10.13-2.86,15-4.57,2.17-.75,4.33-1.55,6.46-2.39a9.7,9.7,0,0,1-2.31-2c-1-1.1-1.44-2.54-2.26-3.75l-.26-.08a.84.84,0,0,1,.44-1.63c3.93,1,7,1.41,10.87.16a32.15,32.15,0,0,0,8.89-4.71c3.78-2.76,6.42-6.41,9.33-9.9a22.67,22.67,0,0,1-4.67-.67l.05-1.45c.9,0,1.79.14,2.7.25a8,8,0,0,0,3.92-.78.66.66,0,0,1,.34,0,3.58,3.58,0,0,1,.27-.29.64.64,0,0,1,1.09.47.6.6,0,0,1-.08.31c-6,10.7-17.83,21.54-30.7,18.92a12.27,12.27,0,0,0,1.24,1.46,9.88,9.88,0,0,0,2.06,1.52c.63.37,1,.55,1.25,1.26,1.62-.67,3.24-1.35,4.83-2.07,8.14-3.68,15.71-7.95,23.48-12.3a82.76,82.76,0,0,1,.18-9l.05-.84c.67-9.24,1.59-19.16,6.57-27.18a46.56,46.56,0,0,1,0-5.54l1.62-.08v.22c.06.86.2,1.77.32,2.69a24.94,24.94,0,0,1,3.22-3.35.82.82,0,0,1-.14-.5c.23-8.45-1.24-17.73-2.86-26a102.77,102.77,0,0,0-7.59-22.58c-5.82-12.92-11.73-25.32-25.48-31.07l-.41-.35a.36.36,0,0,1,.43-.45c6.39,1.27,11.27,5.14,15.19,10.08a.81.81,0,0,1,.11-.43,47.62,47.62,0,0,0,5.2-14c.2-1,1.62-6.66.77-7.67s-4.09.28-5.13.64c-4.2,1.48-8,3.79-12,5.81-2.48,1.27-5.28,2.88-8.13,3l-.07,0-.42-.34a.52.52,0,0,1,.23-.63c4.4-2.34,9.07-4.39,13.55-6.64,4-2,8.12-3.73,12.66-4a.79.79,0,0,1,.77.78,47.49,47.49,0,0,1-5.95,24,.77.77,0,0,1-1,.38,58.59,58.59,0,0,1,4.31,6.68.67.67,0,0,1,.14-.15,96.59,96.59,0,0,0,8-19.62c1.29-4.76,3.53-11.33,2-16.24-1.84-5.79-13,.08-16.62,1.55-7.38,3-14.56,6-21.27,10.34a.56.56,0,0,1-.71,0,.73.73,0,0,1,0-1.16c1.26-1,2.58-1.85,3.93-2.68l1-.74a.31.31,0,0,1,.11.09c6.17-3.62,13.05-6.17,19.69-8.68C234.43,3.51,240,.92,243.69,2a.43.43,0,0,1,.4-.29c8.15-.41,11.49,6.79,16.94,11.51a.77.77,0,0,1,.13,1.07.37.37,0,0,1,.19.2c2.14,4.83,1,10.07.4,15.12a82.13,82.13,0,0,1-1.7,10.58.54.54,0,0,1,.6-.24c3.84,1.23,6.42,5.65,8.42,8.89a86.88,86.88,0,0,1,7.33,13.89c5.08,13.11,4.91,27.15,4.82,41a1.12,1.12,0,0,1,0,.27.18.18,0,0,1,.07.05,19,19,0,0,1,2.86.91,17.1,17.1,0,0,1,3.54,2.31,18.44,18.44,0,0,1,5.38,7,.85.85,0,0,1,0,.34c7.92,4,7.4,16.41,6.31,24-1.18,8.3-4.07,17.62-10.41,23.48a20.58,20.58,0,0,1-5.44,3.64.54.54,0,0,1,.15.78,21.26,21.26,0,0,1-7.08,6.59l-.19.09c.18,4.53.59,10.22-.12,15.5a23,23,0,0,1,15.54,1.5c6.3,3.19,11.14,8.54,18.74,6.71a.59.59,0,0,1,.55-.1,1,1,0,0,1,.72,1.92,9.92,9.92,0,0,1-1.06.48c-4.07,6.84-11.44,11.21-18.95,13.38l-2.18.61C298.2,215,304.75,228.94,312.73,230.86Zm-4.93-31c-3.71.21-7.47-1.53-10.68-3.46s-5.91-4.34-9.46-5.46c-3.84-1.23-7.7-1-11.62-.56-.88,4.66-2.78,8.82-6.72,11.35a1.06,1.06,0,0,1-1.58-.91c-.18-2.63-.74-5.18-1.14-7.76a17.3,17.3,0,0,1-3.74,4.93,20.63,20.63,0,0,1-6.18,4.05c7.3,5,19.58,1.87,27-.78.51-.19.86.65.37.87-5.79,2.65-11.28,4.58-17.72,4.47A31.8,31.8,0,0,1,260,206a48,48,0,0,1,5,5.25,1.22,1.22,0,0,1,.3.06c8.4,3.11,17.44,1.23,25.8-1.22A38.3,38.3,0,0,0,307.8,199.87Zm2.65,33c-4.31-1.65-7.67-5.8-10.73-9-3.86-4-9.43-11.1-15.75-8.43-.47.2-.83-.26-.82-.68a46,46,0,0,1-6.79.78c5,3.37,9.31,9,15,10.26.87.19.47,1.41-.35,1.3-9.08-1.28-14-10.36-23-11.83a64.66,64.66,0,0,1,7,13.86.73.73,0,0,1,.35.12c2.7,1.62,4.9,3.12,8,4a56.66,56.66,0,0,0,9.74,1.82C299.27,235.8,305.2,236.06,310.45,232.86ZM296.28,143c2-8.86,3.85-23-6.28-27.35-10.24.17-15,15.66-16.47,23.73-1.09,5.95-1.62,28.62,9.47,23.84C290.83,159.8,294.52,150.72,296.28,143Zm-6.9-29.49.72.13c-.42-.6-.8-1.23-1.23-1.82a19.56,19.56,0,0,0-3.52-3.75,11.67,11.67,0,0,0-2.18-1.31c-.14,0-.3-.09-.45-.15-5.09.06-12.18,4.15-15.29,7.31-5,5.06-7.12,13.19-8,20a59.85,59.85,0,0,0,2,23.54c1.49,5.43,3.4,12.38,9,14.8a1,1,0,0,1,.41.33,10.65,10.65,0,0,0,2.47-.26,13.86,13.86,0,0,0,3.1-1.43,31,31,0,0,0,5.86-4.62,7.28,7.28,0,0,1-2.92.37c-3.63-.36-5.89-4.64-7-7.62-3.42-9.14-2.15-19.84,1.29-28.78,2.3-6,7.45-15.23,14.71-16.12A1,1,0,0,1,289.38,113.47ZM278.76,265.7c.51-23.07-7-52.38-29.1-63.66a1.14,1.14,0,0,1-.63-.78c-2.29,7.72-6.36,14.88-12.15,19.92a1.18,1.18,0,0,1-.47.27l-1.43-.62a1.1,1.1,0,0,1,.22-1.34,50.25,50.25,0,0,0,13.45-29.63A45.86,45.86,0,0,0,247.3,174c-.69-2.62-1.81-5.38-4.24-6.82-2.21-1.31-5.38-1.35-6.32,1.29a23.43,23.43,0,0,1,3,6.07c1.82,5.65,1.95,14.11-.18,19.66-.25.64-1.35.62-1.29-.18.61-8.64,1.55-19.42-5.32-26-1.08-1-3.33-2-4.62-.4-.87,1.09-.34,3.56-.12,4.69.26,1.4.7,2.77.84,4.19.32,3.36-1.1,6.45-2,9.64,1.49,3.41,1.28,6.92,2.07,11.3a.52.52,0,0,1-.87.48c0,.12,0,.24,0,.35s-.44.19-.45-.05a25.53,25.53,0,0,0-4-12.4c-1.6-2.37-5.24-7-8.58-6.6a3.35,3.35,0,0,0-.69.71c-1,1.34-.8,1.81-.43,3.32,1.52,6.13,2.36,11-1.68,16.42-4.84,6.5-12.62,10.89-15.24,18.95a19.07,19.07,0,0,0,.89,13.93c1.83,3.85,4.86,6.08,7.76,9a.85.85,0,0,1,0,1.1c2.14,7.21,5.88,14.25,8.83,21.15,3.4,8,8,14.9,13,21.9a130.41,130.41,0,0,0,15.11,17.57c2.56,2.46,5.65,5.26,9.26,6,3.79.73,7.83-1.27,10.94-3.21C276.17,297.87,278.46,279.9,278.76,265.7Zm-.06-163c0-12.36.37-24.72-3.39-36.67-1.64-5.27-4.24-10-6.95-14.72-2.27-4-4.57-7.62-8.24-10.47a.45.45,0,0,1-.16-.28,37.25,37.25,0,0,1-1.43,4.5c8.89,16.52,13.07,36.46,13.23,55.12A38.69,38.69,0,0,1,278.7,102.69Zm-9,96.12c6-5.47,5.29-17.25,5.41-24.92-1.51.7-3.39,1.28-4.71.6-6.82,3.55-15.37,1.84-21.4-2.85a37,37,0,0,1,1.57,6.39,51.36,51.36,0,0,1-1.26,22.18,1.29,1.29,0,0,1,1.65-.39c.75.39,1.48.79,2.19,1.22a.92.92,0,0,1,.29-.3c2.73-1.67,5.58-2.45,8-4.7a22.78,22.78,0,0,0,5.27-7.43c.35-.76,1.47-.19,1.29.55-.08.36-.18.71-.28,1.07A22.61,22.61,0,0,1,269.7,198.81Zm-1.3-88.42a32,32,0,0,1,10.87-5.12,60.51,60.51,0,0,0-8.16-3.24.48.48,0,0,1-.4.07c-10.55-2.13-18.86,3.05-23.65,12.43-3.63,7.11-4.32,15.59-4.91,23.42-.6,8-.61,16.66,2.7,24.13a20,20,0,0,0,8.31,9.44c4.93,2.84,9.7,2.85,14.75,1.89-5.14-3.11-7.2-9.92-8.7-15.4a60.85,60.85,0,0,1-1.46-27.65C259.17,123.13,262.12,114.82,268.4,110.39ZM270,99.78a128.05,128.05,0,0,0-3.64-28.09c-2.15-8.73-5.5-16.9-8.61-25.29a1.16,1.16,0,0,1-.57.11c-3.26,3-8.06,3.76-12.34,3.05a15.59,15.59,0,0,1-7-3.08c1.27,2.56,2.44,5.11,3.55,7.49a109.86,109.86,0,0,1,8.5,24.32A135,135,0,0,1,252.91,104a20.57,20.57,0,0,1,2.75-1.7c2.53-3.18,7.73-3.16,11.41-2.87A25.88,25.88,0,0,1,270,99.78ZM259.8,30.22c.68-5.2,1.68-10.16.72-15.4a.48.48,0,0,1,0-.12.85.85,0,0,1-.77-.22c-4.68-4.12-8-10.8-14.59-11.79a4.36,4.36,0,0,1,1,1c3,4.21.76,12.25-.3,16.74A93.15,93.15,0,0,1,237.2,42.7,19.1,19.1,0,0,0,239.55,45a13,13,0,0,0,5.72,2.32c3.89.63,7.49-.35,11-2a.18.18,0,0,0,0-.06A58.23,58.23,0,0,0,259.8,30.22ZM243.14,164.94l.24.12a31.08,31.08,0,0,1-3.19-8.94c-2,2.63-5,4.8-7.4,6.78-.53.44-1.07.88-1.62,1.3a5,5,0,0,1,.52.14,9.45,9.45,0,0,1,4,2.83C236.62,164.27,240.15,163.8,243.14,164.94Zm-3.4-11.52c-.16-1.12-.27-2.25-.35-3.39a163.81,163.81,0,0,1-25.29,13.75c-3.29,1.43-6.65,2.72-10,3.91,1.85,1.46,2.93,3.87,3.68,6.11,3.82-1.53,7.71-3,11.44-4.67a58.47,58.47,0,0,0,12.16-7.66C234.29,159.11,237.65,156.62,239.74,153.42Zm-7.12,142.81c-2.51-3-4.89-6.06-7.16-9.19-5.15-7.13-9.81-14.22-13.15-22.4-2.88-7-7.05-14.63-8.36-22.2a14.74,14.74,0,0,1-5.38-4.18c-8,5.91-14.37,13.15-21.16,20.45-5.92,6.35-12.69,13-21.26,15.44-9.35,2.67-16.13-1.56-22.33-8.3s-12.71-13.24-17.62-21a122.84,122.84,0,0,1,0,15.23c-.67,11.4-3.35,23.11-9.93,32.55a73.08,73.08,0,0,0,2.29,11.42c1.39,4.41,3.67,8.17,5.78,12.23a1.21,1.21,0,0,1,.08.25,200.56,200.56,0,0,0,20.7,1.06c27.94,0,57.88-5.53,87.45-17.18C226,299.11,229.32,297.69,232.62,296.23ZM226,184.2c.28-1.51.63-3,.82-4.53a10.67,10.67,0,0,1-1.36.93,9.67,9.67,0,0,1-1.77.83c.23.23.46.46.66.68A15.51,15.51,0,0,1,226,184.2Zm-.17-15.38a6.74,6.74,0,0,1,.17-1,51.59,51.59,0,0,1-4.72,2.62c.66.39,1.32.78,2,1.11a11.08,11.08,0,0,0,2.05.85c.29.08.56.12.83.19A13.68,13.68,0,0,1,225.87,168.82Zm-19.79,5.65A35.82,35.82,0,0,0,204.5,171a9.35,9.35,0,0,0-2.43-2.65c-.45.15-.88.31-1.33.44-4,1.32-8.18,3.12-12.42,3.35a3,3,0,0,0-.11,1.61,5.92,5.92,0,0,0,1.32,2.12,15.47,15.47,0,0,0,3.37,2.68h0a29.21,29.21,0,0,0,6.72-1.56C201.81,176.26,203.94,175.35,206.08,174.47ZM163.2,214.23c9.82-3.89,19.64-8.77,27.56-15.83-4.3,1.85-8.66,3.55-13.09,5-14.62,5-31,8.8-46.52,7.68a1,1,0,0,1-.81-.47l-.67,0c4.74,4.21,9.3,7.54,16,7.7C151.75,218.45,157.66,216.43,163.2,214.23Zm-56.42-1.9c-.3-.54-.61-1.08-.89-1.61l-.2-.07C106.07,211.2,106.43,211.76,106.78,212.33Z"/><path class="cls-21" d="M251.76,240.62C259,251.1,266.64,264.33,265,277.57c-.09.75-1.32,1.1-1.45.2-.88-6-1.66-11.64-4-17.31a102.44,102.44,0,0,0-8.41-15.95c-3.16-5-6.68-9.75-9.85-14.73-1.47-2.3-2.84-5.1-5.15-6.66-1.77-1.2-4-1.54-6.06-2a.56.56,0,0,1,.14-1.09,17,17,0,0,1,4.7.84l1.43.62a11.37,11.37,0,0,1,3.6,3C244.2,229.51,248,235.21,251.76,240.62Z"/><path class="cls-21" d="M240.47,60c6.56,13.41,8.19,30.14,7.36,44.89a1.31,1.31,0,0,1-.15.55c0,.11,0,.22,0,.32l-1.62.08a1.11,1.11,0,0,1-.57-1c-.85-14.26-.54-28.45-6.39-41.85-3.18-7.27-7.76-13.93-11.7-20.79-.69-1.19-1.31-2.39-1.94-3.57l2-1.14C231.73,45,236.67,52.19,240.47,60Z"/><path class="cls-21" d="M235.23,106.46A.87.87,0,0,1,234,107.7c-.74-.62-1.52-1.22-2.3-1.81,5.58,10.39,6.58,26.39-3,33.67h.24l-.05,1.45a7.57,7.57,0,0,0-1.24-.15.59.59,0,0,1-.55-.35.7.7,0,0,1-.6-1c3.91-6.1,7-11.15,6.59-18.71-.33-6.48-3-11.85-5.33-17.69a108.09,108.09,0,0,0-31.23-13.54c-7-1.86-14.12-3.67-21.2-5.37-6.25-1.51-12.58-3.63-19-3.91l.1-1.82c6.51-.7,13.35,1.79,19.61,3.24,7.59,1.75,15.22,3.6,22.72,5.67a103.15,103.15,0,0,1,19.22,7.4C224,97.82,230.69,101.32,235.23,106.46Z"/><path class="cls-21" d="M227.19,37.05c.08.15.16.3.25.44l-2,1.14a41.15,41.15,0,0,0-3.36-5.52c-7-2.88-12.17-9.33-18.24-13.67-7.38-5.26-16.65-9-25.41-11.19-9.05-2.24-20.35-1.48-29.41.61-3.42.79-7.3,2.68-11.11,3.69a.93.93,0,0,1-.4,1.51c-4.4,1.09-9.19.77-13.68,1.62a53.79,53.79,0,0,0-12.37,3.85A50.21,50.21,0,0,0,91.65,36l-1.19-.73a51.85,51.85,0,0,1,8.91-10.57c-.89-5.79-6.3-21.24,1.45-24.24C104.73-1,109,1.34,112.1,3.6c4.36,3.21,8.32,6.4,13.12,8.9a39.73,39.73,0,0,1,5.75-.7.86.86,0,0,1,.48-.25c7.07-1,13.39-4.7,20.47-5.65,9-1.2,18.36-2.36,27.25-.2a86.7,86.7,0,0,1,12.68,4.19c6.55-.13,14.49.16,20,3.27l-1,.74c-5-.83-9.79-1.67-14.72-2.08a75.74,75.74,0,0,1,8.07,4.5c.84.55,1.67,1.13,2.47,1.73,1.42,1.05,2.77,2.16,4.1,3.29l.42.34c1.19,1,2.38,2,3.58,3l.41.35c1,.83,2,1.64,3.08,2.41a11.49,11.49,0,0,1,4.23,2.77c.52.29,1.05.57,1.6.84a1.22,1.22,0,0,1,.49,1.69C225.5,34.1,226.33,35.56,227.19,37.05ZM121.4,13.38a46.36,46.36,0,0,1-5.6-3.6c-3.28-2.47-6.24-5.78-10.22-7.15-7.54-2.58-6.7,6.72-6,11.19.47,3.29,1.21,6.43,1.18,9.72a45.28,45.28,0,0,1,5.45-3.86s-.08-.07-.11-.11c-.83-1.12-.78-3.18-.94-4.49a23.59,23.59,0,0,1-.07-6.39.8.8,0,0,1,.77-.59c1.93,0,3.17,1.21,4.5,2.48,1.71,1.61,3.55,3.08,5.31,4.65C117.48,14.54,119.42,13.92,121.4,13.38Zm-11.1,4.08c1.07-.5,2.23-1,3.45-1.5a47.42,47.42,0,0,1-3.89-2.91c-.86-.7-2.18-2.5-3.37-3.14a23.44,23.44,0,0,0,.81,7c.13.59.35,1.14.48,1.7a.53.53,0,0,1,0,.13h0l0-.12a.51.51,0,0,1,0-.1,1.26,1.26,0,0,1,0,.21C108.63,18.29,109.44,17.86,110.3,17.46Z"/><path class="cls-21" d="M224.85,129.38a.59.59,0,0,1,0,1.12c-5.61,1.11-12.15.12-17.86,0a.6.6,0,0,1,0-1.19C212.7,129.26,219.24,128.27,224.85,129.38Z"/><path class="cls-21" d="M221.43,137.25c.28.44-.2,1.16-.73.95a45.26,45.26,0,0,0-4.63-2,18.65,18.65,0,0,0-5.61-.69c-.9,0-.89-1.34,0-1.4C213.73,133.87,219.43,134.17,221.43,137.25Z"/><path class="cls-21" d="M196.13,72.37c.2.59-.14,1.43-.88,1.35-3.36-.36-6.31-1.89-9.56-2.69-3.8-.94-7.76-1.47-11.61-2.12a115.79,115.79,0,0,0-18.2-1.47c.13,1.41,0,2.91,0,4.26a54.12,54.12,0,0,0,.46,6.74l-.1,1.82-.25,0a1.15,1.15,0,0,1-1.95-.55,26,26,0,0,1-.47-7.15,49.57,49.57,0,0,1,.33-5.1c-1.4,0-2.8,0-4.21.07-.06.08-.1.16-.16.24a.7.7,0,0,1-1.19,0c-1.06-2,.8-4.75,2-6.32a46,46,0,0,1,6.36-6.2,43.06,43.06,0,0,1,3.89-16.64c-2,1.16-4.29,1.85-6.2,3-4.28,2.56-8,6.45-11.46,10-7.12,7.14-12.38,15.52-14.19,25.48l-1.47,0c.93-9.18,5.52-17.51,11.65-24.33a79.48,79.48,0,0,1,12.76-11.84c3.22-2.29,7-3.53,10.4-5.63a.72.72,0,0,1,.64,0c.45-.33,1.25,0,1,.62a69.58,69.58,0,0,0-3.28,10.29c-.66,3.23-.85,6.55-1.51,9.77a33.09,33.09,0,0,1,8,1.41,86.85,86.85,0,0,1,11.69,3.84,74.64,74.64,0,0,1,9.49,5.28C191,68,193.89,69.34,196,72A.63.63,0,0,1,196.13,72.37Zm-3.28-1.18c-2-1.26-4.23-2.17-6.36-3.3A80.64,80.64,0,0,0,176.63,63c-3.38-1.25-6.89-2.36-10.38-3.27-3.34-.86-7-.78-10.19-1.92C155,58.91,153.92,60,153,61.18a15.7,15.7,0,0,0-2.31,3.57,7.84,7.84,0,0,0-.33,1c6.94-1.06,14.09-.46,21,.5,4.21.59,8.41,1.36,12.58,2.2C187,69.11,189.85,70.34,192.85,71.19Z"/><path class="cls-21" d="M164.68,167.74c-.89-3.33-2.11-8.25-4.46-11a.54.54,0,0,0-.26-.54c-3.1-1.69-7.17-1-10.54-.8-4.52.25-9,.63-13.53,1.25a113.08,113.08,0,0,0-13.46,3c-3.86,1-7.52,2.6-11.34,3.75a1,1,0,0,0-1.89.11c-5,12.62,3.56,27.77,15.15,33.43,8.81,4.3,21.3,3.76,30.08-1.47a.59.59,0,0,0,.56,0c6-3.85,9.33-10.15,10.39-17.09A25.48,25.48,0,0,0,164.68,167.74Zm-1.18,9.76a26.25,26.25,0,0,1-7.34,15c-9.1,5.46-20.06,7.73-30.23,3.26s-17.88-17.13-15.8-28.34a7.67,7.67,0,0,1,.47-2.46,1.1,1.1,0,0,1,.29-.42v0h0a.74.74,0,0,1,.5-.17l.25,0c.84-.16,1.66-.38,2.48-.62a.09.09,0,0,1,0,0,9.76,9.76,0,0,1,3.2-1c1.1-.37,2.21-.74,3.34-1.05,4.19-1.12,8.5-2.09,12.78-2.83A118.17,118.17,0,0,1,147,157.31a6.17,6.17,0,0,1,2.19-.19,1,1,0,0,1,.32.07q3.54-.12,7.07,0a3.55,3.55,0,0,1,1.81-.1.66.66,0,0,1,.34.18l.56,0c.28,2.95,2.16,6,3,8.78A26.51,26.51,0,0,1,163.5,177.5Z"/><path class="cls-21" d="M166.91,91c.37.19.16.71-.2.73-2.11.18-4.11-.51-6.14-1a27.26,27.26,0,0,0-7.72-.93c-.85,0-.82-1.21,0-1.29A27.84,27.84,0,0,1,166.91,91Z"/><path class="cls-21" d="M139,143a.51.51,0,0,1,.13,1c-2.95.93-6.14,1-9.19,1.57s-6.11,1.35-9.17,2a.62.62,0,0,1-.33-1.2C125.83,144.51,133.22,142.26,139,143Z"/><path class="cls-21" d="M135.53,146.84a.51.51,0,0,1,.25.94c-3.34,1.49-7.74,1.82-11.36,1.57-.78-.06-.8-1.26,0-1.24C128.22,148.19,131.78,147.13,135.53,146.84Z"/><path class="cls-21" d="M128.74,77a1.13,1.13,0,0,1-.26,2.21c-4.21,0-8.45.13-12.65-.11-2.66-.17-5.53.08-8.15-.22-2.69,1-5.61,1.72-7.89,2.76-.37.17-.72.34-1.08.53l-.65-1.3c4.61-2.36,9.39-4.41,14.18-6.53-.76-1.19-1.28-2.59-2.17-3.72a11.31,11.31,0,0,0-5-3.55,1.28,1.28,0,0,1-.44-.28l-.44-.92a.12.12,0,0,0,.08,0,.81.81,0,0,1,.14-.4,1.13,1.13,0,0,1,1.24-.51,10.33,10.33,0,0,1,5.59,4c1.19,1.53,2.81,3.88,2.75,5.89a.68.68,0,0,1-.68.62,8.66,8.66,0,0,1-1.53,1.36c1,0,2,.13,2.87.16,4.2.15,8.41.08,12.61,0Z"/><path class="cls-21" d="M109.25,93.94c.59-.39,1.12.53.54.92a35.66,35.66,0,0,1-4.93,2.69,41.78,41.78,0,0,1-4.71,2.18c-.54.17-1-.62-.57-1C102.35,96.54,106.24,95.84,109.25,93.94Z"/><path class="cls-21" d="M89.64,61.93a2.46,2.46,0,0,1,0-.28l-.16.18A.61.61,0,0,1,89.64,61.93Z"/><path class="cls-21" d="M84.62,89.48a53.09,53.09,0,0,1,20-22.68l-.44-.92A59.18,59.18,0,0,0,91,75.77a.94.94,0,0,1,0-.09c.14-.64.26-1.31.36-2a8.35,8.35,0,0,0,.22-1.79,45.85,45.85,0,0,0,.1-7.23,6.12,6.12,0,0,0-.29-3.05c-.09-.68-.2-1.35-.32-2A.64.64,0,0,0,90,59.54c-1.5,1.35-2.94,2.75-4.3,4.21-4.6,3.29-7.6,8.54-9.76,14a56.32,56.32,0,0,0-3.15,7.57c-6.2.12-14.81,3.58-18.86,9a17.55,17.55,0,0,1,0-3.24,39.78,39.78,0,0,1,2.93-10.75A98.89,98.89,0,0,1,67,61c7.7-11,19-19,29.79-26.79.71-.52,0-1.7-.71-1.2l-4.45,3-1.19-.73c-.36.56-.72,1.14-1.07,1.72a.55.55,0,0,0,0,.55c-10,6.8-19.43,13.93-26.22,24.31A90.91,90.91,0,0,0,52.54,83.7c-1.48,4.71-2.66,11.17-.89,16.24a8.86,8.86,0,0,0,.06,2c.52,3.87,4.27,5.36,7.67,6a35.14,35.14,0,0,0,3.55.45,15.08,15.08,0,0,0-.64,7.33c-5.18,2.54-7.26,9.77-8.07,15-.74,4.69-1.39,12.71,2.67,16.25a1,1,0,0,0,.86.2c-4.34,6.26-7.22,13.57-7.36,20.3-.34,16.84,14.21,27.06,21.7,40.49a1,1,0,0,0,.51.46h1.6v-.68s0,0,0-.06a1,1,0,0,0,0-.6c-2.41-6.3-7.27-11.22-11.57-16.27-4.77-5.58-8.7-12.12-9.71-19.49-1.49-11,4.24-21.29,11.81-29.24a.89.89,0,0,0,.3-.31,66.3,66.3,0,0,1,5.71-5.24,12.73,12.73,0,0,0,1.25,1.08.75.75,0,0,1,.13.06,41.45,41.45,0,0,1-2,7.93c-6.31,5.84-12.35,14.12-11.35,23.17a.56.56,0,0,0,1.12,0c.81-7.26,4-12.62,8-18-1.83,3.66-4.26,7.63-4.49,11.58a.77.77,0,0,0,.62.72l1.19-.21c0-.2-.07-.39-.1-.59,3-4.1,5-10,6.88-14.67a.42.42,0,0,1,0-.27,32.26,32.26,0,0,0,1.08-3,.42.42,0,0,1,.12-.22A28.45,28.45,0,0,0,74.44,136a62.4,62.4,0,0,0-.1-13.93.19.19,0,0,0,0-.07,59.71,59.71,0,0,1,0-10.27A76.72,76.72,0,0,1,79,91.58a134.08,134.08,0,0,1,7.46-14.93,56.65,56.65,0,0,0,2.76-5.28,39.15,39.15,0,0,0-.07,4,1,1,0,0,0,1.34.91,35.17,35.17,0,0,0-9,15.62.94.94,0,0,0,1.81.51c.09-.24.2-.47.3-.7,5.34-2.65,9.78-6.87,15.11-9.58l-.65-1.3A72.79,72.79,0,0,0,84.62,89.48Zm-26.09,56.6a1,1,0,0,0-.11-.3c-4.68-7.36-3.6-23,4.09-28.45a57.58,57.58,0,0,0,1.33,5.83c.26,1,.57,2,.92,3-2.22,4.29-3.26,10.27-1.92,14.88A46,46,0,0,0,58.53,146.08Zm6.11-6.79c-.67-3.66.24-7,1.1-10.57a25.57,25.57,0,0,0,3.91,6.72A35.6,35.6,0,0,0,64.64,139.29Zm7.86-8.09h0a18.42,18.42,0,0,1,0,2,.37.37,0,0,1,0,.18c0,.34,0,.68,0,1a.54.54,0,0,0-.43-.2l-.61-1h0c-.52-.85-1.25-1.55-1.74-2.42s-.82-1.8-1.27-2.68l0-.05-.24-.48a.36.36,0,0,1,0-.19,35.32,35.32,0,0,1-2-4.8,34.74,34.74,0,0,1-1.84-8c-.18-2,.17-4,.17-6l1.8.11c1.6.08,4,.69,5.75.41-.21,1.72-.4,3.44-.53,5.15-.31,4.09-.48,8.84.52,13.09h0a14.32,14.32,0,0,1,.34,1.94c.1.56.16,1.1.21,1.65l.08,0C72.51,131,72.5,131.09,72.5,131.2Zm17-65.65a.66.66,0,0,0-.58.41c-4,10.06-10.6,18.83-14,29.22a73.6,73.6,0,0,0-2.69,11.45c-1.82-.87-4.73-.54-6.51-.64-2.94-.16-8,0-10.33-2.25a1,1,0,0,0,.17-.72c-.26-1.56-.62-3-1-4.48,1.24-2.9,4.51-5.65,6.45-6.93A30.7,30.7,0,0,1,74.9,86.86a.71.71,0,0,0,.61-1.08,1.63,1.63,0,0,0,.09-.19c.41-1.27.83-2.53,1.27-3.77,1.17-2.64,2-5.5,3.39-7.93a54,54,0,0,1,6.33-8.74,28.9,28.9,0,0,1,3-2.47s0,0,0,0C89.53,63.61,89.52,64.58,89.5,65.55Z"/><path class="cls-21" d="M196,112.74a118.83,118.83,0,0,0-23.32,8.62A125.23,125.23,0,0,0,153,134.13l-2.12-3.63s6.45-6.32,18.53-12.27a117.56,117.56,0,0,1,24.37-9.12Z"/><path class="cls-21" d="M200.67,128.18a118.88,118.88,0,0,0-24.86.4,125,125,0,0,0-22.71,5.55l-.8-4.13s8.18-3.82,21.55-5.44a117.57,117.57,0,0,1,26-.51Z"/><path class="cls-21" d="M78.75,129.23a106.67,106.67,0,0,1,22.19,2.42,112.75,112.75,0,0,1,19.85,6.85l1.06-3.62s-7-4.1-18.82-6.65a105.54,105.54,0,0,0-23.22-2.62Z"/><path class="cls-21" d="M78,143.71a106.53,106.53,0,0,1,21.73-5.08,112.58,112.58,0,0,1,21-.11l-.2-3.77s-8-1.55-20,0a105.69,105.69,0,0,0-22.78,5.22Z"/><path class="cls-21" d="M122,130.18a16.39,16.39,0,0,1-1.85-1.52,22.62,22.62,0,0,0-2.63-1.69,10.58,10.58,0,0,0-4.77-1.66c-.65,0-.74.79-.3,1.12,1.57,1.17,3.54,1.77,5.24,2.74,1.36.77,2.47,1.79,4.07,1.9a.48.48,0,0,0,.24-.89Z"/><path class="cls-21" d="M149.57,128.84c2.75-2.25,5-5,7.87-7.17s5.88-3.45,8.6-5.48c.48-.36.23-1.28-.45-1.06a32.36,32.36,0,0,0-16.7,13.18c-.28.45.32.83.68.53Z"/><path class="cls-21" d="M76.73,147.33a20.11,20.11,0,0,0-9.42,5.35c-.66.66.31,1.57,1,1a40.57,40.57,0,0,1,4.29-3.32c1.43-.88,3-1.45,4.45-2.26.44-.24.13-.86-.32-.77Z"/><path class="cls-21" d="M74.7,153.54A6.7,6.7,0,0,0,69,155.88a.73.73,0,0,0-.19.71l.07.18c0,.14.15.3.31.32,1,.13,1.43-.85,2.17-1.33a6.3,6.3,0,0,1,3.33-1,.59.59,0,0,0,0-1.17Z"/></g></g></svg>