<?xml version="1.0" standalone="no"?>
<svg xmlns:xlink="http://www.w3.org/1999/xlink" id="wave" style="transform:rotate(180deg); transition: 0.3s" viewBox="0 0 1440 490" version="1.1" xmlns="http://www.w3.org/2000/svg"><defs><linearGradient id="sw-gradient-0" x1="0" x2="0" y1="1" y2="0"><stop stop-color="rgba(88, 28, 135, 1)" offset="0%"/><stop stop-color="rgba(147, 51, 234, 0.33)" offset="100%"/></linearGradient></defs><path style="transform:translate(0, 0px); opacity:1" fill="url(#sw-gradient-0)" d="M0,98L80,122.5C160,147,320,196,480,220.5C640,245,800,245,960,220.5C1120,196,1280,147,1440,138.8C1600,131,1760,163,1920,147C2080,131,2240,65,2400,81.7C2560,98,2720,196,2880,245C3040,294,3200,294,3360,318.5C3520,343,3680,392,3840,343C4000,294,4160,147,4320,138.8C4480,131,4640,261,4800,334.8C4960,408,5120,425,5280,432.8C5440,441,5600,441,5760,408.3C5920,376,6080,310,6240,285.8C6400,261,6560,278,6720,310.3C6880,343,7040,392,7200,400.2C7360,408,7520,376,7680,367.5C7840,359,8000,376,8160,375.7C8320,376,8480,359,8640,294C8800,229,8960,114,9120,89.8C9280,65,9440,131,9600,155.2C9760,180,9920,163,10080,163.3C10240,163,10400,180,10560,187.8C10720,196,10880,196,11040,179.7C11200,163,11360,131,11440,114.3L11520,98L11520,490L11440,490C11360,490,11200,490,11040,490C10880,490,10720,490,10560,490C10400,490,10240,490,10080,490C9920,490,9760,490,9600,490C9440,490,9280,490,9120,490C8960,490,8800,490,8640,490C8480,490,8320,490,8160,490C8000,490,7840,490,7680,490C7520,490,7360,490,7200,490C7040,490,6880,490,6720,490C6560,490,6400,490,6240,490C6080,490,5920,490,5760,490C5600,490,5440,490,5280,490C5120,490,4960,490,4800,490C4640,490,4480,490,4320,490C4160,490,4000,490,3840,490C3680,490,3520,490,3360,490C3200,490,3040,490,2880,490C2720,490,2560,490,2400,490C2240,490,2080,490,1920,490C1760,490,1600,490,1440,490C1280,490,1120,490,960,490C800,490,640,490,480,490C320,490,160,490,80,490L0,490Z"/></svg>