<svg width="20" height="19" viewBox="0 0 20 19" fill="none" xmlns="http://www.w3.org/2000/svg">
<path d="M20 0.600536C19.8652 -0.0161874 19.2842 -0.112479 18.8223 0.107043C12.7533 2.99177 6.6775 5.8616 0.601176 8.73086C0.273482 8.88561 0.00338597 9.07877 3.07414e-05 9.48457C-0.00332449 9.89037 0.261179 10.0893 0.590551 10.2446C6.67806 13.1201 12.7639 15.9991 18.8503 18.8776C19.2742 19.0782 19.6041 19.034 19.8367 18.732C19.9066 18.6414 19.9463 18.5262 19.9994 18.4219C19.9994 18.3285 19.9994 18.2351 19.9994 18.1416C19.9128 17.988 19.8412 17.8229 19.7383 17.682C17.8761 15.1308 16.0101 12.5819 14.1446 10.0325C14.0126 9.85254 13.8823 9.67085 13.7514 9.49087C13.7984 9.42381 13.8348 9.36936 13.8739 9.31606C15.8065 6.67664 17.7391 4.0378 19.6678 1.39609C19.7942 1.22299 19.8898 1.0264 20 0.840692C20 0.760449 20 0.680206 20 0.600536Z" fill="#929292"/>
</svg>
