<svg width="16" height="21" viewBox="0 0 16 21" fill="none" xmlns="http://www.w3.org/2000/svg">
<path d="M8.0013 21C9.16145 21 10.1107 20.0308 10.1107 18.8462H5.89194C5.89194 19.4174 6.11418 19.9652 6.50976 20.3692C6.90534 20.7731 7.44186 21 8.0013 21ZM14.3294 14.5385V9.15385C14.3294 5.84769 12.5997 3.08 9.58332 2.34769V1.61538C9.58332 0.721539 8.87668 0 8.0013 0C7.12592 0 6.41928 0.721539 6.41928 1.61538V2.34769C3.39235 3.08 1.67322 5.83692 1.67322 9.15385V14.5385L0.312688 15.9277C-0.35176 16.6062 0.112299 17.7692 1.05096 17.7692H14.9411C15.8798 17.7692 16.3544 16.6062 15.6899 15.9277L14.3294 14.5385Z" fill="white"/>
</svg>
