<svg width="19" height="19" viewBox="0 0 19 19" fill="none" xmlns="http://www.w3.org/2000/svg">
<path d="M16.2176 16.2172C16.8923 15.5429 16.8923 14.449 16.2176 13.7747L16.073 13.6301C16.5326 12.9007 16.8755 12.0922 17.0724 11.2272H17.2727C18.2266 11.2272 19 10.4538 19 9.49995C19 8.54606 18.2266 7.77267 17.2727 7.77267H17.0724C16.8755 6.90779 16.5326 6.09916 16.073 5.36982L16.2176 5.22516C16.8923 4.55088 16.8923 3.45697 16.2176 2.78269C15.5429 2.10797 14.4499 2.10797 13.7752 2.78269L13.6305 2.92735C12.9014 2.46736 12.0926 2.12471 11.2273 1.92737V1.72727C11.2273 0.773386 10.4539 0 9.5 0C8.54611 0 7.77273 0.773386 7.77273 1.72727V1.92737C6.90742 2.12471 6.09857 2.46736 5.3695 2.9274L5.22484 2.78274C4.55012 2.10803 3.45708 2.10803 2.78237 2.78274C2.10765 3.45703 2.10765 4.55093 2.78237 5.22522L2.92703 5.36987C2.46736 6.09922 2.12449 6.90785 1.92758 7.77273H1.72727C0.773386 7.77273 0 8.54611 0 9.5C0 10.4539 0.773386 11.2273 1.72727 11.2273H1.92758C2.12449 12.0922 2.46736 12.9008 2.92703 13.6301L2.78237 13.7748C2.10765 14.4491 2.10765 15.543 2.78237 16.2173C3.11972 16.5546 3.56169 16.7233 4.0036 16.7233C4.44551 16.7233 4.88748 16.5546 5.22484 16.2173L5.3695 16.0726C6.09862 16.5326 6.90742 16.8753 7.77273 17.0726V17.2727C7.77273 18.2266 8.54611 19 9.5 19C10.4539 19 11.2273 18.2266 11.2273 17.2727V17.0726C12.0926 16.8753 12.9014 16.5326 13.6305 16.0726L13.7752 16.2173C14.1125 16.5546 14.5545 16.7233 14.9964 16.7233C15.4383 16.7233 15.8803 16.5546 16.2176 16.2172ZM9.5 13.8182C7.11912 13.8182 5.18182 11.8809 5.18182 9.5C5.18182 7.11912 7.11912 5.18182 9.5 5.18182C11.8809 5.18182 13.8182 7.11912 13.8182 9.5C13.8182 11.8809 11.8809 13.8182 9.5 13.8182Z" fill="white"/>
<path d="M9.50015 12.091C10.9311 12.091 12.0911 10.931 12.0911 9.50009C12.0911 8.06917 10.9311 6.90918 9.50015 6.90918C8.06923 6.90918 6.90924 8.06917 6.90924 9.50009C6.90924 10.931 8.06923 12.091 9.50015 12.091Z" fill="white"/>
</svg>
