<svg width="16" height="17" viewBox="0 0 16 17" fill="none" xmlns="http://www.w3.org/2000/svg">
<path d="M7.63656 16.9999C7.95834 16.9924 8.26713 16.8715 8.50831 16.6583C8.74949 16.4452 8.90753 16.1536 8.95445 15.8352H6.26758C6.31584 16.1623 6.48126 16.4607 6.73308 16.6749C6.9849 16.8892 7.30597 17.0046 7.63656 16.9999Z" fill="white"/>
<path d="M15.2222 13.8584L15.0486 13.7051C14.5558 13.2661 14.1246 12.7627 13.7664 12.2084C13.3752 11.4435 13.1408 10.6082 13.0768 9.75141V7.228C13.0747 6.92148 13.0474 6.61566 12.9951 6.31364C12.1298 6.1358 11.3526 5.66441 10.795 4.97929C10.2374 4.29416 9.93372 3.4374 9.93531 2.55406V2.23225C9.40199 1.96979 8.82898 1.79719 8.23942 1.72143V1.07781C8.23942 0.896949 8.16757 0.723496 8.03968 0.595608C7.91179 0.467721 7.73834 0.395874 7.55748 0.395874C7.37662 0.395874 7.20317 0.467721 7.07528 0.595608C6.94739 0.723496 6.87554 0.896949 6.87554 1.07781V1.74697C5.55546 1.93319 4.34731 2.59071 3.47415 3.59813C2.60099 4.60555 2.12178 5.89485 2.12498 7.228V9.75141C2.06101 10.6082 1.82655 11.4435 1.43538 12.2084C1.08337 12.7613 0.659048 13.2647 0.173677 13.7051L0 13.8584V15.2988H15.2222V13.8584Z" fill="white"/>
</svg>
