<svg width="18" height="19" viewBox="0 0 18 19" fill="none" xmlns="http://www.w3.org/2000/svg">
<path d="M7.63656 18.9999C7.95834 18.9924 8.26713 18.8715 8.50831 18.6583C8.74949 18.4452 8.90753 18.1536 8.95445 17.8352H6.26758C6.31584 18.1623 6.48126 18.4607 6.73308 18.6749C6.9849 18.8892 7.30597 19.0046 7.63656 18.9999Z" fill="white"/>
<path d="M15.2222 15.8584L15.0486 15.7051C14.5558 15.2661 14.1246 14.7627 13.7664 14.2084C13.3752 13.4435 13.1408 12.6082 13.0768 11.7514V9.228C13.0747 8.92148 13.0474 8.61566 12.9951 8.31364C12.1298 8.1358 11.3526 7.66441 10.795 6.97929C10.2374 6.29416 9.93371 5.4374 9.93531 4.55406V4.23225C9.40199 3.96979 8.82898 3.79719 8.23942 3.72143V3.07781C8.23942 2.89695 8.16757 2.7235 8.03968 2.59561C7.91179 2.46772 7.73834 2.39587 7.55748 2.39587C7.37662 2.39587 7.20317 2.46772 7.07528 2.59561C6.94739 2.7235 6.87554 2.89695 6.87554 3.07781V3.74697C5.55546 3.93319 4.34731 4.59071 3.47415 5.59813C2.60099 6.60555 2.12178 7.89485 2.12498 9.228V11.7514C2.06101 12.6082 1.82655 13.4435 1.43538 14.2084C1.08337 14.7613 0.659048 15.2647 0.173677 15.7051L0 15.8584V17.2988H15.2222V15.8584Z" fill="white"/>
<path d="M14.5 7C16.433 7 18 5.433 18 3.5C18 1.567 16.433 0 14.5 0C12.567 0 11 1.567 11 3.5C11 5.433 12.567 7 14.5 7Z" fill="#00FF0A"/>
</svg>
