<svg id="Capa_1" enable-background="new 0 0 512 512" height="512" viewBox="0 0 512 512" width="512" xmlns="http://www.w3.org/2000/svg"><path d="m490.239 482.678h-468.478c-12.018 0-21.761-9.742-21.761-21.761v-409.834c0-12.018 9.743-21.761 21.761-21.761h468.479c12.018 0 21.761 9.743 21.761 21.761v409.835c-.001 12.018-9.744 21.76-21.762 21.76z" fill="#e8f3ff"/><path d="m490.239 29.322h-39.662c12.018 0 21.761 9.743 21.761 21.761v409.835c0 12.018-9.743 21.761-21.761 21.761h39.662c12.018 0 21.761-9.743 21.761-21.761v-409.836c0-12.017-9.743-21.76-21.761-21.76z" fill="#c1e2ff"/><path d="m490.239 29.322h-468.478c-12.018 0-21.761 9.742-21.761 21.761v70.651h512v-70.651c0-12.019-9.743-21.761-21.761-21.761z" fill="#c1e2ff"/><path d="m472.338 51.082v70.651h39.662v-70.651c0-12.018-9.743-21.761-21.761-21.761h-39.662c12.019.001 21.761 9.744 21.761 21.761z" fill="#b3d8fb"/><circle cx="443.399" cy="75.561" fill="#02c6db" r="18.763"/><circle cx="368.162" cy="75.561" fill="#02c6db" r="18.763"/><path d="m306.308 83.254h-258.062c-4.268 0-7.726-3.459-7.726-7.726s3.459-7.726 7.726-7.726h258.061c4.268 0 7.726 3.459 7.726 7.726.001 4.267-3.458 7.726-7.725 7.726z" fill="#fff"/><path d="m291.848 252.452h-232.061c-6.374 0-11.541-5.167-11.541-11.541v-47.506c0-6.374 5.167-11.541 11.541-11.541h232.06c6.374 0 11.541 5.167 11.541 11.541v47.506c0 6.375-5.167 11.541-11.54 11.541z" fill="#7fd061"/><path d="m291.848 181.865h-47.848c6.374 0 11.54 5.167 11.54 11.54v47.506c0 6.374-5.167 11.54-11.54 11.54h47.848c6.373 0 11.54-5.167 11.54-11.54v-47.506c0-6.373-5.167-11.54-11.54-11.54z" fill="#51be26"/><path d="m465.041 271.448-27.878-27.878-9.396-1.443-166.424 166.425c-2.923 2.923-5.368 6.289-7.244 9.973l-26.976 52.977c-4.172 6.529 3.457 14.158 9.986 9.986l52.977-26.976c3.684-1.876 7.05-4.32 9.973-7.244l166.424-166.424z" fill="#fc5327"/><path d="m254.099 418.525-26.976 52.977c-4.172 6.529 3.457 14.158 9.986 9.986l52.977-26.976z" fill="#3c5959"/><path d="m506.576 240.752c7.232-7.233 7.232-18.959 0-26.191l-12.525-12.525c-7.233-7.233-18.959-7.233-26.191 0l-13.263 13.263 1.618 8.259 28.84 28.84 8.259 1.617z" fill="#fce25c"/><path d="m441.57 220.695h37.941v54.753h-37.941z" fill="#0e80ac" transform="matrix(.707 -.707 .707 .707 -40.524 398.309)"/><g fill="#3590bb"><path d="m293.623 298.159h-236.105c-4.268 0-7.726-3.459-7.726-7.726s3.459-7.726 7.726-7.726h236.105c4.268 0 7.726 3.459 7.726 7.726s-3.459 7.726-7.726 7.726z"/><path d="m293.623 336.498h-236.105c-4.268 0-7.726-3.459-7.726-7.726s3.459-7.726 7.726-7.726h236.105c4.268 0 7.726 3.459 7.726 7.726s-3.459 7.726-7.726 7.726z"/><path d="m175.818 374.837h-118.3c-4.268 0-7.726-3.459-7.726-7.726s3.459-7.726 7.726-7.726h118.3c4.268 0 7.726 3.459 7.726 7.726s-3.458 7.726-7.726 7.726z"/></g></svg>