<svg height="512" viewBox="0 0 128 128" width="512" xmlns="http://www.w3.org/2000/svg"><g><g><g><path d="m58.276 23.268h57.5v79.615h-57.5z" fill="#b560e8" transform="matrix(.988 .152 -.152 .988 10.614 -12.51)"/><path d="m53.219 40.326h67.615v45.5h-67.615z" fill="#fbd62e" transform="matrix(-.152 .988 -.988 -.152 162.612 -13.337)"/><path d="m81.439 73.711h6v12.333h-6z" fill="#efeffb" transform="matrix(.988 .152 -.152 .988 13.141 -11.921)"/><path d="m90.552 40.179-5.399 5.492-4.223 27.427 4.448.685 4.447.685 4.224-27.427z" fill="#efeffb"/><g fill="#dfdfe5"><path d="m91.629 78.124a63.47 63.47 0 0 1 -13.519-2.082 2.98 2.98 0 0 1 -2.07-3.786l.018-.057a2.958 2.958 0 0 1 3.583-1.958 57.573 57.573 0 0 0 12.273 1.89 2.959 2.959 0 0 1 2.828 2.945v.06a2.981 2.981 0 0 1 -3.113 2.988z"/><path d="m91.629 78.124a63.47 63.47 0 0 1 -13.519-2.082 2.98 2.98 0 0 1 -2.07-3.786l.018-.057a2.958 2.958 0 0 1 3.583-1.958 57.573 57.573 0 0 0 12.273 1.89 2.959 2.959 0 0 1 2.828 2.945v.06a2.981 2.981 0 0 1 -3.113 2.988z"/></g></g><g><path d="m48.556 108 .941-3.6s-5.248-13.282-5.248-21.9h-9.875c0 8.614-5.247 21.9-5.247 21.9l.941 3.6z" fill="#fd9600"/><path d="m49.5 104.688h-20.373a47.956 47.956 0 0 1 -.808 8.8l-.581 2.016v3h23.148v-3l-.581-2.016a47.956 47.956 0 0 1 -.805-8.8z" fill="#fbd62e"/><circle cx="39.312" cy="71.5" fill="#fd9600" r="7.5"/><path d="m31.812 77.501h15v6h-15z" fill="#fbd62e"/><path d="m27.937 115.5h22.75a3 3 0 0 1 3 3v3a0 0 0 0 1 0 0h-28.75a0 0 0 0 1 0 0v-3a3 3 0 0 1 3-3z" fill="#fd9600"/></g><g><rect fill="#efeffb" height="38" rx="3" transform="matrix(.309 .951 -.951 .309 60.934 -24.54)" width="38" x="28.354" y="10.661"/><g fill="#537980"><g><circle cx="42.717" cy="38.527" r="3"/><circle cx="38.392" cy="25.212" r="3"/></g><g><circle cx="56.317" cy="34.11" r="3"/><circle cx="51.991" cy="20.795" r="3"/></g></g></g></g><g fill="#051720"><path d="m112.651 85.561a1.74 1.74 0 0 0 -2 1.462l-.449 2.918a1.751 1.751 0 0 0 1.463 2 1.9 1.9 0 0 0 .268.02 1.751 1.751 0 0 0 1.728-1.483l.449-2.918a1.748 1.748 0 0 0 -1.459-1.999z"/><path d="m122.911 27.075a1.746 1.746 0 0 0 -1.144-.694l-56.488-8.7-3.134-9.65a4.751 4.751 0 0 0 -5.985-3.048l-30.433 9.887a4.747 4.747 0 0 0 -3.051 5.985l4.646 14.3a1.75 1.75 0 1 0 3.328-1.082l-4.65-14.299a1.252 1.252 0 0 1 .8-1.576l30.442-9.886a1.249 1.249 0 0 1 1.574.8l9.884 30.438a1.249 1.249 0 0 1 -.8 1.574l-7.656 2.487-.041.014-22.736 7.386a1.258 1.258 0 0 1 -1.576-.8l-2.781-8.562a1.75 1.75 0 0 0 -3.328 1.082l2.78 8.559a4.749 4.749 0 0 0 5.986 3.049l19.959-6.484-7.687 49.918a1.751 1.751 0 0 0 1.463 2l56.83 8.759a1.716 1.716 0 0 0 .267.021 1.751 1.751 0 0 0 1.729-1.484l1.652-10.723a1.75 1.75 0 1 0 -3.459-.533l-1.385 8.994-53.371-8.23 7.689-49.933 2.674-.869-7.238 46.989a1.75 1.75 0 0 0 1.463 2l44.97 6.92a1.881 1.881 0 0 0 .268.02 1.75 1.75 0 0 0 1.728-1.483l10.29-66.83a1.75 1.75 0 0 0 -1.463-2l-44.97-6.92a1.741 1.741 0 0 0 -2 1.463l-1.47-4.526 53.013 8.165-7.979 51.827a1.75 1.75 0 1 0 3.459.534l8.249-53.56a1.748 1.748 0 0 0 -.318-1.299zm-51.758 1.125 41.511 6.388-9.757 63.37-41.507-6.392 7.241-47 .345-.112a4.752 4.752 0 0 0 3.049-5.984l-1.673-5.14z"/><path d="m104.023 62.755a1.754 1.754 0 0 0 2-1.463l.869-5.646a1.75 1.75 0 1 0 -3.459-.533l-.869 5.646a1.749 1.749 0 0 0 1.459 1.996z"/><path d="m77.658 77.732c.737.2 1.482.359 2.225.53l-.811 5.284a1.746 1.746 0 0 0 -.286 3.472l1.466.225.022.006 5.633.865 1.775.273a1.881 1.881 0 0 0 .268.02 1.746 1.746 0 0 0 .511-3.416l.811-5.283c.759.061 1.518.13 2.279.164h.208a4.729 4.729 0 0 0 4.732-4.808 4.692 4.692 0 0 0 -4.263-4.653l3.551-23.11a1.746 1.746 0 0 0 -.171-1.061l-3.5-6.86a1.75 1.75 0 0 0 -2.806-.433l-5.4 5.49a1.766 1.766 0 0 0 -.481.962l-3.553 23.114a4.742 4.742 0 0 0 -2.21 9.219zm7.348 6.7-2.471-.38.782-5.1q1.233.213 2.472.38zm1.788-37.94 3.3-3.355 2.139 4.193-3.5 22.8q-2.74-.284-5.443-.837zm-9.068 26.239a1.212 1.212 0 0 1 1.463-.8c.5.134 1.014.241 1.52.361a1.731 1.731 0 0 0 .374.09 59.334 59.334 0 0 0 8.771 1.353c.031.007.059.019.09.024a1.881 1.881 0 0 0 .268.02c.038 0 .074-.007.111-.01.505.036 1.008.086 1.513.109a1.258 1.258 0 0 1 .777 2.154 1.177 1.177 0 0 1 -.906.343 61.864 61.864 0 0 1 -9.573-1.193h-.008-.005c-1.195-.243-2.383-.515-3.56-.828a1.218 1.218 0 0 1 -.761-.6 1.258 1.258 0 0 1 -.074-1.023z"/><path d="m52.293 114.049-.3-1.059a46.59 46.59 0 0 1 -.739-8.3 1.67 1.67 0 0 0 -.022-.2 1.72 1.72 0 0 0 -.1-.732c-.045-.112-4.1-10.455-4.959-18.506h.643a1.75 1.75 0 0 0 1.75-1.75v-6a1.746 1.746 0 0 0 -1.12-1.628 9.25 9.25 0 1 0 -16.264 0 1.744 1.744 0 0 0 -1.12 1.626v6a1.749 1.749 0 0 0 1.75 1.75h10.841c.619 6.44 3.133 14.068 4.435 17.689h-15.548a103.149 103.149 0 0 0 3.271-10.953 1.75 1.75 0 0 0 -3.409-.793 103.453 103.453 0 0 1 -3.9 12.565 1.735 1.735 0 0 0 -.1.721 1.821 1.821 0 0 0 -.021.21c0 .888-.064 2.561-.2 4.308a25.277 25.277 0 0 1 -.536 4l-.3 1.05a4.742 4.742 0 0 0 -3.15 4.453v3a1.749 1.749 0 0 0 1.75 1.75h28.75a1.75 1.75 0 0 0 1.75-1.75v-3a4.743 4.743 0 0 0 -3.152-4.451zm-12.983-48.299a5.736 5.736 0 0 1 3.849 10h-7.7a5.736 5.736 0 0 1 3.849-10zm-5.748 13.5h11.5v2.5h-11.5zm-2.9 30.02c.076-.934.137-1.93.174-2.831h16.956a43.542 43.542 0 0 0 .784 7.31h-18.52a31.069 31.069 0 0 0 .608-4.478zm21.275 10.48h-25.25v-1.25a1.251 1.251 0 0 1 1.25-1.25h22.75a1.252 1.252 0 0 1 1.25 1.25z"/><path d="m44.874 34.3a4.751 4.751 0 0 0 -6.675 5.7 4.75 4.75 0 1 0 6.675-5.7zm-1.043 4.8a1.247 1.247 0 0 1 -.728.621 1.251 1.251 0 1 1 .182-2.3 1.252 1.252 0 0 1 .546 1.683z"/><path d="m36.925 20.7a4.75 4.75 0 1 0 5.984 3.05 4.754 4.754 0 0 0 -5.984-3.05zm2.581 5.085a1.243 1.243 0 0 1 -.728.621 1.249 1.249 0 1 1 .8-1.574 1.243 1.243 0 0 1 -.072.948z"/><path d="m58.474 29.878a4.75 4.75 0 0 0 -6.675 5.7 4.75 4.75 0 1 0 9.035-2.934 4.72 4.72 0 0 0 -2.36-2.766zm-1.043 4.8a1.251 1.251 0 1 1 .075-.955 1.249 1.249 0 0 1 -.075.955z"/><path d="m50.524 16.277a4.75 4.75 0 1 0 5.985 3.05 4.717 4.717 0 0 0 -5.985-3.05zm2.581 5.085a1.249 1.249 0 1 1 .076-.953 1.243 1.243 0 0 1 -.076.953z"/></g></g></svg>