<svg width="18" height="16" viewBox="0 0 18 16" fill="none" xmlns="http://www.w3.org/2000/svg">
<path d="M16 2.66667H13.7013L11.2951 0.260445C11.2127 0.177741 11.1148 0.112152 11.0069 0.0674537C10.899 0.0227557 10.7834 -0.000168399 10.6667 9.31265e-07H7.11111C6.99436 -0.000168399 6.87873 0.0227557 6.77088 0.0674537C6.66302 0.112152 6.56507 0.177741 6.48267 0.260445L4.07644 2.66667H1.77778C0.797333 2.66667 0 3.464 0 4.44444V14.2222C0 15.2027 0.797333 16 1.77778 16H16C16.9804 16 17.7778 15.2027 17.7778 14.2222V4.44444C17.7778 3.464 16.9804 2.66667 16 2.66667ZM8.88889 13.3333C6.48 13.3333 4.44444 11.2978 4.44444 8.88889C4.44444 6.48 6.48 4.44444 8.88889 4.44444C11.2978 4.44444 13.3333 6.48 13.3333 8.88889C13.3333 11.2978 11.2978 13.3333 8.88889 13.3333Z" fill="#ADADBF"/>
</svg>
