<svg enable-background="new 0 0 64 64" height="512" viewBox="0 0 64 64" width="512" xmlns="http://www.w3.org/2000/svg"><g id="Icons"><g><path d="m32 14c-9.264 0-16.887 7.001-17.883 16h5.883l-5.273 7.031c2.178 7.49 9.08 12.969 17.273 12.969 9.941 0 18-8.059 18-18 0-9.941-8.059-18-18-18z" fill="#fab400"/></g><g><path d="m12 32c0-11.028 8.972-20 20-20s20 8.972 20 20-8.972 20-20 20v4c13.255 0 24-10.745 24-24 0-13.255-10.745-24-24-24s-24 10.745-24 24h-4l6 8 6-8z" fill="#3cc8b4"/></g><g><path d="m6 32h4c0-12.919 10.209-23.45 23-23.975-.332-.013-.665-.025-1-.025-13.255 0-24 10.745-24 24h-4l6 8 1-1.333z" fill="#1eaa96"/></g><g><circle cx="32" cy="32" fill="#be7800" r="12"/></g><g><path d="m35.2 28.571v-2.285h-2.133v-2.286h-2.134v2.286h-2.133v6.857h4.267v2.286h-4.267v2.285h2.133v2.286h2.134v-2.286h2.133v-6.857h-4.267v-2.286z" fill="#fab400"/></g><g><g><path d="m17.993 29.998c.927-8.362 7.574-15 15.946-15.895-.635-.068-1.279-.103-1.932-.103-9.264 0-16.893 7.002-17.89 16z" fill="#dc9600"/></g><g><path d="m17.909 32.786-3.182 4.245c2.175 7.495 9.084 12.969 17.28 12.969.653 0 1.297-.036 1.932-.104-8.774-.937-15.644-8.183-16.03-17.11z" fill="#dc9600"/></g></g></g></svg>