<svg id="Capa_1" enable-background="new 0 0 512 512" height="512" viewBox="0 0 512 512" width="512" xmlns="http://www.w3.org/2000/svg"><path d="m256 0c-140.7 0-256 115.3-256 256s115.3 256 256 256 256-115.3 256-256-115.3-256-256-256z" fill="#57d9ad"/><path d="m512 256c0 140.7-115.3 256-256 256v-512c140.7 0 256 115.3 256 256z" fill="#26bfa6"/><path d="m400.3 199.3-144.3 143.999-30 30-114.3-113.999 42.6-42.6 71.7 71.999 30-30 101.7-101.999z" fill="#f2f2f2"/><path d="m400.3 199.3-144.3 143.999v-84.6l101.7-101.999z" fill="#e7e7f2"/></svg>