<svg id="Layer_1" enable-background="new 0 0 512 512" height="512" viewBox="0 0 512 512" width="512" xmlns="http://www.w3.org/2000/svg"><path d="m256 0c-140.7 0-256 115.3-256 256s115.3 256 256 256 256-115.3 256-256-115.3-256-256-256zm0 421c-90.901 0-165-74.101-165-165 0-90.901 74.099-165 165-165s165 74.099 165 165c0 90.899-74.099 165-165 165z" fill="#fdbf00"/><path d="m512 256c0 140.7-115.3 256-256 256v-91c90.901 0 165-74.101 165-165 0-90.901-74.099-165-165-165v-91c140.7 0 256 115.3 256 256z" fill="#ff9100"/><path d="m256 61c-107.401 0-195 87.599-195 195 0 107.399 87.599 195 195 195s195-87.601 195-195c0-107.401-87.599-195-195-195zm0 271.199-76.199-76.199 76.199-76.201 76.199 76.201z" fill="#ffda2d"/><g fill="#fdbf00"><path d="m451 256c0 107.399-87.599 195-195 195v-118.801l76.199-76.199-76.199-76.201v-118.799c107.401 0 195 87.599 195 195z"/><path d="m211 121h90v30h-90z"/><path d="m211 361h90v30h-90z"/><path d="m121 211h30v90h-30z"/></g><path d="m361 211h30v90h-30z" fill="#ff9100"/><path d="m256 121h45v30h-45z" fill="#ff9100"/><path d="m256 361h45v30h-45z" fill="#ff9100"/></svg>