<svg width="20" height="21" viewBox="0 0 20 21" fill="none" xmlns="http://www.w3.org/2000/svg">
<path fill-rule="evenodd" clip-rule="evenodd" d="M0.840996 13.4596C-1.15279 9.64068 0.745209 5.1107 2.92698 2.92893C6.83222 -0.976311 13.1639 -0.976311 17.0691 2.92893C20.9744 6.83418 20.9744 13.1658 17.0691 17.0711C14.7945 19.3457 10.3421 21.1664 6.5371 19.1594C6.14608 18.9531 5.95045 18.8499 5.85482 18.8115C5.45108 18.6491 5.2387 18.6244 4.80845 18.6897C4.70656 18.7051 4.57326 18.7397 4.30671 18.8088C3.50698 19.0161 3.10698 19.1197 2.81552 19.1092C1.76746 19.0715 0.926554 18.2306 0.888805 17.1825C0.878307 16.8911 0.981947 16.4912 1.18923 15.6915C1.25831 15.4249 1.29287 15.2916 1.30831 15.1903C1.37386 14.7601 1.35029 14.5538 1.18938 14.1495C1.15148 14.0543 1.04799 13.856 0.840996 13.4596ZM13.1401 9.85791C13.1401 10.4102 13.5879 10.8579 14.1401 10.8579C14.6924 10.8579 15.1401 10.4102 15.1401 9.85791C15.1401 9.30563 14.6924 8.85791 14.1401 8.85791C13.5879 8.85791 13.1401 9.30563 13.1401 9.85791ZM9.14014 9.85791C9.14014 10.4102 9.58785 10.8579 10.1401 10.8579C10.6924 10.8579 11.1401 10.4102 11.1401 9.85791C11.1401 9.30563 10.6924 8.85791 10.1401 8.85791C9.58785 8.85791 9.14014 9.30563 9.14014 9.85791ZM6.14014 10.8579C5.58785 10.8579 5.14014 10.4102 5.14014 9.85791C5.14014 9.30563 5.58785 8.85791 6.14014 8.85791C6.69242 8.85791 7.14014 9.30563 7.14014 9.85791C7.14014 10.4102 6.69242 10.8579 6.14014 10.8579Z" fill="#ADADBF"/>
</svg>
