<svg width="13" height="15" viewBox="0 0 13 15" fill="none" xmlns="http://www.w3.org/2000/svg">
<path fill-rule="evenodd" clip-rule="evenodd" d="M8.14667 4.35142e-08C8.44983 8.16448e-05 8.74528 0.0992142 8.99117 0.283356C9.23706 0.467497 9.42092 0.727313 9.51672 1.026L9.90889 2.25H12.2778C12.4693 2.25 12.653 2.32902 12.7885 2.46967C12.9239 2.61032 13 2.80109 13 3C13 3.19891 12.9239 3.38968 12.7885 3.53033C12.653 3.67098 12.4693 3.75 12.2778 3.75L12.2756 3.80325L11.6494 12.9105C11.6104 13.478 11.3657 14.009 10.9648 14.3967C10.5639 14.7844 10.0364 14.9999 9.48856 15H3.51144C2.96361 14.9999 2.43613 14.7844 2.0352 14.3967C1.63426 14.009 1.38963 13.478 1.35056 12.9105L0.724389 3.8025C0.723082 3.78503 0.72236 3.76752 0.722222 3.75C0.530677 3.75 0.346977 3.67098 0.211534 3.53033C0.076091 3.38968 0 3.19891 0 3C0 2.80109 0.076091 2.61032 0.211534 2.46967C0.346977 2.32902 0.530677 2.25 0.722222 2.25H3.09111L3.48328 1.026C3.57911 0.727191 3.76309 0.467289 4.00913 0.283136C4.25516 0.0989837 4.55077 -7.57959e-05 4.85406 4.35142e-08H8.14594H8.14667ZM4.33333 6C4.15644 6.00002 3.9857 6.06747 3.85351 6.18954C3.72132 6.31161 3.63686 6.47981 3.61617 6.66225L3.61111 6.75V11.25C3.61132 11.4412 3.6818 11.625 3.80817 11.764C3.93453 11.903 4.10724 11.9867 4.29101 11.9979C4.47477 12.0091 4.65572 11.947 4.79688 11.8243C4.93804 11.7016 5.02876 11.5276 5.0505 11.3378L5.05556 11.25V6.75C5.05556 6.55109 4.97946 6.36032 4.84402 6.21967C4.70858 6.07902 4.52488 6 4.33333 6ZM8.66667 6C8.47512 6 8.29142 6.07902 8.15598 6.21967C8.02054 6.36032 7.94444 6.55109 7.94444 6.75V11.25C7.94444 11.4489 8.02054 11.6397 8.15598 11.7803C8.29142 11.921 8.47512 12 8.66667 12C8.85821 12 9.04191 11.921 9.17735 11.7803C9.3128 11.6397 9.38889 11.4489 9.38889 11.25V6.75C9.38889 6.55109 9.3128 6.36032 9.17735 6.21967C9.04191 6.07902 8.85821 6 8.66667 6ZM8.14667 1.5H4.85333L4.61283 2.25H8.38717L8.14594 1.5H8.14667Z" fill="#ADADBF"/>
</svg>
