<svg width="16" height="16" viewBox="0 0 16 16" fill="none" xmlns="http://www.w3.org/2000/svg">
<path d="M11.8658 7.70036C12.3137 7.34082 12.748 6.98933 13.1878 6.64588C13.2334 6.611 13.3085 6.60564 13.3701 6.60295C13.8421 6.60027 14.314 6.60027 14.7859 6.60027C14.9468 6.60027 15.1104 6.60027 15.2901 6.60027C15.2927 6.62173 15.2981 6.66735 15.2981 6.71296C15.2981 8.40066 15.3035 10.0884 15.2981 11.7761C15.2954 12.6776 14.7189 13.3672 13.8528 13.5201C13.7214 13.5443 13.582 13.5443 13.4479 13.5443C12.2868 13.5469 11.1258 13.5443 9.96738 13.5443C9.90303 13.5443 9.83867 13.5443 9.75286 13.5443C9.75286 13.7079 9.75286 13.8582 9.75286 14.0084C9.75286 14.2848 9.75018 14.5612 9.75286 14.8375C9.75555 15.0039 9.72337 15.1515 9.56248 15.24C9.40696 15.3232 9.27288 15.2668 9.13613 15.181C8.30488 14.6578 7.47363 14.1372 6.6397 13.6221C6.56194 13.5738 6.46004 13.5469 6.36887 13.5443C5.08446 13.5389 3.79736 13.5443 2.51295 13.5389C1.63343 13.5362 0.955024 13.0076 0.767322 12.1758C0.735145 12.0283 0.721738 11.8753 0.721738 11.7251C0.719056 9.69394 0.719056 7.66548 0.721738 5.63434C0.721738 4.70328 1.29557 4.0003 2.17508 3.84199C2.28502 3.82321 2.40301 3.82053 2.51563 3.82053C3.94752 3.81785 5.37942 3.82053 6.81131 3.82053C6.85958 3.82053 6.90516 3.82589 6.9722 3.82858C6.9722 4.15592 6.9722 4.47522 6.9722 4.79183C6.9722 5.20503 7.07678 5.58604 7.33688 5.91607C7.67474 6.34537 8.11986 6.57612 8.66688 6.59222C9.08518 6.60295 9.50081 6.5949 9.91912 6.5949C9.97274 6.5949 10.0237 6.5949 10.0746 6.5949C10.2007 7.53669 10.2731 7.67353 10.7691 7.92038C10.4983 8.21552 10.3803 8.5536 10.4822 8.95071C10.5493 9.20829 10.6914 9.41221 10.9193 9.55441C11.4046 9.85224 12.067 9.71272 12.3619 9.2539C12.7025 8.71996 12.5255 8.14308 11.8658 7.70036ZM6.98293 8.67971C6.98024 9.28073 7.41464 9.72614 8.00724 9.72882C8.58911 9.7315 9.03424 9.28878 9.04228 8.70386C9.04764 8.10552 8.61325 7.65206 8.02333 7.6467C7.42805 7.63865 6.98561 8.08137 6.98293 8.67971ZM5.56712 8.68776C5.56712 8.08673 5.13004 7.64401 4.53744 7.64401C3.95289 7.6467 3.51313 8.08942 3.51045 8.67703C3.50776 9.27537 3.94752 9.72614 4.53476 9.72882C5.12736 9.7315 5.56712 9.28878 5.56712 8.68776Z" fill="white"/>
<path d="M10.7897 5.91068C10.2587 5.91068 9.75462 5.91336 9.25051 5.91068C9.01723 5.91068 8.78394 5.91873 8.55333 5.88921C8.05727 5.8275 7.67382 5.41429 7.67114 4.91791C7.66309 3.61122 7.66041 2.30184 7.67114 0.99515C7.6765 0.426322 8.14307 0.00506817 8.7464 0.00238502C9.56424 -0.00298127 10.3848 0.00238502 11.2026 0.00238502C12.4119 0.00238502 13.6213 0.00238502 14.8306 0.00238502C15.5734 0.00238502 15.9997 0.429006 15.9997 1.17492C15.9997 2.36892 15.9997 3.56292 15.9997 4.75692C15.9997 5.47332 15.56 5.91336 14.8467 5.91604C14.2729 5.91604 13.6964 5.91336 13.1225 5.91873C13.0448 5.91873 12.9509 5.95361 12.8892 6.0019C12.3932 6.39096 11.9025 6.7827 11.4144 7.1798C11.2804 7.28713 11.1463 7.34079 10.9827 7.2603C10.8245 7.18249 10.7897 7.04296 10.7923 6.87929C10.7923 6.56 10.7897 6.24875 10.7897 5.91068ZM11.4815 3.26778C11.4815 3.35364 11.4815 3.40462 11.4815 3.45291C11.4895 3.68098 11.6182 3.81514 11.8327 3.81514C12.0392 3.81245 12.176 3.68366 12.1679 3.46096C12.1626 3.31339 12.2189 3.2168 12.3235 3.12557C12.4173 3.04239 12.4977 2.94848 12.5809 2.85457C12.8276 2.58357 12.9134 2.27233 12.8544 1.90742C12.7659 1.36006 12.2913 1.00857 11.6906 1.06223C11.1704 1.10784 10.7682 1.57203 10.7923 2.09792C10.8004 2.30989 10.9827 2.45746 11.1919 2.4199C11.3662 2.39039 11.4573 2.28038 11.4815 2.07914C11.5056 1.87522 11.6129 1.75716 11.7925 1.74643C11.94 1.7357 12.0687 1.78131 12.1304 1.92084C12.2028 2.07914 12.2001 2.24281 12.0794 2.37697C11.9641 2.50576 11.8354 2.62382 11.7094 2.74456C11.5512 2.90018 11.4278 3.06654 11.4815 3.26778ZM12.1706 4.51812C12.1706 4.31689 12.0339 4.17468 11.8408 4.172C11.6424 4.16931 11.4922 4.31957 11.4922 4.52081C11.4922 4.71399 11.6343 4.86425 11.8247 4.86693C12.0231 4.86961 12.1706 4.72204 12.1706 4.51812Z" fill="white"/>
<path d="M11.1436 8.68503C11.1436 8.48648 11.2831 8.34427 11.4763 8.34159C11.6748 8.33891 11.8197 8.48648 11.8197 8.6904C11.817 8.88895 11.6802 9.03116 11.487 9.03384C11.2884 9.03921 11.1436 8.88895 11.1436 8.68503Z" fill="white"/>
<path d="M6.98341 8.67967C6.98609 8.07864 7.42853 7.6386 8.02113 7.64665C8.61105 7.65202 9.04545 8.10547 9.04008 8.70381C9.03472 9.29142 8.5896 9.73146 8.00504 9.72878C7.41512 9.72878 6.98073 9.28069 6.98341 8.67967ZM7.67254 8.68503C7.66986 8.88895 7.81734 9.03921 8.01577 9.03653C8.20615 9.03384 8.35095 8.88627 8.35363 8.69308C8.35631 8.49453 8.20347 8.33891 8.00772 8.34159C7.81466 8.34427 7.67523 8.48648 7.67254 8.68503Z" fill="#2C2F36"/>
<path d="M10.4141 8.69224C10.4168 8.09121 10.8592 7.65118 11.4518 7.65923C12.0417 7.66459 12.4761 8.11805 12.4707 8.71639C12.4654 9.304 12.0203 9.74403 11.4357 9.74135C10.8458 9.74135 10.4114 9.29326 10.4141 8.69224ZM11.1032 8.69761C11.1005 8.90152 11.248 9.05178 11.4464 9.0491C11.6368 9.04642 11.7816 8.89884 11.7843 8.70565C11.787 8.5071 11.6341 8.35148 11.4384 8.35416C11.2453 8.35685 11.1059 8.49905 11.1032 8.69761Z" fill="#2C2F36"/>
<path d="M5.56649 8.68773C5.56649 9.28875 5.12673 9.73147 4.53413 9.72879C3.94421 9.7261 3.50445 9.27534 3.50981 8.67699C3.5125 8.08939 3.95225 7.64667 4.53681 7.64398C5.12673 7.64398 5.56649 8.0867 5.56649 8.68773ZM4.87735 8.68773C4.87735 8.48917 4.7406 8.34428 4.54754 8.33892C4.35179 8.33355 4.19627 8.48649 4.19627 8.68504C4.19627 8.8836 4.34911 9.03654 4.54485 9.03385C4.73792 9.03117 4.87467 8.88628 4.87735 8.68773Z" fill="#2C2F36"/>
<path d="M11.4814 3.2678C11.4305 3.06656 11.5511 2.90021 11.712 2.74727C11.8381 2.62653 11.9668 2.51115 12.0821 2.37968C12.2027 2.24552 12.2054 2.07917 12.133 1.92354C12.0687 1.78402 11.9426 1.73841 11.7952 1.74914C11.6155 1.76256 11.5082 1.87793 11.4841 2.08185C11.46 2.28309 11.3688 2.39041 11.1945 2.42261C10.9854 2.46017 10.803 2.31528 10.795 2.10063C10.7708 1.57205 11.1731 1.11055 11.6933 1.06494C12.2939 1.01127 12.7658 1.36008 12.857 1.91013C12.916 2.27504 12.8302 2.58628 12.5835 2.85728C12.5004 2.94851 12.4173 3.0451 12.3261 3.12828C12.2215 3.2195 12.1679 3.3161 12.1706 3.46367C12.1786 3.68369 12.0392 3.81516 11.8354 3.81785C11.6235 3.82053 11.4922 3.68637 11.4841 3.45562C11.4787 3.40464 11.4814 3.35366 11.4814 3.2678Z" fill="#2C2F36"/>
<path d="M12.1722 4.51816C12.1722 4.72476 12.0274 4.87233 11.8288 4.86697C11.6383 4.8616 11.4961 4.71403 11.4961 4.52084C11.4961 4.31961 11.6464 4.16935 11.8449 4.17203C12.0354 4.17472 12.1722 4.31692 12.1722 4.51816Z" fill="#2C2F36"/>
<path d="M7.67188 8.68503C7.67456 8.48916 7.81408 8.34427 8.00459 8.34159C8.20046 8.3389 8.35339 8.49453 8.35071 8.69308C8.34803 8.88627 8.20314 9.03384 8.01263 9.03652C7.81945 9.03921 7.67188 8.88627 7.67188 8.68503Z" fill="white"/>
<path d="M4.87879 8.68775C4.87879 8.88362 4.73926 9.02851 4.54607 9.03388C4.35021 9.03924 4.19727 8.88362 4.19727 8.68507C4.19727 8.48652 4.35289 8.33358 4.54876 8.33894C4.74194 8.34699 4.87879 8.49188 4.87879 8.68775Z" fill="white"/>
</svg>
