<svg width="17" height="17" viewBox="0 0 17 17" fill="none" xmlns="http://www.w3.org/2000/svg">
<path d="M15.9548 0.943182C16.0836 1.25379 16.0305 1.51894 15.7957 1.73864L10.1934 7.34091V15.7727C10.1934 16.0909 10.0457 16.3144 9.75024 16.4432C9.65175 16.4811 9.55706 16.5 9.46615 16.5C9.2616 16.5 9.09115 16.428 8.95478 16.2841L6.04569 13.375C5.90175 13.2311 5.82978 13.0606 5.82978 12.8636V7.34091L0.22751 1.73864C-0.007339 1.51894 -0.0603693 1.25379 0.0684186 0.943182C0.197206 0.647727 0.420691 0.5 0.738873 0.5H15.2843C15.6025 0.5 15.826 0.647727 15.9548 0.943182Z" fill="url(#paint0_linear_740_758)"/>
<defs>
<linearGradient id="paint0_linear_740_758" x1="0.0035919" y1="1.44233" x2="9.56458" y2="16.9328" gradientUnits="userSpaceOnUse">
<stop offset="0.310121" stop-color="#6EF657"/>
<stop offset="0.580971" stop-color="#A430FF"/>
</linearGradient>
</defs>
</svg>
