<svg width="15" height="19" viewBox="0 0 15 19" fill="none" xmlns="http://www.w3.org/2000/svg">
<path d="M11.1853 3.74808C11.6816 3.74808 12.1483 3.74808 12.6149 3.74808C13.6298 3.7555 14.1038 4.20824 14.1779 5.21761C14.4446 8.66879 14.7335 12.12 14.9927 15.5711C15.1409 17.5602 13.7779 19 11.7853 19C8.91864 19 6.05938 19.0075 3.19272 19C1.22975 19 -0.140616 17.5453 0.00753209 15.586C0.266791 12.0606 0.55568 8.53519 0.837162 5.0098C0.896421 4.31215 1.38531 3.81488 2.08161 3.76293C2.54827 3.73324 3.02235 3.73324 3.48901 3.74808C3.76309 3.7555 3.84457 3.67386 3.86679 3.39925C4.02235 1.40277 5.65198 -0.0593388 7.64457 3.62239e-05C9.45938 0.0519893 11.0075 1.52894 11.1483 3.3473C11.1557 3.46605 11.1705 3.59222 11.1853 3.74808ZM4.9779 3.71097C6.68161 3.71097 8.35568 3.71097 10.0372 3.71097C10.0742 2.28597 8.94087 1.12074 7.53346 1.11332C6.09642 1.1059 4.94087 2.26371 4.9779 3.71097ZM6.70383 11.9567C6.42975 11.6524 6.1779 11.3629 5.91124 11.0883C5.58531 10.7543 5.25938 10.7172 5.00753 10.9547C4.74827 11.2071 4.78531 11.5262 5.11124 11.8602C5.4742 12.2313 5.84457 12.595 6.20753 12.9586C6.60013 13.352 6.85938 13.352 7.24457 12.9661C8.11864 12.0977 8.99272 11.2219 9.85938 10.3461C9.91124 10.2942 9.96309 10.2422 10.0149 10.1828C10.2149 9.92308 10.2075 9.61878 9.98531 9.4184C9.74827 9.21058 9.49642 9.20316 9.25198 9.40355C9.14827 9.48519 9.05198 9.5891 8.95568 9.68558C8.22975 10.4278 7.49642 11.1625 6.70383 11.9567ZM3.83716 3.77035C3.83716 4.57933 3.82975 5.34379 3.83716 6.10824C3.84457 6.54613 4.05198 6.78363 4.40012 6.77621C4.74087 6.76879 4.93346 6.54613 4.94087 6.11566C4.94827 5.41058 4.94087 4.71293 4.94087 4.00785C4.94087 3.92621 4.91124 3.84457 4.89642 3.77035C4.54827 3.77035 4.21494 3.77035 3.83716 3.77035ZM10.0816 3.77035C10.0816 4.64613 10.0668 5.49222 10.089 6.33832C10.0964 6.63519 10.3409 6.78363 10.6372 6.77621C10.9186 6.76879 11.1335 6.61293 11.1409 6.33089C11.1631 5.4848 11.1483 4.63871 11.1483 3.77035C10.7853 3.77035 10.4594 3.77035 10.0816 3.77035Z" fill="url(#paint0_linear_743_764)"/>
<defs>
<linearGradient id="paint0_linear_743_764" x1="-5.38362e-05" y1="1.11761" x2="12.3329" y2="16.873" gradientUnits="userSpaceOnUse">
<stop offset="0.450755" stop-color="#6EF657"/>
<stop offset="0.763273" stop-color="#A430FF"/>
</linearGradient>
</defs>
</svg>
