<svg id="Capa_1" enable-background="new 0 0 512 512" height="512" viewBox="0 0 512 512" width="512" xmlns="http://www.w3.org/2000/svg"><g clip-rule="evenodd" fill-rule="evenodd"><path d="m119.481 360.112 74.956 79.712c21.769 19.467 41.75 29.541 61.56 30.109 19.839-.568 39.82-10.643 61.56-30.109l74.985-79.712 66.271-70.463c124.737-132.609-45.382-349.472-202.816-193.167-157.433-156.305-327.553 60.558-202.787 193.167z" fill="#ff7b79"/><path d="m202.1 360.112h110.575c13.936 0 25.316-11.38 25.316-25.286v-29.854-1.476c0-25.795-12.289-48.867-31.334-63.651-9.082 17.992-27.729 30.336-49.27 30.336-21.542 0-40.189-12.344-49.271-30.336-19.044 14.785-31.333 37.856-31.333 63.651v1.476 29.854c.001 13.906 11.382 25.286 25.317 25.286z" fill="#ffcd69"/><path d="m257.388 270.182c21.542 0 40.188-12.344 49.27-30.336 2.497-4.909 4.258-10.216 5.165-15.834.483-2.923.738-5.931.738-8.996 0-23.355-14.532-43.333-35.051-51.364-6.244-2.44-13.028-3.802-20.123-3.802-7.096 0-13.879 1.362-20.123 3.802-20.52 8.031-35.051 28.009-35.051 51.364 0 3.065.255 6.072.738 8.996.908 5.618 2.668 10.925 5.166 15.834 9.082 17.992 27.729 30.336 49.271 30.336z" fill="#ffd0c7"/><path d="m202.214 215.016c0-23.355 14.532-43.333 35.051-51.364-5.79-20.403-24.579-35.359-46.83-35.359-26.906 0-48.703 21.794-48.703 48.668 0 7.889 1.873 15.325 5.223 21.908 8.004 15.863 24.465 26.76 43.48 26.76 4.314 0 8.514-.567 12.516-1.617-.482-2.924-.737-5.932-.737-8.996z" fill="#ffd0c7"/><path d="m176.784 303.497c0-25.795 12.29-48.867 31.333-63.651-2.498-4.909-4.257-10.216-5.166-15.834-4.002 1.05-8.202 1.617-12.516 1.617-19.016 0-35.477-10.897-43.48-26.76-16.802 13.026-27.644 33.401-27.644 56.16v27.64c0 12.259 10.047 22.305 22.308 22.305h35.165z" fill="#7dd9c2"/><path d="m324.34 225.629c19.016 0 35.478-10.897 43.481-26.76 3.349-6.583 5.222-14.019 5.222-21.908 0-26.874-21.797-48.668-48.704-48.668-22.25 0-41.04 14.955-46.829 35.359 20.519 8.031 35.051 28.009 35.051 51.364 0 3.065-.255 6.072-.738 8.996 4.002 1.05 8.203 1.617 12.517 1.617z" fill="#ffd0c7"/><path d="m373.128 304.973c12.29 0 22.337-10.046 22.337-22.305v-27.64c0-22.759-10.842-43.134-27.644-56.16-8.003 15.863-24.465 26.76-43.481 26.76-4.314 0-8.514-.567-12.516-1.617-.908 5.618-2.668 10.925-5.165 15.834 19.044 14.785 31.334 37.856 31.334 63.651v1.476h35.135z" fill="#beece1"/></g><path d="m498.82 121.726c-11.214-25.944-28.742-48.076-50.689-64.004-23.189-16.83-50.126-25.725-77.9-25.725-39.005 0-78.331 17.439-114.234 50.547-35.903-33.108-75.229-50.547-114.234-50.547-27.776 0-54.715 8.895-77.903 25.723-21.948 15.928-39.475 38.059-50.686 64.001-11.965 27.684-15.882 57.811-11.33 87.125 4.977 32.049 20.202 62.376 44.031 87.703l66.271 70.462 74.956 79.712c.199.212.407.415.624.608 23.881 21.356 46.119 32.042 67.985 32.669.096.003.192.004.288.004s.192-.001.288-.004c21.897-.627 44.136-11.315 67.989-32.673.214-.192.42-.393.617-.602l74.986-79.713 66.27-70.462c23.822-25.326 39.042-55.652 44.013-87.7 4.546-29.314.624-59.441-11.342-87.124zm-47.344 161.023-66.27 70.462-74.686 79.394c-19.916 17.759-37.757 26.676-54.523 27.252-16.739-.576-34.583-9.494-54.527-27.254l-74.654-79.391-66.273-70.464c-40.77-43.334-51.567-100.544-28.881-153.037 20.366-47.124 63.583-77.574 110.101-77.574 36.162 0 73.21 17.805 107.139 51.491 3.926 3.898 10.264 3.898 14.191 0 33.929-33.686 70.977-51.491 107.139-51.491 46.513 0 89.73 30.452 110.1 77.579 22.69 52.495 11.903 109.703-28.856 153.033z"/><path d="m379.932 195.985c2.052-5.971 3.182-12.366 3.182-19.024 0-32.389-26.366-58.739-58.774-58.739-22.678 0-43.163 13.208-52.852 33.108-4.544-1.005-9.258-1.552-14.099-1.552-4.842 0-9.556.546-14.099 1.552-9.691-19.9-30.176-33.108-52.854-33.108-32.408 0-58.774 26.35-58.774 58.739 0 6.658 1.13 13.053 3.182 19.024-16.357 15.328-25.603 36.445-25.603 59.043v27.64c0 17.852 14.525 32.375 32.379 32.375h25.094v19.783c0 19.495 15.875 35.356 35.388 35.356h12.289c5.562 0 10.071-4.509 10.071-10.071s-4.509-10.071-10.071-10.071h-12.291c-8.407 0-15.246-6.826-15.246-15.215v-31.329c0-18.153 6.904-35.227 19.23-48.25 11.955 15.208 30.501 25.005 51.304 25.005s39.348-9.797 51.303-25.005c12.326 13.022 19.23 30.097 19.23 48.25v31.329c0 8.389-6.839 15.215-15.246 15.215h-12.289c-5.562 0-10.071 4.509-10.071 10.071s4.509 10.071 10.071 10.071h12.289c19.513 0 35.387-15.861 35.387-35.356v-19.783h25.065c17.87 0 32.408-14.523 32.408-32.375v-27.64c.001-22.598-9.246-43.715-25.603-59.043zm-55.592-57.621c21.302 0 38.633 17.315 38.633 38.597s-17.331 38.597-38.633 38.597c-.574 0-1.147-.03-1.72-.055.001-.163.012-.324.012-.487 0-23.968-13.003-44.945-32.318-56.285 6.622-12.299 19.653-20.367 34.026-20.367zm-133.905 0c14.373 0 27.404 8.069 34.026 20.367-19.314 11.34-32.318 32.317-32.318 56.285 0 .163.011.324.012.487-.573.025-1.146.056-1.72.056-21.302 0-38.632-17.315-38.632-38.597 0-21.284 17.33-38.598 38.632-38.598zm-23.312 156.538h-25.505c-6.747 0-12.237-5.488-12.237-12.234v-27.64c0-15.256 5.626-29.619 15.702-40.746 10.789 13.071 27.113 21.417 45.352 21.417 1.674 0 3.347-.078 5.014-.22.164.494.326.989.501 1.478-16.557 15.238-26.733 35.714-28.827 57.945zm90.265-34.791c-24.87 0-45.104-20.23-45.104-45.095s20.233-45.096 45.104-45.096c24.87 0 45.103 20.23 45.103 45.096s-20.233 45.095-45.103 45.095zm128.006 22.557c0 6.746-5.503 12.234-12.267 12.234h-25.476c-2.094-22.232-12.27-42.708-28.827-57.945.175-.489.337-.984.501-1.478 1.667.142 3.34.22 5.014.22 18.239 0 34.563-8.346 45.352-21.417 10.076 11.126 15.703 25.49 15.703 40.746z"/><path d="m257.388 350.041h-.057c-5.562 0-10.042 4.509-10.042 10.071s4.538 10.071 10.1 10.071 10.071-4.509 10.071-10.071-4.51-10.071-10.072-10.071z"/></svg>