<svg id="Layer_1" height="512" viewBox="0 0 48 48" width="512" xmlns="http://www.w3.org/2000/svg" data-name="Layer 1"><path d="m46.95 34.817-2.15-15.593a13.051 13.051 0 0 0 -12.879-11.224h-15.842a13.051 13.051 0 0 0 -12.879 11.224l-2.15 15.593a5.288 5.288 0 0 0 9.515 3.833l4.665-6.414a3.01 3.01 0 0 1 2.427-1.236h12.686a3.01 3.01 0 0 1 2.427 1.236l4.665 6.414a5.288 5.288 0 0 0 9.515-3.833zm-13.45-22.817a2.5 2.5 0 1 1 -2.5 2.5 2.5 2.5 0 0 1 2.5-2.5zm-15 9.5h-1.5v1.5a2.5 2.5 0 0 1 -5 0v-1.5h-1.5a2.5 2.5 0 0 1 0-5h1.5v-1.5a2.5 2.5 0 0 1 5 0v1.5h1.5a2.5 2.5 0 0 1 0 5zm10.5 0a2.5 2.5 0 1 1 2.5-2.5 2.5 2.5 0 0 1 -2.5 2.5zm4.5 4.5a2.5 2.5 0 1 1 2.5-2.5 2.5 2.5 0 0 1 -2.5 2.5zm4.5-4.5a2.5 2.5 0 1 1 2.5-2.5 2.5 2.5 0 0 1 -2.5 2.5z"/></svg>