<svg width="16" height="17" viewBox="0 0 16 17" fill="none" xmlns="http://www.w3.org/2000/svg">
<path d="M12.6566 3.72983C13.1911 3.72983 13.6955 3.72121 14.1998 3.73414C14.4412 3.73845 14.6912 3.74276 14.9239 3.7988C15.5317 3.94966 15.9757 4.51003 15.9886 5.13504C16.0016 5.80748 16.0059 6.48422 15.9886 7.15666C15.9714 7.93254 15.3334 8.54463 14.5575 8.57049C14.5403 8.57049 14.5231 8.57049 14.5058 8.57049C10.1695 8.57049 5.83315 8.57049 1.49681 8.57049C0.820068 8.57049 0.259706 8.15669 0.0700451 7.52305C0.0226299 7.36356 0.00538809 7.19114 0.00538809 7.02303C-0.00323286 6.44112 0.00107762 5.8592 0.00107762 5.27729C0.0053881 4.35916 0.630407 3.73414 1.54854 3.72552C2.13476 3.72121 2.72099 3.72552 3.32876 3.72552C3.31152 3.67379 3.3029 3.63931 3.28566 3.60483C2.80289 2.69101 2.88478 1.65649 3.52705 0.893538C4.22103 0.074548 5.11761 -0.162528 6.13919 0.109032C6.99698 0.337487 7.60044 0.889228 7.99701 1.70822C8.0358 1.64356 8.06598 1.59183 8.09615 1.5358C8.71255 0.354729 10.1048 -0.26598 11.3204 0.109032C12.7558 0.55301 13.4454 2.17806 12.7644 3.51862C12.7342 3.58327 12.704 3.63931 12.6566 3.72983ZM8.68668 3.7169C8.75996 3.72121 8.81169 3.72552 8.86341 3.72552C9.44964 3.72552 10.0359 3.72552 10.6264 3.72552C11.1393 3.72121 11.5187 3.48413 11.7557 3.04015C11.9971 2.58755 11.967 2.13064 11.6825 1.6996C11.3031 1.13061 10.5531 0.962506 9.87637 1.29441C9.38498 1.5358 9.06169 1.92374 8.941 2.46255C8.85048 2.87636 8.77289 3.29016 8.68668 3.7169ZM7.32026 3.7169C7.22974 3.27723 7.15647 2.86343 7.06163 2.44962C6.86766 1.6177 6.10471 1.06596 5.25124 1.13492C4.62622 1.18665 4.10896 1.75132 4.09603 2.39358C4.0831 3.05309 4.57018 3.66948 5.20382 3.70397C5.89781 3.74707 6.5961 3.7169 7.32026 3.7169Z" fill="white"/>
<path d="M8.56543 16.006C8.56543 13.7732 8.56543 11.5576 8.56543 9.31616C8.6344 9.31616 8.70336 9.31616 8.76802 9.31616C10.3327 9.31616 11.8974 9.31616 13.4621 9.31616C13.932 9.31616 14.4061 9.33772 14.8717 9.15668C14.876 9.22564 14.8846 9.27306 14.8846 9.32479C14.8846 10.855 14.8889 12.3852 14.8846 13.9111C14.8803 14.9887 14.2035 15.8034 13.1647 15.9888C13.0526 16.0103 12.9319 16.0146 12.8156 16.0146C11.4448 16.0146 10.0698 16.0146 8.69905 16.0146C8.66026 16.0146 8.62147 16.0103 8.56543 16.006Z" fill="white"/>
<path d="M7.4326 16.006C7.37226 16.0104 7.32053 16.0147 7.26881 16.0147C5.91963 16.0147 4.57045 16.019 3.22127 16.0147C2.14365 16.0104 1.32466 15.3293 1.14362 14.2948C1.12638 14.1741 1.12207 14.0491 1.12207 13.9284C1.12207 12.3852 1.12207 10.8464 1.12207 9.30326C1.12207 9.26446 1.12207 9.22136 1.12207 9.16101C1.22121 9.18687 1.2988 9.22136 1.3807 9.22998C1.64364 9.26015 1.91089 9.30757 2.17383 9.30757C3.85491 9.31619 5.536 9.31188 7.21277 9.31188C7.28174 9.31188 7.35071 9.31188 7.42829 9.31188C7.4326 11.549 7.4326 13.7689 7.4326 16.006Z" fill="white"/>
<path d="M8.68652 3.71693C8.77273 3.29019 8.85032 2.87639 8.94084 2.46689C9.06153 1.92808 9.38051 1.54014 9.87621 1.29875C10.553 0.966847 11.303 1.13496 11.6823 1.70394C11.9668 2.13068 11.997 2.58759 11.7556 3.0445C11.5185 3.48847 11.1392 3.72986 10.6262 3.72986C10.04 3.73417 9.45379 3.72986 8.86325 3.72986C8.81153 3.72555 8.7598 3.72124 8.68652 3.71693Z" fill="#2C2F36"/>
<path d="M7.32019 3.71693C6.59603 3.71693 5.89773 3.74711 5.20374 3.70831C4.57442 3.67383 4.08302 3.05312 4.09595 2.39793C4.10888 1.75567 4.62614 1.19099 5.25116 1.13927C6.10463 1.0703 6.86759 1.61773 7.06156 2.45396C7.15639 2.86346 7.22967 3.28157 7.32019 3.71693Z" fill="#2C2F36"/>
</svg>
