<svg id="Capa_1" enable-background="new 0 0 512 512" height="512" viewBox="0 0 512 512" width="512" xmlns="http://www.w3.org/2000/svg"><g><path d="m512 256c0 141.385-114.615 256-256 256s-256-114.615-256-256 114.615-256 256-256 256 114.615 256 256z" fill="#c1bde0"/><path d="m462 256c0 113.771-92.229 206-206 206s-206-92.229-206-206 92.229-206 206-206 206 92.229 206 206z" fill="#5596fb"/><path d="m429.077 367.76c-36.695 56.711-100.503 94.24-173.077 94.24-113.771 0-206-92.229-206-206 0-72.574 37.529-136.382 94.239-173.077-20.83 32.192-32.923 70.564-32.923 111.761 0 113.771 92.229 206 206 206 41.197 0 79.569-12.093 111.761-32.924z" fill="#2476ed"/><path d="m408.209 103.791c-40.657-40.656-94.712-63.047-152.209-63.047s-111.552 22.391-152.209 63.047c-40.656 40.656-63.047 94.712-63.047 152.209s22.391 111.553 63.047 152.209c40.657 40.656 94.712 63.047 152.209 63.047s111.552-22.391 152.209-63.047c40.656-40.656 63.047-94.712 63.047-152.209s-22.391-111.553-63.047-152.209zm16.363 260.209h-98.212c6.397-30.271 10.004-64.627 10.446-100.5h119.311c-1.366 36.905-12.766 71.289-31.545 100.5zm-168.572 92.256c-15.937 0-32.265-20.355-44.795-55.848-2.386-6.757-4.583-13.91-6.584-21.408h102.76c-2.002 7.498-4.199 14.651-6.584 21.408-12.532 35.492-28.86 55.848-44.797 55.848zm-55.024-92.256c-6.599-29.968-10.327-64.392-10.781-100.5h131.61c-.454 36.108-4.182 70.532-10.781 100.5zm-145.093-100.5h119.311c.442 35.873 4.049 70.229 10.446 100.5h-98.212c-18.779-29.211-30.179-63.595-31.545-100.5zm31.545-115.5h98.212c-6.397 30.271-10.004 64.627-10.446 100.5h-119.311c1.366-36.905 12.766-71.289 31.545-100.5zm168.572-92.256c15.937 0 32.265 20.355 44.795 55.848 2.386 6.757 4.583 13.91 6.584 21.408h-102.759c2.002-7.498 4.199-14.651 6.584-21.408 12.531-35.492 28.859-55.848 44.796-55.848zm55.024 92.256c6.599 29.968 10.327 64.392 10.781 100.5h-131.61c.454-36.108 4.182-70.532 10.781-100.5zm25.782 100.5c-.442-35.873-4.049-70.229-10.446-100.5h98.212c18.78 29.211 30.18 63.595 31.545 100.5zm77.122-115.5h-91.052c-2.366-9.3-5.015-18.13-7.935-26.402-7.333-20.769-16.087-36.975-25.81-48.113 50.451 8.434 94.575 35.797 124.797 74.515zm-191.058-74.515c-9.723 11.138-18.476 27.344-25.81 48.113-2.921 8.272-5.57 17.102-7.935 26.402h-91.053c30.222-38.718 74.346-66.081 124.798-74.515zm-124.798 320.515h91.052c2.366 9.3 5.015 18.13 7.935 26.402 7.333 20.769 16.087 36.975 25.81 48.113-50.451-8.434-94.575-35.797-124.797-74.515zm191.058 74.515c9.723-11.138 18.476-27.344 25.81-48.113 2.921-8.272 5.57-17.102 7.935-26.402h91.052c-30.221 38.718-74.345 66.081-124.797 74.515z" fill="#0956c6"/><path d="m276.5 237v130.279c0 8.284-6.716 15-15 15h-48.166l-15.784 34.644c-1.778 3.903-7.322 3.903-9.1 0l-15.784-34.644h-27.07c-8.284 0-15-6.716-15-15v-130.279c0-8.284 6.716-15 15-15h115.904c8.284 0 15 6.716 15 15z" fill="#def4f8"/><path d="m157.5 382.279h-33c-8.284 0-15-6.716-15-15v-130.279c0-8.284 6.716-15 15-15h33c-8.284 0-15 6.716-15 15v130.279c0 8.284 6.716 15 15 15z" fill="#a6e0ec"/><path d="m476.5 80v130.279c0 8.284-6.716 15-15 15h-48.166l-15.784 34.644c-1.778 3.903-7.322 3.903-9.1 0l-15.784-34.644h-27.07c-8.284 0-15-6.716-15-15v-130.279c0-8.284 6.716-15 15-15h115.904c8.284 0 15 6.716 15 15z" fill="#def4f8"/><path d="m357.5 225.279h-33c-8.284 0-15-6.716-15-15v-130.279c0-8.284 6.716-15 15-15h33c-8.284 0-15 6.716-15 15v130.279c0 8.284 6.716 15 15 15z" fill="#a6e0ec"/><path d="m248.604 314.051c0 4.142-3.358 7.5-7.5 7.5h-97.001c-4.142 0-7.5-3.358-7.5-7.5s3.358-7.5 7.5-7.5h97.001c4.143 0 7.5 3.357 7.5 7.5zm-7.624 25.5h-97.001c-4.142 0-7.5 3.358-7.5 7.5s3.358 7.5 7.5 7.5h97.001c4.142 0 7.5-3.358 7.5-7.5s-3.358-7.5-7.5-7.5zm200.124-190h-97.001c-4.142 0-7.5 3.358-7.5 7.5s3.358 7.5 7.5 7.5h97.001c4.142 0 7.5-3.358 7.5-7.5s-3.357-7.5-7.5-7.5zm-22.297 33h-52.405c-4.142 0-7.5 3.358-7.5 7.5s3.358 7.5 7.5 7.5h52.405c4.142 0 7.5-3.358 7.5-7.5s-3.358-7.5-7.5-7.5z" fill="#60c8dd"/><path d="m400 425c0 13.807-11.193 25-25 25s-25-11.193-25-25 11.193-25 25-25 25 11.193 25 25zm-338-128c-13.807 0-25 11.193-25 25s11.193 25 25 25 25-11.193 25-25-11.193-25-25-25zm208-84c0 42.526-34.474 77-77 77s-77-34.474-77-77 34.474-77 77-77 77 34.474 77 77z" fill="#ffc14f"/><path d="m260.612 249.875c-13.067 23.908-38.445 40.125-67.612 40.125-42.526 0-77-34.474-77-77 0-29.167 16.217-54.545 40.125-67.612-5.985 10.951-9.388 23.515-9.388 36.875 0 42.526 34.474 77 77 77 13.36-.001 25.924-3.403 36.875-9.388z" fill="#ffa90b"/><path d="m373 340c0-29.271 23.729-53 53-53s53 23.729 53 53-23.729 53-53 53-53-23.729-53-53zm-44.5-55c-11.874 0-21.5 9.626-21.5 21.5s9.626 21.5 21.5 21.5 21.5-9.626 21.5-21.5-9.626-21.5-21.5-21.5zm-252.5-145c-13.807 0-25 11.193-25 25s11.193 25 25 25 25-11.193 25-25-11.193-25-25-25zm253.804-13h125.159c6.219 0 9.931-6.929 6.486-12.107l-62.579-94.029c-3.083-4.632-9.888-4.632-12.971 0l-62.579 94.029c-3.448 5.178.264 12.107 6.484 12.107z" fill="#fb5858"/><path d="m473.565 363.405c-8.644 17.533-26.696 29.595-47.565 29.595-29.271 0-53-23.729-53-53 0-20.869 12.062-38.921 29.595-47.565-3.48 7.058-5.435 15.003-5.435 23.405 0 29.271 23.729 53 53 53 8.402 0 16.347-1.955 23.405-5.435zm-119.262-253.33h76.161c3.785 0 6.043-4.217 3.947-7.367l-38.08-57.218c-1.876-2.819-6.017-2.819-7.893 0l-38.08 57.218c-2.099 3.15.16 7.367 3.945 7.367z" fill="#f44545"/><path d="m425.5 311.889c4.142 0 7.5 3.358 7.5 7.5v42.084c0 4.142-3.358 7.5-7.5 7.5s-7.5-3.358-7.5-7.5v-42.084c0-4.142 3.358-7.5 7.5-7.5zm-232.514-65.71c-4.188 0-7.583 3.395-7.583 7.583s3.395 7.583 7.583 7.583 7.583-3.395 7.583-7.583c.001-4.188-3.395-7.583-7.583-7.583zm7.611-23.195v-58.084c0-4.142-3.358-7.5-7.5-7.5s-7.5 3.358-7.5 7.5v58.084c0 4.142 3.358 7.5 7.5 7.5s7.5-3.358 7.5-7.5zm203.339-156.338 2.413-10.153c.545-2.293-1.194-4.493-3.55-4.493h-18.489c-1.69 0-3.159 1.161-3.55 2.805l-4.113 17.309c-.545 2.293 1.194 4.493 3.55 4.493h3.797c2.356 0 4.095 2.2 3.55 4.493l-6.311 26.557c-.545 2.293 1.194 4.493 3.55 4.493 1.18 0 2.286-.57 2.971-1.531l24.036-33.713c1.722-2.415-.005-5.767-2.971-5.767h-1.332c-2.358-.001-4.096-2.201-3.551-4.493z" fill="#fff5f5"/></g></svg>