<svg width="26" height="26" viewBox="0 0 26 26" fill="none" xmlns="http://www.w3.org/2000/svg">
<path d="M24.9376 18.7672L24.3009 11.0238C24.6657 10.9836 25.0043 10.8026 25.2534 10.5147C25.5024 10.2268 25.6448 9.85176 25.6538 9.45974C25.6629 9.06771 25.5381 8.68559 25.3026 8.38488C25.0672 8.08417 24.7374 7.88548 24.3749 7.826C24.0124 7.76653 23.642 7.85034 23.3331 8.06176C23.0242 8.27317 22.798 8.5977 22.6967 8.9746C22.5954 9.3515 22.6261 9.75494 22.7829 10.1094C22.9398 10.4639 23.2121 10.7451 23.5488 10.9004L20.2899 18.7672H20.1347L18.7579 6.76498C19.1331 6.71255 19.4763 6.51202 19.7203 6.20278C19.9642 5.89354 20.0912 5.49795 20.0763 5.09371C20.0614 4.68947 19.9056 4.30581 19.6396 4.01809C19.3736 3.73038 19.0166 3.5594 18.6388 3.53876C18.2609 3.51811 17.8895 3.64929 17.5974 3.90652C17.3054 4.16375 17.1139 4.52844 17.0605 4.92895C17.0071 5.32946 17.0957 5.73683 17.3089 6.07105C17.5221 6.40526 17.8445 6.64216 18.2127 6.7352L15.4552 18.7672H15.3477L13.2188 3.25068C13.6011 3.19153 13.9483 2.97977 14.1904 2.65802C14.4326 2.33626 14.5518 1.92839 14.5241 1.51646C14.4963 1.10453 14.3237 0.719114 14.041 0.437762C13.7582 0.156409 13.3863 0 13 0C12.6137 0 12.2418 0.156409 11.959 0.437762C11.6763 0.719114 11.5037 1.10453 11.4759 1.51646C11.4482 1.92839 11.5674 2.33626 11.8096 2.65802C12.0517 2.97977 12.3989 3.19153 12.7811 3.25068L10.6523 18.7672H10.5448L7.78726 6.7352C8.1619 6.64173 8.49026 6.40173 8.7077 6.06241C8.92515 5.7231 9.01594 5.30904 8.9622 4.90175C8.90847 4.49446 8.7141 4.12342 8.41735 3.86165C8.12061 3.59989 7.74297 3.46636 7.35877 3.48735C6.97457 3.50834 6.61164 3.68233 6.34139 3.97507C6.07114 4.2678 5.91315 4.65809 5.89852 5.06912C5.88389 5.48015 6.01368 5.88215 6.26234 6.196C6.511 6.50986 6.86052 6.71283 7.24212 6.76498L5.86532 18.7672H5.72207L2.8093 10.9217C3.15665 10.7767 3.44258 10.5011 3.61351 10.1468C3.78443 9.79243 3.82862 9.38358 3.73777 8.99689C3.64693 8.6102 3.42728 8.2722 3.12003 8.04628C2.81278 7.82036 2.43901 7.72201 2.06879 7.76968C1.69856 7.81734 1.35731 8.00775 1.10901 8.30521C0.860698 8.60266 0.722382 8.98674 0.719989 9.38544C0.717596 9.78413 0.851289 10.1701 1.09601 10.4709C1.34072 10.7718 1.67966 10.9668 2.04928 11.0196L1.0903 18.7672H0V26H26V18.7672H24.9376Z" fill="url(#paint0_linear_318_45)"/>
<defs>
<linearGradient id="paint0_linear_318_45" x1="2.64218" y1="28.8251" x2="24.9543" y2="7.9572" gradientUnits="userSpaceOnUse">
<stop stop-color="#FC9C01"/>
<stop offset="0.12" stop-color="#FFE300"/>
<stop offset="0.4" stop-color="#FC9501"/>
<stop offset="0.75" stop-color="#FFE300"/>
<stop offset="1" stop-color="#FC9501"/>
</linearGradient>
</defs>
</svg>
