<svg id="Capa_1" enable-background="new 0 0 512 512" height="512" viewBox="0 0 512 512" width="512" xmlns="http://www.w3.org/2000/svg"><g><path d="m361 105v121c0 8.399-6.599 15-15 15s-15-6.601-15-15v-121c0-41.4-33.6-75-75-75s-75 33.6-75 75v121c0 8.399-6.599 15-15 15s-15-6.601-15-15v-121c0-57.9 47.1-105 105-105s105 47.1 105 105z" fill="#596c76"/><path d="m361 105v121c0 8.399-6.599 15-15 15s-15-6.601-15-15v-121c0-41.4-33.6-75-75-75v-30c57.9 0 105 47.1 105 105z" fill="#465a61"/><path d="m406 211h-300c-8.401 0-15 6.599-15 15v271c0 8.399 6.599 15 15 15h300c8.401 0 15-6.601 15-15v-271c0-8.401-6.599-15-15-15z" fill="#fdbf00"/><path d="m421 226v271c0 8.399-6.599 15-15 15h-150v-301h150c8.401 0 15 6.599 15 15z" fill="#ff9100"/><path d="m256 271c-24.901 0-45 20.099-45 45 0 24.899 20.099 45 45 45s45-20.101 45-45c0-24.901-20.099-45-45-45z" fill="#f2f2f2"/><path d="m256 361c-41.4 0-75 34.6-75 76 0 8.399 6.599 15 15 15h120c8.401 0 15-6.601 15-15 0-41.4-33.6-76-75-76z" fill="#f2f2f2"/><g fill="#daedff"><path d="m256 361v-90c24.901 0 45 20.099 45 45 0 24.899-20.099 45-45 45z"/><path d="m331 437c0 8.399-6.599 15-15 15h-60v-91c41.4 0 75 34.6 75 76z"/></g></g></svg>