<svg id="Capa_1" enable-background="new 0 0 511.994 511.994" height="512" viewBox="0 0 511.994 511.994" width="512" xmlns="http://www.w3.org/2000/svg"><g><g><g><g><path d="m191.184 392.699h38.431v85.443h-38.431z" fill="#fddd45" transform="matrix(.866 -.5 .5 .866 -189.522 163.535)"/><path d="m205.678 388.816 27.8 48.151-38.986 9.334-22.096-38.27z" fill="#f8c52d"/><g><path d="m150.765 420.52 45.543 78.882c2.271 3.933 6.869 5.89 11.277 4.8l55.245-13.658c3.294-.814 4.888-4.56 3.192-7.498l-9.994-17.31c-2.271-3.933-6.869-5.89-11.277-4.8l-23.416 5.789-37.65-65.211z" fill="#eef4f5"/><path d="m183.681 401.515 24.033 41.626-38.563 9.231-18.389-31.851z" fill="#cbe5e7"/></g></g><g><path d="m41.867 378.863 24.432 42.318c2.257 3.909 6.815 5.869 11.204 4.818l75.823-18.154-56.396-97.682-53.633 56.588c-3.105 3.276-3.687 8.203-1.43 12.112z" fill="#fddd45"/><path d="m59.276 349.891 40.818 70.699 53.233-12.745-56.397-97.682z" fill="#f8c52d"/><path d="m74.377 328.72 51.602 89.378c4.514 7.818 13.63 11.738 22.409 9.636l297.964-71.339-158.353-274.275-210.763 222.375c-6.209 6.552-7.373 16.407-2.859 24.225z" fill="#eef4f5"/><path d="m288.005 82.121 158.349 274.269-61.638 14.759c-29.61-17.272-65.208-56.436-94.624-107.386-29.411-50.942-45.534-101.361-45.678-135.646z" fill="#cbe5e7"/><path d="m177.185 328.954c-18.242-31.596-31.083-62.976-37.827-90.001l-62.118 65.542c-6.212 6.554-7.375 16.408-2.863 24.223l51.604 89.38c4.512 7.815 13.628 11.735 22.409 9.632l87.817-21.024c-20.03-19.352-40.782-46.16-59.022-77.752z" fill="#fde784"/></g><g><ellipse cx="367.178" cy="219.262" fill="#7da2b0" rx="58.606" ry="158.357" transform="matrix(.866 -.5 .5 .866 -60.438 212.965)"/><path d="m417.927 189.956c43.732 75.746 56.459 150.26 28.432 166.442-4.998 2.886-10.964 3.728-17.634 2.717 11.335-28.902-3.666-90.307-39.593-152.534s-81.599-105.911-112.297-110.546c2.46-6.283 6.172-11.028 11.17-13.914 28.028-16.181 86.195 32.098 129.922 107.835z" fill="#688d97"/><path d="m351.58 228.262c8.483 14.694.181 35.429-18.552 46.786-5.701-8.365-11.262-17.222-16.61-26.485s-10.238-18.508-14.632-27.627c19.202-10.545 41.315-7.359 49.794 7.326z" fill="#fdd330"/></g><g><path d="m220.905 245.951-94.542 92.757c-2.378 2.334-6.32 1.796-7.986-1.09l-11.795-20.429c-1.163-2.014-.815-4.56.845-6.188l94.542-92.757c2.378-2.334 6.32-1.796 7.986 1.09l11.795 20.429c1.163 2.013.815 4.559-.845 6.188z" fill="#7da2b0"/></g></g><g><g><path d="m330.892 77.79c0-39.166 32.033-70.85 71.329-70.281 37.59.543 68.441 31.18 69.233 68.766.819 38.9-29.977 70.778-68.454 71.759l-15.894 15.894c-6.423 6.423-17.406 1.874-17.406-7.21v-16.086c-23.009-11.55-38.808-35.344-38.808-62.842z" fill="#fddd45"/><path d="m471.451 76.273c.826 38.899-29.977 70.783-68.448 71.762l-15.897 15.896c-6.423 6.423-17.405 1.874-17.405-7.209v-11.226l11.061-11.061c1.788-1.788 4.165-2.837 6.685-3.038 36.654-2.925 65.388-33.956 64.599-71.549-.347-16.273-6.311-31.242-16.039-43.028 20.72 11.928 34.914 34.115 35.444 59.453z" fill="#f8c52d"/></g></g></g><g><path d="m434.219 204.115c-1.9-3.681-6.426-5.122-10.105-3.221-3.68 1.901-5.122 6.425-3.221 10.105 36.647 70.936 40.152 126.46 22.56 138.377l-10.753 2.574c-10.612-.548-24.965-7.765-40.632-20.768-16.38-13.594-33.081-32.301-48.642-54.293 17.63-14.142 24.139-35.945 14.65-52.379-9.488-16.433-31.622-21.705-52.682-13.512-24.097-52.369-29.913-96.18-20.445-114.759l7.613-8.032c7.486-3.703 19.015-1.25 32.776 6.97 4.737 20.886 17.908 38.969 36.862 49.925v11.613c0 7.183 4.288 13.601 10.925 16.35 2.202.912 4.507 1.356 6.79 1.355 4.596 0 9.102-1.798 12.495-5.192l2.229-2.23c2.78 4.066 5.518 8.22 8.17 12.423 1.427 2.26 3.861 3.498 6.35 3.498 1.368 0 2.754-.375 3.996-1.159 3.503-2.21 4.55-6.842 2.34-10.345-3.258-5.161-6.636-10.254-10.07-15.204l.822-.822c41.229-2.663 73.584-37.599 72.706-79.277-.424-20.13-8.603-39.108-23.03-53.437-14.428-14.324-33.46-22.375-53.594-22.666-20.984-.323-40.805 7.643-55.752 22.377-14.812 14.599-23.019 34.047-23.171 54.817-18.846-8.616-31.398-5.996-39.008-1.662-.038.021-.076.042-.114.063-.011.007-.024.013-.035.02-4.681 2.703-8.498 6.609-11.431 11.61l-87.536 92.359c-2.85 3.006-2.723 7.753.284 10.603 1.45 1.375 3.306 2.057 5.158 2.057 1.986 0 3.97-.785 5.444-2.341l69.525-73.356c-.246 8.278.478 17.548 2.214 27.714 5.515 32.291 20.438 70.662 42.021 108.043s47.352 69.491 72.559 90.412c7.938 6.588 15.602 11.839 22.895 15.766l-166.869 39.952c-19.398-19.377-38.299-44.6-54.833-73.24-4.01-6.946-7.816-14.02-11.368-21.072l53.844-52.828c4.104-4.025 4.963-10.314 2.088-15.292l-11.795-20.429c-1.962-3.398-5.317-5.652-9.205-6.183-3.889-.53-7.725.741-10.528 3.49l-44.423 43.585c-1.74-5.234-3.29-10.376-4.632-15.382l23.015-24.283c2.85-3.006 2.723-7.753-.284-10.603-3.005-2.849-7.753-2.724-10.603.284l-87.997 92.845c-8.001 8.442-9.844 21.139-4.775 31.483l-29.165 30.772c-5.349 5.644-6.369 14.288-2.481 21.021l24.433 42.318c3.194 5.533 9.162 8.841 15.383 8.841 1.351 0 2.714-.156 4.063-.479l41.218-9.868c5.217 7.769 14.063 12.359 23.263 12.358 2.129 0 4.278-.246 6.403-.755l.304-.073 9.533 16.513c1.389 2.406 3.91 3.751 6.502 3.751 1.272 0 2.562-.324 3.743-1.006 3.587-2.071 4.816-6.658 2.745-10.245l-7.307-12.657 23.346-5.587 25.838 44.753c1.67 2.893 5.05 4.335 8.295 3.531l23.417-5.789c1.161-.283 2.386.235 2.982 1.27l8.396 14.544-52.145 12.891c-1.158.288-2.385-.235-2.982-1.27l-11.325-19.616c-2.072-3.588-6.659-4.817-10.245-2.745-3.587 2.071-4.816 6.658-2.745 10.245l11.325 19.615c3.199 5.542 9.153 8.843 15.372 8.843 1.396 0 2.806-.167 4.2-.511l55.245-13.658c3.881-.959 7.004-3.619 8.569-7.297 1.564-3.678 1.315-7.772-.683-11.232l-9.993-17.311c-2.376-4.114-6.273-6.982-10.667-8.192l-21.872-37.884 204.323-48.919c5.808-.036 11.11-1.386 15.799-4.093 10.771-6.219 22.538-21.931 17.421-61.466-3.655-28.258-15.484-62.819-33.306-97.316zm-77.113-171.045c11.844-11.674 27.46-18.069 44.069-18.069.311 0 .625.002.937.006 33.397.483 61.14 28.038 61.844 61.424.726 34.469-26.705 63.226-61.147 64.104-1.922.049-3.752.834-5.112 2.194l-15.895 15.894c-1.108 1.108-2.317.842-2.938.584-.622-.258-1.665-.924-1.665-2.491v-16.085c0-2.836-1.601-5.43-4.136-6.703-21.387-10.735-34.672-32.246-34.672-56.138 0-16.943 6.647-32.825 18.715-44.72zm-45.15 191.503c13.688-4.848 27.654-2.042 33.128 7.439 5.475 9.483.92 22.983-10.127 32.414-4.128-6.329-8.151-12.879-12.039-19.612-3.947-6.837-7.589-13.591-10.962-20.241zm-106.946 1.195 9.314 16.133-91.001 89.283-9.314-16.133zm-129.253 192.937c-1.153.277-2.37-.249-2.962-1.274l-24.433-42.318c-.592-1.026-.437-2.343.378-3.203l26.046-27.481 37.794 65.46zm70.885 1.735c-5.513 1.317-11.336-1.186-14.168-6.092l-51.602-89.378c-2.833-4.906-2.089-11.204 1.808-15.315l53.003-55.922c1.433 4.718 3.018 9.517 4.756 14.374l-38.263 37.541c-4.103 4.026-4.961 10.314-2.087 15.292l11.795 20.429c1.962 3.398 5.317 5.652 9.205 6.184.581.079 1.16.118 1.735.118 3.275 0 6.409-1.27 8.793-3.608l29.472-28.916c3.048 5.886 6.258 11.767 9.602 17.559 15.386 26.65 32.813 50.517 50.881 69.796zm88.875 35.053-10.508 2.598-20.791-36.012 10.55-2.526z"/><path d="m160.298 382.269c-2.071-3.587-6.66-4.816-10.245-2.745-3.588 2.071-4.816 6.658-2.745 10.246l4.354 7.54c1.39 2.406 3.91 3.751 6.502 3.751 1.272 0 2.563-.324 3.743-1.006 3.588-2.071 4.816-6.658 2.745-10.246z"/><path d="m186.046 383.344-4.353-7.54c-2.071-3.588-6.657-4.816-10.245-2.746-3.587 2.071-4.816 6.658-2.745 10.245l4.353 7.54c1.389 2.407 3.91 3.752 6.502 3.752 1.272 0 2.562-.324 3.743-1.006 3.586-2.071 4.816-6.658 2.745-10.245z"/><path d="m376.293 109.322c4.143 0 7.5-3.358 7.5-7.5v-16.1h13.331v16.1c0 4.142 3.357 7.5 7.5 7.5s7.5-3.358 7.5-7.5v-44.503c0-4.142-3.357-7.5-7.5-7.5s-7.5 3.358-7.5 7.5v13.403h-13.331v-13.403c0-4.142-3.357-7.5-7.5-7.5s-7.5 3.358-7.5 7.5v44.503c0 4.142 3.357 7.5 7.5 7.5z"/><path d="m427.856 109.322c4.143 0 7.5-3.358 7.5-7.5v-22.252c0-4.142-3.357-7.5-7.5-7.5s-7.5 3.358-7.5 7.5v22.251c0 4.143 3.358 7.501 7.5 7.501z"/><path d="m427.856 64.924c4.143 0 7.5-3.358 7.5-7.5v-.105c0-4.142-3.357-7.5-7.5-7.5s-7.5 3.358-7.5 7.5v.105c0 4.143 3.358 7.5 7.5 7.5z"/></g></g></svg>