<?xml version="1.0" encoding="iso-8859-1"?>
<!-- Generator: Adobe Illustrator 19.0.0, SVG Export Plug-In . SVG Version: 6.00 Build 0)  -->
<svg version="1.1" id="Capa_1" xmlns="http://www.w3.org/2000/svg" xmlns:xlink="http://www.w3.org/1999/xlink" x="0px" y="0px"
	 viewBox="0 0 512 512" style="enable-background:new 0 0 512 512;" xml:space="preserve">
<path style="fill:#EFAE2E;" d="M478.108,359.384v50.213c0,21.52-53.407,38.969-119.289,38.969
	c-42.836,0-80.401-7.377-101.432-18.457c-11.314-5.952-17.847-12.983-17.847-20.512v-50.213H478.108z"/>
<path style="fill:#E59120;" d="M239.54,359.384h73.675c-11.792,28.408-31.277,52.848-55.829,70.725
	c-11.314-5.952-17.847-12.983-17.847-20.512v-50.213H239.54z"/>
<path style="fill:#FFE28F;" d="M478.108,359.384c0,21.53-53.407,38.98-119.289,38.98c-23.514,0-45.44-2.228-63.918-6.074
	c-33.282-6.909-55.361-19.057-55.361-32.905c0-9.778,11.019-18.721,29.232-25.569c14.438-5.423,33.424-9.544,54.995-11.701
	c11.08-1.109,22.852-1.709,35.052-1.709c61.659,0,112.39,15.283,118.628,34.889C477.884,356.637,478.108,358.001,478.108,359.384z"
	/>
<g>
	<path style="fill:#FFD243;" d="M477.447,355.294c-23.28,7.082-53.183,10.948-84.725,10.948c-28.378,0-55.188-3.083-77.532-8.923
		c-25.091-6.552-39.03-15.038-46.417-23.504c14.438-5.423,33.424-9.544,54.995-11.701c11.08-1.109,22.852-1.709,35.052-1.709
		C420.478,320.405,471.209,335.687,477.447,355.294z"/>
	<path style="fill:#FFD243;" d="M323.767,322.114c-4.111,25.854-14.224,49.744-28.866,70.175
		c-33.282-6.909-55.361-19.057-55.361-32.905C239.54,341.843,274.999,327.008,323.767,322.114z"/>
</g>
<path style="fill:#EFAE2E;" d="M512,264.851v50.212c0,21.52-53.407,38.969-119.279,38.969c-28.153,0-54.038-3.195-74.449-8.526
	c-27.33-7.132-44.83-18.121-44.83-30.443v-50.212H512z"/>
<path style="fill:#E59120;" d="M325.832,295.935c0,17.257-2.646,33.912-7.56,49.571c-27.33-7.132-44.83-18.121-44.83-30.443v-50.212
	h49.47C324.825,274.924,325.832,285.312,325.832,295.935z"/>
<path style="fill:#FFE28F;" d="M512,264.851c0,21.52-53.407,38.969-119.279,38.969c-24.786,0-47.821-2.473-66.899-6.695
	c-31.613-7.021-52.38-18.854-52.38-32.274c0-1.404,0.234-2.798,0.682-4.172c3.266-10.042,18.203-18.945,40.292-25.233
	c20.95-5.962,48.34-9.574,78.305-9.574c35.917,0,68.13,5.189,89.996,13.4C500.96,246.109,512,255.062,512,264.851z"/>
<g>
	<path style="fill:#FFD243;" d="M482.717,239.271c-6.257,7.143-17.216,14.367-35.754,20.421
		c-23.728,7.743-55.025,12.016-88.144,12.016c-13.227,0-26.281-0.682-38.786-2.035c-9.371-1.017-27.879-3.541-45.909-8.995
		c3.266-10.042,18.203-18.945,40.292-25.233c20.95-5.962,48.34-9.574,78.305-9.574C428.638,225.871,460.851,231.06,482.717,239.271z
		"/>
	<path style="fill:#FFD243;" d="M325.832,295.935c0,0.397,0,0.794-0.01,1.19c-31.613-7.021-52.38-18.854-52.38-32.274
		c0-11.732,15.862-22.262,40.974-29.405C321.783,254.198,325.832,274.598,325.832,295.935z"/>
</g>
<path style="fill:#EFAE2E;" d="M478.108,170.317v50.202c0,21.53-53.407,38.98-119.289,38.98c-13.095,0-25.691-0.692-37.473-1.964
	c-47.516-5.128-81.805-19.77-81.805-37.016v-50.202L478.108,170.317L478.108,170.317z"/>
<path style="fill:#E59120;" d="M239.54,220.519v-50.202h28.632c25.996,22.425,44.973,52.756,53.173,87.218
	C273.829,252.407,239.54,237.765,239.54,220.519z"/>
<path style="fill:#FFE28F;" d="M478.108,170.317c0,6.899-5.494,13.39-15.14,19.007c-20.411,11.915-59.4,19.963-104.149,19.963
	c-22.283,0-43.141-1.994-60.987-5.484c-34.91-6.787-58.291-19.251-58.291-33.485c0-5.209,3.124-10.175,8.791-14.702
	c3.449-2.768,7.835-5.372,13.034-7.763c21.601-9.992,57.203-16.514,97.454-16.514C424.701,131.337,478.108,148.787,478.108,170.317z
	"/>
<g>
	<path style="fill:#FFD243;" d="M478.108,170.317c0,6.899-5.494,13.39-15.14,19.007c-20.634,4.65-44.912,7.143-70.247,7.143
		c-33.119,0-64.416-4.263-88.134-12.016c-33.231-10.857-42.113-25.447-43.222-36.599c21.601-9.992,57.203-16.514,97.454-16.514
		C424.701,131.337,478.108,148.787,478.108,170.317z"/>
	<path style="fill:#FFD243;" d="M239.54,170.317c0-5.209,3.124-10.175,8.791-14.702c19.668,12.423,36.558,28.876,49.5,48.188
		C262.922,197.015,239.54,184.551,239.54,170.317z"/>
</g>
<path style="fill:#EFAE2E;" d="M273.438,95.075v50.21c0,21.526,53.404,38.975,119.281,38.975S512,166.81,512,145.285v-50.21"/>
<ellipse style="fill:#FFE28F;" cx="392.72" cy="95.072" rx="119.28" ry="38.976"/>
<circle style="fill:#EFAE2E;" cx="159.97" cy="295.932" r="153.66"/>
<path style="fill:#E59120;" d="M159.971,423.821c-70.517,0-127.887-57.37-127.887-127.886c0-70.517,57.37-127.887,127.887-127.887
	s127.886,57.37,127.886,127.887C287.857,366.451,230.488,423.821,159.971,423.821z"/>
<circle style="fill:#FFE28F;" cx="159.97" cy="295.932" r="115.68"/>
<g>
	<path style="fill:#E59120;" d="M184.604,313.168c0-13.363-10.596-24.298-23.827-24.843c-0.19-0.014-0.382-0.021-0.575-0.021
		c-5.295,0-9.602-4.308-9.602-9.603s4.307-9.603,9.602-9.603c2.899,0,5.614,1.291,7.449,3.542c2.662,3.267,7.468,3.756,10.737,1.094
		c3.266-2.663,3.756-7.47,1.093-10.737c-3.084-3.783-7.133-6.509-11.648-7.96v-3.896c0-4.214-3.416-7.631-7.631-7.631
		s-7.631,3.417-7.631,7.631v3.898c-9.988,3.229-17.233,12.613-17.233,23.662c0,13.363,10.596,24.298,23.827,24.844
		c0.19,0.014,0.382,0.021,0.575,0.021c5.295,0,9.602,4.308,9.602,9.602c0,5.295-4.307,9.603-9.602,9.603
		c-2.898,0-5.614-1.291-7.45-3.543c-2.663-3.266-7.47-3.755-10.736-1.091c-3.267,2.663-3.755,7.471-1.092,10.737
		c3.189,3.911,7.409,6.694,12.109,8.105v3.751c0,4.214,3.416,7.631,7.631,7.631s7.631-3.417,7.631-7.631v-4.055
		C177.581,333.307,184.604,324.045,184.604,313.168z"/>
	<path style="fill:#E59120;" d="M215.429,303.565c-0.013,0-0.026,0-0.039,0c-4.214-0.021-7.665-3.454-7.644-7.669
		c0.021-4.202,3.383-7.594,7.579-7.594c0.013,0,0.026,0,0.039,0l0.101,0.001c4.214,0.021,7.614,3.454,7.593,7.668
		C223.038,300.173,219.626,303.565,215.429,303.565z"/>
	<path style="fill:#E59120;" d="M104.617,303.565c-0.013,0-0.026,0-0.039,0c-4.214-0.021-7.665-3.454-7.644-7.669
		c0.021-4.202,3.383-7.594,7.579-7.594c0.013,0,0.026,0,0.039,0l0.101,0.001c4.214,0.021,7.614,3.454,7.593,7.668
		C112.226,300.173,108.814,303.565,104.617,303.565z"/>
</g>
<g>
	<path style="fill:#FFD243;" d="M159.971,185.064c-4.215,0-7.631-3.417-7.631-7.631v-33.838c0-4.214,3.416-7.631,7.631-7.631
		s7.631,3.417,7.631,7.631v33.838C167.602,181.647,164.186,185.064,159.971,185.064z"/>
	<path style="fill:#FFD243;" d="M159.971,455.904c-4.215,0-7.631-3.417-7.631-7.631v-33.838c0-4.214,3.416-7.631,7.631-7.631
		s7.631,3.417,7.631,7.631v33.838C167.602,452.488,164.186,455.904,159.971,455.904z"/>
	<path style="fill:#FFD243;" d="M312.31,303.565h-33.838c-4.215,0-7.631-3.417-7.631-7.631s3.416-7.631,7.631-7.631h33.838
		c4.215,0,7.631,3.417,7.631,7.631S316.525,303.565,312.31,303.565z"/>
	<path style="fill:#FFD243;" d="M41.469,303.565H7.631c-4.215,0-7.631-3.417-7.631-7.631s3.416-7.631,7.631-7.631h33.838
		c4.215,0,7.631,3.417,7.631,7.631S45.684,303.565,41.469,303.565z"/>
</g>
<g>
</g>
<g>
</g>
<g>
</g>
<g>
</g>
<g>
</g>
<g>
</g>
<g>
</g>
<g>
</g>
<g>
</g>
<g>
</g>
<g>
</g>
<g>
</g>
<g>
</g>
<g>
</g>
<g>
</g>
</svg>
