<svg width="21" height="21" viewBox="0 0 21 21" fill="none" xmlns="http://www.w3.org/2000/svg">
<path d="M5.80762 1.72071C6.08106 1.81443 6.57325 1.97843 7.04981 2.16585C7.80762 2.46261 7.88575 2.44699 8.39356 1.80662C8.63575 1.50205 8.86231 1.18186 9.13575 0.908532C9.70606 0.346252 10.3154 0.346252 10.8857 0.916342C11.2061 1.23653 11.4639 1.61138 11.7529 1.97062C12.1123 2.41576 12.2061 2.44699 12.7529 2.25176C13.0967 2.12681 13.4248 1.97062 13.7686 1.86129C14.8623 1.49424 15.4717 1.8769 15.6357 3.01708C15.6826 3.3607 15.7451 3.71213 15.7764 4.06355C15.8154 4.47745 16.0186 4.68831 16.4404 4.73516C16.9014 4.78983 17.3701 4.8445 17.8232 4.95383C18.6357 5.14906 18.9561 5.71134 18.7217 6.50791C18.5967 6.94524 18.4092 7.35914 18.2295 7.78085C18.0576 8.17132 18.1123 8.47589 18.4795 8.72579C18.7373 8.8976 18.9795 9.10065 19.2217 9.29588C20.2607 10.1315 20.2686 10.8734 19.2295 11.7012C19.0029 11.8808 18.7764 12.0448 18.5498 12.2244C18.0576 12.6149 18.0342 12.7008 18.2608 13.2787C18.4092 13.6536 18.5732 14.0206 18.6982 14.4033C18.9795 15.2857 18.667 15.848 17.7686 16.0667C17.3389 16.1682 16.8936 16.2072 16.4561 16.2775C15.9404 16.3556 15.8623 16.4415 15.7764 16.9726C15.7061 17.4255 15.6592 17.8785 15.5576 18.3158C15.3623 19.128 14.8545 19.4325 14.042 19.2139C13.6201 19.0967 13.2139 18.9171 12.7998 18.7609C12.2451 18.5501 12.1436 18.5657 11.7607 19.0265C11.5029 19.331 11.2764 19.6746 11.0029 19.9714C10.3389 20.6977 9.667 20.6899 9.00293 19.9636C8.7295 19.6668 8.50293 19.331 8.24512 19.0186C7.90137 18.5891 7.79981 18.5579 7.27637 18.7453C6.99512 18.8468 6.72168 18.9718 6.44043 19.0733C6.2295 19.1514 6.01856 19.2217 5.80762 19.2529C5.09668 19.3701 4.64356 19.0967 4.46387 18.3939C4.34668 17.9175 4.28418 17.4255 4.22168 16.9335C4.17481 16.5352 3.9795 16.3322 3.58106 16.2853C3.15137 16.2385 2.7295 16.1916 2.30762 16.0979C1.36231 15.8636 1.02637 15.2779 1.33106 14.3486C1.45606 13.9659 1.62793 13.5989 1.76856 13.224C1.96387 12.7086 1.93262 12.5993 1.51075 12.2557C1.26856 12.0604 1.01075 11.8808 0.768558 11.6778C-0.25488 10.8578 -0.25488 10.1159 0.760745 9.29588C0.987308 9.11627 1.21387 8.94446 1.44043 8.77265C1.94825 8.36656 1.97168 8.28065 1.74512 7.68714C1.59668 7.31228 1.43262 6.94524 1.31543 6.56257C1.042 5.69573 1.3545 5.13345 2.2295 4.9304C2.65918 4.82888 3.1045 4.78202 3.53418 4.71954C4.07325 4.63364 4.14356 4.56335 4.2295 4.00888C4.29981 3.53251 4.3545 3.05613 4.47168 2.58756C4.63575 1.97843 5.01856 1.7051 5.80762 1.72071ZM14.3623 11.0062C14.5107 11.4435 14.6436 11.8027 14.7607 12.1698C14.8389 12.4197 14.9482 12.6461 15.2451 12.6383C15.5498 12.6305 15.6436 12.3884 15.7061 12.1385C15.8701 11.4669 16.0342 10.8031 16.1982 10.1315C16.2998 9.70197 16.417 9.28026 16.5107 8.84293C16.5654 8.57741 16.4482 8.33532 16.1748 8.33532C16.0107 8.33532 15.8076 8.51494 15.6904 8.66332C15.5889 8.79608 15.5967 9.00693 15.5498 9.18655C15.4326 9.63169 15.3232 10.069 15.2061 10.5063C15.042 10.2486 14.9561 10.0065 14.8779 9.76445C14.792 9.50674 14.7451 9.21779 14.3779 9.20998C13.9873 9.20217 13.9404 9.51455 13.8467 9.78007C13.7607 10.0378 13.6748 10.2877 13.5576 10.6391C13.3779 9.92845 13.2217 9.31931 13.0654 8.70236C12.9951 8.42903 12.8311 8.24942 12.5342 8.32751C12.2373 8.3978 12.1592 8.63208 12.2295 8.90541C12.5029 10.0144 12.7686 11.1233 13.0811 12.2244C13.1279 12.3884 13.3545 12.5915 13.5186 12.6149C13.6436 12.6305 13.8623 12.4119 13.9326 12.2479C14.0889 11.8808 14.1982 11.4825 14.3623 11.0062ZM6.97168 10.8812C6.8545 10.7406 6.792 10.6782 6.74512 10.6079C6.25293 9.95188 5.76075 9.29588 5.26856 8.63989C5.12012 8.43684 4.96387 8.2338 4.667 8.33532C4.37012 8.43684 4.37793 8.69456 4.37793 8.95227C4.37793 9.51455 4.37793 10.069 4.37793 10.6313C4.37793 11.1389 4.37793 11.6465 4.37793 12.1541C4.37793 12.4275 4.50293 12.6227 4.77637 12.6383C5.07325 12.6539 5.21387 12.4509 5.23731 12.1698C5.24512 12.0136 5.24512 11.8574 5.24512 11.7012C5.24512 11.1936 5.24512 10.686 5.24512 10.1705C5.88575 10.9046 6.44043 11.6621 7.01856 12.3884C7.12012 12.5212 7.39356 12.6383 7.53418 12.5915C7.67481 12.5446 7.80762 12.2947 7.83106 12.1229C7.87012 11.7012 7.84668 11.2639 7.84668 10.8343C7.84668 10.1471 7.86231 9.45207 7.83106 8.76484C7.82325 8.61646 7.667 8.41341 7.51856 8.34313C7.417 8.29627 7.18262 8.38999 7.08887 8.49151C7.00293 8.58522 6.98731 8.78046 6.98731 8.92884C6.96387 9.55359 6.97168 10.1705 6.97168 10.8812ZM9.6045 9.17093C10.0186 9.17093 10.4092 9.17093 10.792 9.17093C11.0811 9.17093 11.292 9.0616 11.2998 8.75703C11.3076 8.43684 11.0811 8.30408 10.7842 8.30408C10.2764 8.29627 9.76856 8.30408 9.26075 8.30408C8.89356 8.30408 8.69825 8.4837 8.69825 8.85074C8.69825 9.94407 8.69825 11.0296 8.69825 12.1229C8.69825 12.4665 8.87794 12.6539 9.2295 12.6539C9.75294 12.6539 10.2686 12.6539 10.792 12.6539C11.0732 12.6539 11.292 12.529 11.2998 12.2322C11.3076 11.912 11.0811 11.7871 10.7764 11.7949C10.3936 11.8027 10.0029 11.7949 9.59668 11.7949C9.59668 11.4825 9.59668 11.217 9.59668 10.9202C10.0029 10.9202 10.3779 10.9202 10.7451 10.9202C11.0342 10.9202 11.2842 10.8265 11.292 10.4985C11.2998 10.1471 11.0342 10.0534 10.7295 10.0534C10.3545 10.0534 9.9795 10.0534 9.58887 10.0534C9.6045 9.73321 9.6045 9.46769 9.6045 9.17093Z" fill="url(#paint0_linear_743_770)"/>
<defs>
<linearGradient id="paint0_linear_743_770" x1="0.00448448" y1="1.66715" x2="11.9833" y2="21.028" gradientUnits="userSpaceOnUse">
<stop offset="0.450755" stop-color="#6EF657"/>
<stop offset="0.763273" stop-color="#A430FF"/>
</linearGradient>
</defs>
</svg>
