<svg id="svg8" height="512" viewBox="0 0 16.933333 16.933333" width="512" xmlns="http://www.w3.org/2000/svg" xmlns:xlink="http://www.w3.org/1999/xlink" xmlns:svg="http://www.w3.org/2000/svg" fill="#fff"><linearGradient id="linearGradient849" gradientUnits="userSpaceOnUse" x1="8.467" x2="8.467" y1="295.942" y2="281.125"><stop id="stop844" offset="0" stop-color="#ed1e79"/><stop id="stop846" offset="1" stop-color="#662dbc"/></linearGradient><g id="layer1" transform="translate(0 -280.067)"><path id="path828" d="m3.2382812 280.5957c-.894139-.0353-1.6503906.69395-1.6503906 1.58789v1.0586a.5292969.5292969 0 1 0 1.0585938 0v-1.0586c0-.30821.2417341-.54141.5488281-.52929.087362.003.1749449.028.2519531.0742l10.5839844 6.3496c.364026.21839.364026.69177 0 .91016l-10.5839844 6.34961c-.3742238.22451-.8007812-.0182-.8007812-.45508v-8.46679a.5292969.5292969 0 1 0 -1.0585938 0v8.46679c0 1.20681 1.3670562 1.98242 2.4023438 1.36133l10.5839846-6.34961c1.008117-.60479 1.008117-2.11786 0-2.72265l-10.5839846-6.34959c-.227307-.1364-.4847366-.21603-.7519532-.22657z" fill="#fff" font-variant-ligatures="normal" font-variant-position="normal" font-variant-caps="normal" font-variant-numeric="normal" font-variant-alternates="normal" font-feature-settings="normal" text-indent="0" text-align="start" text-decoration-line="none" text-decoration-style="solid" text-decoration-color="#000000" text-transform="none" text-orientation="mixed" white-space="normal" shape-padding="0" isolation="auto" mix-blend-mode="normal" solid-color="#000000" solid-opacity="1" vector-effect="none"/></g></svg>