<svg width="14" height="14" viewBox="0 0 14 14" fill="none" xmlns="http://www.w3.org/2000/svg">
<path d="M0 13.1242C0 10.5904 0 8.05658 0 5.52277C0.00596892 5.51531 0.0149223 5.50934 0.0164145 5.50188C0.185036 4.92439 0.523773 4.66772 1.12066 4.66772C5.03926 4.66772 8.95786 4.66772 12.8765 4.66922C12.9809 4.66922 13.0883 4.66922 13.1883 4.6916C13.6823 4.79904 13.9986 5.20642 13.9986 5.73318C14.0001 8.11179 13.9986 10.4904 13.9986 12.869C13.9986 13.5823 13.5823 14.0001 12.872 14.0001C9.90095 14.0001 6.92992 14.0001 3.96038 14.0001C2.99043 14.0001 2.01899 14.0016 1.04904 14.0001C0.546156 13.9986 0.156684 13.6972 0.0268601 13.2137C0.019399 13.1839 0.00895338 13.154 0 13.1242ZM12.2497 9.3384C12.2497 8.72361 12.2512 8.10881 12.2497 7.49401C12.2482 6.85086 11.8229 6.42109 11.1813 6.4196C10.1427 6.41662 9.10409 6.41662 8.0655 6.4196C7.42534 6.42109 7.00005 6.85384 7.00005 7.49699C6.99856 8.72211 6.99856 9.94723 7.00005 11.1724C7.00005 11.817 7.43429 12.2497 8.08192 12.2497C9.11156 12.2512 10.1412 12.2512 11.1693 12.2497C11.817 12.2497 12.2482 11.817 12.2482 11.1694C12.2497 10.559 12.2497 9.94873 12.2497 9.3384ZM3.78579 7.87453C4.30508 7.87453 4.82438 7.87453 5.34368 7.87453C5.63317 7.87453 5.83014 7.69546 5.83014 7.43581C5.83014 7.17766 5.63317 7.00008 5.34069 7.00008C4.30658 7.00008 3.27246 7.00008 2.23834 7.00008C1.95034 7.00008 1.74889 7.18213 1.75039 7.43879C1.75188 7.69397 1.95184 7.87453 2.24133 7.87453C2.75615 7.87602 3.27097 7.87453 3.78579 7.87453ZM3.78877 9.62491C4.30359 9.62491 4.81841 9.62491 5.33323 9.62491C5.63317 9.62491 5.83163 9.44734 5.82865 9.18172C5.82567 8.92356 5.62869 8.74897 5.33621 8.74897C4.30658 8.74897 3.27694 8.74897 2.2473 8.74897C2.19358 8.74897 2.13687 8.74897 2.08465 8.7624C1.87126 8.81463 1.728 9.01907 1.75039 9.23096C1.77426 9.44883 1.9593 9.62044 2.1891 9.62193C2.72332 9.6264 3.25605 9.62491 3.78877 9.62491ZM3.78728 10.4994C3.27246 10.4994 2.75764 10.4994 2.24282 10.4994C1.95333 10.4994 1.75188 10.6784 1.75039 10.9336C1.74889 11.1918 1.95034 11.3738 2.23834 11.3738C3.27246 11.3738 4.30658 11.3738 5.34069 11.3738C5.63168 11.3738 5.82865 11.1977 5.83014 10.9381C5.83163 10.6784 5.63466 10.4994 5.34517 10.4994C4.82587 10.4994 4.30658 10.4994 3.78728 10.4994Z" fill="white"/>
<path d="M0 2.65169C0 2.05032 0 1.44896 0 0.847587C0.0164145 0.801327 0.0343213 0.756561 0.0507358 0.710301C0.143254 0.432747 0.319337 0.228311 0.584954 0.102964C0.668519 0.0626737 0.759545 0.0343213 0.847586 0C4.94973 0 9.05037 0 13.1525 0C13.163 0.00746115 13.1734 0.0179068 13.1853 0.0223834C13.73 0.176083 14.0001 0.532726 14.0001 1.10127C14.0001 1.52954 14.0001 1.95781 14.0001 2.38608C14.0001 3.07996 13.5793 3.49928 12.8854 3.50077C11.3812 3.50077 9.87856 3.50077 8.37439 3.50077C5.93609 3.50077 3.49928 3.50077 1.06098 3.50077C0.550633 3.50077 0.162653 3.2068 0.0298446 2.7263C0.0223834 2.69944 0.0104456 2.67706 0 2.65169Z" fill="white"/>
<path d="M12.2493 9.3384C12.2493 9.94872 12.2508 10.559 12.2493 11.1694C12.2478 11.817 11.8165 12.2482 11.1704 12.2497C10.1408 12.2512 9.11113 12.2512 8.08299 12.2497C7.43536 12.2497 7.00112 11.817 7.00112 11.1723C6.99963 9.94723 6.99963 8.72211 7.00112 7.49699C7.00112 6.85384 7.4279 6.42109 8.06657 6.4196C9.10516 6.41661 10.1438 6.41661 11.1823 6.4196C11.824 6.42109 12.2493 6.85085 12.2508 7.494C12.2508 8.1088 12.2493 8.7236 12.2493 9.3384Z" fill="#2C2F36"/>
<path d="M3.78541 7.87451C3.27059 7.87451 2.75577 7.87451 2.24095 7.87451C1.95146 7.87451 1.75001 7.69395 1.75001 7.43878C1.74852 7.18211 1.94997 7.00006 2.23797 7.00006C3.27208 7.00006 4.3062 7.00006 5.34031 7.00006C5.6313 7.00006 5.82827 7.17764 5.82976 7.43579C5.82976 7.69544 5.63279 7.87451 5.3433 7.87451C4.824 7.876 4.30471 7.87451 3.78541 7.87451Z" fill="#2C2F36"/>
<path d="M3.78822 9.62493C3.25549 9.62493 2.72276 9.62642 2.19004 9.62343C1.96023 9.62194 1.7752 9.45183 1.75132 9.23247C1.72894 9.01908 1.87219 8.81614 2.08558 8.76391C2.13781 8.75048 2.19451 8.75048 2.24823 8.75048C3.27787 8.75048 4.30751 8.74899 5.33715 8.75048C5.62963 8.75048 5.8266 8.92507 5.82959 9.18323C5.83257 9.44735 5.6341 9.62493 5.33417 9.62642C4.81785 9.62493 4.30304 9.62493 3.78822 9.62493Z" fill="#2C2F36"/>
<path d="M3.7869 10.4993C4.3062 10.4993 4.82549 10.4993 5.34479 10.4993C5.63428 10.4993 5.83126 10.6799 5.82976 10.938C5.82827 11.1962 5.6313 11.3738 5.34031 11.3738C4.3062 11.3738 3.27208 11.3738 2.23797 11.3738C1.94997 11.3738 1.74852 11.1902 1.75001 10.9336C1.7515 10.6784 1.95295 10.4993 2.24244 10.4993C2.75726 10.4993 3.27208 10.4993 3.7869 10.4993Z" fill="#2C2F36"/>
</svg>
