<svg id="svg17040" height="512" viewBox="0 0 16.933333 16.933334" width="512" xmlns="http://www.w3.org/2000/svg" xmlns:svg="http://www.w3.org/2000/svg"><g id="layer1" transform="translate(0 -280.067)"><path id="path11458" d="m5.5562537 280.59633c-.7283198 0-1.3223999.59408-1.3223999 1.3224v1.3224h-2.1171799c-.43516 0-.79324.35962-.79324.79478v2.11512h14.2869891v-2.11512c0-.43515-.359629-.79478-.794789-.79478h-2.115111v-1.3224c0-.72832-.59616-1.3224-1.324469-1.3224z" fill="#e86262" font-variant-ligatures="normal" font-variant-position="normal" font-variant-caps="normal" font-variant-numeric="normal" font-variant-alternates="normal" font-feature-settings="normal" text-indent="0" text-align="start" text-decoration-line="none" text-decoration-style="solid" text-decoration-color="#000000" text-transform="none" text-orientation="mixed" white-space="normal" shape-padding="0" isolation="auto" mix-blend-mode="normal" solid-color="#000000" solid-opacity="1" vector-effect="none"/><path id="path4148" d="m1.3234339 287.20988v7.9375h14.2869891v-7.9375z" fill="#dbe9ee" font-variant-ligatures="normal" font-variant-position="normal" font-variant-caps="normal" font-variant-numeric="normal" font-variant-alternates="normal" font-feature-settings="normal" text-indent="0" text-align="start" text-decoration-line="none" text-decoration-style="solid" text-decoration-color="#000000" text-transform="none" text-orientation="mixed" white-space="normal" shape-padding="0" isolation="auto" mix-blend-mode="normal" solid-color="#000000" solid-opacity="1" vector-effect="none"/><path id="path4193" d="m5.821874 281.91873v3.17604c.0005291.14531.1182399.26296.2635498.26355h4.7614602c.14612.00052.26504-.11743.265619-.26355v-3.17604c-.000529-.14612-.119499-.26411-.265619-.26355h-4.7741202c-.14801.0136-.25102.12753-.2508898.26355z" fill="#e6b57c" font-variant-ligatures="normal" font-variant-position="normal" font-variant-caps="normal" font-variant-numeric="normal" font-variant-alternates="normal" font-feature-settings="normal" text-indent="0" text-align="start" text-decoration-line="none" text-decoration-style="solid" text-decoration-color="#000000" text-transform="none" text-orientation="mixed" white-space="normal" shape-padding="0" isolation="auto" mix-blend-mode="normal" solid-color="#000000" solid-opacity="1" vector-effect="none"/><path id="path4200" d="m5.9231538 282.1275 2.3807399 1.85157c.0955.0741.2290501.0741.32453 0l2.3828003-1.85157c.19718-.15563.0869-.4727-.16434-.47232h-4.7741202c-.2509499.023-.3386299.32542-.14961.47232z" fill="#fdd5a6" font-variant-ligatures="normal" font-variant-position="normal" font-variant-caps="normal" font-variant-numeric="normal" font-variant-alternates="normal" font-feature-settings="normal" text-indent="0" text-align="start" text-decoration-line="none" text-decoration-style="solid" text-decoration-color="#000000" text-transform="none" text-orientation="mixed" white-space="normal" shape-padding="0" isolation="auto" mix-blend-mode="normal" solid-color="#000000" solid-opacity="1" vector-effect="none"/><path id="path4134" d="m.79427387 285.88748c-.14617-.00056-.26511.1175-.26563.26367v1.0586c-.0005609.14693.11869.26619.26563.26562h15.34569913c.146171-.00053.264231-.11945.26367-.26562v-1.0586c-.000502-.14541-.11826-.26315-.26367-.26367z" fill="#ff6b6b" font-variant-ligatures="normal" font-variant-position="normal" font-variant-caps="normal" font-variant-numeric="normal" font-variant-alternates="normal" font-feature-settings="normal" text-indent="0" text-align="start" text-decoration-line="none" text-decoration-style="solid" text-decoration-color="#000000" text-transform="none" text-orientation="mixed" white-space="normal" shape-padding="0" isolation="auto" mix-blend-mode="normal" solid-color="#000000" solid-opacity="1" vector-effect="none"/><path id="path12401" d="m2.3821639 288.79764v6.34961h4.76172v-6.34961c-.0005291-.14618-.1194601-.26424-.26563-.26368h-4.24609c-.14831.0145-.2503.12826-.25.26368z" fill="#33658a" font-variant-ligatures="normal" font-variant-position="normal" font-variant-caps="normal" font-variant-numeric="normal" font-variant-alternates="normal" font-feature-settings="normal" text-indent="0" text-align="start" text-decoration-line="none" text-decoration-style="solid" text-decoration-color="#000000" text-transform="none" text-orientation="mixed" white-space="normal" shape-padding="0" isolation="auto" mix-blend-mode="normal" solid-color="#000000" solid-opacity="1" vector-effect="none"/><path id="path12397" d="m3.6770839 289.59256a.26460982.26460982 0 0 0 -.23828.26367v3.17578a.26460982.26460982 0 0 0 .26562.26367h2.11719a.26460982.26460982 0 0 0 .26367-.26367v-3.17578a.26460982.26460982 0 0 0 -.26367-.26367h-2.11719a.26460982.26460982 0 0 0 -.0273 0z" fill="#33b9ef" font-variant-ligatures="normal" font-variant-position="normal" font-variant-caps="normal" font-variant-numeric="normal" font-variant-alternates="normal" font-feature-settings="normal" text-indent="0" text-align="start" text-decoration-line="none" text-decoration-style="solid" text-decoration-color="#000000" text-transform="none" text-orientation="mixed" white-space="normal" shape-padding="0" isolation="auto" mix-blend-mode="normal" solid-color="#000000" solid-opacity="1" vector-effect="none"/><path id="path12393" d="m7.9114539 288.53396a.26460982.26460982 0 0 0 -.23828.26368v4.76367a.26460982.26460982 0 0 0 .26368.26367h6.3515591a.26460982.26460982 0 0 0 .26367-.26367v-4.76367a.26460982.26460982 0 0 0 -.26367-.26368h-6.3515591a.26460982.26460982 0 0 0 -.0254 0z" fill="#33658a" font-variant-ligatures="normal" font-variant-position="normal" font-variant-caps="normal" font-variant-numeric="normal" font-variant-alternates="normal" font-feature-settings="normal" text-indent="0" text-align="start" text-decoration-line="none" text-decoration-style="solid" text-decoration-color="#000000" text-transform="none" text-orientation="mixed" white-space="normal" shape-padding="0" isolation="auto" mix-blend-mode="normal" solid-color="#000000" solid-opacity="1" vector-effect="none"/><path id="path12010-1-2-4" d="m8.2026038 289.06352v4.23229h2.6442802v-4.23229zm3.1734502 0v4.23229h2.64687v-4.23229z" fill="#33b9ef" font-variant-ligatures="normal" font-variant-position="normal" font-variant-caps="normal" font-variant-numeric="normal" font-variant-alternates="normal" font-feature-settings="normal" text-indent="0" text-align="start" text-decoration-line="none" text-decoration-style="solid" text-decoration-color="#000000" text-transform="none" text-orientation="mixed" white-space="normal" shape-padding="0" isolation="auto" mix-blend-mode="normal" solid-color="#000000" solid-opacity="1" vector-effect="none"/><path id="path4142" d="m.79427387 294.88357c-.14617-.00055-.26511.1175-.26563.26368v1.05859c-.0005609.14693.11869.26619.26563.26562h15.34569913c.146171-.00053.264231-.11945.26367-.26562v-1.05859c-.000502-.14541-.11826-.26316-.26367-.26368z" fill="#ff6b6b" font-variant-ligatures="normal" font-variant-position="normal" font-variant-caps="normal" font-variant-numeric="normal" font-variant-alternates="normal" font-feature-settings="normal" text-indent="0" text-align="start" text-decoration-line="none" text-decoration-style="solid" text-decoration-color="#000000" text-transform="none" text-orientation="mixed" white-space="normal" shape-padding="0" isolation="auto" mix-blend-mode="normal" solid-color="#000000" solid-opacity="1" vector-effect="none"/></g></svg>