<svg id="Capa_1" enable-background="new 0 0 512 512" height="512" viewBox="0 0 512 512" width="512" xmlns="http://www.w3.org/2000/svg"><path d="m223.671 245.877 19.263-19.263c5.512-5.512 14.846-3.269 17.339 4.117 2.023 5.995 5.641 11.57 10.854 16.064 13.665 11.78 34.274 11.724 47.879-.126 16.189-14.099 16.823-38.684 1.902-53.605-4.141-4.141-9.026-7.083-14.224-8.827-7.363-2.471-9.549-11.825-4.057-17.317l11.008-11.008 8.256-8.257c3.546-3.546 3.547-9.295.001-12.841-20.169-20.168-81.213-81.213-86.133-86.133-8.178-8.179-21.438-8.179-29.616 0l-96.255 96.255 31.046 73.994 76.315 33.367z" fill="#55dafe"/><path d="m258.527 71.448-22.766-22.766c-8.178-8.179-21.438-8.179-29.617 0l-96.255 96.255 48.225 48.225c16.439-52.417 52.894-95.974 100.413-121.714z" fill="#2ed0fc"/><path d="m197.848 213.199c4.302-2.048 8.287-4.982 11.681-8.805 12.119-13.651 12.228-34.543.236-48.307-7.536-8.649-18.066-12.852-28.514-12.617-9.1.205-18.14 3.776-25.085 10.721-3.014 3.014-5.392 6.423-7.135 10.059-3.136 6.542-11.745 8.081-16.875 2.952l-22.266-22.266-96.255 96.255c-8.179 8.178-8.179 21.438 0 29.617l92.553 92.553 67.405-41.636 43.658-69.427-22.267-22.267c-5.101-5.101-3.649-13.732 2.864-16.832z" fill="#00ce8e"/><path d="m181.25 143.471c-9.1.205-18.14 3.776-25.085 10.721-3.014 3.014-5.392 6.423-7.135 10.059-3.136 6.542-11.745 8.081-16.875 2.952l-22.266-22.266-96.255 96.255c-8.179 8.178-8.179 21.438 0 29.617l92.553 92.553 50.226-50.226c-5.131-18.165-7.88-37.329-7.88-57.135 0-41.41 12.005-80.013 32.717-112.53z" fill="#00c084"/><path d="m300.494 335.541c-5.101-5.101-13.733-3.648-16.833 2.865-2.048 4.304-4.985 8.29-8.81 11.685-13.654 12.116-34.546 12.221-48.306.226-16.177-14.101-16.807-38.677-1.89-53.594 3.031-3.031 6.461-5.419 10.121-7.165 6.522-3.111 7.999-11.736 2.889-16.845l-20.415-20.415c-.971.971-11.48 11.48-25.686 25.686-5.518 5.517-14.845 3.253-17.345-4.139-2.025-5.987-5.64-11.555-10.848-16.044-4.362-3.76-9.432-6.308-14.754-7.658-11.354-2.879-23.862-.284-33.125 7.784-16.189 14.099-16.823 38.684-1.902 53.604 4.139 4.139 9.022 7.081 14.219 8.825 7.365 2.472 9.553 11.828 4.06 17.321-13.251 13.252-23.369 23.37-25.683 25.683l99.957 99.957c8.178 8.179 21.438 8.178 29.616 0l22.767-22.766 64.654-64.654c4.88-4.88 4.88-12.791 0-17.67z" fill="#ffcf5d"/><path d="m148.618 250.143c-11.354-2.879-23.862-.283-33.125 7.784-16.189 14.099-16.823 38.684-1.902 53.604 4.14 4.14 9.025 7.082 14.223 8.827 7.364 2.471 9.551 11.825 4.058 17.318-13.253 13.253-23.372 23.371-25.685 25.685l99.957 99.957c8.179 8.179 21.438 8.178 29.617 0l22.766-22.766c-68.838-37.288-112.104-110.207-109.909-190.409z" fill="#ffb357"/><path d="m483.558 147.134h-132.282c-5.015 0-9.08 4.065-9.08 9.08 0 .873 0 27.855 0 27.245 0 7.766 8.16 12.836 15.114 9.376 25.071-12.473 54.828 6.895 52.859 35.433-1.763 25.558-29.246 41.903-52.772 30.275-7-3.46-15.2 1.527-15.2 9.335 0 .245 0 27.477 0 27.243 0 5.015 4.065 9.08 9.08 9.08h19.67c7.198 0 12.432 7.098 10.016 13.878-8.816 24.742 10.6 50.683 37.124 48.859 18.211-1.252 32.908-16.102 33.99-34.325.3-5.033-.419-9.861-1.968-14.299-2.404-6.888 2.516-14.114 9.812-14.114h23.754c11.501 0 20.825-9.324 20.825-20.825v-115.3c0-11.565-9.376-20.941-20.942-20.941z" fill="#ff8e9e"/><path d="m351.276 147.134c-5.015 0-9.08 4.065-9.08 9.08 0 .873 0 27.855 0 27.245 0 7.767 8.16 12.836 15.113 9.376 13.229-6.582 27.759-4.292 38.248 3.527 2.446-17.392 7.515-33.939 14.805-49.228z" fill="#ec6b7e"/><path d="m397.168 253.683c-10.543 8.824-25.849 11.742-39.771 4.86-7-3.459-15.2 1.527-15.2 9.335 0 .245 0 27.477 0 27.243 0 5.015 4.065 9.08 9.079 9.08h19.67c7.198 0 12.433 7.098 10.017 13.878-8.816 24.742 10.6 50.683 37.124 48.859 13.656-.939 25.336-9.524 30.781-21.444-25.998-23.912-44.528-55.812-51.7-91.811z" fill="#ec6b7e"/><g fill="#ff8e9e"><path d="m202.214 124.122c-7.011 6.967-19.787 5.478-28.536-3.326s-10.158-21.589-3.147-28.556 19.787-5.478 28.536 3.326 10.158 21.589 3.147 28.556z"/><path d="m243.669 165.918c-7.011 6.967-5.602 19.752 3.147 28.556s21.525 10.293 28.536 3.326 5.602-19.753-3.147-28.557c-8.749-8.803-21.525-10.292-28.536-3.325z"/><path d="m168.857 373.433c-7.011 6.967-19.787 5.478-28.536-3.326s-10.158-21.589-3.147-28.556 19.787-5.478 28.536 3.326c8.75 8.804 10.159 21.589 3.147 28.556z"/><path d="m210.313 415.229c-7.011 6.967-5.602 19.752 3.147 28.556s21.525 10.293 28.536 3.326 5.602-19.753-3.147-28.557c-8.749-8.803-21.525-10.292-28.536-3.325z"/></g><path d="m305.783 330.237c-8.754-8.75-23.585-6.235-28.907 4.945-1.681 3.53-4.041 6.659-7.016 9.299-10.91 9.679-27.417 9.758-38.401.182-12.862-11.209-13.43-30.721-1.515-42.637 2.358-2.359 5.066-4.276 8.047-5.698 11.177-5.333 13.73-20.155 4.964-28.919l-15.112-15.111 20.381-20.381c1.571-1.574 4.208-.924 4.929 1.212 10.059 29.804 47.351 39.589 70.766 19.195 25.874-22.534 17.302-64.403-14.862-75.198-2.086-.7-2.701-3.34-1.138-4.902l19.263-19.265c6.481-6.479 6.482-16.967.001-23.448-20.168-20.168-81.213-81.212-86.132-86.133-11.114-11.114-29.107-11.117-40.224 0-8.438 8.438-184.047 184.047-192.51 192.51-11.089 11.09-11.089 29.135 0 40.225 6.67 6.67 185.212 185.21 192.511 192.509 11.117 11.117 29.105 11.117 40.223.001l87.42-87.42c7.814-7.812 7.818-20.462.001-28.276zm-94.348-276.253c5.251-5.253 13.754-5.253 19.009 0 4.919 4.92 65.964 65.966 86.133 86.134.62.618.619 1.615-.001 2.233l-19.264 19.265c-9.43 9.432-5.667 25.491 6.974 29.73 21.177 7.106 26.905 34.754 9.782 49.666-15.173 13.21-39.953 7.316-46.701-12.68-4.279-12.68-20.322-16.449-29.749-7.022l-20.381 20.38-16.962-16.962c-1.45-1.449-1.045-3.887.785-4.758 5.354-2.55 10.086-6.115 14.064-10.597 14.675-16.529 14.796-41.556.282-58.213-17.18-19.721-46.823-20.007-64.558-2.272-3.55 3.551-6.441 7.629-8.595 12.12-.918 1.918-3.362 2.337-4.808.891l-16.963-16.963zm-192.511 211.521c-2.539-2.539-3.938-5.914-3.938-9.505s1.398-6.966 3.938-9.505l90.951-90.952 16.964 16.964c8.775 8.771 23.573 6.182 28.941-5.014 1.418-2.96 3.327-5.65 5.674-7.998 11.689-11.687 31.248-11.559 42.643 1.52 9.572 10.987 9.49 27.495-.19 38.4-2.639 2.972-5.767 5.331-9.295 7.012-11.173 5.319-13.703 20.148-4.945 28.908l16.964 16.963-20.382 20.382c-1.575 1.573-4.209.916-4.938-1.238-2.52-7.45-7.033-14.132-13.054-19.321-16.482-14.21-41.289-14.145-57.703.151-19.736 17.188-20.018 46.824-2.28 64.563 4.876 4.875 10.642 8.453 17.138 10.633 2.09.702 2.704 3.344 1.142 4.906 0 0-.001 0-.001.001l-20.379 20.38zm298.94 105.09-87.419 87.42c-5.253 5.253-13.757 5.255-19.01 0l-94.654-94.654 20.379-20.38c9.435-9.435 5.662-25.495-6.977-29.733-4.277-1.436-8.08-3.797-11.303-7.02-11.908-11.908-11.355-31.424 1.525-42.645 10.825-9.429 27.186-9.473 38.058-.102 3.99 3.44 6.978 7.854 8.638 12.764 4.289 12.687 20.322 16.47 29.754 7.042l20.382-20.383 15.112 15.112c1.453 1.452 1.036 3.89-.816 4.772-4.524 2.159-8.628 5.063-12.195 8.631-17.71 17.712-17.48 47.341 2.266 64.551 16.653 14.519 41.679 14.403 58.214-.271 4.486-3.981 8.054-8.715 10.603-14.07.88-1.846 3.323-2.22 4.758-.786l22.688 22.688c1.949 1.953 1.951 5.112-.003 7.064z"/><path d="m483.558 139.634h-132.282c-9.142 0-16.579 7.438-16.579 16.58v27.254.019c.021 13.336 14.039 21.994 25.954 16.063 19.992-9.949 43.6 5.551 42.036 28.201-1.382 20.027-23.02 33.432-41.967 24.068-12.012-5.933-26.023 2.717-26.023 16.059v27.243c0 9.143 7.438 16.58 16.579 16.58h19.671c1.998 0 3.632 1.953 2.95 3.86-10.234 28.728 11.135 58.967 41.624 58.965 23.553 0 42.677-18.463 44.042-41.466.352-5.903-.446-11.695-2.373-17.218-.694-1.99.575-4.142 2.73-4.142h23.755c15.618 0 28.324-12.706 28.324-28.324v-115.3c.001-15.683-12.758-28.442-28.441-28.442zm13.442 143.743c0 7.347-5.978 13.324-13.324 13.324h-23.755c-12.634 0-20.938 12.498-16.893 24.084 1.27 3.64 1.795 7.47 1.562 11.385-.864 14.557-12.479 26.287-27.018 27.286-21.435 1.471-36.453-19.466-29.545-38.859 4.138-11.61-4.666-23.896-17.08-23.896h-19.671c-.871 0-1.579-.709-1.579-1.578v-27.245c0-2.188 2.296-3.642 4.377-2.611 28.185 13.933 61.439-5.501 63.578-36.482 2.361-34.222-33.306-57.779-63.683-42.664-1.974.983-4.272-.457-4.272-2.662v-27.244c0-.871.708-1.58 1.579-1.58h132.281c7.412 0 13.442 6.03 13.442 13.442v115.3z"/><path d="m207.65 104.449 7.071-7.071c2.929-2.929 2.929-7.678 0-10.606-2.929-2.929-7.678-2.929-10.606 0l-7.071 7.071c-2.929 2.929-2.929 7.678 0 10.606 2.929 2.929 7.678 2.929 10.606 0z"/><path d="m274.119 170.918 7.071-7.071c2.929-2.929 2.929-7.678 0-10.607s-7.678-2.929-10.607 0l-7.071 7.071c-2.929 2.929-2.929 7.678 0 10.606 2.929 2.929 7.678 2.929 10.607.001z"/><path d="m251.16 149.705c3.906-1.378 5.954-5.663 4.575-9.568-1.378-3.908-5.664-5.955-9.569-4.576-3.641 1.286-7.796.314-10.584-2.474-2.789-2.789-3.759-6.943-2.474-10.585 1.379-3.906-.67-8.19-4.575-9.569-3.906-1.379-8.19.669-9.569 4.576-3.198 9.057-.838 19.335 6.011 26.185s17.127 9.209 26.185 6.011z"/><path d="m170.759 336.083-7.071 7.071c-2.929 2.929-2.929 7.678 0 10.606 2.929 2.929 7.678 2.929 10.607 0l7.071-7.071c2.929-2.929 2.929-7.678 0-10.606s-7.679-2.929-10.607 0z"/><path d="m237.227 402.551-7.071 7.071c-2.929 2.929-2.929 7.678 0 10.606 2.929 2.929 7.678 2.929 10.606 0l7.071-7.071c2.929-2.929 2.929-7.678 0-10.606-2.929-2.929-7.677-2.929-10.606 0z"/><path d="m212.81 384.873c-3.641 1.285-7.796.314-10.584-2.474-2.789-2.788-3.759-6.943-2.474-10.585 1.379-3.905-.67-8.189-4.575-9.568-3.906-1.379-8.19.669-9.569 4.575-3.198 9.058-.838 19.335 6.011 26.185 6.85 6.849 17.127 9.208 26.185 6.011 3.906-1.379 5.954-5.663 4.575-9.569-1.379-3.908-5.664-5.955-9.569-4.575z"/></svg>