<svg id="Capa_1" enable-background="new 0 0 512 512" height="512" viewBox="0 0 512 512" width="512" xmlns="http://www.w3.org/2000/svg"><path d="m329.518 504.5h-251.53c9.02-78.43 43.23-106.16 49.89-110.87h151.75c6.66 4.71 40.87 32.44 49.89 110.87z" fill="#b9e4ef"/><path d="m279.627 393.63-39.318 41.399-36.556-36.996-36.557 36.996-39.318-41.399" fill="#7ad0df"/><path d="m157.758 393.63c-4.04 4.71-24.77 32.44-30.24 110.87h-49.53c9.02-78.43 43.23-106.16 49.89-110.87z" fill="#7ad0df"/><path d="m330.062 307.533h.177c15.189 0 27.497-12.318 27.497-27.497 0-15.189-12.307-27.507-27.497-27.507-.198 0-.395 0-.593.01h-251.786c-.198-.01-.395-.01-.593-.01-15.189 0-27.497 12.318-27.497 27.507 0 15.179 12.307 27.497 27.497 27.497h.177" fill="#f1b986"/><path d="m342.419 255.38-186.76.8-92.74.39c-7.07-64.55-27.59-148.38 47.8-163.32 18.1-3.59 34.4-5.72 49.05-6.72 98.13-6.66 122.54 37.65 122.54 37.65s17.76-15.6 37.07-14.01c6.98.57 14.17 3.4 20.79 10.02 34.92 34.92 2.25 135.19 2.25 135.19z" fill="#665e66"/><path d="m319.379 110.17c-22.94 15.76-37.95 62.92-44.9 89.8-6.8-27.38 1.51-57.52 7.83-75.79 0 0 17.76-15.6 37.07-14.01z" fill="#454045"/><path d="m145.319 186.61 10.34 69.57-92.74.39c-7.07-64.55-27.59-148.38 47.8-163.32 18.1-3.59 34.4-5.72 49.05-6.72 0 .01-.01.01-.01.01-37.75 23.22-26.09 64.58-14.44 100.07z" fill="#454045"/><path d="m330.329 286.48c0 14.48-.37 28.97-1.11 43.45-1.85 36.2-30.82 65.02-67.04 66.73-25.32 1.2-50.65 1.61-75.97 1.25h-.01c-13.63-.19-27.25-.61-40.88-1.25-36.21-1.71-65.18-30.53-67.04-66.73-1.32-25.8-1.46-51.59-.43-77.39h.01c14.12-5.23 22.52-21.49 27.51-39.57 5.12-18.55 22.89-28.69 39.95-26.36 6.65.91 13.2 3.72 18.84 8.66 11.33 9.92 25.46 14.88 39.59 14.88s28.27-4.96 39.6-14.88c7.02-6.15 15.43-8.99 23.71-8.99 15.45 0 30.44 9.9 35.08 26.69 4.98 18.08 13.38 34.34 27.51 39.57.46 11.32.68 22.63.68 33.94z" fill="#f1d0a5"/><path d="m186.199 397.91c-13.63-.19-27.25-.61-40.88-1.25-36.21-1.71-65.18-30.53-67.04-66.73-1.32-25.8-1.46-51.59-.43-77.39h.01c14.12-5.23 22.52-21.49 27.51-39.57 5.12-18.55 22.89-28.69 39.95-26.36-12.95 115.63 0 210.03 40.88 211.3z" fill="#f1b986"/><circle cx="365.996" cy="103.735" fill="#f6e738" r="96.235"/><path d="m232.697 312.583c-3.742-1.777-8.215-.182-9.991 3.56-3.456 7.282-10.896 11.987-18.953 11.987s-15.497-4.705-18.953-11.987c-1.775-3.741-6.248-5.337-9.991-3.56-3.742 1.776-5.336 6.249-3.56 9.991 5.926 12.487 18.685 20.555 32.503 20.555s26.577-8.068 32.503-20.555c1.777-3.742.184-8.215-3.558-9.991z"/><ellipse cx="145.204" cy="270.378" rx="11.435" ry="17.027"/><path d="m262.302 253.351c-6.305 0-11.435 7.639-11.435 17.027s5.13 17.027 11.435 17.027 11.435-7.639 11.435-17.027-5.13-17.027-11.435-17.027z"/><path d="m366 0c-28.178 0-54.536 11.105-74.217 31.271-2.893 2.964-2.835 7.712.129 10.605 2.963 2.893 7.712 2.836 10.605-.129 16.835-17.247 39.381-26.747 63.483-26.747 48.926 0 88.73 39.809 88.73 88.74 0 48.926-39.804 88.73-88.73 88.73-48.932 0-88.74-39.804-88.74-88.73 0-12.386 2.502-24.365 7.438-35.605 1.665-3.792-.059-8.217-3.852-9.882-3.791-1.665-8.218.059-9.882 3.852-4.86 11.068-7.695 22.744-8.474 34.792-9.996-5.708-23.817-11.443-42.325-14.963-30.777-5.855-68.089-4.522-110.902 3.959-32.736 6.487-52.642 26.275-59.167 58.814-5.472 27.289-1.338 59.446 2.66 90.544.793 6.164 1.546 12.049 2.218 17.821-7.754 6.426-12.703 16.127-12.703 26.963 0 16.854 11.976 30.961 27.865 34.264.173 5.35.382 10.692.655 16.015 1.49 28.998 18.505 53.591 42.971 65.759-4.773 4.902-10.534 11.869-16.351 21.455-13.89 22.891-22.93 51.864-26.869 86.114-.245 2.125.43 4.252 1.853 5.848s3.46 2.509 5.598 2.509h251.53c2.138 0 4.174-.912 5.597-2.508 1.423-1.595 2.098-3.722 1.854-5.846-.798-6.969-1.825-13.792-3.052-20.28-.77-4.069-4.688-6.747-8.763-5.976-4.07.77-6.746 4.693-5.976 8.763.666 3.519 1.269 7.146 1.806 10.847h-35.908v-33.63c0-4.142-3.358-7.5-7.5-7.5s-7.5 3.358-7.5 7.5v33.631h-58.825v-80.706l23.722 24.007c1.41 1.427 3.331 2.229 5.335 2.229h.074c2.03-.02 3.966-.862 5.364-2.334l34.51-36.337c7.314 6.786 20.398 21.924 30.364 50.039 1.09 3.076 3.981 4.996 7.069 4.996.832 0 1.677-.139 2.506-.433 3.904-1.384 5.947-5.67 4.563-9.575-9.62-27.142-22.072-43.639-31.006-52.814 24.465-12.169 41.475-36.761 42.956-65.757.272-5.327.482-10.667.655-16.012 15.891-3.301 27.87-17.409 27.87-34.265 0-11.417-5.494-21.572-13.974-27.967 2.432-8.379 6.898-25.208 9.805-44.719 1.635.077 3.28.12 4.934.12 57.197 0 103.73-46.533 103.73-103.73-.003-57.204-46.536-103.742-103.733-103.742zm-308.73 280.036c0-8.481 5.311-15.729 12.773-18.635-.36 12.359-.446 24.771-.273 37.16-7.32-2.973-12.5-10.15-12.5-18.525zm80.157 216.964v-33.63c0-4.142-3.358-7.5-7.5-7.5s-7.5 3.358-7.5 7.5v33.63h-35.902c8.237-56.945 30.031-83.346 40.706-93.161l34.527 36.355c1.398 1.472 3.333 2.314 5.364 2.334 2.012.022 3.982-.783 5.409-2.228l23.722-24.007v80.707zm10.92-92.709c12.491.555 25.031.923 37.59 1.102l-18.634 18.858zm91.855 19.96-18.634-18.858c12.561-.178 25.101-.546 37.59-1.102zm21.623-35.083c-19.263.91-38.663 1.365-58.064 1.365-.003 0-.006 0-.009 0s-.006 0-.009 0c-19.401 0-38.803-.455-58.07-1.365-32.483-1.534-58.236-27.167-59.904-59.622-1.222-23.885-1.422-48.124-.597-72.118 12.28-6.701 21.492-20.954 27.425-42.465 2.656-9.628 9.943-17.086 19.492-19.95 9.509-2.852 19.651-.647 27.126 5.897 25.389 22.226 63.68 22.226 89.069 0 7.476-6.544 17.616-8.749 27.126-5.897 9.55 2.863 16.836 10.321 19.492 19.95 5.933 21.509 15.145 35.762 27.423 42.464.829 23.896.628 48.135-.599 72.12-1.655 32.456-27.408 58.088-59.901 59.621zm75.908-90.606c.175-12.415.089-24.827-.273-37.162 7.463 2.906 12.775 10.154 12.775 18.636 0 8.376-5.181 15.554-12.502 18.526zm-.287-52.782c-2.043-.429-4.152-.672-6.307-.727-11.604-5.117-18.233-21.239-21.775-34.077-4.037-14.636-15.119-25.974-29.644-30.33-14.485-4.343-29.93-.987-41.314 8.979-19.756 17.294-49.552 17.294-69.309 0-11.384-9.965-26.827-13.322-41.314-8.979-14.525 4.355-25.607 15.693-29.644 30.33-3.542 12.84-10.172 28.962-21.779 34.077-2.447.063-4.831.376-7.13.919-.506-4.123-1.041-8.308-1.597-12.633-3.844-29.896-7.818-60.811-2.831-85.683 5.365-26.757 20.419-41.708 47.375-47.049 88.657-17.565 131.866.539 150.693 14.361 4.903 45.34 39.142 82.009 83.296 90.592-2.544 16.845-6.349 31.777-8.72 40.22z"/><path d="m365.996 159.564c-4.25 0-7.708 3.458-7.708 7.708s3.458 7.708 7.708 7.708 7.708-3.458 7.708-7.708-3.458-7.708-7.708-7.708z"/><path d="m394.556 98.961c7.511-7.911 11.336-18.28 10.77-29.195-1.064-20.498-17.984-36.878-38.521-37.292-19.938-.384-37.062 14.169-39.813 33.892-.252 1.803-.38 3.648-.38 5.485 0 4.142 3.358 7.5 7.5 7.5s7.5-3.358 7.5-7.5c0-1.144.079-2.291.236-3.41 1.703-12.204 12.315-21.21 24.656-20.969 12.712.256 23.186 10.391 23.844 23.072.351 6.767-2.017 13.191-6.668 18.09-4.654 4.902-10.935 7.602-17.683 7.602-4.142 0-7.5 3.358-7.5 7.5v33.341c0 4.142 3.358 7.5 7.5 7.5s7.5-3.358 7.5-7.5v-26.547c8.001-1.528 15.302-5.505 21.059-11.569z"/></svg>