<svg id="Capa_1" enable-background="new 0 0 512 512" height="512" viewBox="0 0 512 512" width="512" xmlns="http://www.w3.org/2000/svg"><g><path d="m57.364 418.013c-4.087 14.202-11.582 26.993-21.97 37.381-4.29 4.29-5.573 10.742-3.252 16.347 2.321 5.604 7.791 9.259 13.858 9.259h30c24.098 0 46.393-11.636 60.4-30.963 4.692.573 9.57.963 14.6.963 76.95 0 140.541-58.247 149.027-132.964 18.64 8.326 39.274 12.964 60.973 12.964 5.03 0 9.908-.39 14.6-.963 14.006 19.327 36.302 30.963 60.4 30.963h30c6.067 0 11.536-3.655 13.858-9.26 2.321-5.605 1.038-12.057-3.252-16.347-10.388-10.388-17.883-23.179-21.971-37.381 36.099-28.75 57.365-71.778 57.365-117.012 0-82.71-67.738-150-151-150-76.94 0-140.525 58.232-149.024 132.937-19.069-8.498-39.76-12.937-60.976-12.937-83.262 0-151 67.29-151 150 0 45.234 21.266 88.262 57.364 117.013zm303.636-357.013c66.72 0 121 53.832 121 120 0 38.762-19.718 75.594-52.746 98.525-4.829 3.353-7.255 9.218-6.204 15.002 2.356 12.97 6.756 25.252 13.003 36.472h-.053c-16.57 0-31.75-9.28-39.616-24.217-3.007-5.71-9.336-8.868-15.726-7.81-7.338 1.218-13.489 2.028-19.658 2.028-66.168 0-120-53.832-120-120s53.832-120 120-120zm-210 120c21.6 0 42.513 5.736 60.925 16.614 4.664 42.131 26.84 79.057 59.074 103.309 0 .026.001.051.001.077 0 66.168-53.832 120-120 120-6.169 0-12.321-.81-19.659-2.027-6.376-1.058-12.714 2.09-15.726 7.81-7.865 14.938-23.045 24.217-39.615 24.217h-.053c6.247-11.221 10.646-23.503 13.002-36.473 1.051-5.784-1.375-11.649-6.204-15.002-33.027-22.932-52.745-59.763-52.745-98.525 0-66.168 54.28-120 121-120z"/><path d="m331 151c8.284 0 15-6.716 15-15 0-8.271 6.729-15 15-15s15 6.729 15 15c0 4.821-2.232 9.229-6.125 12.095-14.95 11.007-23.875 28.651-23.875 47.197v.708c0 8.284 6.716 15 15 15s15-6.716 15-15v-.708c0-9.049 4.359-17.662 11.662-23.039 11.483-8.454 18.338-22.006 18.338-36.253 0-24.813-20.187-45-45-45s-45 20.187-45 45c0 8.284 6.716 15 15 15z"/><circle cx="361" cy="241" r="15"/><circle cx="211" cy="301" r="15"/><circle cx="151" cy="301" r="15"/><circle cx="91" cy="301" r="15"/></g></svg>