<svg width="18" height="28" viewBox="0 0 18 28" fill="none" xmlns="http://www.w3.org/2000/svg">
<path d="M17.3333 8.99996C17.3333 6.78982 16.4554 4.67021 14.8926 3.1074C13.3298 1.5446 11.2101 0.666626 9 0.666626C6.78987 0.666626 4.67025 1.5446 3.10745 3.1074C1.54464 4.67021 0.666669 6.78982 0.666669 8.99996C0.666669 9.44199 0.842264 9.86591 1.15482 10.1785C1.46739 10.491 1.89131 10.6666 2.33334 10.6666C2.77536 10.6666 3.19929 10.491 3.51185 10.1785C3.82441 9.86591 4 9.44199 4 8.99996C4 8.01105 4.29325 7.04435 4.84265 6.22211C5.39206 5.39986 6.17295 4.759 7.08659 4.38056C8.00022 4.00212 9.00555 3.90311 9.97545 4.09603C10.9454 4.28896 11.8363 4.76516 12.5355 5.46443C13.2348 6.16369 13.711 7.0546 13.9039 8.02451C14.0969 8.99441 13.9978 9.99975 13.6194 10.9134C13.241 11.827 12.6001 12.6079 11.7779 13.1573C10.9556 13.7067 9.98891 14 9 14C8.55798 14 8.13405 14.1756 7.82149 14.4881C7.50893 14.8007 7.33334 15.2246 7.33334 15.6666V19C7.33334 19.442 7.50893 19.8659 7.82149 20.1785C8.13405 20.491 8.55798 20.6666 9 20.6666C9.44203 20.6666 9.86595 20.491 10.1785 20.1785C10.4911 19.8659 10.6667 19.442 10.6667 19V17.1666C12.5489 16.7824 14.2407 15.7597 15.4555 14.2715C16.6704 12.7833 17.3337 10.921 17.3333 8.99996V8.99996Z" fill="#929292"/>
<path d="M9 27.3333C9.92048 27.3333 10.6667 26.5871 10.6667 25.6667C10.6667 24.7462 9.92048 24 9 24C8.07953 24 7.33334 24.7462 7.33334 25.6667C7.33334 26.5871 8.07953 27.3333 9 27.3333Z" fill="#929292"/>
</svg>
