<svg id="Capa_1" enable-background="new 0 0 512 512" height="512" viewBox="0 0 512 512" width="512" xmlns="http://www.w3.org/2000/svg"><g><g><path d="m151 151c-82.8 0-151 67.2-151 150 0 45.599 22 88.5 57.4 116.999-4.2 14.101-11.7 27.001-21.899 37.5-4.501 4.2-5.7 10.501-3.301 16.201 2.4 5.7 7.8 9.3 13.8 9.3h30c24 0 46.5-11.7 60.3-30.901 4.799.601 9.6.901 14.7.901 82.8 0 150-67.2 150-150s-67.2-150-150-150z" fill="#80dbff"/></g><path d="m301 301c0 82.8-67.2 150-150 150v-300c82.8 0 150 67.2 150 150z" fill="#4ab8f7"/><path d="m454.633 297.997c35.478-28.403 57.367-71.411 57.367-116.997 0-82.705-68.295-150-151-150s-150 67.295-150 150 67.295 150 150 150c5.039 0 9.917-.396 14.604-.967 14.004 19.336 36.299 30.967 60.396 30.967h30c6.064 0 11.543-3.647 13.857-9.258 2.329-5.61 1.04-12.056-3.252-16.348-10.385-10.4-17.885-23.188-21.972-37.397z" fill="#ff6e7c"/><path d="m436 361h30c6.064 0 11.543-3.647 13.857-9.258 2.329-5.61 1.04-12.056-3.252-16.348-10.386-10.4-17.886-23.188-21.973-37.397 35.479-28.403 57.368-71.411 57.368-116.997 0-82.705-68.295-150-151-150v300c5.039 0 9.917-.396 14.604-.967 14.004 19.336 36.299 30.967 60.396 30.967z" fill="#ff468c"/><g><circle cx="211" cy="301" fill="#b5efff" r="15"/></g><g><circle cx="151" cy="301" fill="#e3fbff" r="15"/></g><g><circle cx="91" cy="301" fill="#e3fbff" r="15"/></g><g fill="#e3fbff"><path d="m361 91c-24.814 0-45 20.186-45 45 0 8.291 6.709 15 15 15s15-6.709 15-15c0-8.276 6.724-15 15-15s15 6.724 15 15c0 4.819-2.241 9.229-6.138 12.1-3.3 2.433-6.182 5.301-8.862 8.326-9.459 10.67-15 24.578-15 39.575 0 8.291 6.709 14.648 15 14.648s15-7.061 15-15.352c0-9.053 4.365-17.666 11.675-23.057 11.47-8.452 18.325-22.002 18.325-36.24 0-24.814-20.186-45-45-45z"/><circle cx="361" cy="241" r="15"/></g><g fill="#b5efff"><path d="m376 195.297c0-9.053 4.365-17.666 11.675-23.057 11.47-8.452 18.325-22.002 18.325-36.24 0-24.814-20.186-45-45-45v30c8.276 0 15 6.724 15 15 0 4.819-2.241 9.229-6.138 12.1-3.3 2.433-6.182 5.301-8.862 8.326v54.223c8.291-.001 15-7.061 15-15.352z"/><path d="m376 241c0-8.286-6.716-15-15-15v30c8.284 0 15-6.716 15-15z"/><path d="m166 301c0 8.399-6.599 15-15 15v-30c8.401 0 15 6.599 15 15z"/></g></g></svg>