<?xml version="1.0" encoding="iso-8859-1"?>
<!-- Generator: Adobe Illustrator 19.0.0, SVG Export Plug-In . SVG Version: 6.00 Build 0)  -->
<svg version="1.1" id="Capa_1" xmlns="http://www.w3.org/2000/svg" xmlns:xlink="http://www.w3.org/1999/xlink" x="0px" y="0px"
	 viewBox="0 0 512 512" style="enable-background:new 0 0 512 512;" xml:space="preserve">
<circle style="fill:#FFB844;" cx="256" cy="256" r="256"/>
<path style="fill:#FF7600;" d="M512,256c0-6.035-0.225-12.017-0.636-17.948l-119.42-119.42
	c-24.915-26.574-60.283-43.244-99.36-43.244h-73.167c-74.973,0-136.315,61.342-136.315,136.315v53.217
	c0,34.668,13.123,66.415,34.637,90.536l-16.783,52.747l97.246,97.246C216.776,509.735,236.123,512,256,512
	C397.385,512,512,397.385,512,256z"/>
<path style="fill:#FFFFFF;" d="M292.583,75.387h-73.167c-74.973,0-136.315,61.342-136.315,136.315v53.217
	c0,34.668,13.123,66.415,34.638,90.536l-16.783,52.747l59.632-20.401c17.834,8.603,37.794,13.432,58.828,13.432h73.167
	c74.973,0,136.315-61.342,136.315-136.315v-53.217C428.898,136.729,367.557,75.387,292.583,75.387z"/>
<path style="fill:#FFF5CA;" d="M428.9,211.7v53.22c0,74.97-61.34,136.31-136.32,136.31H256V75.39h36.58
	C367.56,75.39,428.9,136.73,428.9,211.7z"/>
<path style="fill:#9330B2;" d="M231.885,275.137c0-10.533,1.719-19.998,5.161-28.384c3.437-8.386,10.533-15.693,21.288-21.933
	c3.225-1.935,7.202-4.137,11.933-6.612c4.728-2.47,9.354-5.428,13.87-8.87c4.516-3.437,8.33-7.469,11.45-12.095
	c3.115-4.622,4.677-9.943,4.677-15.966c0-4.516-0.862-8.492-2.58-11.934c-1.723-3.437-3.981-6.34-6.774-8.708
	c-2.797-2.364-6.078-4.137-9.837-5.322c-3.764-1.18-7.58-1.774-11.45-1.774c-4.732,0-9.031,0.807-12.901,2.419
	c-3.871,1.612-7.368,3.659-10.482,6.128c-3.119,2.474-5.917,5.272-8.386,8.386c-2.475,3.12-4.571,6.078-6.29,8.87l-28.061-19.353
	c2.792-6.663,6.501-12.579,11.127-17.74c4.622-5.16,9.888-9.515,15.805-13.063c5.912-3.548,12.307-6.234,19.191-8.063
	c6.879-1.825,13.974-2.742,21.287-2.742c8.169,0,16.233,1.184,24.19,3.548c7.953,2.368,15.104,6.128,21.449,11.289
	c6.34,5.161,11.501,11.772,15.482,19.836c3.977,8.063,5.967,17.689,5.967,28.867c0,6.885-0.806,12.957-2.419,18.223
	c-1.613,5.272-3.926,10.054-6.935,14.353c-3.013,4.304-6.561,8.174-10.643,11.612c-4.087,3.442-8.708,6.773-13.87,9.998
	c-4.304,2.581-8.602,5.055-12.902,7.419c-4.304,2.368-8.225,4.999-11.772,7.902c-3.548,2.902-6.451,6.239-8.708,9.998
	c-2.258,3.764-3.387,8.336-3.387,13.708h-35.48V275.137z M232.53,350.288v-44.511h35.802v44.511L232.53,350.288L232.53,350.288z"/>
<path style="fill:#6B1472;" d="M256,305.78v44.51h12.33v-44.51H256z M332.03,153.06c-3.98-8.07-9.14-14.68-15.48-19.84
	s-13.49-8.92-21.45-11.29c-7.95-2.36-16.02-3.55-24.19-3.55c-5.07,0-10.05,0.44-14.91,1.33v36.56c0.24-0.11,0.48-0.21,0.72-0.31
	c3.87-1.61,8.17-2.42,12.9-2.42c3.87,0,7.69,0.59,11.45,1.77c3.76,1.19,7.04,2.96,9.84,5.33c2.79,2.36,5.05,5.27,6.77,8.7
	c1.72,3.45,2.58,7.42,2.58,11.94c0,6.02-1.56,11.34-4.67,15.96c-3.12,4.63-6.94,8.66-11.45,12.1c-4.52,3.44-9.15,6.4-13.87,8.87
	c-4.73,2.47-8.71,4.68-11.94,6.61c-0.8,0.46-1.57,0.93-2.33,1.41v48.91h11.36c0-5.38,1.13-9.95,3.39-13.71s5.16-7.1,8.71-10
	s7.47-5.53,11.77-7.9s8.6-4.84,12.9-7.42c5.16-3.23,9.79-6.56,13.87-10c4.09-3.44,7.63-7.31,10.65-11.61
	c3.01-4.3,5.32-9.08,6.93-14.35s2.42-11.34,2.42-18.23C338,170.74,336.01,161.12,332.03,153.06z"/>
<g>
</g>
<g>
</g>
<g>
</g>
<g>
</g>
<g>
</g>
<g>
</g>
<g>
</g>
<g>
</g>
<g>
</g>
<g>
</g>
<g>
</g>
<g>
</g>
<g>
</g>
<g>
</g>
<g>
</g>
</svg>
