<?xml version="1.0" encoding="iso-8859-1"?>
<!-- Generator: Adobe Illustrator 19.0.0, SVG Export Plug-In . SVG Version: 6.00 Build 0)  -->
<svg version="1.1" id="Capa_1" xmlns="http://www.w3.org/2000/svg" xmlns:xlink="http://www.w3.org/1999/xlink" x="0px" y="0px"
	 viewBox="0 0 512 512" style="enable-background:new 0 0 512 512;" xml:space="preserve">
<circle style="fill:#FF4D56;" cx="256" cy="256.71" r="93.26"/>
<path style="fill:#D12451;" d="M195.63,275.501c-13.791-44.296,7.119-91.103,47.345-111.148
	c-57.206,8.137-93.038,65.417-76.021,120.076c15.311,49.178,67.589,76.634,116.768,61.323c4.882-1.519,9.546-3.41,13.979-5.618
	C253.205,346.462,209.421,319.797,195.63,275.501z"/>
<path style="fill:#FFD05C;" d="M255.997,289.391l-27.46,14.436c-2.549,1.343-5.536-0.832-5.05-3.667l5.245-30.58l-22.217-21.657
	c-2.057-2.002-0.928-5.519,1.928-5.936l30.704-4.462l13.73-27.82c1.272-2.581,4.969-2.584,6.242,0l13.73,27.82l30.704,4.462
	c2.847,0.416,3.992,3.927,1.928,5.936l-22.217,21.657l5.247,30.58c0.224,1.306-0.315,2.625-1.387,3.403
	C284.758,305.288,284.89,304.579,255.997,289.391z"/>
<path style="fill:#DDDCDB;" d="M290.863,365.224c-60.227,19.225-124.866-14.134-144.091-74.361
	c-19.225-60.229,14.133-124.869,74.359-144.093c60.229-19.224,124.87,14.133,144.095,74.361
	C384.451,281.359,351.091,345.999,290.863,365.224z M228.957,170.625c-47.04,15.015-73.095,65.502-58.079,112.542
	c15.015,47.04,65.503,73.095,112.542,58.08c47.04-15.015,73.095-65.502,58.08-112.543
	C326.484,181.665,275.997,155.61,228.957,170.625z"/>
<path style="fill:#C2C2C2;" d="M169.391,277.907c-14.633-54.595,13.027-111.604,64.032-134.322
	c-67.246,13.552-107.306,82.569-86.65,147.277c20.66,64.725,93.316,97.746,155.953,69.835
	C242.12,372.916,183.676,334.191,169.391,277.907z"/>
<path style="fill:#FFD05C;" d="M508.352,168.19c-147.999,0-139.277-0.858-140.723,1.999c-0.62,1.225-0.498,2.697,0.315,3.804
	c7.491,10.191,13.548,21.357,18.002,33.187c0.534,1.42,1.893,2.36,3.411,2.36c108.79,0,103.345,0.85,104.795-1.983l17.444-34.062
	C512.835,171.076,511.076,168.19,508.352,168.19z"/>
<path style="fill:#FFA645;" d="M377.459,188.865c9.295,16.766,7.596,20.676,11.898,20.676c108.79,0,103.345,0.85,104.795-1.983
	l9.573-18.693L377.459,188.865L377.459,188.865z"/>
<path style="fill:#FFD05C;" d="M397.27,233.949c-1.048,0-2.046,0.451-2.738,1.239c-0.692,0.788-1.011,1.835-0.876,2.875
	c0.771,5.948,1.163,11.982,1.163,17.934c0,14.823-1.918,15.876,0.066,18.09c0.692,0.772,1.678,1.213,2.715,1.213h59.624
	c1.368,0,2.62-0.766,3.244-1.983c18.705-36.515,18.76-35.259,17.314-37.624C476.259,233.203,480.677,233.949,397.27,233.949z"/>
<path style="fill:#FFA645;" d="M394.797,254.625c0.158,16.108-1.963,17.173,0.088,19.462c0.692,0.772,1.678,1.213,2.715,1.213
	h59.624c1.368,0,2.62-0.766,3.244-1.983l9.575-18.693L394.797,254.625L394.797,254.625z"/>
<path style="fill:#FFD05C;" d="M390.363,299.709c-5.844,0-2.534,9.917-20.51,35.618c-0.778,1.113-0.874,2.568-0.246,3.773
	c0.627,1.205,1.874,1.961,3.232,1.961h50.705c1.368,0,2.621-0.766,3.244-1.983c18.703-36.52,18.755-35.26,17.31-37.624
	C442.629,299.05,444.926,299.709,390.363,299.709z"/>
<path style="fill:#FFA645;" d="M378.939,320.384c-7.918,15.062-11.056,15.406-9.332,18.715c0.627,1.205,1.874,1.961,3.232,1.961
	h50.705c1.368,0,2.621-0.766,3.244-1.983l9.573-18.693H378.939z"/>
<path style="fill:#FFD05C;" d="M141.117,168.19c-148.304,0-139.058-0.748-140.582,1.744c-0.662,1.083-0.713,2.432-0.134,3.562
	l17.446,34.062c1.451,2.833-3.978,1.983,104.793,1.983c1.517,0,2.876-0.941,3.411-2.36c4.456-11.832,10.513-22.997,18.003-33.187
	C145.823,171.585,144.092,168.19,141.117,168.19z"/>
<path style="fill:#FFA645;" d="M8.272,188.865l9.574,18.693c1.451,2.833-3.978,1.983,104.793,1.983
	c4.303,0,2.605-3.913,11.899-20.676L8.272,188.865L8.272,188.865z"/>
<path style="fill:#FFD05C;" d="M117.113,274.087c1.976-2.205,0.064-3.347,0.064-18.09c0-17.023,2.415-18.384,0.287-20.809
	c-1.554-1.767,2.987-1.239-80.137-1.239c-1.27,0-2.447,0.661-3.11,1.744c-1.44,2.356-1.421,1.051,17.312,37.624
	c0.623,1.217,1.876,1.983,3.244,1.983C119.617,275.3,115.598,275.78,117.113,274.087z"/>
<path style="fill:#FFA645;" d="M41.954,254.625l9.574,18.693c0.623,1.217,1.876,1.983,3.244,1.983
	c64.845,0,60.826,0.48,62.341-1.213c2.044-2.282-0.075-3.449,0.086-19.462L41.954,254.625L41.954,254.625z"/>
<path style="fill:#FFD05C;" d="M121.633,299.709c-54.548,0-52.265-0.659-53.735,1.744c-1.44,2.356-1.421,1.051,17.312,37.624
	c0.623,1.217,1.876,1.983,3.244,1.983h50.703c2.945,0,4.672-3.323,2.987-5.733C124.116,309.55,127.506,299.709,121.633,299.709z"/>
<path style="fill:#FFA645;" d="M85.21,339.077c0.623,1.217,1.876,1.983,3.244,1.983h50.703c2.945,0,4.672-3.323,2.987-5.733
	c-3.351-4.791-6.376-9.787-9.086-14.942H75.636L85.21,339.077z"/>
<g>
</g>
<g>
</g>
<g>
</g>
<g>
</g>
<g>
</g>
<g>
</g>
<g>
</g>
<g>
</g>
<g>
</g>
<g>
</g>
<g>
</g>
<g>
</g>
<g>
</g>
<g>
</g>
<g>
</g>
</svg>
