<svg width="15" height="15" viewBox="0 0 15 15" fill="none" xmlns="http://www.w3.org/2000/svg">
<path d="M5.09863 10.9264C5.09863 10.0836 5.09863 9.24083 5.09863 8.39991C5.09863 8.03925 5.26121 7.87854 5.62187 7.87854C7.02154 7.87854 8.41933 7.87854 9.819 7.87854C10.1815 7.87854 10.3441 8.03925 10.3441 8.39991C10.3441 10.0948 10.3441 11.7898 10.3441 13.4828C10.3441 13.8267 10.161 14.006 9.81339 14.006C8.41933 14.006 7.02528 14.006 5.63122 14.006C5.27803 14.006 5.1005 13.8267 5.09863 13.4679C5.09863 12.6213 5.09863 11.7729 5.09863 10.9264Z" fill="white"/>
<path d="M9.68569 7.00396C9.59599 6.97219 9.50069 6.95163 9.41846 6.90678C8.88775 6.62648 8.36077 6.34243 7.8338 6.05465C7.75157 6.0098 7.68804 6.01167 7.60581 6.05465C7.06015 6.33683 6.51262 6.6134 5.96882 6.89744C5.81559 6.9778 5.67543 7.0133 5.5222 6.90305C5.35962 6.78345 5.2774 6.63395 5.3129 6.42839C5.38391 6.02288 5.45492 5.61924 5.52594 5.21373C5.56518 4.98949 5.59882 4.76524 5.64553 4.54286C5.66422 4.45504 5.6418 4.40084 5.57639 4.34291C5.13351 3.94488 4.6981 3.5375 4.25334 3.1432C4.08703 2.99557 4.04031 2.82365 4.09263 2.62183C4.14309 2.42935 4.29445 2.349 4.47946 2.32097C5.09053 2.22753 5.70346 2.13036 6.31453 2.04253C6.41171 2.02758 6.4659 1.99207 6.50888 1.90237C6.76676 1.36232 7.03586 0.825997 7.29374 0.28407C7.38344 0.097199 7.51425 -0.00184275 7.72354 2.59647e-05C7.92536 0.00189468 8.0543 0.0990677 8.14026 0.280333C8.40001 0.825997 8.67098 1.36605 8.9326 1.91172C8.97371 1.99768 9.02603 2.02945 9.1176 2.0444C9.73988 2.13596 10.3622 2.22753 10.9826 2.33031C11.2797 2.3789 11.4255 2.60127 11.3488 2.89279C11.3264 2.98062 11.2648 3.06658 11.1993 3.13199C10.7864 3.54123 10.3715 3.94675 9.94731 4.34478C9.84453 4.44008 9.82397 4.52978 9.84827 4.66059C9.95852 5.26045 10.0613 5.86031 10.1622 6.46203C10.2183 6.78532 10.0277 6.99648 9.68569 7.00396Z" fill="white"/>
<path d="M4.25907 14.006C4.23664 14.006 4.18806 14.006 4.14134 14.006C3.17895 14.006 2.2147 14.006 1.25231 14.006C0.908466 14.006 0.719727 13.821 0.719727 13.4809C0.719727 12.4699 0.719727 11.459 0.719727 10.4461C0.719727 10.1079 0.887911 9.93595 1.22615 9.93595C2.17919 9.93408 3.13223 9.93595 4.08528 9.93595C4.12265 9.93595 4.16189 9.93595 4.22169 9.93595C4.22169 10.0014 4.22169 10.0574 4.22169 10.1135C4.22169 11.1058 4.21982 12.0981 4.22356 13.0903C4.22356 13.3893 4.24599 13.6865 4.25907 14.006Z" fill="white"/>
<path d="M11.2204 10.504C11.3232 10.504 11.3998 10.504 11.4764 10.504C12.3715 10.504 13.2685 10.504 14.1636 10.504C14.5728 10.504 14.7205 10.6554 14.7205 11.0665C14.7205 11.8701 14.7205 12.6736 14.7205 13.4771C14.7205 13.8191 14.5336 14.0041 14.1916 14.0041C13.2274 14.0041 12.265 14.0041 11.3007 14.0041C11.2521 14.0041 11.2054 14.0041 11.1699 14.0041C11.269 12.896 11.1942 11.7934 11.2185 10.6928C11.2204 10.6367 11.2204 10.5806 11.2204 10.504Z" fill="white"/>
</svg>
