<svg id="Capa_1" enable-background="new 0 0 512 512" height="512" viewBox="0 0 512 512" width="512" xmlns="http://www.w3.org/2000/svg"><g><path d="m141.42 184.447h-135.005c-4.85 0-7.941 5.18-5.638 9.448l19.685 36.481h103.318c3.114-16.543 9.179-32.045 17.64-45.929z" fill="#ffc365"/><path d="m51.661 184.447h-45.246c-4.85 0-7.941 5.18-5.638 9.448l19.685 36.481h45.246l-19.685-36.481c-2.303-4.268.788-9.448 5.638-9.448z" fill="#ffa90f"/><path d="m505.585 184.447h-135.005c8.461 13.884 14.526 29.386 17.639 45.93h103.318l19.685-36.481c2.304-4.269-.787-9.449-5.637-9.449z" fill="#ffc365"/><path d="m418.917 184.447h-48.337c8.461 13.884 14.526 29.386 17.639 45.93h48.337c-3.114-16.544-9.179-32.046-17.639-45.93z" fill="#ffa90f"/><path d="m121.391 256c0-8.757.827-17.32 2.39-25.623h-103.318l24.783 45.93h77.638c-.979-6.628-1.493-13.407-1.493-20.307z" fill="#ffa90f"/><path d="m20.462 230.377 24.784 45.929h45.246l-24.783-45.929z" fill="#ff9a00"/><path d="m388.22 230.377c1.563 8.303 2.39 16.866 2.39 25.623 0 6.9-.514 13.679-1.494 20.306h77.638l24.783-45.93h-103.317z" fill="#ffa90f"/><path d="m390.609 256c0 6.9-.514 13.679-1.493 20.306h48.336c.98-6.628 1.494-13.407 1.494-20.306 0-8.757-.827-17.32-2.39-25.623h-48.337c1.563 8.303 2.39 16.866 2.39 25.623z" fill="#ff9a00"/><path d="m122.884 276.306h-77.638l22.968 42.566c1.118 2.072 3.283 3.364 5.638 3.364h64.494c-7.7-14.005-13.032-29.494-15.462-45.93z" fill="#ffc365"/><path d="m113.46 318.872-22.968-42.566h-45.246l22.968 42.566c1.118 2.072 3.283 3.364 5.638 3.364h45.246c-2.354 0-4.519-1.292-5.638-3.364z" fill="#ffa90f"/><path d="m389.116 276.306c-2.43 16.436-7.762 31.924-15.462 45.93h64.494c2.355 0 4.52-1.292 5.638-3.364l22.968-42.566z" fill="#ffc365"/><path d="m437.452 276.306h-48.336c-2.43 16.436-7.762 31.924-15.462 45.93h48.337c7.699-14.005 13.032-29.494 15.461-45.93z" fill="#ffa90f"/><circle cx="256" cy="256" fill="#ff636e" r="137.7"/><path d="m161.893 256c0-68.632 50.212-125.528 115.903-135.976-7.1-1.129-14.379-1.724-21.797-1.724-76.049 0-137.7 61.65-137.7 137.7s61.651 137.7 137.701 137.7c7.418 0 14.697-.594 21.797-1.724-65.691-10.448-115.904-67.344-115.904-135.976z" fill="#ff4654"/><circle cx="256" cy="256" fill="#ff4654" r="95.137"/><path d="m204.456 256c0-45.042 31.303-82.77 73.34-92.625-7-1.641-14.296-2.512-21.797-2.512-52.542 0-95.137 42.594-95.137 95.137s42.594 95.137 95.137 95.137c7.5 0 14.797-.871 21.797-2.512-42.037-9.855-73.34-47.583-73.34-92.625z" fill="#fd2a39"/><path d="m313.048 243.528c3.01-2.933 1.349-8.044-2.81-8.649l-31.697-4.606c-1.652-.24-3.079-1.277-3.818-2.774l-14.175-28.723c-1.86-3.769-7.234-3.769-9.094 0l-14.176 28.724c-.739 1.497-2.167 2.534-3.818 2.774l-31.697 4.606c-4.159.604-5.82 5.715-2.81 8.649l22.937 22.358c1.195 1.165 1.74 2.843 1.458 4.488l-5.415 31.569c-.711 4.142 3.638 7.301 7.358 5.345l28.351-14.905c1.477-.777 3.242-.777 4.719 0l28.351 14.905c3.72 1.956 8.068-1.203 7.358-5.345l-5.415-31.569c-.282-1.645.263-3.323 1.458-4.488z" fill="#ffc365"/><g><path d="m255.626 279.646c.282-1.645-.263-3.323-1.458-4.488l-22.937-22.358c-3.01-2.933-1.349-8.045 2.81-8.649l31.697-4.606c1.652-.24 3.079-1.277 3.818-2.774l4.871-9.869-13.881-28.125c-1.86-3.768-7.234-3.768-9.094 0l-14.174 28.723c-.739 1.497-2.167 2.534-3.818 2.774l-31.697 4.606c-4.159.604-5.82 5.715-2.81 8.649l22.937 22.358c1.195 1.165 1.74 2.843 1.458 4.488l-5.415 31.569c-.711 4.142 3.638 7.301 7.358 5.345l28.132-14.79z" fill="#ffa90f"/></g></g></svg>