<svg width="18" height="18" viewBox="0 0 18 18" fill="none" xmlns="http://www.w3.org/2000/svg">
<path d="M0.581778 6.38338L5.97783 5.62082L8.39001 0.865658C8.45589 0.735465 8.56428 0.63007 8.69817 0.566007C9.03396 0.404815 9.44201 0.539142 9.60991 0.865658L12.0221 5.62082L17.4181 6.38338C17.5669 6.40404 17.7029 6.47224 17.8071 6.57557C17.933 6.70139 18.0023 6.87068 17.9999 7.04621C17.9975 7.22175 17.9236 7.38918 17.7943 7.51172L13.8902 11.2129L14.8126 16.4393C14.8342 16.5608 14.8204 16.6859 14.7726 16.8002C14.7249 16.9145 14.6452 17.0135 14.5425 17.0861C14.4398 17.1586 14.3183 17.2016 14.1918 17.2104C14.0652 17.2192 13.9386 17.1933 13.8264 17.1357L8.99996 14.6682L4.17348 17.1357C4.04171 17.2039 3.88869 17.2266 3.74205 17.2018C3.37225 17.1398 3.1236 16.7989 3.18735 16.4393L4.10972 11.2129L0.205606 7.51172C0.0993432 7.41046 0.0292082 7.2782 0.00795555 7.13354C-0.0494266 6.77189 0.209856 6.43711 0.581778 6.38338Z" fill="#FFE600"/>
</svg>
