<svg id="Capa_1" enable-background="new 0 0 497 497" height="512" viewBox="0 0 497 497" width="512" xmlns="http://www.w3.org/2000/svg"><g><path d="m384.211 47.8v390.91h-304.86c-8.79 0-15.91-7.13-15.91-15.92v-292.51l100.94-98.4h203.91c8.79 0 15.92 7.13 15.92 15.92z" fill="#c8effe"/><path d="m384.211 286.86v151.85h-152.53v-110.14c0-23.04 18.67-41.71 41.71-41.71z" fill="#99e6fc"/><path d="m368.295 31.883h-18.983c8.791 0 15.918 7.126 15.918 15.917v390.909h18.983v-390.908c-.001-8.791-7.127-15.918-15.918-15.918z" fill="#99e6fc"/><path d="m351.28 15.92v390.91h-304.86c-8.79 0-15.92-7.13-15.92-15.92v-298.05c0-3.1.67-6.13 1.93-8.89l82.18-82.04c2.76-1.26 5.78-1.93 8.87-1.93h211.88c8.79 0 15.92 7.13 15.92 15.92z" fill="#eaf6ff"/><path d="m298.066 286.859 53.215 119.97h-119.6v-78.26c0-23.04 18.67-41.71 41.71-41.71z" fill="#c8effe"/><path d="m335.361 0h-24.676c8.791 0 15.917 7.126 15.917 15.917v390.908h24.676v-390.908c.001-8.791-7.126-15.917-15.917-15.917z" fill="#99e6fc"/><path d="m424.792 497h-126.726c-23.034 0-41.707-18.673-41.707-41.707v-126.726c0-23.034 18.673-41.707 41.707-41.707h126.726c23.034 0 41.707 18.673 41.707 41.707v126.726c.001 23.034-18.672 41.707-41.707 41.707z" fill="#4fc123"/><path d="m424.792 286.859h-24.676c23.034 0 41.707 18.673 41.707 41.707v126.726c0 23.034-18.673 41.707-41.707 41.707h24.676c23.034 0 41.707-18.673 41.707-41.707v-126.725c.001-23.035-18.673-41.708-41.707-41.708z" fill="#47a920"/><path d="m114.61 1.93v66.12c0 8.79-7.13 15.92-15.92 15.92h-66.26c1.05-2.31 2.52-4.44 4.35-6.27l53.15-53.06 18.4-18.37c1.83-1.83 3.96-3.3 6.28-4.34z" fill="#c8effe"/><path d="m114.61 1.93v66.12c0 8.79-7.13 15.92-15.92 15.92h-24.67c8.79 0 15.91-7.13 15.91-15.92v-43.41l18.4-18.37c1.83-1.83 3.96-3.3 6.28-4.34z" fill="#99e6fc"/><path d="m341.961 397.208-14.344-14.344c-3.855-3.855-10.104-3.855-13.959 0l-13.099 13.099c-3.855 3.855-3.855 10.104 0 13.959l33.561 33.561c6.956 6.955 18.233 6.955 25.188 0l65.627-65.627c3.855-3.855 3.855-10.104 0-13.959l-12.133-12.133c-3.855-3.855-10.104-3.855-13.959 0l-45.444 45.444c-3.159 3.159-8.279 3.159-11.438 0z" fill="#d1f19e"/><path d="m424.934 363.898-12.133-12.133c-3.854-3.855-10.104-3.855-13.959 0l-6.065 6.065c1.429.466 2.775 1.258 3.911 2.394l3.57 3.674c3.855 3.855 3.855 10.104 0 13.959l-56.682 58.244c-3.242 3.242-7.423 4.952-11.667 5.172l2.21 2.21c6.955 6.956 18.232 6.956 25.188 0l65.627-65.627c3.855-3.854 3.855-10.104 0-13.958z" fill="#bbec6c"/><path d="m286.953 181.993h-21.483l-35.564-8.165-35.483 8.165h-21.564c-7.156 0-12.957-5.801-12.957-12.957v-114.095c0-7.156 5.801-12.957 12.957-12.957h114.095c7.156 0 12.957 5.801 12.957 12.957v114.095c-.001 7.156-5.802 12.957-12.958 12.957z" fill="#c8effe"/><path d="m286.953 41.984h-24.676c7.156 0 12.957 5.801 12.957 12.957v114.095c0 6.37-4.597 11.666-10.654 12.753l.889.204h21.483c7.156 0 12.957-5.801 12.957-12.957v-114.095c.001-7.156-5.8-12.957-12.956-12.957z" fill="#99e6fc"/><path d="m229.946 128.006c-9.904 0-17.933-8.029-17.933-17.933v-8.173c0-9.904 8.029-17.933 17.933-17.933 9.904 0 17.933 8.029 17.933 17.933v8.173c0 9.904-8.029 17.933-17.933 17.933z" fill="#ffdfcf"/><path d="m237.705 128.006h-15.518c-15.334 0-27.764 12.43-27.764 27.764v26.222h71.047v-26.222c0-15.334-12.431-27.764-27.765-27.764z" fill="#0593fc"/><path d="m237.705 128.006h-15.518c-1.561 0-3.089.135-4.579.383 13.154 2.184 23.185 13.609 23.185 27.382v26.222h24.676v-26.223c.001-15.334-12.43-27.764-27.764-27.764z" fill="#0181fa"/><g fill="#99e6fc"><path d="m297.667 247.796h-214.865c-4.143 0-7.5-3.357-7.5-7.5s3.357-7.5 7.5-7.5h214.865c4.143 0 7.5 3.357 7.5 7.5s-3.357 7.5-7.5 7.5z"/><path d="m201.842 285.724h-119.04c-4.143 0-7.5-3.357-7.5-7.5s3.357-7.5 7.5-7.5h119.04c4.143 0 7.5 3.357 7.5 7.5s-3.357 7.5-7.5 7.5z"/><path d="m201.842 323.651h-24.543c-4.143 0-7.5-3.357-7.5-7.5s3.357-7.5 7.5-7.5h24.543c4.143 0 7.5 3.357 7.5 7.5s-3.357 7.5-7.5 7.5z"/><path d="m142.322 323.651h-59.52c-4.143 0-7.5-3.357-7.5-7.5s3.357-7.5 7.5-7.5h59.52c4.143 0 7.5 3.357 7.5 7.5s-3.358 7.5-7.5 7.5z"/><path d="m201.842 361.579h-119.04c-4.143 0-7.5-3.357-7.5-7.5s3.357-7.5 7.5-7.5h119.04c4.143 0 7.5 3.357 7.5 7.5s-3.357 7.5-7.5 7.5z"/></g><path d="m82.802 189.492c-1.92 0-3.839-.732-5.304-2.197-2.929-2.929-2.929-7.678.001-10.606l24.647-24.646c2.929-2.929 7.678-2.928 10.606.001s2.929 7.678-.001 10.606l-24.647 24.646c-1.463 1.464-3.383 2.196-5.302 2.196z" fill="#0593fc"/></g></svg>