<svg id="Capa_1" enable-background="new 0 0 512 512" height="512" viewBox="0 0 512 512" width="512" xmlns="http://www.w3.org/2000/svg"><g><path d="m398.01 39.738c0-4.091-3.316-7.407-7.407-7.407h-339.365c-4.09 0-7.407 3.316-7.407 7.407v464.855c0 4.091 3.316 7.407 7.407 7.407h339.365c4.091 0 7.407-3.316 7.407-7.407z" fill="#e7a52e"/><path d="m341.626 341.637-23.89-23.89 54.52-54.52v-196.862c0-4.572-3.706-8.278-8.278-8.278h-286.114c-4.572 0-8.278 3.706-8.278 8.278v411.603c0 4.572 3.706 8.278 8.278 8.278h188.628c24.195 0 43.809-19.614 43.809-43.809v-9.863c0-4.574 3.708-8.283 8.283-8.283h9.864c24.195 0 43.808-19.614 43.808-43.808v-69.474z" fill="#f6f9f9"/><path d="m363.977 58.086h-32.929v301.792c0 24.195-19.614 43.808-43.808 43.808-10.022 0-18.146 8.124-18.146 18.146 0 24.195-19.614 43.809-43.809 43.809h-155.698v12.326c0 4.572 3.706 8.278 8.278 8.278h188.627c24.195 0 43.809-19.614 43.809-43.809 0-10.022 8.124-18.146 18.146-18.146 24.195 0 43.808-19.614 43.808-43.808v-314.117c0-4.572-3.706-8.279-8.278-8.279z" fill="#dddaec"/><path d="m372.255 380.482c0 28.05-11.143 54.951-30.977 74.786-19.835 19.835-46.736 30.977-74.786 30.977 24.195 0 43.809-19.614 43.809-43.809v-8.204c0-5.491 4.451-9.942 9.942-9.942h8.205c24.194.001 43.807-19.613 43.807-43.808z" fill="#f6f9f9"/><g fill="#75cef9"><path d="m253.746 383.301-17.43 24.402c-2.8 3.92-2.984 9.276-.109 13.142 3.639 4.894 10.386 5.838 15.18 2.413l24.685-17.632c1.816-1.297 3.578-2.669 5.28-4.11l-5.25-21.035-18.245-2.461c-1.442 1.703-2.813 3.465-4.111 5.281z"/><path d="m401.703 233.779-83.967 83.968 4.542 19.97 19.348 3.92 83.968-83.967-4.672-20.101z"/><path d="m442.732 195.561-22.623 22.623 27.501 14.658 16.202-16.202c2.823-2.823 2.823-7.401 0-10.224l-10.855-10.855c-2.824-2.823-7.402-2.823-10.225 0z"/></g><path d="m276.533 200.587-71.035 69.809c-.682.67-1.788.67-2.47 0l-37.719-37.068c-.682-.67-1.788-.67-2.47 0l-23.163 22.763c-.682.67-.682 1.757 0 2.427l63.353 62.259c.682.67 1.788.67 2.47 0l96.668-95c.682-.67.682-1.757 0-2.427l-23.163-22.763c-.683-.671-1.789-.671-2.471 0z" fill="#b3e59f"/><path d="m404.753 330.923c-1.977 0-3.955-.755-5.464-2.263-3.017-3.017-3.017-7.909 0-10.927l50.226-50.226-16.085-16.085c-3.017-3.018-3.017-7.909.001-10.927 3.017-3.018 7.909-3.018 10.927 0l21.547 21.548c3.017 3.018 3.017 7.909 0 10.927l-55.689 55.69c-1.509 1.509-3.485 2.263-5.463 2.263z" fill="#524798"/><path d="m307.592 26.355h-55.539c-2.525 0-4.717-1.806-5.126-4.298-2.053-12.511-12.915-22.057-26.006-22.057s-23.954 9.546-26.006 22.056c-.409 2.492-2.601 4.298-5.126 4.298h-55.539c-3.301 0-5.977 2.676-5.977 5.977v46.754l92.648 13.585 92.648-13.585v-46.753c0-3.301-2.676-5.977-5.977-5.977z" fill="#d0cee7"/><circle cx="220.921" cy="26.355" fill="#a7a2d3" r="7.726"/><path d="m313.569 79.086h-185.297v15.215c0 6.602 5.352 11.955 11.955 11.955h161.387c6.602 0 11.955-5.352 11.955-11.955z" fill="#a7a2d3"/><path d="m262.418 373.064c-1.589 1.589-3.111 3.243-4.562 4.957l23.496 23.496c1.714-1.451 3.368-2.973 4.957-4.562l55.318-55.317-23.89-23.89z" fill="#5e54ac"/><path d="m401.703 233.779 22.309-22.309c.614-.614 1.611-.614 2.225 0l21.665 21.665c.614.614.614 1.611 0 2.225l-22.309 22.309z" fill="#5e54ac"/></g></svg>