<?xml version="1.0" encoding="iso-8859-1"?>
<!-- Generator: Adobe Illustrator 21.0.0, SVG Export Plug-In . SVG Version: 6.00 Build 0)  -->
<svg xmlns="http://www.w3.org/2000/svg" xmlns:xlink="http://www.w3.org/1999/xlink" version="1.1" id="Capa_1" x="0px" y="0px" viewBox="0 0 512 512" style="enable-background:new 0 0 512 512;" xml:space="preserve" width="512" height="512">
<g>
	<path style="fill:#7CCCF2;" d="M350.693,467.226H70.694c-18.417,0-33.347-14.93-33.347-33.347V40.847   C37.347,22.43,52.277,7.5,70.694,7.5h279.999c18.417,0,33.347,14.93,33.347,33.347v393.032   C384.04,452.296,369.11,467.226,350.693,467.226z"/>
	<path style="fill:#4FACDB;" d="M350.693,7.5h-27.5c18.417,0,33.347,14.93,33.347,33.347v393.032   c0,18.417-14.93,33.347-33.347,33.347h27.5c18.417,0,33.347-14.93,33.347-33.347V40.847C384.04,22.43,369.11,7.5,350.693,7.5z"/>
	<path style="fill:#EBEEF2;" d="M328.534,344.774H92.853c-4.418,0-8-3.582-8-8v-30.59c0-4.418,3.582-8,8-8h235.68   c4.418,0,8,3.582,8,8v30.59C336.534,341.192,332.952,344.774,328.534,344.774z"/>
	<path style="fill:#F6BB93;" d="M455.541,339.71c-9.104-0.324-16.9,5.491-19.572,13.629c-0.316,0.962-1.65,0.983-1.965,0.021   c-2.595-7.933-10.056-13.663-18.856-13.663c-8.804,0-16.268,5.736-18.86,13.675c-0.31,0.95-1.64,0.95-1.95,0   c-2.591-7.939-10.056-13.675-18.86-13.675c-10.955,0-19.835,8.88-19.835,19.835v-67.097c0-10.755-8.363-19.915-19.112-20.298   c-11.284-0.401-20.558,8.627-20.558,19.822v121.291l-33.354-39.75c-7.48-8.915-20.333-9.476-28.562-1.247l0,0   c-8.229,8.229-8.841,22.255-1.361,31.17l63.277,75.411v15.483c0,5.624,4.559,10.183,10.183,10.183h99.128   c27.266,0,49.369-22.103,49.369-49.369v-95.123C474.653,349.252,466.29,340.092,455.541,339.71z"/>
	<path style="fill:#E49775;" d="M455.541,339.71c-4.483-0.159-8.648,1.169-12.041,3.531c5.252,3.699,8.653,9.908,8.653,16.767   v95.123c0,27.266-22.103,49.369-49.369,49.369h22.5c27.266,0,49.369-22.103,49.369-49.369v-95.123   C474.653,349.252,466.29,340.092,455.541,339.71z"/>
	<path style="fill:#F4D34C;" d="M154.396,425h-53.781c-8.705,0-15.762-7.057-15.762-15.762v-11.599   c0-8.705,7.057-15.762,15.762-15.762h53.781c8.705,0,15.762,7.057,15.762,15.762v11.599C170.158,417.943,163.101,425,154.396,425z"/>
	<path style="fill:#EBEEF2;" d="M328.534,255.658H92.853c-4.418,0-8-3.582-8-8v-30.59c0-4.418,3.582-8,8-8h235.68   c4.418,0,8,3.582,8,8v30.59C336.534,252.076,332.952,255.658,328.534,255.658z"/>
	<g>
		<path d="M225.694,15h124.999c14.252,0,25.847,11.595,25.847,25.847v269.364c0,4.142,3.358,7.5,7.5,7.5s7.5-3.358,7.5-7.5V40.847    C391.54,18.324,373.216,0,350.693,0H225.694c-4.142,0-7.5,3.358-7.5,7.5S221.552,15,225.694,15z"/>
		<path d="M272.295,459.727H70.694c-14.252,0-25.848-11.595-25.848-25.848V40.847C44.847,26.595,56.442,15,70.694,15h124.999    c4.142,0,7.5-3.358,7.5-7.5s-3.358-7.5-7.5-7.5H70.694C48.171,0,29.847,18.324,29.847,40.847v393.032    c0,22.523,18.324,40.848,40.848,40.848h201.601c4.142,0,7.5-3.358,7.5-7.5S276.438,459.727,272.295,459.727z"/>
		<path d="M247.401,94.196c4.142,0,7.5-3.358,7.5-7.5v-9.211h9.211c4.142,0,7.5-3.358,7.5-7.5s-3.358-7.5-7.5-7.5h-9.211v-9.211    c0-4.142-3.358-7.5-7.5-7.5s-7.5,3.358-7.5,7.5v9.211h-9.211c-4.142,0-7.5,3.358-7.5,7.5s3.358,7.5,7.5,7.5h9.211v9.211    C239.901,90.838,243.259,94.196,247.401,94.196z"/>
		<path d="M199.083,131.082c-4.142,0-7.5,3.358-7.5,7.5s3.358,7.5,7.5,7.5h23.221c4.142,0,7.5-3.358,7.5-7.5s-3.358-7.5-7.5-7.5    h-4.11V81.223c0-4.142-3.358-7.5-7.5-7.5h-11.61c-4.142,0-7.5,3.358-7.5,7.5s3.358,7.5,7.5,7.5h4.11v42.359H199.083z"/>
		<path d="M143.354,109.902c0,37.132,30.208,67.34,67.34,67.34c37.132,0,67.34-30.208,67.34-67.34c0-4.142-3.358-7.5-7.5-7.5    s-7.5,3.358-7.5,7.5c0,28.86-23.48,52.34-52.34,52.34s-52.34-23.48-52.34-52.34s23.479-52.34,52.34-52.34    c4.142,0,7.5-3.358,7.5-7.5s-3.358-7.5-7.5-7.5C173.562,42.563,143.354,72.771,143.354,109.902z"/>
		<path d="M474.653,402.5c4.142,0,7.5-3.358,7.5-7.5v-34.993c0-15.06-11.572-27.268-26.345-27.793    c-7.971-0.298-15.506,2.972-20.797,8.512c-5.044-5.333-12.154-8.53-19.863-8.53c-7.695,0-14.793,3.186-19.835,8.5    c-5.042-5.314-12.14-8.5-19.835-8.5c-4.435,0-8.627,1.062-12.335,2.944v-42.706c0-15.06-11.572-27.268-26.346-27.793    c-7.48-0.276-14.585,2.449-19.97,7.647c-5.079,4.902-8.004,11.392-8.322,18.391H92.85c-8.547,0-15.5,6.953-15.5,15.5v30.59    c0,8.547,6.953,15.5,15.5,15.5h215.623v40.375l-20.109-23.965c-4.985-5.942-11.882-9.395-19.418-9.724    c-7.539-0.328-14.708,2.51-20.192,7.995c-10.93,10.929-11.738,29.454-1.803,41.294l61.522,73.319v12.753    c0,9.75,7.933,17.683,17.683,17.683h99.128c31.358,0,56.87-25.511,56.87-56.869v-30.13c0-4.142-3.358-7.5-7.5-7.5    s-7.5,3.358-7.5,7.5v30.13c0,23.087-18.783,41.869-41.87,41.869h-99.128c-1.479,0-2.683-1.204-2.683-2.683v-15.483    c0-1.763-0.621-3.47-1.755-4.821l-63.277-75.411c-4.978-5.932-4.557-15.57,0.919-21.046c2.475-2.475,5.654-3.757,8.932-3.615    c3.284,0.143,6.332,1.699,8.582,4.38l33.354,39.75c2.026,2.415,5.348,3.305,8.31,2.227c2.963-1.079,4.935-3.895,4.935-7.048    V291.959c0-3.378,1.339-6.531,3.771-8.877c2.43-2.345,5.641-3.572,9.021-3.45c6.55,0.233,11.878,5.977,11.878,12.803v67.097    c0,4.142,3.358,7.5,7.5,7.5s7.5-3.358,7.5-7.5c0-6.802,5.534-12.335,12.335-12.335c5.356,0,10.07,3.417,11.73,8.501    c1.148,3.52,4.405,5.885,8.103,5.886c0,0,0.001,0,0.001,0c3.698,0,6.955-2.364,8.106-5.885c1.66-5.085,6.374-8.502,11.729-8.502    c5.353,0,10.066,3.414,11.728,8.495c1.15,3.515,4.402,5.877,8.092,5.879c0.001,0,0.003,0,0.005,0c3.701,0,6.964-2.367,8.122-5.892    c1.703-5.184,6.692-8.666,12.18-8.474c6.55,0.233,11.878,5.977,11.878,12.803V395C467.153,399.143,470.511,402.5,474.653,402.5z     M92.85,337.27c-0.271,0-0.5-0.229-0.5-0.5v-30.59c0-0.267,0.234-0.5,0.5-0.5h215.623v31.59H92.85z"/>
		<path d="M154.396,432.5c12.827,0,23.262-10.435,23.262-23.262v-11.599c0-12.827-10.435-23.262-23.262-23.262h-53.781    c-12.827,0-23.262,10.435-23.262,23.262v11.599c0,12.827,10.435,23.262,23.262,23.262H154.396z M92.354,409.238v-11.599    c0-4.556,3.706-8.262,8.262-8.262h53.781c4.556,0,8.262,3.706,8.262,8.262v11.599c0,4.556-3.706,8.262-8.262,8.262h-53.781    C96.06,417.5,92.354,413.794,92.354,409.238z"/>
		<path d="M92.854,201.568c-8.547,0-15.5,6.953-15.5,15.5v30.59c0,8.547,6.953,15.5,15.5,15.5h235.68c8.547,0,15.5-6.953,15.5-15.5    v-30.59c0-8.547-6.953-15.5-15.5-15.5H92.854z M329.034,217.068v30.59c0,0.276-0.224,0.5-0.5,0.5H92.854    c-0.276,0-0.5-0.224-0.5-0.5v-30.59c0-0.276,0.224-0.5,0.5-0.5h235.68C328.81,216.568,329.034,216.792,329.034,217.068z"/>
		<path d="M114.534,313.979h-2c-4.142,0-7.5,3.358-7.5,7.5s3.358,7.5,7.5,7.5h2c4.142,0,7.5-3.358,7.5-7.5    S118.676,313.979,114.534,313.979z"/>
		<path d="M145.2,313.979h-2c-4.142,0-7.5,3.358-7.5,7.5s3.358,7.5,7.5,7.5h2c4.142,0,7.5-3.358,7.5-7.5    S149.342,313.979,145.2,313.979z"/>
		<path d="M175.867,313.979h-2c-4.142,0-7.5,3.358-7.5,7.5s3.358,7.5,7.5,7.5h2c4.142,0,7.5-3.358,7.5-7.5    S180.009,313.979,175.867,313.979z"/>
		<path d="M206.534,313.979h-2c-4.142,0-7.5,3.358-7.5,7.5s3.358,7.5,7.5,7.5h2c4.142,0,7.5-3.358,7.5-7.5    S210.676,313.979,206.534,313.979z"/>
		<path d="M237.2,313.979h-2c-4.142,0-7.5,3.358-7.5,7.5s3.358,7.5,7.5,7.5h2c4.142,0,7.5-3.358,7.5-7.5    S241.342,313.979,237.2,313.979z"/>
	</g>
</g>















</svg>
