<svg width="18" height="13" viewBox="0 0 18 13" fill="none" xmlns="http://www.w3.org/2000/svg">
<path d="M6.81388 10.2697L0.489056 6.00519C0.340082 5.92252 0.216626 5.80482 0.130865 5.66369C0.0451045 5.52257 0 5.36288 0 5.2004C0 5.03791 0.0451045 4.87822 0.130865 4.7371C0.216626 4.59597 0.340082 4.47827 0.489056 4.3956L6.81388 0.128508C6.96465 0.0452355 7.1362 0.000904237 7.31111 1.36871e-05C7.48603 -0.000876863 7.65808 0.041705 7.8098 0.123437C7.96152 0.205169 8.08752 0.323142 8.17499 0.465379C8.26246 0.607615 8.3083 0.769052 8.30785 0.933301V2.59879C10.3847 2.59879 16.6154 2.59879 18 13C14.5385 7.14932 8.30785 7.7994 8.30785 7.7994V9.46489C8.30785 10.193 7.46879 10.6324 6.81388 10.271V10.2697Z" fill="#ADADBF"/>
</svg>
