<svg width="21" height="21" viewBox="0 0 21 21" fill="none" xmlns="http://www.w3.org/2000/svg">
<path d="M20.1254 8.0022C20.0355 8.26462 20.0319 8.54503 19.9744 8.81464C19.3489 11.7085 17.0733 13.9661 14.1759 14.4982C11.9434 14.908 9.9303 14.3831 8.15083 12.9739C8.12207 12.9488 8.08612 12.9308 8.05736 12.9056C7.91357 12.7618 7.74461 12.6468 7.62598 12.4814C7.69068 12.4095 7.75539 12.3376 7.8201 12.2657C8.01782 12.05 8.25149 11.8739 8.42045 11.633C8.44202 11.6402 8.46718 11.6474 8.48875 11.6546C8.51751 11.687 8.54627 11.7265 8.57862 11.7553C10.0022 13.0602 11.6702 13.6138 13.5899 13.3766C15.1752 13.1824 16.4838 12.4563 17.5011 11.2376C18.7414 9.74931 19.1799 8.03096 18.8276 6.13286C18.6012 4.92138 18.0475 3.87168 17.1596 3.00531C17.1524 2.98374 17.1416 2.95857 17.1344 2.93701C17.2099 2.90825 17.2531 2.83994 17.3106 2.78961C17.5299 2.58471 17.7276 2.34385 17.9721 2.15332C17.9972 2.17489 18.0224 2.19286 18.0475 2.21443C19.029 3.221 19.6617 4.41091 19.9708 5.78056C20.0355 6.06096 20.0355 6.35574 20.1254 6.63255C20.1254 7.0891 20.1254 7.54565 20.1254 8.0022Z" fill="white"/>
<path d="M8.41496 11.6366C8.246 11.8739 8.00874 12.0536 7.81462 12.2693C7.74991 12.3412 7.6852 12.4131 7.62049 12.485C7.4767 12.3376 7.3365 12.1903 7.1927 12.0429C6.65706 11.3706 6.21489 10.6445 5.91292 9.83561C4.49654 6.01065 6.5564 1.69679 10.4245 0.395437C10.8846 0.240857 11.352 0.125821 11.8337 0.0647079C11.9128 0.0539233 12.0063 0.0754926 12.0674 0C12.5383 0 13.0092 0 13.4837 0C13.6815 0.0862772 13.8972 0.0754926 14.1057 0.115036C15.6011 0.402627 16.8953 1.06768 17.9702 2.15334C17.7257 2.34386 17.528 2.58472 17.3015 2.79682C17.244 2.85074 17.2009 2.91905 17.1254 2.94421C17.0966 2.91905 17.0643 2.89748 17.0355 2.87231C15.9211 1.83339 14.6018 1.24743 13.0811 1.18631C11.1686 1.11441 9.55094 1.79385 8.24241 3.19945C6.47372 5.09755 6.14299 8.06692 7.43356 10.3209C7.71036 10.799 8.05188 11.2232 8.41496 11.6366Z" fill="white"/>
<path d="M0 17.6904C0.0754926 17.5287 0.186934 17.3993 0.312755 17.2734C1.77947 15.8139 3.24618 14.3508 4.71289 12.8877C5.07957 12.521 5.37076 12.521 5.74103 12.8877C5.84169 12.9883 5.94953 13.0854 6.05379 13.1825C6.20477 13.337 6.35216 13.4916 6.50315 13.6462C6.42046 13.6821 6.37014 13.7505 6.31262 13.8116C4.60864 15.5084 2.90826 17.2087 1.20429 18.9055C1.14317 18.9666 1.09644 19.0385 1.01376 19.0709C0.733357 18.7977 0.45655 18.5209 0.176149 18.2477C0.093467 18.1686 0.0647079 18.0571 0.00359489 17.9673C0 17.8738 0 17.7839 0 17.6904Z" fill="white"/>
<path d="M1.00684 19.0709C1.08952 19.0385 1.13985 18.9666 1.19736 18.9055C2.90134 17.2087 4.60172 15.5083 6.3057 13.8115C6.36681 13.7504 6.41714 13.6821 6.49623 13.6462C6.63643 13.7792 6.77663 13.9122 6.91683 14.0416C7.03905 14.1674 7.15768 14.2969 7.27991 14.4227C7.54593 14.6995 7.55672 15.041 7.2907 15.307C5.75927 16.842 4.22066 18.3735 2.68565 19.9049C2.44838 20.1421 2.11047 20.1637 1.8732 19.9444C1.57483 19.664 1.27645 19.38 1.00684 19.0709Z" fill="#C6C6C6"/>
<path d="M6.91977 14.0416C6.77957 13.9086 6.63937 13.7756 6.49917 13.6462C6.34818 13.4916 6.20079 13.337 6.0498 13.1824C6.44884 12.8193 6.82989 12.4383 7.19298 12.0428C7.33677 12.1902 7.47697 12.3376 7.62077 12.485C7.7394 12.6504 7.91195 12.7654 8.05216 12.9092C7.66031 13.2723 7.28285 13.6498 6.91977 14.0416Z" fill="white"/>
<path d="M17.1513 3.01251C18.0393 3.87888 18.5929 4.92859 18.8194 6.14006C19.1717 8.04176 18.7367 9.76011 17.4928 11.2448C16.4755 12.4635 15.167 13.186 13.5816 13.3838C11.6619 13.621 9.99392 13.0638 8.57034 11.7625C8.53799 11.7337 8.50923 11.6942 8.48047 11.6618C8.5272 11.6079 8.57034 11.5504 8.62067 11.5C11.4031 8.72119 14.1856 5.94234 16.9716 3.16709C17.0291 3.10957 17.0758 3.04127 17.1513 3.01251Z" fill="#C6C6C6"/>
<path d="M17.1514 3.01249C17.0759 3.04125 17.0291 3.10956 16.9716 3.16348C14.1892 5.94233 11.4067 8.71758 8.62428 11.4964C8.57395 11.5468 8.53082 11.6043 8.48408 11.6582C8.46251 11.651 8.43735 11.6438 8.41578 11.6366C8.0527 11.2232 7.71118 10.799 7.43438 10.3209C6.14022 8.0669 6.47454 5.10112 8.24323 3.19943C9.54817 1.79742 11.1659 1.11439 13.0819 1.18629C14.6062 1.24381 15.9219 1.83337 17.0363 2.87229C17.0651 2.89746 17.0974 2.91903 17.1262 2.94419C17.137 2.96576 17.1442 2.99092 17.1514 3.01249ZM12.5858 2.35463C12.3666 2.36901 12.0682 2.39417 11.7734 2.45888C10.3247 2.78961 9.22103 3.59486 8.4733 4.87464C8.04191 5.61519 7.837 6.42763 7.82622 7.28681C7.82262 7.63911 8.07067 7.88716 8.41218 7.88716C8.75729 7.88716 8.99815 7.6499 9.00534 7.2976C9.00894 7.16818 9.02332 7.03876 9.03769 6.90935C9.14914 5.84167 9.64523 4.9789 10.4864 4.32103C11.1587 3.79618 11.928 3.54454 12.78 3.53016C13.1934 3.52297 13.4666 3.17426 13.3659 2.78961C13.2868 2.49483 13.0568 2.35103 12.5858 2.35463Z" fill="white"/>
<path d="M12.5858 2.35468C13.0604 2.35109 13.2868 2.49488 13.3659 2.78966C13.4666 3.17431 13.1934 3.52302 12.78 3.53021C11.928 3.54459 11.1587 3.79982 10.4864 4.32108C9.64163 4.97895 9.14913 5.84172 9.03769 6.9094C9.02331 7.03882 9.00893 7.16823 9.00533 7.29765C8.99455 7.64995 8.75728 7.8908 8.41218 7.88721C8.07426 7.88721 7.82262 7.63916 7.82621 7.28686C7.8334 6.42769 8.03831 5.61884 8.47329 4.87469C9.22103 3.59492 10.3247 2.78966 11.7734 2.45893C12.0646 2.39422 12.363 2.36906 12.5858 2.35468Z" fill="#2C2F36"/>
</svg>
