<svg width="16" height="15" viewBox="0 0 16 15" fill="none" xmlns="http://www.w3.org/2000/svg">
<path d="M8.28956e-08 14.5259C0.107815 15.0128 0.572626 15.0888 0.942149 14.9155C5.79739 12.6381 10.658 10.3724 15.5191 8.10722C15.7812 7.98504 15.9973 7.83255 16 7.51218C16.0027 7.19182 15.7911 7.0348 15.5276 6.91217C10.6576 4.64199 5.78889 2.3691 0.919783 0.0966522C0.580681 -0.0617217 0.316736 -0.0268793 0.130633 0.211587C0.0747124 0.283082 0.0429495 0.374033 0.000449907 0.456388C0.000449894 0.530144 0.000449881 0.603902 0.000449868 0.677659C0.0697913 0.798928 0.127054 0.929247 0.209369 1.04056C1.69909 3.05463 3.19194 5.06689 4.68435 7.07959C4.78993 7.22168 4.89416 7.36512 4.99885 7.5072C4.96127 7.56015 4.93219 7.60313 4.90087 7.64522C3.35478 9.72897 1.80869 11.8123 0.265734 13.8978C0.16463 14.0345 0.0881308 14.1897 1.16046e-07 14.3363C1.04969e-07 14.3996 9.38929e-08 14.463 8.28956e-08 14.5259Z" fill="white"/>
</svg>
