<svg width="21" height="14" viewBox="0 0 21 14" fill="none" xmlns="http://www.w3.org/2000/svg">
<path d="M20.4044 9.94793C20.3637 10.314 20.3434 10.6903 20.2773 11.0514C20.1908 11.5141 20.1196 11.987 19.9569 12.4192C19.662 13.2124 19.0162 13.5938 18.1874 13.4921C17.9484 13.4616 17.7043 13.3497 17.4907 13.2226C16.7483 12.7701 16.1331 12.1599 15.5381 11.5344C15.1771 11.1581 14.8313 10.7615 14.4805 10.37C14.1856 10.0395 13.8194 9.86657 13.3771 9.86657C11.2668 9.86657 9.1515 9.86657 7.04127 9.86657C6.58363 9.86657 6.20734 10.0445 5.90733 10.3903C5.1446 11.27 4.36152 12.1294 3.44624 12.8514C3.2581 12.9989 3.05979 13.1311 2.86148 13.2633C2.12417 13.7565 0.969895 13.543 0.502084 12.5667C0.283433 12.109 0.19699 11.6209 0.130886 11.1276C-0.148783 9.0174 0.0139337 6.94276 0.674971 4.91388C1.02583 3.83588 1.50381 2.81382 2.16485 1.89345C3.47675 0.062885 5.35308 -0.465945 7.42772 0.418828C7.81417 0.581545 8.18537 0.800196 8.54131 1.02393C8.93285 1.27309 9.34981 1.41547 9.81254 1.41547C10.0566 1.41547 10.3058 1.41038 10.5498 1.41547C11.0533 1.42564 11.4956 1.27309 11.9126 0.993422C12.6804 0.469677 13.5245 0.123904 14.4551 0.0323756C15.889 -0.110002 17.0382 0.439168 17.9484 1.51717C18.8382 2.57991 19.3976 3.82571 19.8095 5.1427C20.1298 6.15968 20.3129 7.20209 20.3739 8.26992C20.379 8.3411 20.3942 8.41229 20.4095 8.48348C20.4044 8.96655 20.4044 9.4547 20.4044 9.94793ZM4.93103 5.99696C4.93103 6.39359 4.9412 6.77495 4.92595 7.15124C4.92086 7.30378 4.9768 7.38514 5.10392 7.44616C5.39884 7.59362 5.70394 7.59362 6.01412 7.5021C6.33447 7.40548 6.34464 7.39023 6.34464 7.06479C6.34464 6.71394 6.34464 6.36816 6.34464 6.00205C6.77685 6.00205 7.18364 6.00713 7.58535 5.99696C7.65146 5.99696 7.76332 5.95629 7.77349 5.91561C7.84977 5.69187 7.94638 5.45797 7.9413 5.22914C7.93621 5.02575 7.8396 4.79693 7.71756 4.62913C7.65654 4.54777 7.43789 4.57828 7.29043 4.57828C6.9955 4.57319 6.70058 4.57828 6.39548 4.57828C6.39548 4.15115 6.40057 3.74944 6.3904 3.35282C6.3904 3.28671 6.32938 3.1901 6.27345 3.16976C5.91242 3.0223 5.54122 3.01213 5.15985 3.10874C5.01748 3.14434 4.96154 3.21552 4.96663 3.37316C4.9768 3.76978 4.97171 4.1664 4.97171 4.57828C4.5395 4.57828 4.12762 4.57319 3.71574 4.58336C3.64455 4.58336 3.54286 4.64947 3.51235 4.71557C3.34454 5.0766 3.35471 5.4478 3.49201 5.81899C3.54286 5.9512 3.61913 6.01222 3.77168 6.00713C4.15813 5.99188 4.53441 5.99696 4.93103 5.99696ZM18.0196 5.01049C18.0196 4.40031 17.5314 3.90707 16.9212 3.90707C16.311 3.90707 15.8178 4.39522 15.8178 5.00541C15.8127 5.62577 16.311 6.12409 16.9263 6.119C17.5314 6.119 18.0196 5.62068 18.0196 5.01049ZM15.2636 3.38841C15.2686 2.76805 14.7754 2.26973 14.155 2.27482C13.5499 2.2799 13.0669 2.75788 13.0567 3.3579C13.0465 3.98334 13.5347 4.48166 14.155 4.48675C14.7652 4.48675 15.2636 3.9986 15.2636 3.38841ZM15.2636 6.41901C15.2636 5.80882 14.7703 5.32067 14.1601 5.32067C13.5449 5.32067 13.0618 5.80374 13.0567 6.41901C13.0567 7.04445 13.5449 7.53261 14.1703 7.52752C14.7856 7.52244 15.2686 7.03428 15.2636 6.41901Z" fill="white"/>
<path d="M4.93058 5.99701C4.53396 5.99701 4.15768 5.98684 3.7814 6.00209C3.62885 6.00718 3.55257 5.94616 3.50173 5.81395C3.35935 5.44275 3.35426 5.07156 3.52207 4.71053C3.55257 4.64951 3.65427 4.58341 3.72546 4.57832C4.13734 4.56815 4.54413 4.57324 4.98143 4.57324C4.98143 4.16136 4.9916 3.76474 4.97635 3.36811C4.97126 3.21048 5.0272 3.14438 5.16957 3.1037C5.54586 3.002 5.92214 3.01217 6.28317 3.16472C6.3391 3.19014 6.40012 3.28676 6.40012 3.34777C6.41029 3.7444 6.4052 4.14102 6.4052 4.57324C6.70521 4.57324 7.00522 4.56815 7.30015 4.57324C7.44761 4.57832 7.66626 4.54781 7.72728 4.62408C7.8544 4.79189 7.94593 5.01562 7.95101 5.2241C7.9561 5.45292 7.85949 5.68683 7.78321 5.91056C7.76796 5.95633 7.66117 5.99192 7.59507 5.99192C7.18828 6.00209 6.78657 5.99701 6.35436 5.99701C6.35436 6.35804 6.35436 6.70889 6.35436 7.05975C6.35436 7.38519 6.34418 7.40553 6.02384 7.49705C5.71366 7.58858 5.40856 7.58858 5.11364 7.44112C4.98652 7.3801 4.93058 7.29874 4.93567 7.1462C4.94075 6.775 4.93058 6.39872 4.93058 5.99701Z" fill="#2C2F36"/>
<path d="M18.0192 5.01053C18.0192 5.62072 17.531 6.11395 16.9259 6.11904C16.3107 6.12412 15.8123 5.6258 15.8174 5.00544C15.8225 4.39526 16.3107 3.9071 16.9208 3.9071C17.531 3.91219 18.0192 4.40034 18.0192 5.01053Z" fill="#2C2F36"/>
<path d="M15.2635 3.38835C15.2584 3.99345 14.7652 4.48669 14.155 4.48669C13.5397 4.48669 13.0516 3.98328 13.0567 3.35784C13.0668 2.75274 13.5499 2.27476 14.155 2.27476C14.7754 2.26967 15.2686 2.76799 15.2635 3.38835Z" fill="#2C2F36"/>
<path d="M15.2635 6.41902C15.2635 7.03429 14.7855 7.52244 14.1702 7.52753C13.5448 7.53261 13.0566 7.04446 13.0566 6.41902C13.0566 5.80374 13.5448 5.32068 14.1601 5.32068C14.7753 5.32068 15.2635 5.80883 15.2635 6.41902Z" fill="#2C2F36"/>
</svg>
