<svg width="6" height="6" viewBox="0 0 6 6" fill="none" xmlns="http://www.w3.org/2000/svg">
<path d="M2.91386 0.139587C2.91386 0.487743 2.84529 0.832487 2.71205 1.15414C2.57882 1.4758 2.38353 1.76806 2.13735 2.01424C1.89117 2.26043 1.59891 2.45571 1.27725 2.58894C0.9556 2.72217 0.610851 2.79075 0.262695 2.79075C0.610851 2.79075 0.9556 2.85932 1.27725 2.99255C1.59891 3.12579 1.89117 3.32108 2.13735 3.56726C2.38353 3.81344 2.57882 4.1057 2.71205 4.42735C2.84529 4.74901 2.91386 5.09376 2.91386 5.44192C2.91386 4.73878 3.19318 4.06445 3.69037 3.56726C4.18756 3.07007 4.86189 2.79075 5.56502 2.79075C4.86189 2.79075 4.18756 2.51143 3.69037 2.01424C3.19318 1.51705 2.91386 0.84272 2.91386 0.139587Z" fill="white"/>
</svg>
