<svg width="10" height="11" viewBox="0 0 10 11" fill="none" xmlns="http://www.w3.org/2000/svg">
<path d="M4.90223 0.906982C4.90223 2.13746 4.41342 3.31755 3.54334 4.18763C2.67326 5.05771 1.49318 5.54652 0.262695 5.54652C1.49318 5.54652 2.67326 6.03533 3.54334 6.90541C4.41342 7.77549 4.90223 8.95558 4.90223 10.1861C4.90223 9.57679 5.02224 8.97348 5.2554 8.41059C5.48855 7.8477 5.8303 7.33623 6.26113 6.90541C6.69195 6.47459 7.20341 6.13284 7.7663 5.89968C8.3292 5.66652 8.9325 5.54652 9.54177 5.54652C8.9325 5.54652 8.3292 5.42652 7.7663 5.19336C7.20341 4.9602 6.69195 4.61845 6.26113 4.18763C5.8303 3.75681 5.48855 3.24536 5.2554 2.68246C5.02224 2.11957 4.90223 1.51626 4.90223 0.906982Z" fill="white"/>
</svg>
