<svg width="14" height="14" viewBox="0 0 14 14" fill="none" xmlns="http://www.w3.org/2000/svg">
<g opacity="0.6">
<path d="M8.14092 6.65051C9.51178 10.1531 10.2122 13.2163 9.70086 13.4915C9.18948 13.7668 7.66606 11.1506 6.29305 7.648C4.92005 4.14542 4.22388 1.08224 4.73312 0.806984C5.24236 0.531727 6.77006 3.14793 8.14092 6.65051Z" fill="url(#paint0_radial_601_1557)"/>
<path d="M6.56501 5.94648C9.97772 4.37423 12.9623 3.57456 13.2305 4.16016C13.4987 4.74576 10.9521 6.49025 7.53936 8.06005C4.12665 9.62985 1.14207 10.432 0.873873 9.84637C0.605679 9.26077 3.1523 7.51628 6.56501 5.94648Z" fill="url(#paint1_radial_601_1557)"/>
<path d="M6.0907 6.77647C7.39476 3.25304 8.9375 0.578481 9.5354 0.799926C10.1333 1.02137 9.5723 4.06009 8.2707 7.58598C6.96909 11.1119 5.4239 13.784 4.826 13.5625C4.2281 13.3411 4.7891 10.295 6.0907 6.77647Z" fill="url(#paint2_radial_601_1557)"/>
<path d="M7.08792 6.72084C10.5943 8.18347 13.2583 9.91981 13.0355 10.5917C12.8127 11.2635 9.79113 10.6331 6.28479 9.16776C2.77845 7.70237 0.114418 5.96879 0.337237 5.29693C0.560057 4.62506 3.58158 5.25546 7.08792 6.72084Z" fill="url(#paint3_radial_601_1557)"/>
</g>
<defs>
<radialGradient id="paint0_radial_601_1557" cx="0" cy="0" r="1" gradientUnits="userSpaceOnUse" gradientTransform="translate(7.19744 7.26829) rotate(-28.4052) scale(1.04298 6.71144)">
<stop stop-color="white"/>
<stop offset="1" stop-color="white" stop-opacity="0"/>
</radialGradient>
<radialGradient id="paint1_radial_601_1557" cx="0" cy="0" r="1" gradientUnits="userSpaceOnUse" gradientTransform="translate(7.2773 7.05897) rotate(-114.71) scale(1.15643 6.75357)">
<stop stop-color="white"/>
<stop offset="1" stop-color="white" stop-opacity="0"/>
</radialGradient>
<radialGradient id="paint2_radial_601_1557" cx="0" cy="0" r="1" gradientUnits="userSpaceOnUse" gradientTransform="translate(7.41976 8.3459) rotate(-159.578) scale(1.15996 6.75405)">
<stop stop-color="white"/>
<stop offset="1" stop-color="white" stop-opacity="0"/>
</radialGradient>
<radialGradient id="paint3_radial_601_1557" cx="0" cy="0" r="1" gradientUnits="userSpaceOnUse" gradientTransform="translate(6.68636 7.14903) rotate(-66.1962) scale(1.67835 8.88794)">
<stop stop-color="white"/>
<stop offset="1" stop-color="white" stop-opacity="0"/>
</radialGradient>
</defs>
</svg>
