<svg id="Layer_2" height="512" viewBox="0 0 24 24" width="512" xmlns="http://www.w3.org/2000/svg" data-name="Layer 2"><path d="m18.18 22.511a1 1 0 0 1 -.465-.115l-5.715-3.005-5.715 3.009a1 1 0 0 1 -1.451-1.054l1.091-6.364-4.625-4.511a1 1 0 0 1 .554-1.706l6.39-.928 2.856-5.79a1.041 1.041 0 0 1 1.794 0l2.857 5.79 6.39.928a1 1 0 0 1 .554 1.706l-4.623 4.507 1.091 6.364a1 1 0 0 1 -.986 1.169zm-6.18-5.25a.991.991 0 0 1 .465.115l4.387 2.307-.838-4.883a1 1 0 0 1 .288-.885l3.549-3.459-4.9-.712a1 1 0 0 1 -.754-.548l-2.197-4.447-2.193 4.444a1 1 0 0 1 -.754.548l-4.9.712 3.547 3.459a1 1 0 0 1 .288.885l-.838 4.886 4.387-2.307a.991.991 0 0 1 .463-.115z"/></svg>