<svg id="Capa_1" enable-background="new 0 0 512 512" height="512" viewBox="0 0 512 512" width="512" xmlns="http://www.w3.org/2000/svg"><g><g fill="#fed843"><path d="m0 211h147.239v30h-147.239z"/><path d="m30 271h107v30h-107z"/><path d="m60 331h87.239v30h-87.239z"/></g><path d="m142.861 126.229h29.997v54.303h-29.997z" fill="#474f54" transform="matrix(.64 -.768 .768 .64 -61.028 176.475)"/><path d="m448.989 138.382h54.303v29.997h-54.303z" fill="#32393f" transform="matrix(.769 -.64 .64 .769 12.051 340.078)"/><path d="m317 31c-24.814 0-45 20.186-45 45s20.186 45 45 45 45-20.186 45-45-20.186-45-45-45zm0 60c-8.276 0-15-6.724-15-15s6.724-15 15-15 15 6.724 15 15-6.724 15-15 15z" fill="#474f54"/><path d="m362 76c0-24.814-20.186-45-45-45v30c8.276 0 15 6.724 15 15s-6.724 15-15 15v30c24.814 0 45-20.186 45-45z" fill="#32393f"/><circle cx="317" cy="286" fill="#474f54" r="195"/><path d="m512 286c0-107.52-87.48-195-195-195v390c107.52 0 195-87.48 195-195z" fill="#32393f"/><circle cx="317" cy="286" fill="#ececf1" r="165"/><path d="m482 286c0-90.981-74.019-165-165-165v330c90.981 0 165-74.019 165-165z" fill="#d8d8d8"/><path d="m317 151h-15v142.5l15 11.25 98.95 74.209 8.994-11.968c17.696-23.525 27.056-51.533 27.056-80.991 0-74.443-60.557-135-135-135z" fill="#fabe2c"/><path d="m424.944 366.991c17.696-23.525 27.056-51.533 27.056-80.991 0-74.443-60.557-135-135-135v153.75l98.95 74.209z" fill="#ff9100"/></g></svg>