<svg id="Icons" height="512" viewBox="0 0 64 64" width="512" xmlns="http://www.w3.org/2000/svg" xmlns:xlink="http://www.w3.org/1999/xlink"><linearGradient id="linear-gradient" gradientUnits="userSpaceOnUse" x1="32" x2="32" y1="3" y2="61"><stop offset="0" stop-color="#f2756b"/><stop offset="1" stop-color="#c44747"/></linearGradient><linearGradient id="linear-gradient-2" gradientUnits="userSpaceOnUse" x1="32" x2="32" y1="10" y2="54"><stop offset="0" stop-color="#e4e9f4"/><stop offset="1" stop-color="#bccbe2"/></linearGradient><linearGradient id="linear-gradient-3" x1="32" x2="32" xlink:href="#linear-gradient" y1="22" y2="42"/><path d="m31.463 60.923a1.905 1.905 0 0 0 1.074 0 35.956 35.956 0 0 0 16.629-10.243c11.622-12.761 10.1-30.044 9.285-35.4a1.988 1.988 0 0 0 -1.626-1.673 54.843 54.843 0 0 1 -10.825-3.039 55.241 55.241 0 0 1 -12.819-7.168 1.959 1.959 0 0 0 -2.362 0 55.241 55.241 0 0 1 -12.819 7.168 54.843 54.843 0 0 1 -10.825 3.038 1.988 1.988 0 0 0 -1.626 1.673c-.811 5.357-2.337 22.64 9.285 35.4a35.956 35.956 0 0 0 16.629 10.244z" fill="url(#linear-gradient)"/><path d="m32.617 53.894a1.853 1.853 0 0 1 -1.234 0 29.782 29.782 0 0 1 -12.134-7.91c-7.643-8.335-8.511-19.251-8.195-25.809a2.082 2.082 0 0 1 1.557-1.935 60.983 60.983 0 0 0 7.575-2.416 61.181 61.181 0 0 0 10.771-5.513 1.9 1.9 0 0 1 2.086 0 61.228 61.228 0 0 0 10.772 5.514 61.132 61.132 0 0 0 7.574 2.415 2.082 2.082 0 0 1 1.557 1.935c.316 6.558-.552 17.474-8.195 25.809a29.782 29.782 0 0 1 -12.134 7.91z" fill="url(#linear-gradient-2)"/><path d="m32.707 36 5.323 5.323a2.326 2.326 0 0 0 3.289 0 2.326 2.326 0 0 0 0-3.289l-5.319-5.327a1 1 0 0 1 0-1.414l5.323-5.323a2.326 2.326 0 0 0 0-3.289 2.326 2.326 0 0 0 -3.289 0l-5.327 5.319a1 1 0 0 1 -1.414 0l-5.323-5.319a2.326 2.326 0 0 0 -3.289 0 2.326 2.326 0 0 0 0 3.289l5.319 5.323a1 1 0 0 1 0 1.414l-5.319 5.323a2.326 2.326 0 0 0 0 3.289 2.326 2.326 0 0 0 3.289 0l5.323-5.319a1 1 0 0 1 1.414 0z" fill="url(#linear-gradient-3)"/></svg>